<!-- Generated by readme-aura https://github.com/collectioneur/readme-aura -->
<svg width="860" height="140" viewBox="0 0 860 140" xmlns="http://www.w3.org/2000/svg"><defs><clipPath id="satori_bc-id"><path x="0" y="0" width="860" height="140" d="M16,0 h828 a16,16 0 0 1 16,16 v108 a16,16 0 0 1 -16,16 h-828 a16,16 0 0 1 -16,-16 v-108 a16,16 0 0 1 16,-16"/></clipPath></defs><clipPath id="satori_cp-id"><path x="0" y="0" width="860" height="140" d="M16,0 h828 a16,16 0 0 1 16,16 v108 a16,16 0 0 1 -16,16 h-828 a16,16 0 0 1 -16,-16 v-108 a16,16 0 0 1 16,-16"/></clipPath><mask id="satori_om-id"><rect x="1" y="1" width="858" height="138" fill="#fff"/><path width="860" height="140" fill="none" stroke="#000" stroke-width="2" d="M4.686,4.686 A16,16 0 0 1 16,0 h828 a16,16 0 0 1 16,16 v108 a16,16 0 0 1 -16,16 h-828 a16,16 0 0 1 -16,-16 v-108 A16,16 0 0 1 4.686,4.686"/></mask><path x="0" y="0" width="860" height="140" fill="#08080c" d="M16,0 h828 a16,16 0 0 1 16,16 v108 a16,16 0 0 1 -16,16 h-828 a16,16 0 0 1 -16,-16 v-108 a16,16 0 0 1 16,-16"/><path width="860" height="140" clip-path="url(#satori_bc-id)" fill="none" stroke="rgba(110,80,220,0.18)" stroke-width="2" d="M4.686,4.686 A16,16 0 0 1 16,0 h828 a16,16 0 0 1 16,16 v108 a16,16 0 0 1 -16,16 h-828 a16,16 0 0 1 -16,-16 v-108 A16,16 0 0 1 4.686,4.686"/><clipPath id="satori_cp-id-0" clip-path="url(#satori_cp-id)"><rect x="1" y="1" width="860" height="140"/></clipPath><mask id="satori_om-id-0"><rect x="1" y="1" width="860" height="140" fill="#fff" mask="url(#satori_om-id)"/></mask><svg x="1" y="1" width="860" height="140" preserveAspectRatio="none" clip-path="url(#satori_cp-id-0)" mask="url(#satori_om-id-0)"><defs><radialGradient id="g1" cx="50%" cy="50%" r="50%"><stop offset="0%" stop-color="rgba(110,20,210,0.65)"></stop><stop offset="45%" stop-color="rgba(80,15,170,0.28)"></stop><stop offset="70%" stop-color="rgba(80,15,170,0)"></stop></radialGradient><radialGradient id="g2" cx="50%" cy="50%" r="50%"><stop offset="0%" stop-color="rgba(40,70,255,0.55)"></stop><stop offset="45%" stop-color="rgba(20,50,200,0.22)"></stop><stop offset="70%" stop-color="rgba(20,50,200,0)"></stop></radialGradient><radialGradient id="g3" cx="50%" cy="50%" r="50%"><stop offset="0%" stop-color="rgba(0,140,255,0.42)"></stop><stop offset="70%" stop-color="rgba(0,140,255,0)"></stop></radialGradient><radialGradient id="g4" cx="50%" cy="50%" r="50%"><stop offset="0%" stop-color="rgba(0,195,235,0.30)"></stop><stop offset="70%" stop-color="rgba(0,195,235,0)"></stop></radialGradient><radialGradient id="g5" cx="50%" cy="50%" r="50%"><stop offset="0%" stop-color="rgba(100,30,210,0.40)"></stop><stop offset="70%" stop-color="rgba(100,30,210,0)"></stop></radialGradient></defs><ellipse id="glow-1" cx="710" cy="150" rx="210" ry="150" fill="url(#g1)"></ellipse><ellipse id="glow-2" cx="550" cy="140" rx="190" ry="140" fill="url(#g2)"></ellipse><ellipse id="glow-3" cx="400" cy="130" rx="170" ry="130" fill="url(#g3)"></ellipse><ellipse id="glow-4" cx="250" cy="140" rx="150" ry="120" fill="url(#g4)"></ellipse><ellipse id="glow-5" cx="100" cy="150" rx="130" ry="110" fill="url(#g5)"></ellipse><style>

         @keyframes float-slow {
           0%, 100% { transform: translateX(0px); opacity: 0.8; }
           50% { transform: translateX(350px); opacity: 1.2; }
         }
         @keyframes float-medium {
           0%, 100% { transform: translateX(0px); opacity: 0.7; }
           50% { transform: translateX(-250px); opacity: 1.1; }
         }
         @keyframes float-fast {
           0%, 100% { transform: translateX(0px); opacity: 0.9; }
           50% { transform: translateX(200px); opacity: 0.6; }
         }
         @keyframes float-diagonal {
           0%, 100% { transform: translate(0px, 0px); opacity: 0.75; }
           50% { transform: translate(120px, 30px); opacity: 1.0; }
         }
         @keyframes float-wave {
           0%, 100% { transform: translateX(0px); opacity: 0.65; }
           33% { transform: translateX(-160px); opacity: 0.9; }
           66% { transform: translateX(80px); opacity: 1.0; }
         }
         @keyframes float-pulse {
           0%, 100% { transform: scale(1); opacity: 0.8; }
           50% { transform: scale(1.3); opacity: 0.4; }
         }
         #glow-1 { animation: float-slow 8s ease-in-out infinite; }
         #glow-2 { animation: float-medium 12s ease-in-out infinite; }
         #glow-3 { animation: float-fast 9s ease-in-out infinite; }
         #glow-4 { animation: float-diagonal 10s ease-in-out infinite; }
         #glow-5 { animation: float-wave 14s ease-in-out infinite; }
       
</style>
</svg><mask id="satori_om-id-0-0"><rect x="1" y="1" width="0" height="140" fill="#fff" mask="url(#satori_om-id)"/></mask><mask id="satori_om-id-0-0-0"><rect x="1" y="1" width="0" height="140" fill="#fff" mask="url(#satori_om-id)"/></mask><mask id="satori_om-id-0-0-0-0"><rect x="1" y="1" width="0" height="140" fill="#fff" mask="url(#satori_om-id)"/></mask><mask id="satori_om-id-0-0-0-1"><rect x="1" y="1" width="0" height="140" fill="#fff" mask="url(#satori_om-id)"/></mask><mask id="satori_om-id-0-0-0-2"><rect x="1" y="1" width="0" height="140" fill="#fff" mask="url(#satori_om-id)"/></mask><mask id="satori_om-id-0-0-1"><rect x="1" y="1" width="0" height="140" fill="#fff" mask="url(#satori_om-id)"/></mask><mask id="satori_om-id-0-0-1-0"><rect x="1" y="1" width="0" height="140" fill="#fff" mask="url(#satori_om-id)"/></mask><mask id="satori_om-id-0-0-1-1"><rect x="1" y="1" width="0" height="140" fill="#fff" mask="url(#satori_om-id)"/></mask><mask id="satori_om-id-0-0-1-2"><rect x="1" y="1" width="0" height="140" fill="#fff" mask="url(#satori_om-id)"/></mask><mask id="satori_om-id-0-0-2"><rect x="1" y="1" width="0" height="140" fill="#fff" mask="url(#satori_om-id)"/></mask><mask id="satori_om-id-0-0-2-0"><rect x="1" y="1" width="0" height="140" fill="#fff" mask="url(#satori_om-id)"/></mask><mask id="satori_om-id-0-0-2-1"><rect x="1" y="1" width="0" height="140" fill="#fff" mask="url(#satori_om-id)"/></mask><mask id="satori_om-id-0-0-3"><rect x="1" y="1" width="0" height="140" fill="#fff" mask="url(#satori_om-id)"/></mask><mask id="satori_om-id-0-0-3-0"><rect x="1" y="1" width="0" height="140" fill="#fff" mask="url(#satori_om-id)"/></mask><mask id="satori_om-id-0-0-3-1"><rect x="1" y="1" width="0" height="140" fill="#fff" mask="url(#satori_om-id)"/></mask><mask id="satori_om-id-0-0-4"><rect x="1" y="1" width="0" height="140" fill="#fff" mask="url(#satori_om-id)"/></mask><mask id="satori_om-id-0-0-4-0"><rect x="1" y="1" width="0" height="140" fill="#fff" mask="url(#satori_om-id)"/></mask><mask id="satori_om-id-0-0-4-1"><rect x="1" y="1" width="0" height="140" fill="#fff" mask="url(#satori_om-id)"/></mask><mask id="satori_om-id-0-1"><rect x="1" y="1" width="0" height="140" fill="#fff" mask="url(#satori_om-id)"/></mask><mask id="satori_om-id-0-2"><rect x="1" y="1" width="0" height="140" fill="#fff" mask="url(#satori_om-id)"/></mask><mask id="satori_om-id-0-3"><rect x="1" y="1" width="0" height="140" fill="#fff" mask="url(#satori_om-id)"/></mask><mask id="satori_om-id-0-4"><rect x="1" y="1" width="0" height="140" fill="#fff" mask="url(#satori_om-id)"/></mask><mask id="satori_om-id-0-5"><rect x="1" y="1" width="0" height="140" fill="#fff" mask="url(#satori_om-id)"/></mask><defs><clipPath id="satori_bc-id-1" clip-path="url(#satori_cp-id)"><rect x="1" y="30" width="270" height="80"/></clipPath></defs><mask id="satori_om-id-1"><rect x="1" y="30" width="269" height="80" fill="#fff" mask="url(#satori_om-id)"/><path width="270" height="80" fill="none" stroke="#000" stroke-width="2" d="M271,30 A0,0 0 0 1 271,30 v80 A0,0 0 0 1 271,110"/></mask><path width="270" height="80" clip-path="url(#satori_bc-id-1)" fill="none" stroke="rgba(255,255,255,0.06)" stroke-width="2" d="M271,30 A0,0 0 0 1 271,30 v80 A0,0 0 0 1 271,110"/><mask id="satori_om-id-1-0"><rect x="116" y="46" width="39" height="30" fill="#fff" mask="url(#satori_om-id)"/></mask><g mask="url(#satori_om-id)" clip-path="url(#satori_cp-id)"><path fill="#a78bfa" d="M125.7 72.3L125.7 72.3Q123.3 72.3 121.4 71.5Q119.6 70.7 118.5 69.2Q117.5 67.8 117.5 65.9L117.5 65.9L121.9 65.9Q122.0 66.7 122.5 67.3Q123.0 67.9 123.8 68.3Q124.6 68.6 125.7 68.6L125.7 68.6Q126.8 68.6 127.6 68.2Q128.4 67.8 128.9 67.2Q129.3 66.5 129.3 65.6L129.3 65.6Q129.3 64.7 128.8 64.0Q128.3 63.3 127.4 62.9Q126.5 62.5 125.3 62.5L125.3 62.5L123.2 62.5L123.2 59.2L125.3 59.2Q126.3 59.2 127.1 58.8Q127.9 58.5 128.4 57.8Q128.9 57.2 128.9 56.3L128.9 56.3Q128.9 55.4 128.5 54.8Q128.1 54.2 127.4 53.8Q126.6 53.5 125.7 53.5L125.7 53.5Q124.7 53.5 124.0 53.8Q123.2 54.1 122.7 54.8Q122.2 55.4 122.2 56.2L122.2 56.2L117.9 56.2Q117.9 54.4 118.9 52.9Q120.0 51.5 121.7 50.7Q123.5 49.9 125.7 49.9L125.7 49.9Q128.0 49.9 129.7 50.7Q131.3 51.5 132.3 52.9Q133.2 54.3 133.2 56.0L133.2 56.0Q133.2 57.8 132.1 59.1Q130.9 60.3 129.1 60.6L129.1 60.6L129.1 60.8Q130.7 61.0 131.8 61.7Q132.9 62.4 133.4 63.5Q134.0 64.5 134.0 65.9L134.0 65.9Q134.0 67.7 132.9 69.2Q131.8 70.6 130.0 71.5Q128.1 72.3 125.7 72.3ZM152.6 72L137.2 72L137.2 68.8L144.9 61.5Q145.9 60.6 146.6 59.8Q147.3 59.0 147.6 58.2Q148.0 57.5 148.0 56.6L148.0 56.6Q148.0 55.6 147.6 54.9Q147.1 54.2 146.4 53.8Q145.6 53.5 144.6 53.5L144.6 53.5Q143.6 53.5 142.8 53.9Q142.1 54.3 141.7 55.0Q141.3 55.8 141.3 56.9L141.3 56.9L137.0 56.9Q137.0 54.7 138.0 53.2Q138.9 51.6 140.7 50.7Q142.4 49.9 144.6 49.9L144.6 49.9Q147.0 49.9 148.7 50.7Q150.4 51.5 151.4 53.0Q152.3 54.4 152.3 56.3L152.3 56.3Q152.3 57.5 151.9 58.7Q151.4 59.9 150.2 61.4Q148.9 62.9 146.7 64.9L146.7 64.9L143.4 68.2L143.4 68.3L152.6 68.3L152.6 72Z "/></g><mask id="satori_om-id-1-1"><rect x="113" y="81" width="45" height="13" fill="#fff" mask="url(#satori_om-id)"/></mask><g mask="url(#satori_om-id)" clip-path="url(#satori_cp-id)"><path fill="rgba(200,195,225,0.45)" d="M115.4 92L113.7 92L113.7 84.0L116.8 84.0Q117.8 84.0 118.4 84.3Q119.0 84.6 119.4 85.2Q119.7 85.8 119.7 86.6Q119.7 87.4 119.4 88.0Q119.0 88.5 118.4 88.8L118.4 88.8Q118.3 88.9 118.3 88.9L118.3 88.9L120.0 92L118.2 92L116.6 89.1L115.4 89.1L115.4 92ZM115.4 85.4L115.4 87.8L116.5 87.8Q117.0 87.8 117.4 87.7Q117.7 87.5 117.9 87.3Q118.0 87.0 118.0 86.6L118.0 86.6Q118.0 86.2 117.9 85.9Q117.7 85.6 117.4 85.5Q117.0 85.4 116.5 85.4L116.5 85.4L115.4 85.4ZM127.8 92L122.4 92L122.4 84.0L127.8 84.0L127.8 85.4L124.1 85.4L124.1 87.3L127.5 87.3L127.5 88.6L124.1 88.6L124.1 90.6L127.8 90.6L127.8 92ZM132.3 92L130.6 92L130.6 84.0L133.8 84.0Q134.7 84.0 135.3 84.3Q135.9 84.7 136.3 85.3Q136.6 85.9 136.6 86.7L136.6 86.7Q136.6 87.5 136.3 88.1Q135.9 88.7 135.3 89.0Q134.6 89.4 133.7 89.4L133.7 89.4L132.3 89.4L132.3 92ZM132.3 85.4L132.3 88.1L133.5 88.1Q134.0 88.1 134.3 87.9Q134.6 87.7 134.8 87.4Q134.9 87.1 134.9 86.7Q134.9 86.3 134.8 86.0Q134.6 85.7 134.3 85.5Q134.0 85.4 133.4 85.4L133.4 85.4L132.3 85.4ZM142.8 92.1L142.8 92.1Q141.7 92.1 140.9 91.6Q140.0 91.1 139.5 90.2Q139.0 89.3 139.0 88.0L139.0 88.0Q139.0 86.7 139.5 85.8Q140.0 84.9 140.9 84.4Q141.7 83.9 142.8 83.9L142.8 83.9Q143.8 83.9 144.7 84.4Q145.5 84.9 146.0 85.8Q146.5 86.7 146.5 88.0L146.5 88.0Q146.5 89.3 146.0 90.2Q145.5 91.1 144.7 91.6Q143.8 92.1 142.8 92.1ZM142.8 90.7L142.8 90.7Q143.4 90.7 143.9 90.3Q144.3 90.0 144.6 89.5Q144.8 88.9 144.8 88.0L144.8 88.0Q144.8 87.1 144.6 86.5Q144.3 86.0 143.9 85.6Q143.4 85.3 142.8 85.3L142.8 85.3Q142.2 85.3 141.7 85.7Q141.2 86.0 141.0 86.6Q140.7 87.1 140.7 88.0L140.7 88.0Q140.7 88.9 141.0 89.4Q141.2 90.0 141.7 90.3Q142.2 90.7 142.8 90.7ZM152.2 92.1L152.2 92.1Q151.2 92.1 150.5 91.8Q149.8 91.5 149.4 90.9Q149.0 90.4 149.0 89.5L149.0 89.5L150.6 89.5Q150.6 89.9 150.8 90.2Q151.0 90.5 151.4 90.6Q151.7 90.7 152.2 90.7L152.2 90.7Q152.6 90.7 152.9 90.6Q153.2 90.5 153.4 90.2Q153.6 90.0 153.6 89.7L153.6 89.7Q153.6 89.4 153.4 89.3Q153.3 89.1 153.0 88.9Q152.7 88.8 152.2 88.7L152.2 88.7L151.3 88.5Q150.3 88.2 149.8 87.7Q149.2 87.2 149.2 86.3L149.2 86.3Q149.2 85.6 149.6 85.0Q150.0 84.5 150.6 84.2Q151.3 83.9 152.2 83.9L152.2 83.9Q153.1 83.9 153.7 84.2Q154.4 84.5 154.8 85.0Q155.1 85.6 155.1 86.3L155.1 86.3L153.6 86.3Q153.5 85.8 153.2 85.5Q152.8 85.3 152.2 85.3L152.2 85.3Q151.8 85.3 151.5 85.4Q151.2 85.5 151.0 85.7Q150.9 85.9 150.9 86.2L150.9 86.2Q150.9 86.5 151.0 86.7Q151.2 86.9 151.5 87.0Q151.8 87.1 152.1 87.2L152.1 87.2L152.9 87.4Q153.4 87.5 153.8 87.7Q154.2 87.9 154.6 88.2Q154.9 88.4 155.1 88.8Q155.3 89.2 155.3 89.7L155.3 89.7Q155.3 90.4 154.9 91.0Q154.5 91.5 153.8 91.8Q153.1 92.1 152.2 92.1Z "/></g><defs><clipPath id="satori_bc-id-2" clip-path="url(#satori_cp-id)"><rect x="271" y="30" width="271" height="80"/></clipPath></defs><mask id="satori_om-id-2"><rect x="271" y="30" width="270" height="80" fill="#fff" mask="url(#satori_om-id)"/><path width="271" height="80" fill="none" stroke="#000" stroke-width="2" d="M542,30 A0,0 0 0 1 542,30 v80 A0,0 0 0 1 542,110"/></mask><path width="271" height="80" clip-path="url(#satori_bc-id-2)" fill="none" stroke="rgba(255,255,255,0.06)" stroke-width="2" d="M542,30 A0,0 0 0 1 542,30 v80 A0,0 0 0 1 542,110"/><mask id="satori_om-id-2-0"><rect x="396" y="46" width="19" height="30" fill="#fff" mask="url(#satori_om-id)"/></mask><g mask="url(#satori_om-id)" clip-path="url(#satori_cp-id)"><path fill="#60a5fa" d="M405.2 72.3L405.2 72.3Q403.0 72.3 401.2 71.5Q399.5 70.6 398.4 69.2Q397.4 67.7 397.4 65.9L397.4 65.9L401.7 65.9Q401.8 66.7 402.2 67.4Q402.7 68.0 403.5 68.4Q404.3 68.7 405.2 68.7L405.2 68.7Q406.3 68.7 407.1 68.3Q408.0 67.8 408.5 66.9Q408.9 66.0 408.9 64.9L408.9 64.9Q408.9 63.7 408.5 62.8Q408.0 61.9 407.1 61.4Q406.3 60.9 405.1 60.9L405.1 60.9Q404.1 60.9 403.2 61.3Q402.3 61.7 401.8 62.3L401.8 62.3L397.8 61.6L398.9 50.2L412.1 50.2L412.1 53.9L402.6 53.9L402.0 59.4L402.1 59.4Q402.7 58.6 403.9 58.1Q405.0 57.6 406.4 57.6L406.4 57.6Q407.9 57.6 409.2 58.1Q410.4 58.6 411.3 59.6Q412.3 60.5 412.8 61.9Q413.3 63.2 413.3 64.7L413.3 64.7Q413.3 66.9 412.3 68.6Q411.2 70.3 409.4 71.3Q407.6 72.3 405.2 72.3Z "/></g><mask id="satori_om-id-2-1"><rect x="383" y="81" width="45" height="13" fill="#fff" mask="url(#satori_om-id)"/></mask><g mask="url(#satori_om-id)" clip-path="url(#satori_cp-id)"><path fill="rgba(200,195,225,0.45)" d="M386.7 92.1L386.7 92.1Q385.7 92.1 385.0 91.8Q384.3 91.5 383.9 90.9Q383.5 90.4 383.5 89.5L383.5 89.5L385.1 89.5Q385.1 89.9 385.3 90.2Q385.5 90.5 385.9 90.6Q386.2 90.7 386.6 90.7L386.6 90.7Q387.1 90.7 387.4 90.6Q387.7 90.5 387.9 90.2Q388.1 90.0 388.1 89.7L388.1 89.7Q388.1 89.4 387.9 89.3Q387.8 89.1 387.5 88.9Q387.2 88.8 386.7 88.7L386.7 88.7L385.8 88.5Q384.8 88.2 384.2 87.7Q383.7 87.2 383.7 86.3L383.7 86.3Q383.7 85.6 384.1 85.0Q384.5 84.5 385.1 84.2Q385.8 83.9 386.7 83.9L386.7 83.9Q387.6 83.9 388.2 84.2Q388.9 84.5 389.3 85.0Q389.6 85.6 389.6 86.3L389.6 86.3L388.1 86.3Q388.0 85.8 387.6 85.5Q387.3 85.3 386.7 85.3L386.7 85.3Q386.2 85.3 386.0 85.4Q385.7 85.5 385.5 85.7Q385.4 85.9 385.4 86.2L385.4 86.2Q385.4 86.5 385.5 86.7Q385.7 86.9 386.0 87.0Q386.3 87.1 386.6 87.2L386.6 87.2L387.4 87.4Q387.9 87.5 388.3 87.7Q388.7 87.9 389.1 88.2Q389.4 88.4 389.6 88.8Q389.7 89.2 389.7 89.7L389.7 89.7Q389.7 90.4 389.4 91.0Q389.0 91.5 388.3 91.8Q387.6 92.1 386.7 92.1ZM394.6 85.4L392.1 85.4L392.1 84.0L398.6 84.0L398.6 85.4L396.2 85.4L396.2 92L394.6 92L394.6 85.4ZM402.6 92L400.8 92L403.5 84.0L405.7 84.0L408.5 92L406.7 92L406.1 90.1L403.2 90.1L402.6 92ZM403.6 88.9L405.6 88.9L405.4 88.1Q405.2 87.4 404.9 86.5L404.9 86.5Q404.8 85.9 404.6 85.3L404.6 85.3Q404.4 85.9 404.3 86.5L404.3 86.5Q404.1 87.4 403.9 88.1L403.9 88.1L403.6 88.9ZM412.6 92L411.0 92L411.0 84.0L414.1 84.0Q415.0 84.0 415.7 84.3Q416.3 84.6 416.6 85.2Q417.0 85.8 417.0 86.6Q417.0 87.4 416.6 88.0Q416.3 88.5 415.6 88.8L415.6 88.8Q415.6 88.9 415.5 88.9L415.5 88.9L417.3 92L415.4 92L413.9 89.1L412.6 89.1L412.6 92ZM412.6 85.4L412.6 87.8L413.8 87.8Q414.3 87.8 414.6 87.7Q415.0 87.5 415.1 87.3Q415.3 87.0 415.3 86.6L415.3 86.6Q415.3 86.2 415.1 85.9Q415.0 85.6 414.6 85.5Q414.3 85.4 413.8 85.4L413.8 85.4L412.6 85.4ZM422.6 92.1L422.6 92.1Q421.7 92.1 421.0 91.8Q420.3 91.5 419.9 90.9Q419.5 90.4 419.4 89.5L419.4 89.5L421.0 89.5Q421.1 89.9 421.3 90.2Q421.5 90.5 421.8 90.6Q422.2 90.7 422.6 90.7L422.6 90.7Q423.1 90.7 423.4 90.6Q423.7 90.5 423.9 90.2Q424.1 90.0 424.1 89.7L424.1 89.7Q424.1 89.4 423.9 89.3Q423.8 89.1 423.4 88.9Q423.1 88.8 422.7 88.7L422.7 88.7L421.8 88.5Q420.8 88.2 420.2 87.7Q419.7 87.2 419.7 86.3L419.7 86.3Q419.7 85.6 420.0 85.0Q420.4 84.5 421.1 84.2Q421.8 83.9 422.7 83.9L422.7 83.9Q423.5 83.9 424.2 84.2Q424.9 84.5 425.2 85.0Q425.6 85.6 425.6 86.3L425.6 86.3L424.0 86.3Q424.0 85.8 423.6 85.5Q423.3 85.3 422.6 85.3L422.6 85.3Q422.2 85.3 421.9 85.4Q421.6 85.5 421.5 85.7Q421.3 85.9 421.3 86.2L421.3 86.2Q421.3 86.5 421.5 86.7Q421.7 86.9 422.0 87.0Q422.3 87.1 422.6 87.2L422.6 87.2L423.3 87.4Q423.8 87.5 424.3 87.7Q424.7 87.9 425.0 88.2Q425.4 88.4 425.5 88.8Q425.7 89.2 425.7 89.7L425.7 89.7Q425.7 90.4 425.4 91.0Q425.0 91.5 424.3 91.8Q423.6 92.1 422.6 92.1Z "/></g><mask id="satori_om-id-3"><rect x="542" y="30" width="317" height="80" fill="#fff" mask="url(#satori_om-id)"/></mask><mask id="satori_om-id-3-0"><rect x="654" y="46" width="93" height="30" fill="#fff" mask="url(#satori_om-id)"/></mask><g mask="url(#satori_om-id)" clip-path="url(#satori_cp-id)"><path fill="#f59e0b" d="M664.0 72.3L664.0 72.3Q662.4 72.3 660.8 71.7Q659.3 71.2 658.0 69.9Q656.8 68.7 656.1 66.7Q655.4 64.6 655.4 61.6L655.4 61.6Q655.4 58.8 656.0 56.7Q656.6 54.5 657.8 53.0Q658.9 51.5 660.5 50.7Q662.2 49.9 664.2 49.9L664.2 49.9Q666.3 49.9 668.0 50.7Q669.6 51.6 670.7 53.0Q671.7 54.4 671.9 56.2L671.9 56.2L667.5 56.2Q667.2 55.1 666.3 54.4Q665.5 53.7 664.2 53.7L664.2 53.7Q662.7 53.7 661.8 54.6Q660.8 55.4 660.3 57.0Q659.8 58.6 659.8 60.7L659.8 60.7L659.9 60.7Q660.4 59.8 661.2 59.1Q662.1 58.4 663.1 58.0Q664.2 57.7 665.4 57.7L665.4 57.7Q667.3 57.7 668.8 58.6Q670.4 59.5 671.2 61.1Q672.1 62.7 672.1 64.7L672.1 64.7Q672.1 66.9 671.1 68.6Q670.1 70.3 668.3 71.3Q666.4 72.3 664.0 72.3ZM664.0 68.7L664.0 68.7Q665.1 68.7 665.9 68.2Q666.8 67.7 667.3 66.8Q667.8 65.9 667.8 64.8L667.8 64.8Q667.8 63.7 667.3 62.8Q666.8 62.0 666.0 61.4Q665.1 60.9 664.0 60.9L664.0 60.9Q663.2 60.9 662.5 61.2Q661.8 61.5 661.3 62.1Q660.8 62.6 660.5 63.3Q660.2 64.0 660.2 64.8L660.2 64.8Q660.2 65.9 660.7 66.8Q661.2 67.7 662.0 68.2Q662.9 68.7 664.0 68.7ZM683.6 72.3L683.6 72.3Q680.8 72.3 678.9 71.0Q676.9 69.6 675.9 67.1Q674.9 64.6 674.9 61.1L674.9 61.1Q674.9 57.6 675.9 55.1Q676.9 52.5 678.9 51.2Q680.8 49.9 683.6 49.9L683.6 49.9Q686.3 49.9 688.3 51.2Q690.3 52.6 691.3 55.1Q692.3 57.6 692.3 61.1L692.3 61.1Q692.3 64.6 691.3 67.1Q690.3 69.6 688.3 71.0Q686.4 72.3 683.6 72.3ZM683.6 68.6L683.6 68.6Q684.9 68.6 685.9 67.7Q686.8 66.8 687.3 65.2Q687.8 63.5 687.8 61.1L687.8 61.1Q687.8 58.7 687.3 57.0Q686.8 55.3 685.9 54.5Q684.9 53.6 683.6 53.6L683.6 53.6Q682.3 53.6 681.3 54.5Q680.4 55.3 679.9 57.0Q679.4 58.7 679.4 61.1L679.4 61.1Q679.4 63.5 679.9 65.2Q680.4 66.8 681.3 67.7Q682.3 68.6 683.6 68.6ZM705.6 68.1L695.2 68.1L695.2 64.6L704.3 50.2L709.9 50.2L709.9 64.5L712.7 64.5L712.7 68.1L709.9 68.1L709.9 72L705.6 72L705.6 68.1ZM699.7 64.5L705.7 64.5L705.7 55.1L705.5 55.1L699.7 64.3L699.7 64.5ZM724.0 72.3L724.0 72.3Q722.4 72.3 720.8 71.7Q719.3 71.2 718.0 69.9Q716.8 68.7 716.1 66.7Q715.4 64.6 715.4 61.6L715.4 61.6Q715.4 58.8 716.0 56.7Q716.6 54.5 717.8 53.0Q718.9 51.5 720.5 50.7Q722.2 49.9 724.2 49.9L724.2 49.9Q726.3 49.9 728.0 50.7Q729.6 51.6 730.7 53.0Q731.7 54.4 731.9 56.2L731.9 56.2L727.5 56.2Q727.2 55.1 726.3 54.4Q725.5 53.7 724.2 53.7L724.2 53.7Q722.7 53.7 721.8 54.6Q720.8 55.4 720.3 57.0Q719.8 58.6 719.8 60.7L719.8 60.7L719.9 60.7Q720.4 59.8 721.2 59.1Q722.1 58.4 723.1 58.0Q724.2 57.7 725.4 57.7L725.4 57.7Q727.3 57.7 728.8 58.6Q730.4 59.5 731.2 61.1Q732.1 62.7 732.1 64.7L732.1 64.7Q732.1 66.9 731.1 68.6Q730.1 70.3 728.3 71.3Q726.4 72.3 724.0 72.3ZM724.0 68.7L724.0 68.7Q725.1 68.7 725.9 68.2Q726.8 67.7 727.3 66.8Q727.8 65.9 727.8 64.8L727.8 64.8Q727.8 63.7 727.3 62.8Q726.8 62.0 726.0 61.4Q725.1 60.9 724.0 60.9L724.0 60.9Q723.2 60.9 722.5 61.2Q721.8 61.5 721.3 62.1Q720.8 62.6 720.5 63.3Q720.2 64.0 720.2 64.8L720.2 64.8Q720.2 65.9 720.7 66.8Q721.2 67.7 722.0 68.2Q722.9 68.7 724.0 68.7ZM739.7 50.2L744.5 50.2L744.5 72L740.0 72L740.0 54.1L739.8 54.1L734.8 57.7L734.8 53.6L739.7 50.2Z "/></g><mask id="satori_om-id-3-1"><rect x="668" y="81" width="66" height="13" fill="#fff" mask="url(#satori_om-id)"/></mask><g mask="url(#satori_om-id)" clip-path="url(#satori_cp-id)"><path fill="rgba(200,195,225,0.45)" d="M672.2 92.1L672.2 92.1Q671.2 92.1 670.3 91.6Q669.5 91.1 669.0 90.2Q668.5 89.3 668.5 88.0L668.5 88.0Q668.5 86.7 669.0 85.8Q669.5 84.9 670.3 84.4Q671.2 83.9 672.2 83.9L672.2 83.9Q672.9 83.9 673.5 84.1Q674.1 84.3 674.5 84.6Q675.0 85.0 675.3 85.5Q675.6 86.1 675.7 86.7L675.7 86.7L674.0 86.7Q674.0 86.4 673.8 86.1Q673.6 85.9 673.4 85.7Q673.2 85.5 672.9 85.4Q672.6 85.3 672.3 85.3L672.3 85.3Q671.6 85.3 671.2 85.7Q670.7 86.0 670.4 86.6Q670.2 87.2 670.2 88.0L670.2 88.0Q670.2 88.9 670.4 89.5Q670.7 90.1 671.2 90.4Q671.6 90.7 672.2 90.7L672.2 90.7Q672.6 90.7 672.9 90.6Q673.2 90.5 673.4 90.3Q673.6 90.1 673.8 89.8Q674.0 89.6 674.0 89.3L674.0 89.3L675.7 89.3Q675.6 89.8 675.3 90.3Q675.1 90.8 674.6 91.2Q674.2 91.6 673.6 91.9Q673.0 92.1 672.2 92.1ZM681.9 92.1L681.9 92.1Q680.8 92.1 680.0 91.6Q679.1 91.1 678.6 90.2Q678.1 89.3 678.1 88.0L678.1 88.0Q678.1 86.7 678.6 85.8Q679.1 84.9 680.0 84.4Q680.8 83.9 681.9 83.9L681.9 83.9Q682.9 83.9 683.8 84.4Q684.6 84.9 685.1 85.8Q685.6 86.7 685.6 88.0L685.6 88.0Q685.6 89.3 685.1 90.2Q684.6 91.1 683.8 91.6Q682.9 92.1 681.9 92.1ZM681.9 90.7L681.9 90.7Q682.5 90.7 683.0 90.3Q683.4 90.0 683.7 89.5Q683.9 88.9 683.9 88.0L683.9 88.0Q683.9 87.1 683.7 86.5Q683.4 86.0 683.0 85.6Q682.5 85.3 681.9 85.3L681.9 85.3Q681.3 85.3 680.8 85.7Q680.3 86.0 680.1 86.6Q679.8 87.1 679.8 88.0L679.8 88.0Q679.8 88.9 680.1 89.4Q680.3 90.0 680.8 90.3Q681.3 90.7 681.9 90.7ZM690.0 92L688.3 92L688.3 84.0L690.9 84.0L692.2 87.7Q692.2 87.9 692.3 88.3Q692.4 88.7 692.5 89.2L692.5 89.2Q692.7 89.7 692.7 90.1L692.7 90.1Q692.8 89.7 692.9 89.2L692.9 89.2Q693.0 88.8 693.2 88.3Q693.3 87.9 693.3 87.7L693.3 87.7L694.6 84.0L697.1 84.0L697.1 92L695.5 92L695.5 88.2Q695.5 88.0 695.5 87.6Q695.5 87.2 695.5 86.7Q695.5 86.3 695.5 85.8L695.5 85.8Q695.6 85.6 695.6 85.4L695.6 85.4Q695.5 85.6 695.4 85.9L695.4 85.9Q695.3 86.3 695.2 86.8Q695.1 87.2 694.9 87.6Q694.8 88.0 694.8 88.2L694.8 88.2L693.4 92L692.0 92L690.7 88.2Q690.6 88.0 690.5 87.6Q690.4 87.2 690.3 86.8Q690.1 86.4 690.0 85.9L690.0 85.9Q690.0 85.7 689.9 85.5L689.9 85.5Q689.9 85.6 689.9 85.8L689.9 85.8Q689.9 86.2 689.9 86.7Q689.9 87.2 690.0 87.6Q690.0 88.0 690.0 88.2L690.0 88.2L690.0 92ZM701.7 92L700.1 92L700.1 84.0L702.6 84.0L703.9 87.7Q704.0 87.9 704.1 88.3Q704.2 88.7 704.3 89.2L704.3 89.2Q704.4 89.7 704.5 90.1L704.5 90.1Q704.6 89.7 704.7 89.2L704.7 89.2Q704.8 88.8 704.9 88.3Q705.0 87.9 705.1 87.7L705.1 87.7L706.4 84.0L708.9 84.0L708.9 92L707.2 92L707.2 88.2Q707.2 88.0 707.2 87.6Q707.3 87.2 707.3 86.7Q707.3 86.3 707.3 85.8L707.3 85.8Q707.3 85.6 707.3 85.4L707.3 85.4Q707.2 85.6 707.2 85.9L707.2 85.9Q707.1 86.3 706.9 86.8Q706.8 87.2 706.7 87.6Q706.6 88.0 706.5 88.2L706.5 88.2L705.2 92L703.8 92L702.4 88.2Q702.4 88.0 702.3 87.6Q702.1 87.2 702.0 86.8Q701.9 86.4 701.8 85.9L701.8 85.9Q701.7 85.7 701.7 85.5L701.7 85.5Q701.7 85.6 701.7 85.8L701.7 85.8Q701.7 86.2 701.7 86.7Q701.7 87.2 701.7 87.6Q701.7 88.0 701.7 88.2L701.7 88.2L701.7 92ZM711.8 84.0L713.5 84.0L713.5 92L711.8 92L711.8 84.0ZM718.5 85.4L716.1 85.4L716.1 84.0L722.6 84.0L722.6 85.4L720.2 85.4L720.2 92L718.5 92L718.5 85.4ZM728.2 92.1L728.2 92.1Q727.2 92.1 726.5 91.8Q725.8 91.5 725.4 90.9Q725.0 90.4 725.0 89.5L725.0 89.5L726.6 89.5Q726.6 89.9 726.8 90.2Q727.0 90.5 727.4 90.6Q727.7 90.7 728.2 90.7L728.2 90.7Q728.6 90.7 728.9 90.6Q729.3 90.5 729.5 90.2Q729.6 90.0 729.6 89.7L729.6 89.7Q729.6 89.4 729.5 89.3Q729.3 89.1 729.0 88.9Q728.7 88.8 728.3 88.7L728.3 88.7L727.4 88.5Q726.4 88.2 725.8 87.7Q725.2 87.2 725.2 86.3L725.2 86.3Q725.2 85.6 725.6 85.0Q726.0 84.5 726.7 84.2Q727.3 83.9 728.2 83.9L728.2 83.9Q729.1 83.9 729.8 84.2Q730.4 84.5 730.8 85.0Q731.2 85.6 731.2 86.3L731.2 86.3L729.6 86.3Q729.6 85.8 729.2 85.5Q728.8 85.3 728.2 85.3L728.2 85.3Q727.8 85.3 727.5 85.4Q727.2 85.5 727.0 85.7Q726.9 85.9 726.9 86.2L726.9 86.2Q726.9 86.5 727.1 86.7Q727.2 86.9 727.5 87.0Q727.8 87.1 728.2 87.2L728.2 87.2L728.9 87.4Q729.4 87.5 729.8 87.7Q730.3 87.9 730.6 88.2Q730.9 88.4 731.1 88.8Q731.3 89.2 731.3 89.7L731.3 89.7Q731.3 90.4 730.9 91.0Q730.6 91.5 729.9 91.8Q729.2 92.1 728.2 92.1Z "/></g></svg>