<!-- Generated by readme-aura https://github.com/collectioneur/readme-aura -->
<svg width="860" height="168" viewBox="0 0 860 168" xmlns="http://www.w3.org/2000/svg"><defs><clipPath id="satori_bc-id"><path x="0" y="0" width="860" height="168" d="M16,0 h828 a16,16 0 0 1 16,16 v136 a16,16 0 0 1 -16,16 h-828 a16,16 0 0 1 -16,-16 v-136 a16,16 0 0 1 16,-16"/></clipPath></defs><clipPath id="satori_cp-id"><path x="0" y="0" width="860" height="168" d="M16,0 h828 a16,16 0 0 1 16,16 v136 a16,16 0 0 1 -16,16 h-828 a16,16 0 0 1 -16,-16 v-136 a16,16 0 0 1 16,-16"/></clipPath><mask id="satori_om-id"><rect x="1" y="1" width="858" height="166" fill="#fff"/><path width="860" height="168" fill="none" stroke="#000" stroke-width="2" d="M4.686,4.686 A16,16 0 0 1 16,0 h828 a16,16 0 0 1 16,16 v136 a16,16 0 0 1 -16,16 h-828 a16,16 0 0 1 -16,-16 v-136 A16,16 0 0 1 4.686,4.686"/></mask><path x="0" y="0" width="860" height="168" fill="#08080c" d="M16,0 h828 a16,16 0 0 1 16,16 v136 a16,16 0 0 1 -16,16 h-828 a16,16 0 0 1 -16,-16 v-136 a16,16 0 0 1 16,-16"/><path width="860" height="168" clip-path="url(#satori_bc-id)" fill="none" stroke="rgba(110,80,220,0.18)" stroke-width="2" d="M4.686,4.686 A16,16 0 0 1 16,0 h828 a16,16 0 0 1 16,16 v136 a16,16 0 0 1 -16,16 h-828 a16,16 0 0 1 -16,-16 v-136 A16,16 0 0 1 4.686,4.686"/><mask id="satori_om-id-0"><rect x="33" y="25" width="794" height="5" fill="#fff" mask="url(#satori_om-id)"/></mask><g mask="url(#satori_om-id)" clip-path="url(#satori_cp-id)"><path fill="rgba(155,140,210,0.5)" d="M35.6 29.0L33.4 29.0L33.4 27.7L39.3 27.7L39.3 29.0L37.1 29.0L37.1 35L35.6 35L35.6 29.0ZM48.2 35L43.3 35L43.3 27.7L48.2 27.7L48.2 29.0L44.8 29.0L44.8 30.7L47.9 30.7L47.9 31.9L44.8 31.9L44.8 33.8L48.2 33.8L48.2 35ZM55.6 35.1L55.6 35.1Q54.6 35.1 53.9 34.7Q53.1 34.2 52.6 33.4Q52.2 32.5 52.2 31.4L52.2 31.4Q52.2 30.2 52.7 29.3Q53.1 28.5 53.9 28.1Q54.6 27.6 55.6 27.6L55.6 27.6Q56.2 27.6 56.7 27.8Q57.3 28.0 57.7 28.3Q58.1 28.6 58.4 29.1Q58.6 29.6 58.7 30.2L58.7 30.2L57.2 30.2Q57.2 29.9 57.0 29.7Q56.9 29.4 56.7 29.3Q56.5 29.1 56.2 29.0Q55.9 29.0 55.6 29.0L55.6 29.0Q55.0 29.0 54.6 29.2Q54.2 29.5 54.0 30.1Q53.7 30.6 53.7 31.4L53.7 31.4Q53.7 32.2 54.0 32.7Q54.2 33.2 54.6 33.5Q55.0 33.8 55.6 33.8L55.6 33.8Q55.9 33.8 56.2 33.7Q56.5 33.6 56.7 33.4Q56.9 33.3 57.0 33.0Q57.2 32.8 57.2 32.5L57.2 32.5L58.7 32.5Q58.7 33.0 58.4 33.5Q58.2 33.9 57.8 34.3Q57.4 34.7 56.8 34.9Q56.3 35.1 55.6 35.1ZM64.3 35L62.8 35L62.8 27.7L64.3 27.7L64.3 30.7L67.5 30.7L67.5 27.7L69.0 27.7L69.0 35L67.5 35L67.5 31.9L64.3 31.9L64.3 35ZM74.8 35L73.3 35L73.3 27.7L74.9 27.7L77.2 31.4Q77.4 31.7 77.6 32.0Q77.8 32.4 78.0 32.8L78.0 32.8Q78.1 33.0 78.1 33.2L78.1 33.2Q78.1 33.0 78.1 32.8L78.1 32.8Q78.1 32.3 78.1 31.9Q78.1 31.5 78.1 31.2L78.1 31.2L78.1 27.7L79.6 27.7L79.6 35L77.9 35L75.8 31.7Q75.6 31.3 75.4 30.9Q75.2 30.6 75.0 30.1L75.0 30.1Q74.9 29.9 74.7 29.6L74.7 29.6Q74.7 29.9 74.7 30.1L74.7 30.1Q74.8 30.6 74.8 31.0Q74.8 31.4 74.8 31.7L74.8 31.7L74.8 35ZM83.9 27.7L85.4 27.7L85.4 35L83.9 35L83.9 27.7ZM92.9 35.1L92.9 35.1Q91.9 35.1 91.2 34.7Q90.4 34.2 89.9 33.4Q89.5 32.5 89.5 31.4L89.5 31.4Q89.5 30.2 90.0 29.3Q90.4 28.5 91.2 28.1Q91.9 27.6 92.9 27.6L92.9 27.6Q93.5 27.6 94.0 27.8Q94.6 28.0 95.0 28.3Q95.4 28.6 95.7 29.1Q95.9 29.6 96.0 30.2L96.0 30.2L94.5 30.2Q94.5 29.9 94.3 29.7Q94.2 29.4 94.0 29.3Q93.8 29.1 93.5 29.0Q93.2 29.0 92.9 29.0L92.9 29.0Q92.3 29.0 91.9 29.2Q91.5 29.5 91.3 30.1Q91.0 30.6 91.0 31.4L91.0 31.4Q91.0 32.2 91.3 32.7Q91.5 33.2 91.9 33.5Q92.3 33.8 92.9 33.8L92.9 33.8Q93.2 33.8 93.5 33.7Q93.8 33.6 94.0 33.4Q94.2 33.3 94.3 33.0Q94.5 32.8 94.5 32.5L94.5 32.5L96.0 32.5Q96.0 33.0 95.7 33.5Q95.5 33.9 95.1 34.3Q94.7 34.7 94.1 34.9Q93.6 35.1 92.9 35.1ZM101.3 35L99.7 35L102.2 27.7L104.1 27.7L106.7 35L105.0 35L104.5 33.3L101.9 33.3L101.3 35ZM102.2 32.1L104.1 32.1L103.8 31.5Q103.6 30.8 103.4 30L103.4 30Q103.3 29.5 103.1 28.9L103.1 28.9Q103.0 29.5 102.9 30.0L102.9 30.0Q102.7 30.8 102.5 31.5L102.5 31.5L102.2 32.1ZM115.2 35L110.6 35L110.6 27.7L112.1 27.7L112.1 33.8L115.2 33.8L115.2 35Z M126.1 35L124.6 35L124.6 27.7L129.4 27.7L129.4 29.0L126.1 29.0L126.1 31.0L129.1 31.0L129.1 32.2L126.1 32.2L126.1 35ZM136.7 35.1L136.7 35.1Q135.7 35.1 134.9 34.7Q134.2 34.2 133.7 33.4Q133.3 32.5 133.3 31.4L133.3 31.4Q133.3 30.2 133.7 29.3Q134.2 28.5 134.9 28.1Q135.7 27.6 136.7 27.6L136.7 27.6Q137.6 27.6 138.4 28.1Q139.2 28.5 139.6 29.3Q140.0 30.2 140.0 31.4L140.0 31.4Q140.0 32.5 139.6 33.4Q139.2 34.2 138.4 34.7Q137.6 35.1 136.7 35.1ZM136.7 33.8L136.7 33.8Q137.2 33.8 137.6 33.5Q138.1 33.2 138.3 32.7Q138.5 32.1 138.5 31.4L138.5 31.4Q138.5 30.6 138.3 30.0Q138.1 29.5 137.6 29.2Q137.2 29.0 136.7 29.0L136.7 29.0Q136.1 29.0 135.7 29.2Q135.2 29.5 135.0 30.0Q134.8 30.6 134.8 31.4L134.8 31.4Q134.8 32.1 135.0 32.7Q135.2 33.2 135.7 33.5Q136.1 33.8 136.7 33.8ZM147.3 35.1L147.3 35.1Q146.4 35.1 145.6 34.7Q144.8 34.2 144.4 33.4Q144.0 32.5 144.0 31.4L144.0 31.4Q144.0 30.2 144.4 29.3Q144.9 28.5 145.6 28.1Q146.4 27.6 147.3 27.6L147.3 27.6Q148.0 27.6 148.5 27.8Q149.0 28.0 149.4 28.3Q149.9 28.6 150.1 29.1Q150.4 29.6 150.5 30.2L150.5 30.2L149.0 30.2Q148.9 29.9 148.8 29.7Q148.6 29.4 148.4 29.3Q148.2 29.1 148.0 29.0Q147.7 29.0 147.4 29.0L147.4 29.0Q146.8 29.0 146.4 29.2Q146.0 29.5 145.7 30.1Q145.5 30.6 145.5 31.4L145.5 31.4Q145.5 32.2 145.7 32.7Q146.0 33.2 146.4 33.5Q146.8 33.8 147.4 33.8L147.4 33.8Q147.7 33.8 147.9 33.7Q148.2 33.6 148.4 33.4Q148.6 33.3 148.8 33.0Q148.9 32.8 149.0 32.5L149.0 32.5L150.5 32.5Q150.4 33.0 150.2 33.5Q149.9 33.9 149.5 34.3Q149.1 34.7 148.6 34.9Q148.0 35.1 147.3 35.1ZM157.6 35.1L157.6 35.1Q156.7 35.1 156.0 34.8Q155.3 34.4 154.9 33.8Q154.6 33.2 154.6 32.4L154.6 32.4L154.6 27.7L156.1 27.7L156.1 32.3Q156.1 32.7 156.2 33.1Q156.4 33.4 156.8 33.6Q157.1 33.8 157.6 33.8L157.6 33.8Q158.0 33.8 158.4 33.6Q158.7 33.4 158.9 33.1Q159.1 32.7 159.1 32.3L159.1 32.3L159.1 27.7L160.6 27.7L160.6 32.4Q160.6 33.2 160.2 33.8Q159.8 34.4 159.1 34.8Q158.5 35.1 157.6 35.1ZM167.5 35.1L167.5 35.1Q166.7 35.1 166.0 34.8Q165.4 34.6 165.0 34.0Q164.7 33.5 164.6 32.7L164.6 32.7L166.1 32.7Q166.1 33.1 166.3 33.4Q166.5 33.6 166.8 33.7Q167.1 33.8 167.5 33.8L167.5 33.8Q167.9 33.8 168.2 33.7Q168.5 33.6 168.7 33.4Q168.9 33.2 168.9 32.9L168.9 32.9Q168.9 32.7 168.7 32.5Q168.6 32.3 168.3 32.2Q168.0 32.1 167.6 32.0L167.6 32.0L166.8 31.8Q165.9 31.6 165.4 31.1Q164.8 30.6 164.8 29.8L164.8 29.8Q164.8 29.2 165.2 28.7Q165.5 28.2 166.2 27.9Q166.8 27.6 167.6 27.6L167.6 27.6Q168.4 27.6 169.0 27.9Q169.6 28.2 169.9 28.7Q170.2 29.2 170.3 29.8L170.3 29.8L168.8 29.8Q168.8 29.4 168.4 29.1Q168.1 28.9 167.6 28.9L167.6 28.9Q167.2 28.9 166.9 29.0Q166.6 29.1 166.5 29.3Q166.4 29.5 166.4 29.7L166.4 29.7Q166.4 30.0 166.5 30.2Q166.7 30.3 167.0 30.5Q167.2 30.6 167.5 30.6L167.5 30.6L168.2 30.8Q168.6 30.9 169.0 31.1Q169.4 31.3 169.7 31.5Q170.0 31.8 170.2 32.1Q170.4 32.5 170.4 32.9L170.4 32.9Q170.4 33.6 170.0 34.1Q169.7 34.6 169.1 34.8Q168.4 35.1 167.5 35.1Z "/></g><mask id="satori_om-id-1"><rect x="33" y="44" width="794" height="99" fill="#fff" mask="url(#satori_om-id)"/></mask><mask id="satori_om-id-1-0"><rect x="33" y="44" width="794" height="25" fill="#fff" mask="url(#satori_om-id)"/></mask><mask id="satori_om-id-1-0-0"><rect x="33" y="51" width="100" height="12" fill="#fff" mask="url(#satori_om-id)"/></mask><g mask="url(#satori_om-id)" clip-path="url(#satori_cp-id)"><path fill="#a78bfa" d="M36.8 61.1L36.8 61.1Q35.9 61.1 35.1 60.7Q34.3 60.2 33.9 59.4Q33.5 58.5 33.5 57.4L33.5 57.4Q33.5 56.2 33.9 55.3Q34.3 54.5 35.1 54.1Q35.9 53.6 36.8 53.6L36.8 53.6Q37.5 53.6 38.0 53.8Q38.5 54.0 38.9 54.3Q39.4 54.6 39.6 55.1Q39.9 55.6 40.0 56.2L40.0 56.2L38.5 56.2Q38.4 55.9 38.3 55.7Q38.1 55.4 37.9 55.3Q37.7 55.1 37.4 55.0Q37.2 55.0 36.9 55.0L36.9 55.0Q36.3 55.0 35.9 55.2Q35.4 55.5 35.2 56.1Q35.0 56.6 35.0 57.4L35.0 57.4Q35.0 58.2 35.2 58.7Q35.5 59.2 35.9 59.5Q36.3 59.8 36.9 59.8L36.9 59.8Q37.2 59.8 37.4 59.7Q37.7 59.6 37.9 59.4Q38.1 59.3 38.3 59.0Q38.4 58.8 38.5 58.5L38.5 58.5L40.0 58.5Q39.9 59.0 39.7 59.5Q39.4 59.9 39.0 60.3Q38.6 60.7 38.1 60.9Q37.5 61.1 36.8 61.1ZM45.3 61.1L45.3 61.1Q44.3 61.1 43.5 60.7Q42.8 60.2 42.3 59.4Q41.9 58.5 41.9 57.4L41.9 57.4Q41.9 56.2 42.3 55.3Q42.8 54.5 43.5 54.1Q44.3 53.6 45.3 53.6L45.3 53.6Q46.2 53.6 47.0 54.1Q47.8 54.5 48.2 55.3Q48.6 56.2 48.6 57.4L48.6 57.4Q48.6 58.5 48.2 59.4Q47.8 60.2 47.0 60.7Q46.2 61.1 45.3 61.1ZM45.3 59.8L45.3 59.8Q45.8 59.8 46.2 59.5Q46.7 59.2 46.9 58.7Q47.1 58.1 47.1 57.4L47.1 57.4Q47.1 56.6 46.9 56.0Q46.7 55.5 46.2 55.2Q45.8 55.0 45.3 55.0L45.3 55.0Q44.7 55.0 44.3 55.2Q43.8 55.5 43.6 56.0Q43.4 56.6 43.4 57.4L43.4 57.4Q43.4 58.1 43.6 58.7Q43.8 59.2 44.3 59.5Q44.7 59.8 45.3 59.8ZM52.3 61L50.8 61L50.8 53.7L53.6 53.7Q54.4 53.7 55.0 54.0Q55.6 54.3 55.9 54.8Q56.2 55.4 56.2 56.1Q56.2 56.8 55.9 57.3Q55.6 57.9 55.0 58.1L55.0 58.1Q55.0 58.1 54.9 58.2L54.9 58.2L56.5 61L54.8 61L53.4 58.4L52.3 58.4L52.3 61ZM52.3 55.0L52.3 57.2L53.3 57.2Q53.8 57.2 54.1 57.1Q54.4 56.9 54.5 56.7Q54.7 56.5 54.7 56.1L54.7 56.1Q54.7 55.7 54.5 55.5Q54.4 55.2 54.1 55.1Q53.8 55.0 53.3 55.0L53.3 55.0L52.3 55.0ZM63.2 61L58.3 61L58.3 53.7L63.2 53.7L63.2 55.0L59.8 55.0L59.8 56.7L62.9 56.7L62.9 57.9L59.8 57.9L59.8 59.8L63.2 59.8L63.2 61Z M71.4 61.1L71.4 61.1Q70.6 61.1 69.9 60.8Q69.3 60.6 68.9 60.0Q68.5 59.5 68.5 58.7L68.5 58.7L70.0 58.7Q70.0 59.1 70.2 59.4Q70.4 59.6 70.7 59.7Q71.0 59.8 71.4 59.8L71.4 59.8Q71.8 59.8 72.1 59.7Q72.4 59.6 72.6 59.4Q72.7 59.2 72.7 58.9L72.7 58.9Q72.7 58.7 72.6 58.5Q72.4 58.3 72.2 58.2Q71.9 58.1 71.5 58.0L71.5 58.0L70.7 57.8Q69.8 57.6 69.2 57.1Q68.7 56.6 68.7 55.8L68.7 55.8Q68.7 55.2 69.1 54.7Q69.4 54.2 70.0 53.9Q70.7 53.6 71.5 53.6L71.5 53.6Q72.3 53.6 72.9 53.9Q73.5 54.2 73.8 54.7Q74.1 55.2 74.1 55.8L74.1 55.8L72.7 55.8Q72.7 55.4 72.3 55.1Q72.0 54.9 71.4 54.9L71.4 54.9Q71.1 54.9 70.8 55.0Q70.5 55.1 70.4 55.3Q70.3 55.5 70.3 55.7L70.3 55.7Q70.3 56.0 70.4 56.2Q70.6 56.3 70.8 56.5Q71.1 56.6 71.4 56.6L71.4 56.6L72.1 56.8Q72.5 56.9 72.9 57.1Q73.3 57.3 73.6 57.5Q73.9 57.8 74.1 58.1Q74.2 58.5 74.2 58.9L74.2 58.9Q74.2 59.6 73.9 60.1Q73.6 60.6 73.0 60.8Q72.3 61.1 71.4 61.1ZM78.3 55.0L76.0 55.0L76.0 53.7L82.0 53.7L82.0 55.0L79.7 55.0L79.7 61L78.3 61L78.3 55.0ZM85.2 61L83.6 61L86.1 53.7L88.0 53.7L90.6 61L88.9 61L88.3 59.3L85.8 59.3L85.2 61ZM86.1 58.1L88.0 58.1L87.7 57.5Q87.5 56.8 87.3 56L87.3 56Q87.2 55.5 87.0 54.9L87.0 54.9Q86.9 55.5 86.7 56.0L86.7 56.0Q86.5 56.8 86.3 57.5L86.3 57.5L86.1 58.1ZM95.6 61.1L95.6 61.1Q94.7 61.1 93.9 60.7Q93.1 60.2 92.7 59.4Q92.3 58.5 92.3 57.4L92.3 57.4Q92.3 56.2 92.7 55.3Q93.1 54.5 93.9 54.1Q94.7 53.6 95.6 53.6L95.6 53.6Q96.3 53.6 96.8 53.8Q97.3 54.0 97.7 54.3Q98.2 54.6 98.4 55.1Q98.7 55.6 98.8 56.2L98.8 56.2L97.3 56.2Q97.2 55.9 97.1 55.7Q96.9 55.4 96.7 55.3Q96.5 55.1 96.2 55.0Q96.0 55.0 95.7 55.0L95.7 55.0Q95.1 55.0 94.7 55.2Q94.2 55.5 94.0 56.1Q93.8 56.6 93.8 57.4L93.8 57.4Q93.8 58.2 94.0 58.7Q94.3 59.2 94.7 59.5Q95.1 59.8 95.7 59.8L95.7 59.8Q96.0 59.8 96.2 59.7Q96.5 59.6 96.7 59.4Q96.9 59.3 97.1 59.0Q97.2 58.8 97.3 58.5L97.3 58.5L98.8 58.5Q98.7 59.0 98.5 59.5Q98.2 59.9 97.8 60.3Q97.4 60.7 96.9 60.9Q96.3 61.1 95.6 61.1ZM102.3 61L100.9 61L100.9 53.7L102.3 53.7L102.3 55.7L102.3 57.4Q102.4 57.3 102.4 57.3L102.4 57.3Q102.6 56.9 102.9 56.6Q103.1 56.2 103.5 55.8L103.5 55.8L105.2 53.7L107.1 53.7L104.3 56.9L107.1 61L105.4 61L103.3 57.9L102.3 58.9L102.3 61Z "/></g><mask id="satori_om-id-1-0-1"><rect x="149" y="44" width="236" height="25" fill="#fff" mask="url(#satori_om-id)"/></mask><defs><clipPath id="satori_bc-id-1-0-1-0" clip-path="url(#satori_cp-id)"><path x="149" y="44" width="70" height="25" d="M155,44 h58 a6,6 0 0 1 6,6 v13 a6,6 0 0 1 -6,6 h-58 a6,6 0 0 1 -6,-6 v-13 a6,6 0 0 1 6,-6"/></clipPath></defs><mask id="satori_om-id-1-0-1-0"><rect x="150" y="45" width="68" height="23" fill="#fff" mask="url(#satori_om-id)"/><path width="70" height="25" fill="none" stroke="#000" stroke-width="2" d="M150.757,45.757 A6,6 0 0 1 155,44 h58 a6,6 0 0 1 6,6 v13 a6,6 0 0 1 -6,6 h-58 a6,6 0 0 1 -6,-6 v-13 A6,6 0 0 1 150.757,45.757"/></mask><path x="149" y="44" width="70" height="25" fill="#a78bfa15" d="M155,44 h58 a6,6 0 0 1 6,6 v13 a6,6 0 0 1 -6,6 h-58 a6,6 0 0 1 -6,-6 v-13 a6,6 0 0 1 6,-6" clip-path="url(#satori_cp-id)" mask="url(#satori_om-id)"/><path width="70" height="25" clip-path="url(#satori_bc-id-1-0-1-0)" fill="none" stroke="#a78bfa35" stroke-width="2" d="M150.757,45.757 A6,6 0 0 1 155,44 h58 a6,6 0 0 1 6,6 v13 a6,6 0 0 1 -6,6 h-58 a6,6 0 0 1 -6,-6 v-13 A6,6 0 0 1 150.757,45.757"/><g mask="url(#satori_om-id)" clip-path="url(#satori_cp-id)"><path fill="rgba(225,220,255,0.85)" d="M165.6 61L163.8 61L163.8 52.3L167.2 52.3Q168.2 52.3 168.9 52.6Q169.6 53.0 170.0 53.7Q170.3 54.4 170.3 55.2L170.3 55.2Q170.3 56.1 169.9 56.7Q169.6 57.4 168.9 57.8Q168.2 58.1 167.2 58.1L167.2 58.1L165.6 58.1L165.6 61ZM165.6 53.7L165.6 56.7L166.9 56.7Q167.4 56.7 167.8 56.5Q168.1 56.3 168.3 56.0Q168.5 55.7 168.5 55.2Q168.5 54.8 168.3 54.4Q168.1 54.1 167.8 53.9Q167.4 53.7 166.9 53.7L166.9 53.7L165.6 53.7ZM171.5 63.3L171.5 63.3L171.9 62.0L172.1 62.0Q172.5 62.1 172.7 62.1Q173.0 62.1 173.2 61.9Q173.3 61.7 173.4 61.4L173.4 61.4L173.4 61.0L171.0 54.4L172.8 54.4L173.9 57.8Q174.1 58.5 174.3 59.1L174.3 59.1Q174.3 59.4 174.3 59.6L174.3 59.6Q174.4 59.4 174.4 59.1L174.4 59.1Q174.6 58.5 174.8 57.8L174.8 57.8L176.0 54.4L177.8 54.4L175.0 61.8Q174.8 62.3 174.5 62.7Q174.2 63.1 173.7 63.3Q173.3 63.5 172.6 63.5L172.6 63.5Q172.3 63.5 172.0 63.4Q171.7 63.4 171.5 63.3ZM180.8 54.4L182.0 54.4L182.0 55.8L180.8 55.8L180.8 59.1Q180.8 59.4 180.9 59.5Q181.1 59.7 181.4 59.7L181.4 59.7Q181.5 59.7 181.7 59.7Q181.8 59.6 181.9 59.6L181.9 59.6L182.2 60.9Q181.9 61.0 181.6 61.1Q181.3 61.1 181.0 61.1L181.0 61.1Q180.1 61.1 179.5 60.6Q179.0 60.1 179.0 59.2L179.0 59.2L179.0 55.8L178.1 55.8L178.1 54.4L179.0 54.4L179.0 52.9L180.8 52.9L180.8 54.4ZM184.9 57.2L184.9 57.2L184.9 61L183.1 61L183.1 52.3L184.9 52.3L184.9 55.7Q185.1 55.2 185.5 54.8L185.5 54.8Q186.0 54.4 186.9 54.4L186.9 54.4Q187.5 54.4 188.1 54.7Q188.6 55.0 188.8 55.5Q189.1 56.1 189.1 56.8L189.1 56.8L189.1 61L187.4 61L187.4 57.1Q187.4 56.5 187.0 56.2Q186.7 55.8 186.2 55.8L186.2 55.8Q185.8 55.8 185.5 56.0Q185.2 56.2 185.1 56.5Q184.9 56.8 184.9 57.2ZM193.5 61.1L193.5 61.1Q192.6 61.1 191.8 60.7Q191.1 60.3 190.7 59.5Q190.3 58.8 190.3 57.8L190.3 57.8Q190.3 56.7 190.7 56.0Q191.1 55.2 191.8 54.8Q192.6 54.4 193.5 54.4L193.5 54.4Q194.5 54.4 195.3 54.8Q196.0 55.2 196.4 56.0Q196.8 56.7 196.8 57.8L196.8 57.8Q196.8 58.8 196.4 59.5Q196.0 60.3 195.3 60.7Q194.5 61.1 193.5 61.1ZM193.5 59.7L193.5 59.7Q194.0 59.7 194.3 59.5Q194.6 59.2 194.8 58.8Q195.0 58.3 195.0 57.7L195.0 57.7Q195.0 57.2 194.8 56.7Q194.6 56.3 194.3 56.0Q194.0 55.8 193.5 55.8L193.5 55.8Q193.1 55.8 192.8 56.0Q192.4 56.3 192.3 56.7Q192.1 57.2 192.1 57.7L192.1 57.7Q192.1 58.3 192.3 58.8Q192.4 59.2 192.8 59.5Q193.1 59.7 193.5 59.7ZM199.7 57.2L199.7 57.2L199.7 61L198.0 61L198.0 54.4L199.6 54.4L199.7 55.8Q199.9 55.2 200.3 54.8L200.3 54.8Q200.9 54.4 201.7 54.4L201.7 54.4Q202.4 54.4 202.9 54.7Q203.4 55.0 203.7 55.5Q203.9 56.1 203.9 56.8L203.9 56.8L203.9 61L202.2 61L202.2 57.1Q202.2 56.5 201.9 56.2Q201.6 55.8 201.0 55.8L201.0 55.8Q200.6 55.8 200.3 56.0Q200.1 56.2 199.9 56.5Q199.7 56.8 199.7 57.2Z "/></g><defs><clipPath id="satori_bc-id-1-0-1-1" clip-path="url(#satori_cp-id)"><path x="226" y="44" width="78" height="25" d="M232,44 h66 a6,6 0 0 1 6,6 v13 a6,6 0 0 1 -6,6 h-66 a6,6 0 0 1 -6,-6 v-13 a6,6 0 0 1 6,-6"/></clipPath></defs><mask id="satori_om-id-1-0-1-1"><rect x="227" y="45" width="76" height="23" fill="#fff" mask="url(#satori_om-id)"/><path width="78" height="25" fill="none" stroke="#000" stroke-width="2" d="M227.757,45.757 A6,6 0 0 1 232,44 h66 a6,6 0 0 1 6,6 v13 a6,6 0 0 1 -6,6 h-66 a6,6 0 0 1 -6,-6 v-13 A6,6 0 0 1 227.757,45.757"/></mask><path x="226" y="44" width="78" height="25" fill="#a78bfa15" d="M232,44 h66 a6,6 0 0 1 6,6 v13 a6,6 0 0 1 -6,6 h-66 a6,6 0 0 1 -6,-6 v-13 a6,6 0 0 1 6,-6" clip-path="url(#satori_cp-id)" mask="url(#satori_om-id)"/><path width="78" height="25" clip-path="url(#satori_bc-id-1-0-1-1)" fill="none" stroke="#a78bfa35" stroke-width="2" d="M227.757,45.757 A6,6 0 0 1 232,44 h66 a6,6 0 0 1 6,6 v13 a6,6 0 0 1 -6,6 h-66 a6,6 0 0 1 -6,-6 v-13 A6,6 0 0 1 227.757,45.757"/><g mask="url(#satori_om-id)" clip-path="url(#satori_cp-id)"><path fill="rgba(225,220,255,0.85)" d="M242.6 61L240.8 61L240.8 52.3L244.2 52.3Q245.2 52.3 245.9 52.6Q246.6 53.0 247.0 53.7Q247.3 54.4 247.3 55.2L247.3 55.2Q247.3 56.1 246.9 56.7Q246.6 57.4 245.9 57.8Q245.2 58.1 244.2 58.1L244.2 58.1L242.6 58.1L242.6 61ZM242.6 53.7L242.6 56.7L243.9 56.7Q244.4 56.7 244.8 56.5Q245.1 56.3 245.3 56.0Q245.5 55.7 245.5 55.2Q245.5 54.8 245.3 54.4Q245.1 54.1 244.8 53.9Q244.4 53.7 243.9 53.7L243.9 53.7L242.6 53.7ZM248.5 63.3L248.5 63.3L248.9 62.0L249.1 62.0Q249.5 62.1 249.7 62.1Q250.0 62.1 250.2 61.9Q250.3 61.7 250.4 61.4L250.4 61.4L250.4 61.0L248.0 54.4L249.8 54.4L250.9 57.8Q251.1 58.5 251.3 59.1L251.3 59.1Q251.3 59.4 251.3 59.6L251.3 59.6Q251.4 59.4 251.4 59.1L251.4 59.1Q251.6 58.5 251.8 57.8L251.8 57.8L253.0 54.4L254.8 54.4L252.0 61.8Q251.8 62.3 251.5 62.7Q251.2 63.1 250.7 63.3Q250.3 63.5 249.6 63.5L249.6 63.5Q249.3 63.5 249.0 63.4Q248.7 63.4 248.5 63.3ZM258.1 53.8L255.4 53.8L255.4 52.3L262.6 52.3L262.6 53.8L259.9 53.8L259.9 61L258.1 61L258.1 53.8ZM266.7 61.1L266.7 61.1Q265.7 61.1 265.0 60.7Q264.3 60.3 263.9 59.5Q263.5 58.8 263.5 57.8L263.5 57.8Q263.5 56.7 263.9 56.0Q264.3 55.2 265.0 54.8Q265.7 54.4 266.7 54.4L266.7 54.4Q267.7 54.4 268.4 54.8Q269.1 55.2 269.5 56.0Q269.9 56.7 269.9 57.8L269.9 57.8Q269.9 58.8 269.5 59.5Q269.1 60.3 268.4 60.7Q267.7 61.1 266.7 61.1ZM266.7 59.7L266.7 59.7Q267.2 59.7 267.5 59.5Q267.8 59.2 267.9 58.8Q268.1 58.3 268.1 57.7L268.1 57.7Q268.1 57.2 267.9 56.7Q267.8 56.3 267.5 56.0Q267.2 55.8 266.7 55.8L266.7 55.8Q266.2 55.8 265.9 56.0Q265.6 56.3 265.4 56.7Q265.3 57.2 265.3 57.7L265.3 57.7Q265.3 58.3 265.4 58.8Q265.6 59.2 265.9 59.5Q266.2 59.7 266.7 59.7ZM272.9 61L271.1 61L271.1 54.4L272.8 54.4L272.8 55.6L272.9 55.6Q273.1 55.0 273.5 54.7Q273.9 54.4 274.5 54.4L274.5 54.4Q274.6 54.4 274.8 54.4Q274.9 54.4 275.0 54.4L275.0 54.4L275.0 56.0Q274.9 55.9 274.7 55.9Q274.5 55.9 274.3 55.9L274.3 55.9Q273.9 55.9 273.6 56.1Q273.2 56.2 273.1 56.6Q272.9 56.9 272.9 57.3L272.9 57.3L272.9 61ZM278.9 61.1L278.9 61.1Q277.9 61.1 277.2 60.7Q276.5 60.3 276.1 59.5Q275.7 58.8 275.7 57.8L275.7 57.8Q275.7 56.7 276.1 56.0Q276.5 55.2 277.2 54.8Q277.9 54.4 278.9 54.4L278.9 54.4Q279.5 54.4 280.0 54.5Q280.5 54.7 280.9 55.0Q281.3 55.2 281.5 55.6Q281.8 56.0 281.8 56.5L281.8 56.5L280.2 56.9Q280.2 56.6 280.0 56.4Q279.9 56.2 279.8 56.0Q279.6 55.9 279.4 55.8Q279.2 55.8 279.0 55.8L279.0 55.8Q278.5 55.8 278.2 56.0Q277.8 56.3 277.7 56.7Q277.5 57.2 277.5 57.7L277.5 57.7Q277.5 58.3 277.7 58.8Q277.8 59.2 278.2 59.5Q278.5 59.7 279.0 59.7L279.0 59.7Q279.2 59.7 279.4 59.7Q279.6 59.6 279.8 59.4Q280.0 59.3 280.1 59.1Q280.2 58.9 280.2 58.6L280.2 58.6L281.9 58.9Q281.8 59.4 281.5 59.8Q281.3 60.2 280.9 60.5Q280.5 60.8 280.0 61.0Q279.5 61.1 278.9 61.1ZM284.8 57.2L284.8 57.2L284.8 61L283.1 61L283.1 52.3L284.8 52.3L284.8 55.7Q285.0 55.2 285.4 54.8L285.4 54.8Q286.0 54.4 286.8 54.4L286.8 54.4Q287.5 54.4 288.0 54.7Q288.5 55.0 288.8 55.5Q289.0 56.1 289.0 56.8L289.0 56.8L289.0 61L287.3 61L287.3 57.1Q287.3 56.5 287.0 56.2Q286.7 55.8 286.1 55.8L286.1 55.8Q285.7 55.8 285.4 56.0Q285.1 56.2 285.0 56.5Q284.8 56.8 284.8 57.2Z "/></g><defs><clipPath id="satori_bc-id-1-0-1-2" clip-path="url(#satori_cp-id)"><path x="311" y="44" width="74" height="25" d="M317,44 h62 a6,6 0 0 1 6,6 v13 a6,6 0 0 1 -6,6 h-62 a6,6 0 0 1 -6,-6 v-13 a6,6 0 0 1 6,-6"/></clipPath></defs><mask id="satori_om-id-1-0-1-2"><rect x="312" y="45" width="72" height="23" fill="#fff" mask="url(#satori_om-id)"/><path width="74" height="25" fill="none" stroke="#000" stroke-width="2" d="M312.757,45.757 A6,6 0 0 1 317,44 h62 a6,6 0 0 1 6,6 v13 a6,6 0 0 1 -6,6 h-62 a6,6 0 0 1 -6,-6 v-13 A6,6 0 0 1 312.757,45.757"/></mask><path x="311" y="44" width="74" height="25" fill="#a78bfa15" d="M317,44 h62 a6,6 0 0 1 6,6 v13 a6,6 0 0 1 -6,6 h-62 a6,6 0 0 1 -6,-6 v-13 a6,6 0 0 1 6,-6" clip-path="url(#satori_cp-id)" mask="url(#satori_om-id)"/><path width="74" height="25" clip-path="url(#satori_bc-id-1-0-1-2)" fill="none" stroke="#a78bfa35" stroke-width="2" d="M312.757,45.757 A6,6 0 0 1 317,44 h62 a6,6 0 0 1 6,6 v13 a6,6 0 0 1 -6,6 h-62 a6,6 0 0 1 -6,-6 v-13 A6,6 0 0 1 312.757,45.757"/><g mask="url(#satori_om-id)" clip-path="url(#satori_cp-id)"><path fill="rgba(225,220,255,0.85)" d="M327.6 61L325.8 61L325.8 52.3L331.5 52.3L331.5 53.8L327.6 53.8L327.6 56.2L331.1 56.2L331.1 57.6L327.6 57.6L327.6 61ZM334.6 61.1L334.6 61.1Q334 61.1 333.5 60.9Q333.0 60.7 332.7 60.3Q332.4 59.8 332.4 59.2L332.4 59.2Q332.4 58.6 332.6 58.3Q332.8 57.9 333.2 57.7Q333.5 57.4 334.0 57.3Q334.4 57.2 334.9 57.2L334.9 57.2Q335.5 57.1 335.8 57.0Q336.2 57.0 336.3 56.9Q336.5 56.8 336.5 56.6L336.5 56.6L336.5 56.5Q336.5 56.3 336.4 56.1Q336.3 55.9 336.0 55.8Q335.8 55.7 335.5 55.7L335.5 55.7Q335.1 55.7 334.9 55.8Q334.6 55.9 334.5 56.0Q334.3 56.2 334.2 56.4L334.2 56.4L332.6 56.2Q332.8 55.6 333.2 55.2Q333.6 54.8 334.2 54.6Q334.8 54.4 335.5 54.4L335.5 54.4Q336.0 54.4 336.5 54.5Q337.0 54.6 337.4 54.9Q337.8 55.1 338.0 55.6Q338.3 56.0 338.3 56.6L338.3 56.6L338.3 61L336.6 61L336.6 60.1L336.5 60.1Q336.4 60.4 336.1 60.6Q335.9 60.9 335.5 61.0Q335.1 61.1 334.6 61.1ZM335.1 59.9L335.1 59.9Q335.5 59.9 335.8 59.7Q336.2 59.6 336.3 59.3Q336.5 59.0 336.5 58.7L336.5 58.7L336.5 57.9Q336.4 58.0 336.3 58.1Q336.1 58.1 335.9 58.1Q335.7 58.2 335.5 58.2Q335.4 58.2 335.2 58.2L335.2 58.2Q334.9 58.3 334.6 58.4Q334.4 58.5 334.3 58.7Q334.1 58.8 334.1 59.1L334.1 59.1Q334.1 59.4 334.3 59.5Q334.4 59.7 334.6 59.8Q334.8 59.9 335.1 59.9ZM342.4 61.1L342.4 61.1Q341.6 61.1 341.0 60.9Q340.4 60.7 340.0 60.2Q339.6 59.8 339.5 59.2L339.5 59.2L341.1 58.9Q341.2 59.4 341.6 59.6Q341.9 59.8 342.4 59.8L342.4 59.8Q342.9 59.8 343.2 59.6Q343.5 59.5 343.5 59.2L343.5 59.2Q343.5 58.9 343.3 58.7Q343.1 58.6 342.7 58.5L342.7 58.5L341.5 58.3Q340.6 58.1 340.1 57.6Q339.6 57.1 339.6 56.4L339.6 56.4Q339.6 55.8 340.0 55.3Q340.3 54.9 340.9 54.6Q341.6 54.4 342.4 54.4L342.4 54.4Q343.2 54.4 343.7 54.6Q344.3 54.8 344.7 55.2Q345.0 55.6 345.1 56.1L345.1 56.1L343.6 56.4Q343.5 56.1 343.2 55.8Q342.9 55.6 342.4 55.6L342.4 55.6Q342.0 55.6 341.7 55.8Q341.4 56.0 341.4 56.3L341.4 56.3Q341.4 56.5 341.6 56.7Q341.8 56.9 342.2 57.0L342.2 57.0L343.4 57.2Q344.4 57.4 344.8 57.8Q345.3 58.3 345.3 59.0L345.3 59.0Q345.3 59.6 344.9 60.1Q344.5 60.6 343.9 60.9Q343.2 61.1 342.4 61.1ZM348.5 54.4L349.7 54.4L349.7 55.8L348.5 55.8L348.5 59.1Q348.5 59.4 348.6 59.5Q348.8 59.7 349.1 59.7L349.1 59.7Q349.2 59.7 349.4 59.7Q349.6 59.6 349.7 59.6L349.7 59.6L349.9 60.9Q349.6 61.0 349.3 61.1Q349.0 61.1 348.8 61.1L348.8 61.1Q347.8 61.1 347.3 60.6Q346.8 60.1 346.8 59.2L346.8 59.2L346.8 55.8L345.8 55.8L345.8 54.4L346.8 54.4L346.8 52.9L348.5 52.9L348.5 54.4ZM352.4 61L350.4 61L353.4 52.3L355.7 52.3L358.8 61L356.8 61L356.1 59.0L353.0 59.0L352.4 61ZM353.5 57.6L355.7 57.6L355.4 56.8Q355.2 56.0 354.9 55L354.9 55Q354.7 54.4 354.5 53.7L354.5 53.7Q354.4 54.4 354.2 55.0L354.2 55.0Q354.0 56.0 353.7 56.8L353.7 56.8L353.5 57.6ZM361.7 61L359.9 61L359.9 52.3L363.3 52.3Q364.3 52.3 365.0 52.6Q365.7 53.0 366.0 53.7Q366.4 54.4 366.4 55.2L366.4 55.2Q366.4 56.1 366.0 56.7Q365.7 57.4 365.0 57.8Q364.2 58.1 363.2 58.1L363.2 58.1L361.7 58.1L361.7 61ZM361.7 53.7L361.7 56.7L363.0 56.7Q363.5 56.7 363.9 56.5Q364.2 56.3 364.4 56.0Q364.6 55.7 364.6 55.2Q364.6 54.8 364.4 54.4Q364.2 54.1 363.9 53.9Q363.5 53.7 362.9 53.7L362.9 53.7L361.7 53.7ZM367.7 52.3L369.4 52.3L369.4 61L367.7 61L367.7 52.3Z "/></g><mask id="satori_om-id-1-1"><rect x="33" y="81" width="794" height="25" fill="#fff" mask="url(#satori_om-id)"/></mask><mask id="satori_om-id-1-1-0"><rect x="33" y="88" width="100" height="12" fill="#fff" mask="url(#satori_om-id)"/></mask><g mask="url(#satori_om-id)" clip-path="url(#satori_cp-id)"><path fill="#60a5fa" d="M33.7 90.7L35.1 90.7L35.1 98L33.7 98L33.7 90.7ZM39.0 98L37.5 98L37.5 90.7L39.1 90.7L41.4 94.4Q41.6 94.7 41.8 95.0Q42.0 95.4 42.2 95.8L42.2 95.8Q42.2 96.0 42.3 96.2L42.3 96.2Q42.3 96.0 42.3 95.8L42.3 95.8Q42.3 95.3 42.3 94.9Q42.2 94.5 42.2 94.2L42.2 94.2L42.2 90.7L43.8 90.7L43.8 98L42.1 98L40.0 94.7Q39.8 94.3 39.6 93.9Q39.4 93.6 39.2 93.1L39.2 93.1Q39.1 92.9 38.9 92.6L38.9 92.6Q38.9 92.9 38.9 93.1L38.9 93.1Q39.0 93.6 39.0 94.0Q39.0 94.4 39.0 94.7L39.0 94.7L39.0 98ZM47.6 98L46.1 98L46.1 90.7L50.9 90.7L50.9 92.0L47.6 92.0L47.6 94.0L50.6 94.0L50.6 95.2L47.6 95.2L47.6 98ZM54.4 98L53.0 98L53.0 90.7L55.8 90.7Q56.6 90.7 57.2 91.0Q57.8 91.3 58.1 91.8Q58.4 92.4 58.4 93.1Q58.4 93.8 58.1 94.3Q57.8 94.9 57.2 95.1L57.2 95.1Q57.1 95.1 57.1 95.2L57.1 95.2L58.7 98L57.0 98L55.6 95.4L54.4 95.4L54.4 98ZM54.4 92.0L54.4 94.2L55.5 94.2Q56.0 94.2 56.3 94.1Q56.6 93.9 56.7 93.7Q56.9 93.5 56.9 93.1L56.9 93.1Q56.9 92.7 56.7 92.5Q56.6 92.2 56.3 92.1Q56.0 92.0 55.5 92.0L55.5 92.0L54.4 92.0ZM61.8 98L60.1 98L62.6 90.7L64.5 90.7L67.1 98L65.4 98L64.9 96.3L62.3 96.3L61.8 98ZM62.7 95.1L64.5 95.1L64.3 94.5Q64.1 93.8 63.8 93L63.8 93Q63.7 92.5 63.6 91.9L63.6 91.9Q63.4 92.5 63.3 93.0L63.3 93.0Q63.1 93.8 62.9 94.5L62.9 94.5L62.7 95.1ZM71.7 98.1L71.7 98.1Q70.8 98.1 70.1 97.8Q69.5 97.6 69.1 97.0Q68.8 96.5 68.7 95.7L68.7 95.7L70.2 95.7Q70.2 96.1 70.4 96.4Q70.6 96.6 70.9 96.7Q71.2 96.8 71.6 96.8L71.6 96.8Q72.0 96.8 72.3 96.7Q72.6 96.6 72.8 96.4Q73.0 96.2 73.0 95.9L73.0 95.9Q73.0 95.7 72.8 95.5Q72.7 95.3 72.4 95.2Q72.1 95.1 71.7 95.0L71.7 95.0L70.9 94.8Q70.0 94.6 69.5 94.1Q68.9 93.6 68.9 92.8L68.9 92.8Q68.9 92.2 69.3 91.7Q69.7 91.2 70.3 90.9Q70.9 90.6 71.7 90.6L71.7 90.6Q72.5 90.6 73.1 90.9Q73.7 91.2 74.0 91.7Q74.4 92.2 74.4 92.8L74.4 92.8L72.9 92.8Q72.9 92.4 72.6 92.1Q72.2 91.9 71.7 91.9L71.7 91.9Q71.3 91.9 71.0 92.0Q70.7 92.1 70.6 92.3Q70.5 92.5 70.5 92.7L70.5 92.7Q70.5 93.0 70.6 93.2Q70.8 93.3 71.1 93.5Q71.3 93.6 71.6 93.6L71.6 93.6L72.3 93.8Q72.8 93.9 73.1 94.1Q73.5 94.3 73.8 94.5Q74.1 94.8 74.3 95.1Q74.5 95.5 74.5 95.9L74.5 95.9Q74.5 96.6 74.1 97.1Q73.8 97.6 73.2 97.8Q72.5 98.1 71.7 98.1ZM78.5 92.0L76.2 92.0L76.2 90.7L82.2 90.7L82.2 92.0L80.0 92.0L80.0 98L78.5 98L78.5 92.0ZM85.7 98L84.2 98L84.2 90.7L87.1 90.7Q87.9 90.7 88.5 91.0Q89.0 91.3 89.3 91.8Q89.7 92.4 89.7 93.1Q89.7 93.8 89.3 94.3Q89.0 94.9 88.4 95.1L88.4 95.1Q88.4 95.1 88.4 95.2L88.4 95.2L89.9 98L88.3 98L86.9 95.4L85.7 95.4L85.7 98ZM85.7 92.0L85.7 94.2L86.8 94.2Q87.2 94.2 87.5 94.1Q87.8 93.9 88.0 93.7Q88.1 93.5 88.1 93.1L88.1 93.1Q88.1 92.7 88.0 92.5Q87.8 92.2 87.5 92.1Q87.2 92.0 86.8 92.0L86.8 92.0L85.7 92.0ZM94.8 98.1L94.8 98.1Q93.9 98.1 93.2 97.8Q92.5 97.4 92.2 96.8Q91.8 96.2 91.8 95.4L91.8 95.4L91.8 90.7L93.3 90.7L93.3 95.3Q93.3 95.7 93.5 96.1Q93.6 96.4 94.0 96.6Q94.3 96.8 94.8 96.8L94.8 96.8Q95.2 96.8 95.6 96.6Q95.9 96.4 96.1 96.1Q96.3 95.7 96.3 95.3L96.3 95.3L96.3 90.7L97.8 90.7L97.8 95.4Q97.8 96.2 97.4 96.8Q97.0 97.4 96.4 97.8Q95.7 98.1 94.8 98.1ZM103.3 98.1L103.3 98.1Q102.3 98.1 101.5 97.7Q100.8 97.2 100.3 96.4Q99.9 95.5 99.9 94.4L99.9 94.4Q99.9 93.2 100.3 92.3Q100.8 91.5 101.6 91.1Q102.3 90.6 103.3 90.6L103.3 90.6Q103.9 90.6 104.4 90.8Q105.0 91.0 105.4 91.3Q105.8 91.6 106.1 92.1Q106.3 92.6 106.4 93.2L106.4 93.2L104.9 93.2Q104.9 92.9 104.7 92.7Q104.6 92.4 104.4 92.3Q104.2 92.1 103.9 92.0Q103.6 92.0 103.3 92.0L103.3 92.0Q102.7 92.0 102.3 92.2Q101.9 92.5 101.7 93.1Q101.4 93.6 101.4 94.4L101.4 94.4Q101.4 95.2 101.7 95.7Q101.9 96.2 102.3 96.5Q102.7 96.8 103.3 96.8L103.3 96.8Q103.6 96.8 103.9 96.7Q104.1 96.6 104.4 96.4Q104.6 96.3 104.7 96.0Q104.9 95.8 104.9 95.5L104.9 95.5L106.4 95.5Q106.4 96.0 106.1 96.5Q105.9 96.9 105.5 97.3Q105.1 97.7 104.5 97.9Q104.0 98.1 103.3 98.1ZM110.4 92.0L108.2 92.0L108.2 90.7L114.1 90.7L114.1 92.0L111.9 92.0L111.9 98L110.4 98L110.4 92.0ZM119.2 98.1L119.2 98.1Q118.3 98.1 117.6 97.8Q116.9 97.4 116.5 96.8Q116.2 96.2 116.2 95.4L116.2 95.4L116.2 90.7L117.7 90.7L117.7 95.3Q117.7 95.7 117.9 96.1Q118.0 96.4 118.4 96.6Q118.7 96.8 119.2 96.8L119.2 96.8Q119.6 96.8 120.0 96.6Q120.3 96.4 120.5 96.1Q120.7 95.7 120.7 95.3L120.7 95.3L120.7 90.7L122.2 90.7L122.2 95.4Q122.2 96.2 121.8 96.8Q121.4 97.4 120.8 97.8Q120.1 98.1 119.2 98.1ZM126.0 98L124.5 98L124.5 90.7L127.3 90.7Q128.2 90.7 128.7 91.0Q129.3 91.3 129.6 91.8Q129.9 92.4 129.9 93.1Q129.9 93.8 129.6 94.3Q129.3 94.9 128.7 95.1L128.7 95.1Q128.7 95.1 128.6 95.2L128.6 95.2L130.2 98L128.5 98L127.1 95.4L126.0 95.4L126.0 98ZM126.0 92.0L126.0 94.2L127.1 94.2Q127.5 94.2 127.8 94.1Q128.1 93.9 128.2 93.7Q128.4 93.5 128.4 93.1L128.4 93.1Q128.4 92.7 128.2 92.5Q128.1 92.2 127.8 92.1Q127.5 92.0 127.1 92.0L127.1 92.0L126.0 92.0ZM136.9 98L132.1 98L132.1 90.7L136.9 90.7L136.9 92.0L133.5 92.0L133.5 93.7L136.7 93.7L136.7 94.9L133.5 94.9L133.5 96.8L136.9 96.8L136.9 98Z "/></g><mask id="satori_om-id-1-1-1"><rect x="149" y="81" width="244" height="25" fill="#fff" mask="url(#satori_om-id)"/></mask><defs><clipPath id="satori_bc-id-1-1-1-0" clip-path="url(#satori_cp-id)"><path x="149" y="81" width="98" height="25" d="M155,81 h86 a6,6 0 0 1 6,6 v13 a6,6 0 0 1 -6,6 h-86 a6,6 0 0 1 -6,-6 v-13 a6,6 0 0 1 6,-6"/></clipPath></defs><mask id="satori_om-id-1-1-1-0"><rect x="150" y="82" width="96" height="23" fill="#fff" mask="url(#satori_om-id)"/><path width="98" height="25" fill="none" stroke="#000" stroke-width="2" d="M150.757,82.757 A6,6 0 0 1 155,81 h86 a6,6 0 0 1 6,6 v13 a6,6 0 0 1 -6,6 h-86 a6,6 0 0 1 -6,-6 v-13 A6,6 0 0 1 150.757,82.757"/></mask><path x="149" y="81" width="98" height="25" fill="#60a5fa15" d="M155,81 h86 a6,6 0 0 1 6,6 v13 a6,6 0 0 1 -6,6 h-86 a6,6 0 0 1 -6,-6 v-13 a6,6 0 0 1 6,-6" clip-path="url(#satori_cp-id)" mask="url(#satori_om-id)"/><path width="98" height="25" clip-path="url(#satori_bc-id-1-1-1-0)" fill="none" stroke="#60a5fa35" stroke-width="2" d="M150.757,82.757 A6,6 0 0 1 155,81 h86 a6,6 0 0 1 6,6 v13 a6,6 0 0 1 -6,6 h-86 a6,6 0 0 1 -6,-6 v-13 A6,6 0 0 1 150.757,82.757"/><g mask="url(#satori_om-id)" clip-path="url(#satori_cp-id)"><path fill="rgba(225,220,255,0.85)" d="M165.6 98L163.8 98L163.8 89.3L167.2 89.3Q168.2 89.3 168.9 89.6Q169.6 90.0 170.0 90.7Q170.3 91.4 170.3 92.2L170.3 92.2Q170.3 93.1 169.9 93.7Q169.6 94.4 168.9 94.8Q168.2 95.1 167.2 95.1L167.2 95.1L165.6 95.1L165.6 98ZM165.6 90.7L165.6 93.7L166.9 93.7Q167.4 93.7 167.8 93.5Q168.1 93.3 168.3 93.0Q168.5 92.7 168.5 92.2Q168.5 91.8 168.3 91.4Q168.1 91.1 167.8 90.9Q167.4 90.7 166.9 90.7L166.9 90.7L165.6 90.7ZM174.5 98.1L174.5 98.1Q173.5 98.1 172.8 97.7Q172.0 97.3 171.6 96.5Q171.3 95.8 171.3 94.8L171.3 94.8Q171.3 93.7 171.6 93.0Q172.0 92.2 172.8 91.8Q173.5 91.4 174.5 91.4L174.5 91.4Q175.4 91.4 176.2 91.8Q176.9 92.2 177.3 93.0Q177.7 93.7 177.7 94.8L177.7 94.8Q177.7 95.8 177.3 96.5Q176.9 97.3 176.2 97.7Q175.4 98.1 174.5 98.1ZM174.5 96.7L174.5 96.7Q174.9 96.7 175.2 96.5Q175.6 96.2 175.7 95.8Q175.9 95.3 175.9 94.7L175.9 94.7Q175.9 94.2 175.7 93.7Q175.6 93.3 175.2 93.0Q174.9 92.8 174.5 92.8L174.5 92.8Q174.0 92.8 173.7 93.0Q173.4 93.3 173.2 93.7Q173.0 94.2 173.0 94.7L173.0 94.7Q173.0 95.3 173.2 95.8Q173.4 96.2 173.7 96.5Q174.0 96.7 174.5 96.7ZM181.5 98.1L181.5 98.1Q180.7 98.1 180.1 97.9Q179.5 97.7 179.1 97.2Q178.7 96.8 178.6 96.2L178.6 96.2L180.2 95.9Q180.4 96.4 180.7 96.6Q181 96.8 181.5 96.8L181.5 96.8Q182.0 96.8 182.3 96.6Q182.6 96.5 182.6 96.2L182.6 96.2Q182.6 95.9 182.4 95.7Q182.2 95.6 181.8 95.5L181.8 95.5L180.6 95.3Q179.7 95.1 179.2 94.6Q178.8 94.1 178.8 93.4L178.8 93.4Q178.8 92.8 179.1 92.3Q179.5 91.9 180.1 91.6Q180.7 91.4 181.5 91.4L181.5 91.4Q182.3 91.4 182.9 91.6Q183.4 91.8 183.8 92.2Q184.1 92.6 184.2 93.1L184.2 93.1L182.7 93.4Q182.6 93.1 182.3 92.8Q182.0 92.6 181.5 92.6L181.5 92.6Q181.1 92.6 180.8 92.8Q180.5 93.0 180.5 93.3L180.5 93.3Q180.5 93.5 180.7 93.7Q180.9 93.9 181.4 94.0L181.4 94.0L182.5 94.2Q183.5 94.4 184.0 94.8Q184.4 95.3 184.4 96.0L184.4 96.0Q184.4 96.6 184.0 97.1Q183.7 97.6 183.0 97.9Q182.3 98.1 181.5 98.1ZM187.6 91.4L188.9 91.4L188.9 92.8L187.6 92.8L187.6 96.1Q187.6 96.4 187.8 96.5Q187.9 96.7 188.2 96.7L188.2 96.7Q188.3 96.7 188.5 96.7Q188.7 96.6 188.8 96.6L188.8 96.6L189.0 97.9Q188.7 98.0 188.5 98.1Q188.2 98.1 187.9 98.1L187.9 98.1Q186.9 98.1 186.4 97.6Q185.9 97.1 185.9 96.2L185.9 96.2L185.9 92.8L185.0 92.8L185.0 91.4L185.9 91.4L185.9 89.9L187.6 89.9L187.6 91.4ZM192.9 100.6L192.9 100.6Q192.1 100.6 191.5 100.4Q190.9 100.2 190.5 99.8Q190.1 99.4 190.0 99.0L190.0 99.0L191.5 98.6Q191.6 98.7 191.7 98.9Q191.9 99.1 192.2 99.2Q192.5 99.3 192.9 99.3L192.9 99.3Q193.6 99.3 194.0 99.0Q194.3 98.7 194.3 98.0L194.3 98.0L194.3 96.8L194.2 96.8Q194.1 97.1 193.9 97.3Q193.6 97.6 193.3 97.8Q192.9 97.9 192.4 97.9L192.4 97.9Q191.7 97.9 191.0 97.6Q190.4 97.2 190.1 96.5Q189.7 95.8 189.7 94.7L189.7 94.7Q189.7 93.6 190.1 92.9Q190.5 92.1 191.1 91.7Q191.7 91.4 192.4 91.4L192.4 91.4Q192.9 91.4 193.3 91.6Q193.7 91.7 193.9 92.0Q194.2 92.3 194.3 92.6L194.3 92.6L194.4 92.6L194.4 91.4L196.1 91.4L196.1 97.9Q196.1 98.8 195.7 99.4Q195.3 100.0 194.6 100.3Q193.8 100.6 192.9 100.6ZM192.9 96.6L192.9 96.6Q193.4 96.6 193.7 96.3Q194.0 96.1 194.2 95.7Q194.3 95.3 194.3 94.7L194.3 94.7Q194.3 94.1 194.2 93.7Q194.0 93.3 193.7 93.0Q193.4 92.8 192.9 92.8L192.9 92.8Q192.5 92.8 192.2 93.0Q191.9 93.3 191.7 93.7Q191.5 94.1 191.5 94.7L191.5 94.7Q191.5 95.3 191.7 95.7Q191.9 96.1 192.2 96.3Q192.5 96.6 192.9 96.6ZM199.3 98L197.6 98L197.6 91.4L199.3 91.4L199.3 92.6L199.4 92.6Q199.5 92.0 200.0 91.7Q200.4 91.4 200.9 91.4L200.9 91.4Q201.1 91.4 201.2 91.4Q201.4 91.4 201.5 91.4L201.5 91.4L201.5 93.0Q201.4 92.9 201.2 92.9Q200.9 92.9 200.7 92.9L200.7 92.9Q200.3 92.9 200.0 93.1Q199.7 93.2 199.5 93.6Q199.3 93.9 199.3 94.3L199.3 94.3L199.3 98ZM205.4 98.1L205.4 98.1Q204.4 98.1 203.7 97.7Q203.0 97.3 202.6 96.6Q202.2 95.8 202.2 94.8L202.2 94.8Q202.2 93.7 202.6 93.0Q203.0 92.2 203.7 91.8Q204.4 91.4 205.3 91.4L205.3 91.4Q206.0 91.4 206.5 91.6Q207.1 91.8 207.5 92.2Q207.9 92.6 208.2 93.2Q208.4 93.8 208.4 94.7L208.4 94.7L208.4 95.2L203.9 95.2Q204.0 95.7 204.1 96.0L204.1 96.0Q204.3 96.4 204.7 96.6Q205 96.8 205.5 96.8L205.5 96.8Q205.8 96.8 206.0 96.7Q206.3 96.6 206.5 96.5Q206.6 96.3 206.7 96.0L206.7 96.0L208.3 96.3Q208.2 96.9 207.8 97.3Q207.4 97.7 206.8 97.9Q206.2 98.1 205.4 98.1ZM203.9 94.1L203.9 94.1L206.7 94.1Q206.7 93.8 206.6 93.5L206.6 93.5Q206.4 93.1 206.1 92.9Q205.8 92.7 205.4 92.7L205.4 92.7Q204.9 92.7 204.6 92.9Q204.3 93.1 204.1 93.5L204.1 93.5Q204.0 93.7 203.9 94.1ZM212.9 98.1L212.9 98.1Q211.8 98.1 211.0 97.8Q210.3 97.5 209.8 96.9Q209.4 96.2 209.4 95.3L209.4 95.3L211.1 95.3Q211.1 95.7 211.4 96.0Q211.6 96.3 212.0 96.5Q212.4 96.6 212.8 96.6L212.8 96.6Q213.3 96.6 213.7 96.5Q214.0 96.3 214.2 96.1Q214.4 95.8 214.4 95.5L214.4 95.5Q214.4 95.2 214.2 95.0Q214.1 94.8 213.7 94.7Q213.4 94.5 212.9 94.4L212.9 94.4L212.0 94.2Q210.9 93.9 210.2 93.3Q209.6 92.7 209.6 91.8L209.6 91.8Q209.6 91.0 210.0 90.4Q210.4 89.8 211.2 89.5Q211.9 89.2 212.9 89.2L212.9 89.2Q213.8 89.2 214.6 89.5Q215.3 89.8 215.7 90.4Q216.1 91.0 216.1 91.8L216.1 91.8L214.4 91.8Q214.3 91.2 213.9 90.9Q213.5 90.7 212.9 90.7L212.9 90.7Q212.4 90.7 212.1 90.8Q211.8 90.9 211.6 91.1Q211.4 91.4 211.4 91.7L211.4 91.7Q211.4 92.0 211.6 92.2Q211.8 92.4 212.1 92.5Q212.5 92.7 212.8 92.8L212.8 92.8L213.6 93.0Q214.2 93.1 214.6 93.3Q215.1 93.5 215.5 93.8Q215.8 94.1 216.0 94.5Q216.2 95.0 216.2 95.5L216.2 95.5Q216.2 96.3 215.8 96.9Q215.4 97.5 214.7 97.8Q213.9 98.1 212.9 98.1ZM221.3 98.1L221.3 98.1Q220.2 98.1 219.3 97.6Q218.3 97.1 217.8 96.1Q217.3 95.1 217.3 93.6L217.3 93.6Q217.3 92.2 217.8 91.2Q218.3 90.2 219.3 89.7Q220.2 89.2 221.3 89.2L221.3 89.2Q222.5 89.2 223.4 89.7Q224.3 90.2 224.9 91.2Q225.4 92.2 225.4 93.6L225.4 93.6Q225.4 95.1 224.9 96.1L224.9 96.1Q224.5 96.7 224.1 97.1L224.1 97.1L225.3 98.7L223.6 98.7L222.9 97.8Q222.2 98.1 221.3 98.1ZM221.9 96.5L220.8 95L222.3 95L223.0 95.8Q223.2 95.6 223.3 95.2L223.3 95.2Q223.6 94.6 223.6 93.6L223.6 93.6Q223.6 92.7 223.3 92.0Q223.0 91.4 222.5 91.1Q222.0 90.7 221.3 90.7L221.3 90.7Q220.7 90.7 220.2 91.1Q219.7 91.4 219.4 92.1Q219.1 92.7 219.1 93.6L219.1 93.6Q219.1 94.6 219.4 95.2Q219.7 95.9 220.2 96.2Q220.7 96.5 221.3 96.5L221.3 96.5Q221.6 96.5 221.9 96.5L221.9 96.5ZM232.4 98L226.8 98L226.8 89.3L228.6 89.3L228.6 96.5L232.4 96.5L232.4 98Z "/></g><defs><clipPath id="satori_bc-id-1-1-1-1" clip-path="url(#satori_cp-id)"><path x="254" y="81" width="61" height="25" d="M260,81 h49 a6,6 0 0 1 6,6 v13 a6,6 0 0 1 -6,6 h-49 a6,6 0 0 1 -6,-6 v-13 a6,6 0 0 1 6,-6"/></clipPath></defs><mask id="satori_om-id-1-1-1-1"><rect x="255" y="82" width="59" height="23" fill="#fff" mask="url(#satori_om-id)"/><path width="61" height="25" fill="none" stroke="#000" stroke-width="2" d="M255.757,82.757 A6,6 0 0 1 260,81 h49 a6,6 0 0 1 6,6 v13 a6,6 0 0 1 -6,6 h-49 a6,6 0 0 1 -6,-6 v-13 A6,6 0 0 1 255.757,82.757"/></mask><path x="254" y="81" width="61" height="25" fill="#60a5fa15" d="M260,81 h49 a6,6 0 0 1 6,6 v13 a6,6 0 0 1 -6,6 h-49 a6,6 0 0 1 -6,-6 v-13 a6,6 0 0 1 6,-6" clip-path="url(#satori_cp-id)" mask="url(#satori_om-id)"/><path width="61" height="25" clip-path="url(#satori_bc-id-1-1-1-1)" fill="none" stroke="#60a5fa35" stroke-width="2" d="M255.757,82.757 A6,6 0 0 1 260,81 h49 a6,6 0 0 1 6,6 v13 a6,6 0 0 1 -6,6 h-49 a6,6 0 0 1 -6,-6 v-13 A6,6 0 0 1 255.757,82.757"/><g mask="url(#satori_om-id)" clip-path="url(#satori_cp-id)"><path fill="rgba(225,220,255,0.85)" d="M270.6 98L268.8 98L268.8 89.3L272.2 89.3Q273.2 89.3 273.9 89.6Q274.6 90.0 275.0 90.6Q275.3 91.3 275.3 92.1Q275.3 93.0 274.9 93.6Q274.6 94.2 273.9 94.5L273.9 94.5Q273.8 94.6 273.8 94.6L273.8 94.6L275.6 98L273.6 98L272.0 94.9L270.6 94.9L270.6 98ZM270.6 90.7L270.6 93.4L271.9 93.4Q272.4 93.4 272.8 93.3Q273.1 93.1 273.3 92.8Q273.5 92.5 273.5 92.1L273.5 92.1Q273.5 91.7 273.3 91.4Q273.1 91.1 272.8 90.9Q272.4 90.7 271.9 90.7L271.9 90.7L270.6 90.7ZM279.6 98.1L279.6 98.1Q278.6 98.1 277.9 97.7Q277.1 97.3 276.7 96.6Q276.4 95.8 276.4 94.8L276.4 94.8Q276.4 93.7 276.7 93.0Q277.1 92.2 277.8 91.8Q278.5 91.4 279.5 91.4L279.5 91.4Q280.1 91.4 280.7 91.6Q281.3 91.8 281.7 92.2Q282.1 92.6 282.3 93.2Q282.6 93.8 282.6 94.7L282.6 94.7L282.6 95.2L278.1 95.2Q278.1 95.7 278.3 96.0L278.3 96.0Q278.5 96.4 278.8 96.6Q279.2 96.8 279.6 96.8L279.6 96.8Q279.9 96.8 280.2 96.7Q280.4 96.6 280.6 96.5Q280.8 96.3 280.9 96.0L280.9 96.0L282.5 96.3Q282.3 96.9 281.9 97.3Q281.5 97.7 280.9 97.9Q280.4 98.1 279.6 98.1ZM278.1 94.1L278.1 94.1L280.9 94.1Q280.8 93.8 280.7 93.5L280.7 93.5Q280.6 93.1 280.3 92.9Q280.0 92.7 279.5 92.7L279.5 92.7Q279.1 92.7 278.7 92.9Q278.4 93.1 278.3 93.5L278.3 93.5Q278.1 93.7 278.1 94.1ZM286.2 98.1L286.2 98.1Q285.4 98.1 284.8 97.7Q284.2 97.3 283.9 96.6Q283.5 95.8 283.5 94.7L283.5 94.7Q283.5 93.6 283.9 92.9Q284.2 92.1 284.8 91.7Q285.4 91.4 286.2 91.4L286.2 91.4Q286.7 91.4 287.1 91.6Q287.5 91.7 287.7 92.0Q287.9 92.3 288.0 92.6L288.0 92.6L288.1 92.6L288.1 89.3L289.8 89.3L289.8 98L288.1 98L288.1 97.0L288.0 97.0Q287.9 97.2 287.7 97.5Q287.4 97.7 287.1 97.9Q286.7 98.1 286.2 98.1ZM286.7 96.7L286.7 96.7Q287.2 96.7 287.5 96.5Q287.8 96.2 288.0 95.8Q288.1 95.3 288.1 94.7L288.1 94.7Q288.1 94.1 288.0 93.7Q287.8 93.3 287.5 93.0Q287.2 92.8 286.7 92.8L286.7 92.8Q286.3 92.8 285.9 93.0Q285.6 93.3 285.5 93.7Q285.3 94.2 285.3 94.7L285.3 94.7Q285.3 95.3 285.5 95.8Q285.6 96.2 285.9 96.4Q286.3 96.7 286.7 96.7ZM293.1 98L291.3 98L291.3 91.4L293.1 91.4L293.1 98ZM292.2 90.6L292.2 90.6Q291.8 90.6 291.5 90.3Q291.3 90.1 291.3 89.7L291.3 89.7Q291.3 89.3 291.5 89.1Q291.8 88.8 292.2 88.8L292.2 88.8Q292.6 88.8 292.9 89.0Q293.2 89.3 293.2 89.7L293.2 89.7Q293.2 90.1 292.9 90.3Q292.6 90.6 292.2 90.6ZM297.2 98.1L297.2 98.1Q296.4 98.1 295.8 97.9Q295.2 97.7 294.8 97.2Q294.4 96.8 294.3 96.2L294.3 96.2L295.9 95.9Q296.1 96.4 296.4 96.6Q296.7 96.8 297.3 96.8L297.3 96.8Q297.8 96.8 298.0 96.6Q298.3 96.5 298.3 96.2L298.3 96.2Q298.3 95.9 298.1 95.7Q297.9 95.6 297.5 95.5L297.5 95.5L296.4 95.3Q295.4 95.1 294.9 94.6Q294.5 94.1 294.5 93.4L294.5 93.4Q294.5 92.8 294.8 92.3Q295.2 91.9 295.8 91.6Q296.4 91.4 297.2 91.4L297.2 91.4Q298 91.4 298.6 91.6Q299.1 91.8 299.5 92.2Q299.8 92.6 300.0 93.1L300.0 93.1L298.4 93.4Q298.3 93.1 298.0 92.8Q297.7 92.6 297.3 92.6L297.3 92.6Q296.8 92.6 296.5 92.8Q296.2 93.0 296.2 93.3L296.2 93.3Q296.2 93.5 296.4 93.7Q296.6 93.9 297.1 94.0L297.1 94.0L298.3 94.2Q299.2 94.4 299.7 94.8Q300.1 95.3 300.1 96.0L300.1 96.0Q300.1 96.6 299.8 97.1Q299.4 97.6 298.7 97.9Q298.1 98.1 297.2 98.1Z "/></g><defs><clipPath id="satori_bc-id-1-1-1-2" clip-path="url(#satori_cp-id)"><path x="322" y="81" width="71" height="25" d="M328,81 h59 a6,6 0 0 1 6,6 v13 a6,6 0 0 1 -6,6 h-59 a6,6 0 0 1 -6,-6 v-13 a6,6 0 0 1 6,-6"/></clipPath></defs><mask id="satori_om-id-1-1-1-2"><rect x="323" y="82" width="69" height="23" fill="#fff" mask="url(#satori_om-id)"/><path width="71" height="25" fill="none" stroke="#000" stroke-width="2" d="M323.757,82.757 A6,6 0 0 1 328,81 h59 a6,6 0 0 1 6,6 v13 a6,6 0 0 1 -6,6 h-59 a6,6 0 0 1 -6,-6 v-13 A6,6 0 0 1 323.757,82.757"/></mask><path x="322" y="81" width="71" height="25" fill="#60a5fa15" d="M328,81 h59 a6,6 0 0 1 6,6 v13 a6,6 0 0 1 -6,6 h-59 a6,6 0 0 1 -6,-6 v-13 a6,6 0 0 1 6,-6" clip-path="url(#satori_cp-id)" mask="url(#satori_om-id)"/><path width="71" height="25" clip-path="url(#satori_bc-id-1-1-1-2)" fill="none" stroke="#60a5fa35" stroke-width="2" d="M323.757,82.757 A6,6 0 0 1 328,81 h59 a6,6 0 0 1 6,6 v13 a6,6 0 0 1 -6,6 h-59 a6,6 0 0 1 -6,-6 v-13 A6,6 0 0 1 323.757,82.757"/><g mask="url(#satori_om-id)" clip-path="url(#satori_cp-id)"><path fill="rgba(225,220,255,0.85)" d="M339.9 98L339.9 98L336.8 98L336.8 89.3L339.9 89.3Q341.2 89.3 342.1 89.8Q343.1 90.3 343.6 91.3Q344.1 92.3 344.1 93.6L344.1 93.6Q344.1 95.0 343.6 96.0Q343.1 97.0 342.1 97.5Q341.2 98 339.9 98ZM338.6 90.8L338.6 96.5L339.8 96.5Q340.6 96.5 341.2 96.2Q341.8 95.9 342.0 95.2Q342.3 94.6 342.3 93.6L342.3 93.6Q342.3 92.7 342.0 92.0Q341.8 91.4 341.2 91.1Q340.6 90.8 339.8 90.8L339.8 90.8L338.6 90.8ZM348.3 98.1L348.3 98.1Q347.4 98.1 346.6 97.7Q345.9 97.3 345.5 96.5Q345.1 95.8 345.1 94.8L345.1 94.8Q345.1 93.7 345.5 93.0Q345.9 92.2 346.6 91.8Q347.4 91.4 348.3 91.4L348.3 91.4Q349.3 91.4 350.1 91.8Q350.8 92.2 351.2 93.0Q351.6 93.7 351.6 94.8L351.6 94.8Q351.6 95.8 351.2 96.5Q350.8 97.3 350.1 97.7Q349.3 98.1 348.3 98.1ZM348.3 96.7L348.3 96.7Q348.8 96.7 349.1 96.5Q349.4 96.2 349.6 95.8Q349.8 95.3 349.8 94.7L349.8 94.7Q349.8 94.2 349.6 93.7Q349.4 93.3 349.1 93.0Q348.8 92.8 348.3 92.8L348.3 92.8Q347.9 92.8 347.6 93.0Q347.3 93.3 347.1 93.7Q346.9 94.2 346.9 94.7L346.9 94.7Q346.9 95.3 347.1 95.8Q347.3 96.2 347.6 96.5Q347.9 96.7 348.3 96.7ZM355.7 98.1L355.7 98.1Q354.7 98.1 354.0 97.7Q353.3 97.3 352.9 96.5Q352.5 95.8 352.5 94.8L352.5 94.8Q352.5 93.7 352.9 93.0Q353.3 92.2 354.0 91.8Q354.7 91.4 355.7 91.4L355.7 91.4Q356.3 91.4 356.8 91.5Q357.3 91.7 357.7 92.0Q358.0 92.2 358.3 92.6Q358.5 93.0 358.6 93.5L358.6 93.5L357.0 93.9Q356.9 93.6 356.8 93.4Q356.7 93.2 356.5 93.0Q356.4 92.9 356.2 92.8Q356.0 92.8 355.7 92.8L355.7 92.8Q355.3 92.8 354.9 93.0Q354.6 93.3 354.5 93.7Q354.3 94.2 354.3 94.7L354.3 94.7Q354.3 95.3 354.5 95.8Q354.6 96.2 354.9 96.5Q355.3 96.7 355.7 96.7L355.7 96.7Q356.0 96.7 356.2 96.7Q356.4 96.6 356.6 96.4Q356.7 96.3 356.8 96.1Q356.9 95.9 357.0 95.6L357.0 95.6L358.6 95.9Q358.5 96.4 358.3 96.8Q358.0 97.2 357.7 97.5Q357.3 97.8 356.8 98.0Q356.3 98.1 355.7 98.1ZM361.6 98L359.8 98L359.8 89.3L361.6 89.3L361.6 94.0L361.7 94.0L363.8 91.4L365.9 91.4L363.4 94.3L366.0 98L363.9 98L362.1 95.3L361.6 95.9L361.6 98ZM369.8 98.1L369.8 98.1Q368.8 98.1 368.0 97.7Q367.3 97.3 366.9 96.6Q366.5 95.8 366.5 94.8L366.5 94.8Q366.5 93.7 366.9 93.0Q367.3 92.2 368.0 91.8Q368.7 91.4 369.7 91.4L369.7 91.4Q370.3 91.4 370.9 91.6Q371.4 91.8 371.8 92.2Q372.3 92.6 372.5 93.2Q372.7 93.8 372.7 94.7L372.7 94.7L372.7 95.2L368.3 95.2Q368.3 95.7 368.5 96.0L368.5 96.0Q368.6 96.4 369.0 96.6Q369.3 96.8 369.8 96.8L369.8 96.8Q370.1 96.8 370.3 96.7Q370.6 96.6 370.8 96.5Q371.0 96.3 371.1 96.0L371.1 96.0L372.6 96.3Q372.5 96.9 372.1 97.3Q371.7 97.7 371.1 97.9Q370.5 98.1 369.8 98.1ZM368.3 94.1L368.3 94.1L371.1 94.1Q371.0 93.8 370.9 93.5L370.9 93.5Q370.8 93.1 370.4 92.9Q370.1 92.7 369.7 92.7L369.7 92.7Q369.2 92.7 368.9 92.9Q368.6 93.1 368.4 93.5L368.4 93.5Q368.3 93.7 368.3 94.1ZM375.7 98L373.9 98L373.9 91.4L375.6 91.4L375.6 92.6L375.7 92.6Q375.9 92.0 376.3 91.7Q376.7 91.4 377.3 91.4L377.3 91.4Q377.4 91.4 377.6 91.4Q377.7 91.4 377.9 91.4L377.9 91.4L377.9 93.0Q377.7 92.9 377.5 92.9Q377.3 92.9 377.1 92.9L377.1 92.9Q376.7 92.9 376.4 93.1Q376.1 93.2 375.9 93.6Q375.7 93.9 375.7 94.3L375.7 94.3L375.7 98Z "/></g><mask id="satori_om-id-1-2"><rect x="33" y="118" width="794" height="25" fill="#fff" mask="url(#satori_om-id)"/></mask><mask id="satori_om-id-1-2-0"><rect x="33" y="125" width="100" height="12" fill="#fff" mask="url(#satori_om-id)"/></mask><g mask="url(#satori_om-id)" clip-path="url(#satori_cp-id)"><path fill="#fb7185" d="M35.1 135L33.7 135L33.7 127.7L38.4 127.7L38.4 129.0L35.1 129.0L35.1 131.0L38.1 131.0L38.1 132.2L35.1 132.2L35.1 135ZM43.7 135.1L43.7 135.1Q42.8 135.1 42.0 134.7Q41.2 134.2 40.8 133.4Q40.3 132.5 40.3 131.4L40.3 131.4Q40.3 130.2 40.8 129.3Q41.2 128.5 42.0 128.1Q42.8 127.6 43.7 127.6L43.7 127.6Q44.7 127.6 45.5 128.1Q46.2 128.5 46.7 129.3Q47.1 130.2 47.1 131.4L47.1 131.4Q47.1 132.5 46.7 133.4Q46.2 134.2 45.5 134.7Q44.7 135.1 43.7 135.1ZM43.7 133.8L43.7 133.8Q44.3 133.8 44.7 133.5Q45.1 133.2 45.4 132.7Q45.6 132.1 45.6 131.4L45.6 131.4Q45.6 130.6 45.4 130.0Q45.1 129.5 44.7 129.2Q44.3 129.0 43.7 129.0L43.7 129.0Q43.2 129.0 42.7 129.2Q42.3 129.5 42.1 130.0Q41.8 130.6 41.8 131.4L41.8 131.4Q41.8 132.1 42.1 132.7Q42.3 133.2 42.7 133.5Q43.2 133.8 43.7 133.8ZM52.4 135.1L52.4 135.1Q51.4 135.1 50.7 134.7Q49.9 134.2 49.5 133.4Q49.0 132.5 49.0 131.4L49.0 131.4Q49.0 130.2 49.5 129.3Q49.9 128.5 50.7 128.1Q51.5 127.6 52.4 127.6L52.4 127.6Q53.0 127.6 53.6 127.8Q54.1 128.0 54.5 128.3Q54.9 128.6 55.2 129.1Q55.5 129.6 55.5 130.2L55.5 130.2L54.0 130.2Q54.0 129.9 53.8 129.7Q53.7 129.4 53.5 129.3Q53.3 129.1 53.0 129.0Q52.8 129.0 52.4 129.0L52.4 129.0Q51.9 129.0 51.4 129.2Q51.0 129.5 50.8 130.1Q50.5 130.6 50.5 131.4L50.5 131.4Q50.5 132.2 50.8 132.7Q51.0 133.2 51.5 133.5Q51.9 133.8 52.4 133.8L52.4 133.8Q52.7 133.8 53.0 133.7Q53.3 133.6 53.5 133.4Q53.7 133.3 53.8 133.0Q54.0 132.8 54.0 132.5L54.0 132.5L55.5 132.5Q55.5 133.0 55.2 133.5Q55.0 133.9 54.6 134.3Q54.2 134.7 53.7 134.9Q53.1 135.1 52.4 135.1ZM60.6 135.1L60.6 135.1Q59.7 135.1 59.1 134.8Q58.4 134.4 58.0 133.8Q57.6 133.2 57.6 132.4L57.6 132.4L57.6 127.7L59.1 127.7L59.1 132.3Q59.1 132.7 59.3 133.1Q59.5 133.4 59.8 133.6Q60.2 133.8 60.6 133.8L60.6 133.8Q61.1 133.8 61.4 133.6Q61.8 133.4 62.0 133.1Q62.1 132.7 62.1 132.3L62.1 132.3L62.1 127.7L63.6 127.7L63.6 132.4Q63.6 133.2 63.3 133.8Q62.9 134.4 62.2 134.8Q61.5 135.1 60.6 135.1ZM68.6 135.1L68.6 135.1Q67.7 135.1 67.1 134.8Q66.4 134.6 66.1 134.0Q65.7 133.5 65.7 132.7L65.7 132.7L67.2 132.7Q67.2 133.1 67.4 133.4Q67.6 133.6 67.9 133.7Q68.2 133.8 68.6 133.8L68.6 133.8Q69.0 133.8 69.3 133.7Q69.6 133.6 69.8 133.4Q69.9 133.2 69.9 132.9L69.9 132.9Q69.9 132.7 69.8 132.5Q69.6 132.3 69.3 132.2Q69.1 132.1 68.7 132.0L68.7 132.0L67.9 131.8Q66.9 131.6 66.4 131.1Q65.9 130.6 65.9 129.8L65.9 129.8Q65.9 129.2 66.3 128.7Q66.6 128.2 67.2 127.9Q67.8 127.6 68.6 127.6L68.6 127.6Q69.4 127.6 70.0 127.9Q70.6 128.2 71.0 128.7Q71.3 129.2 71.3 129.8L71.3 129.8L69.9 129.8Q69.8 129.4 69.5 129.1Q69.2 128.9 68.6 128.9L68.6 128.9Q68.2 128.9 68.0 129.0Q67.7 129.1 67.6 129.3Q67.4 129.5 67.4 129.7L67.4 129.7Q67.4 130.0 67.6 130.2Q67.8 130.3 68.0 130.5Q68.3 130.6 68.6 130.6L68.6 130.6L69.3 130.8Q69.7 130.9 70.1 131.1Q70.5 131.3 70.8 131.5Q71.1 131.8 71.3 132.1Q71.4 132.5 71.4 132.9L71.4 132.9Q71.4 133.6 71.1 134.1Q70.8 134.6 70.1 134.8Q69.5 135.1 68.6 135.1Z M78.1 135L76.4 135L78.9 127.7L80.9 127.7L83.4 135L81.8 135L81.2 133.3L78.6 133.3L78.1 135ZM79.0 132.1L80.8 132.1L80.6 131.5Q80.4 130.8 80.2 130L80.2 130Q80.0 129.5 79.9 128.9L79.9 128.9Q79.7 129.5 79.6 130.0L79.6 130.0Q79.4 130.8 79.2 131.5L79.2 131.5L79.0 132.1ZM86.8 135L85.3 135L85.3 127.7L88.2 127.7Q89.0 127.7 89.6 128.0Q90.2 128.3 90.5 128.8Q90.8 129.4 90.8 130.1Q90.8 130.8 90.5 131.3Q90.2 131.9 89.6 132.1L89.6 132.1Q89.5 132.1 89.5 132.2L89.5 132.2L91.0 135L89.4 135L88.0 132.4L86.8 132.4L86.8 135ZM86.8 129.0L86.8 131.2L87.9 131.2Q88.4 131.2 88.6 131.1Q88.9 130.9 89.1 130.7Q89.2 130.5 89.2 130.1L89.2 130.1Q89.2 129.7 89.1 129.5Q88.9 129.2 88.6 129.1Q88.3 129.0 87.9 129.0L87.9 129.0L86.8 129.0ZM97.8 135L92.9 135L92.9 127.7L97.8 127.7L97.8 129.0L94.4 129.0L94.4 130.7L97.5 130.7L97.5 131.9L94.4 131.9L94.4 133.8L97.8 133.8L97.8 135ZM101.2 135L99.6 135L102.0 127.7L104.0 127.7L106.5 135L104.9 135L104.3 133.3L101.7 133.3L101.2 135ZM102.1 132.1L103.9 132.1L103.7 131.5Q103.5 130.8 103.3 130L103.3 130Q103.2 129.5 103.0 128.9L103.0 128.9Q102.9 129.5 102.7 130.0L102.7 130.0Q102.5 130.8 102.3 131.5L102.3 131.5L102.1 132.1ZM111.1 135.1L111.1 135.1Q110.2 135.1 109.6 134.8Q108.9 134.6 108.6 134.0Q108.2 133.5 108.2 132.7L108.2 132.7L109.6 132.7Q109.7 133.1 109.9 133.4Q110.1 133.6 110.4 133.7Q110.7 133.8 111.1 133.8L111.1 133.8Q111.5 133.8 111.8 133.7Q112.1 133.6 112.2 133.4Q112.4 133.2 112.4 132.9L112.4 132.9Q112.4 132.7 112.3 132.5Q112.1 132.3 111.8 132.2Q111.6 132.1 111.2 132.0L111.2 132.0L110.4 131.8Q109.4 131.6 108.9 131.1Q108.4 130.6 108.4 129.8L108.4 129.8Q108.4 129.2 108.7 128.7Q109.1 128.2 109.7 127.9Q110.3 127.6 111.1 127.6L111.1 127.6Q111.9 127.6 112.5 127.9Q113.1 128.2 113.5 128.7Q113.8 129.2 113.8 129.8L113.8 129.8L112.4 129.8Q112.3 129.4 112.0 129.1Q111.7 128.9 111.1 128.9L111.1 128.9Q110.7 128.9 110.5 129.0Q110.2 129.1 110.1 129.3Q109.9 129.5 109.9 129.7L109.9 129.7Q109.9 130.0 110.1 130.2Q110.2 130.3 110.5 130.5Q110.8 130.6 111.1 130.6L111.1 130.6L111.7 130.8Q112.2 130.9 112.6 131.1Q113.0 131.3 113.3 131.5Q113.6 131.8 113.7 132.1Q113.9 132.5 113.9 132.9L113.9 132.9Q113.9 133.6 113.6 134.1Q113.2 134.6 112.6 134.8Q112.0 135.1 111.1 135.1Z "/></g><mask id="satori_om-id-1-2-1"><rect x="149" y="118" width="372" height="25" fill="#fff" mask="url(#satori_om-id)"/></mask><defs><clipPath id="satori_bc-id-1-2-1-0" clip-path="url(#satori_cp-id)"><path x="149" y="118" width="63" height="25" d="M155,118 h51 a6,6 0 0 1 6,6 v13 a6,6 0 0 1 -6,6 h-51 a6,6 0 0 1 -6,-6 v-13 a6,6 0 0 1 6,-6"/></clipPath></defs><mask id="satori_om-id-1-2-1-0"><rect x="150" y="119" width="61" height="23" fill="#fff" mask="url(#satori_om-id)"/><path width="63" height="25" fill="none" stroke="#000" stroke-width="2" d="M150.757,119.757 A6,6 0 0 1 155,118 h51 a6,6 0 0 1 6,6 v13 a6,6 0 0 1 -6,6 h-51 a6,6 0 0 1 -6,-6 v-13 A6,6 0 0 1 150.757,119.757"/></mask><path x="149" y="118" width="63" height="25" fill="#fb718515" d="M155,118 h51 a6,6 0 0 1 6,6 v13 a6,6 0 0 1 -6,6 h-51 a6,6 0 0 1 -6,-6 v-13 a6,6 0 0 1 6,-6" clip-path="url(#satori_cp-id)" mask="url(#satori_om-id)"/><path width="63" height="25" clip-path="url(#satori_bc-id-1-2-1-0)" fill="none" stroke="#fb718535" stroke-width="2" d="M150.757,119.757 A6,6 0 0 1 155,118 h51 a6,6 0 0 1 6,6 v13 a6,6 0 0 1 -6,6 h-51 a6,6 0 0 1 -6,-6 v-13 A6,6 0 0 1 150.757,119.757"/><g mask="url(#satori_om-id)" clip-path="url(#satori_cp-id)"><path fill="rgba(225,220,255,0.85)" d="M165.3 135L163.3 135L166.3 126.3L168.6 126.3L171.7 135L169.7 135L169.0 133.0L165.9 133.0L165.3 135ZM166.4 131.6L168.5 131.6L168.3 130.8Q168.0 130.0 167.8 129L167.8 129Q167.6 128.4 167.4 127.7L167.4 127.7Q167.2 128.4 167.1 129.0L167.1 129.0Q166.8 130.0 166.6 130.8L166.6 130.8L166.4 131.6ZM172.8 126.3L174.5 126.3L174.5 135L172.8 135L172.8 126.3ZM178.3 125.9L179.8 125.9L177.0 136.3L175.5 136.3L178.3 125.9ZM182.6 135L180.8 135L180.8 126.3L183.5 126.3L184.9 130.3Q185.0 130.6 185.1 131.0Q185.3 131.4 185.4 132.0L185.4 132.0Q185.5 132.5 185.6 132.9L185.6 132.9Q185.7 132.5 185.8 132.0L185.8 132.0Q185.9 131.5 186.0 131.0Q186.1 130.6 186.2 130.3L186.2 130.3L187.6 126.3L190.4 126.3L190.4 135L188.6 135L188.6 130.9Q188.6 130.6 188.6 130.2Q188.6 129.7 188.6 129.2Q188.6 128.8 188.6 128.3L188.6 128.3Q188.6 128.0 188.7 127.8L188.7 127.8Q188.6 128.1 188.5 128.3L188.5 128.3Q188.4 128.8 188.3 129.3Q188.1 129.8 188.0 130.2Q187.9 130.6 187.8 130.9L187.8 130.9L186.3 135L184.8 135L183.4 130.9Q183.3 130.6 183.1 130.2Q183.0 129.8 182.9 129.3Q182.7 128.8 182.6 128.3L182.6 128.3Q182.5 128.1 182.5 127.9L182.5 127.9Q182.5 128.0 182.5 128.2L182.5 128.2Q182.5 128.7 182.5 129.2Q182.5 129.7 182.5 130.2Q182.6 130.6 182.6 130.9L182.6 130.9L182.6 135ZM197.5 135L192.0 135L192.0 126.3L193.7 126.3L193.7 133.5L197.5 133.5L197.5 135Z "/></g><defs><clipPath id="satori_bc-id-1-2-1-1" clip-path="url(#satori_cp-id)"><path x="219" y="118" width="125" height="25" d="M225,118 h113 a6,6 0 0 1 6,6 v13 a6,6 0 0 1 -6,6 h-113 a6,6 0 0 1 -6,-6 v-13 a6,6 0 0 1 6,-6"/></clipPath></defs><mask id="satori_om-id-1-2-1-1"><rect x="220" y="119" width="123" height="23" fill="#fff" mask="url(#satori_om-id)"/><path width="125" height="25" fill="none" stroke="#000" stroke-width="2" d="M220.757,119.757 A6,6 0 0 1 225,118 h113 a6,6 0 0 1 6,6 v13 a6,6 0 0 1 -6,6 h-113 a6,6 0 0 1 -6,-6 v-13 A6,6 0 0 1 220.757,119.757"/></mask><path x="219" y="118" width="125" height="25" fill="#fb718515" d="M225,118 h113 a6,6 0 0 1 6,6 v13 a6,6 0 0 1 -6,6 h-113 a6,6 0 0 1 -6,-6 v-13 a6,6 0 0 1 6,-6" clip-path="url(#satori_cp-id)" mask="url(#satori_om-id)"/><path width="125" height="25" clip-path="url(#satori_bc-id-1-2-1-1)" fill="none" stroke="#fb718535" stroke-width="2" d="M220.757,119.757 A6,6 0 0 1 225,118 h113 a6,6 0 0 1 6,6 v13 a6,6 0 0 1 -6,6 h-113 a6,6 0 0 1 -6,-6 v-13 A6,6 0 0 1 220.757,119.757"/><g mask="url(#satori_om-id)" clip-path="url(#satori_cp-id)"><path fill="rgba(225,220,255,0.85)" d="M239.6 135L233.8 135L233.8 126.3L239.6 126.3L239.6 127.8L235.6 127.8L235.6 129.9L239.3 129.9L239.3 131.3L235.6 131.3L235.6 133.5L239.6 133.5L239.6 135ZM242.9 135L241.1 135L241.1 126.3L244.5 126.3Q245.5 126.3 246.2 126.6Q246.9 127.0 247.2 127.6Q247.6 128.3 247.6 129.1Q247.6 130.0 247.2 130.6Q246.9 131.2 246.2 131.5L246.2 131.5Q246.1 131.6 246.1 131.6L246.1 131.6L247.9 135L245.9 135L244.3 131.9L242.9 131.9L242.9 135ZM242.9 127.7L242.9 130.4L244.2 130.4Q244.7 130.4 245.1 130.3Q245.4 130.1 245.6 129.8Q245.8 129.5 245.8 129.1L245.8 129.1Q245.8 128.7 245.6 128.4Q245.4 128.1 245.1 127.9Q244.7 127.7 244.2 127.7L244.2 127.7L242.9 127.7ZM250.7 135L249.0 135L249.0 126.3L252.4 126.3Q253.4 126.3 254.1 126.6Q254.8 127.0 255.1 127.7Q255.5 128.4 255.5 129.2L255.5 129.2Q255.5 130.1 255.1 130.7Q254.7 131.4 254.0 131.8Q253.3 132.1 252.3 132.1L252.3 132.1L250.7 132.1L250.7 135ZM250.7 127.7L250.7 130.7L252.0 130.7Q252.6 130.7 252.9 130.5Q253.3 130.3 253.5 130.0Q253.6 129.7 253.6 129.2Q253.6 128.8 253.5 128.4Q253.3 128.1 252.9 127.9Q252.6 127.7 252.0 127.7L252.0 127.7L250.7 127.7Z M262.6 135L262.6 135L259.6 135L259.6 126.3L262.7 126.3Q264.0 126.3 264.9 126.8Q265.9 127.3 266.4 128.3Q266.9 129.3 266.9 130.6L266.9 130.6Q266.9 132.0 266.4 133.0Q265.9 134.0 264.9 134.5Q264.0 135 262.6 135ZM261.4 127.8L261.4 133.5L262.6 133.5Q263.4 133.5 264.0 133.2Q264.5 132.9 264.8 132.2Q265.1 131.6 265.1 130.6L265.1 130.6Q265.1 129.7 264.8 129.0Q264.5 128.4 264.0 128.1Q263.4 127.8 262.6 127.8L262.6 127.8L261.4 127.8ZM270.0 135.1L270.0 135.1Q269.4 135.1 268.9 134.9Q268.4 134.7 268.1 134.3Q267.9 133.8 267.9 133.2L267.9 133.2Q267.9 132.6 268.1 132.3Q268.3 131.9 268.6 131.7Q269.0 131.4 269.4 131.3Q269.8 131.2 270.3 131.2L270.3 131.2Q270.9 131.1 271.2 131.0Q271.6 131.0 271.8 130.9Q271.9 130.8 271.9 130.6L271.9 130.6L271.9 130.5Q271.9 130.3 271.8 130.1Q271.7 129.9 271.4 129.8Q271.2 129.7 270.9 129.7L270.9 129.7Q270.5 129.7 270.3 129.8Q270.0 129.9 269.9 130.0Q269.7 130.2 269.7 130.4L269.7 130.4L268.0 130.2Q268.2 129.6 268.6 129.2Q269.0 128.8 269.6 128.6Q270.2 128.4 270.9 128.4L270.9 128.4Q271.4 128.4 271.9 128.5Q272.4 128.6 272.8 128.9Q273.2 129.1 273.4 129.6Q273.7 130.0 273.7 130.6L273.7 130.6L273.7 135L272.0 135L272.0 134.1L271.9 134.1Q271.8 134.4 271.5 134.6Q271.3 134.9 270.9 135.0Q270.5 135.1 270.0 135.1ZM270.5 133.9L270.5 133.9Q270.9 133.9 271.3 133.7Q271.6 133.6 271.7 133.3Q271.9 133.0 271.9 132.7L271.9 132.7L271.9 131.9Q271.8 132.0 271.7 132.1Q271.5 132.1 271.3 132.1Q271.1 132.2 271.0 132.2Q270.8 132.2 270.6 132.2L270.6 132.2Q270.3 132.3 270.1 132.4Q269.8 132.5 269.7 132.7Q269.5 132.8 269.5 133.1L269.5 133.1Q269.5 133.4 269.7 133.5Q269.8 133.7 270.0 133.8Q270.2 133.9 270.5 133.9ZM277.8 135.1L277.8 135.1Q277.0 135.1 276.4 134.9Q275.8 134.7 275.4 134.2Q275.0 133.8 274.9 133.2L274.9 133.2L276.5 132.9Q276.6 133.4 277.0 133.6Q277.3 133.8 277.8 133.8L277.8 133.8Q278.3 133.8 278.6 133.6Q278.9 133.5 278.9 133.2L278.9 133.2Q278.9 132.9 278.7 132.7Q278.5 132.6 278.1 132.5L278.1 132.5L276.9 132.3Q276.0 132.1 275.5 131.6Q275.0 131.1 275.0 130.4L275.0 130.4Q275.0 129.8 275.4 129.3Q275.7 128.9 276.4 128.6Q277.0 128.4 277.8 128.4L277.8 128.4Q278.6 128.4 279.1 128.6Q279.7 128.8 280.1 129.2Q280.4 129.6 280.5 130.1L280.5 130.1L279.0 130.4Q278.9 130.1 278.6 129.8Q278.3 129.6 277.8 129.6L277.8 129.6Q277.4 129.6 277.1 129.8Q276.8 130.0 276.8 130.3L276.8 130.3Q276.8 130.5 277.0 130.7Q277.2 130.9 277.6 131.0L277.6 131.0L278.8 131.2Q279.8 131.4 280.2 131.8Q280.7 132.3 280.7 133.0L280.7 133.0Q280.7 133.6 280.3 134.1Q280.0 134.6 279.3 134.9Q278.6 135.1 277.8 135.1ZM283.6 131.2L283.6 131.2L283.6 135L281.9 135L281.9 126.3L283.6 126.3L283.6 129.7Q283.9 129.2 284.3 128.8L284.3 128.8Q284.8 128.4 285.6 128.4L285.6 128.4Q286.3 128.4 286.8 128.7Q287.3 129.0 287.6 129.5Q287.9 130.1 287.9 130.8L287.9 130.8L287.9 135L286.1 135L286.1 131.1Q286.1 130.5 285.8 130.2Q285.5 129.8 284.9 129.8L284.9 129.8Q284.6 129.8 284.3 130.0Q284.0 130.2 283.8 130.5Q283.6 130.8 283.6 131.2ZM293.0 135.1L293.0 135.1Q292.5 135.1 292.1 134.9Q291.8 134.7 291.5 134.5Q291.3 134.2 291.2 134.0L291.2 134.0L291.1 134.0L291.1 135L289.4 135L289.4 126.3L291.1 126.3L291.1 129.6L291.2 129.6Q291.3 129.3 291.5 129.0Q291.7 128.7 292.1 128.6Q292.5 128.4 293.0 128.4L293.0 128.4Q293.8 128.4 294.4 128.7Q295.0 129.1 295.3 129.9Q295.7 130.6 295.7 131.7L295.7 131.7Q295.7 132.8 295.3 133.6Q295.0 134.3 294.4 134.7Q293.8 135.1 293.0 135.1ZM292.5 133.7L292.5 133.7Q292.9 133.7 293.3 133.4Q293.6 133.2 293.7 132.8Q293.9 132.3 293.9 131.7L293.9 131.7Q293.9 131.2 293.7 130.7Q293.6 130.3 293.3 130.0Q293.0 129.8 292.5 129.8L292.5 129.8Q292.0 129.8 291.7 130.0Q291.4 130.3 291.2 130.7Q291.1 131.1 291.1 131.7L291.1 131.7Q291.1 132.3 291.2 132.8Q291.4 133.2 291.7 133.5Q292.0 133.7 292.5 133.7ZM299.9 135.1L299.9 135.1Q298.9 135.1 298.2 134.7Q297.4 134.3 297.0 133.5Q296.7 132.8 296.7 131.8L296.7 131.8Q296.7 130.7 297.0 130.0Q297.4 129.2 298.2 128.8Q298.9 128.4 299.9 128.4L299.9 128.4Q300.8 128.4 301.6 128.8Q302.3 129.2 302.7 130.0Q303.1 130.7 303.1 131.8L303.1 131.8Q303.1 132.8 302.7 133.5Q302.3 134.3 301.6 134.7Q300.8 135.1 299.9 135.1ZM299.9 133.7L299.9 133.7Q300.3 133.7 300.6 133.5Q301.0 133.2 301.1 132.8Q301.3 132.3 301.3 131.7L301.3 131.7Q301.3 131.2 301.1 130.7Q301.0 130.3 300.6 130.0Q300.3 129.8 299.9 129.8L299.9 129.8Q299.4 129.8 299.1 130.0Q298.8 130.3 298.6 130.7Q298.4 131.2 298.4 131.7L298.4 131.7Q298.4 132.3 298.6 132.8Q298.8 133.2 299.1 133.5Q299.4 133.7 299.9 133.7ZM306.1 135.1L306.1 135.1Q305.5 135.1 305.0 134.9Q304.5 134.7 304.2 134.3Q303.9 133.8 303.9 133.2L303.9 133.2Q303.9 132.6 304.1 132.3Q304.3 131.9 304.7 131.7Q305.0 131.4 305.5 131.3Q305.9 131.2 306.4 131.2L306.4 131.2Q307.0 131.1 307.3 131.0Q307.7 131.0 307.8 130.9Q308.0 130.8 308.0 130.6L308.0 130.6L308.0 130.5Q308.0 130.3 307.9 130.1Q307.8 129.9 307.5 129.8Q307.3 129.7 307.0 129.7L307.0 129.7Q306.6 129.7 306.4 129.8Q306.1 129.9 306.0 130.0Q305.8 130.2 305.7 130.4L305.7 130.4L304.1 130.2Q304.3 129.6 304.7 129.2Q305.1 128.8 305.7 128.6Q306.2 128.4 307.0 128.4L307.0 128.4Q307.5 128.4 308 128.5Q308.5 128.6 308.9 128.9Q309.3 129.1 309.5 129.6Q309.8 130.0 309.8 130.6L309.8 130.6L309.8 135L308.1 135L308.1 134.1L308.0 134.1Q307.9 134.4 307.6 134.6Q307.3 134.9 307.0 135.0Q306.6 135.1 306.1 135.1ZM306.6 133.9L306.6 133.9Q307.0 133.9 307.3 133.7Q307.7 133.6 307.8 133.3Q308.0 133.0 308.0 132.7L308.0 132.7L308.0 131.9Q307.9 132.0 307.8 132.1Q307.6 132.1 307.4 132.1Q307.2 132.2 307.0 132.2Q306.9 132.2 306.7 132.2L306.7 132.2Q306.4 132.3 306.1 132.4Q305.9 132.5 305.8 132.7Q305.6 132.8 305.6 133.1L305.6 133.1Q305.6 133.4 305.8 133.5Q305.9 133.7 306.1 133.8Q306.3 133.9 306.6 133.9ZM313.0 135L311.3 135L311.3 128.4L313.0 128.4L313.0 129.6L313.0 129.6Q313.2 129.0 313.6 128.7Q314.1 128.4 314.6 128.4L314.6 128.4Q314.7 128.4 314.9 128.4Q315.1 128.4 315.2 128.4L315.2 128.4L315.2 130.0Q315.1 129.9 314.8 129.9Q314.6 129.9 314.4 129.9L314.4 129.9Q314.0 129.9 313.7 130.1Q313.4 130.2 313.2 130.6Q313.0 130.9 313.0 131.3L313.0 131.3L313.0 135ZM318.5 135.1L318.5 135.1Q317.8 135.1 317.2 134.7Q316.6 134.3 316.2 133.6Q315.9 132.8 315.9 131.7L315.9 131.7Q315.9 130.6 316.2 129.9Q316.6 129.1 317.2 128.7Q317.8 128.4 318.5 128.4L318.5 128.4Q319.1 128.4 319.4 128.6Q319.8 128.7 320.0 129.0Q320.3 129.3 320.4 129.6L320.4 129.6L320.4 129.6L320.4 126.3L322.2 126.3L322.2 135L320.5 135L320.5 134.0L320.4 134.0Q320.3 134.2 320.0 134.5Q319.8 134.7 319.4 134.9Q319.1 135.1 318.5 135.1ZM319.1 133.7L319.1 133.7Q319.5 133.7 319.8 133.5Q320.2 133.2 320.3 132.8Q320.5 132.3 320.5 131.7L320.5 131.7Q320.5 131.1 320.3 130.7Q320.2 130.3 319.8 130.0Q319.5 129.8 319.1 129.8L319.1 129.8Q318.6 129.8 318.3 130.0Q318.0 130.3 317.8 130.7Q317.7 131.2 317.7 131.7L317.7 131.7Q317.7 132.3 317.8 132.8Q318.0 133.2 318.3 133.4Q318.6 133.7 319.1 133.7ZM326.3 135.1L326.3 135.1Q325.5 135.1 324.9 134.9Q324.3 134.7 323.9 134.2Q323.5 133.8 323.4 133.2L323.4 133.2L325.0 132.9Q325.2 133.4 325.5 133.6Q325.8 133.8 326.4 133.8L326.4 133.8Q326.9 133.8 327.2 133.6Q327.4 133.5 327.4 133.2L327.4 133.2Q327.4 132.9 327.2 132.7Q327.0 132.6 326.6 132.5L326.6 132.5L325.5 132.3Q324.5 132.1 324.0 131.6Q323.6 131.1 323.6 130.4L323.6 130.4Q323.6 129.8 323.9 129.3Q324.3 128.9 324.9 128.6Q325.5 128.4 326.3 128.4L326.3 128.4Q327.1 128.4 327.7 128.6Q328.2 128.8 328.6 129.2Q328.9 129.6 329.1 130.1L329.1 130.1L327.5 130.4Q327.4 130.1 327.1 129.8Q326.8 129.6 326.4 129.6L326.4 129.6Q325.9 129.6 325.6 129.8Q325.3 130.0 325.3 130.3L325.3 130.3Q325.3 130.5 325.5 130.7Q325.7 130.9 326.2 131.0L326.2 131.0L327.4 131.2Q328.3 131.4 328.8 131.8Q329.2 132.3 329.2 133.0L329.2 133.0Q329.2 133.6 328.9 134.1Q328.5 134.6 327.8 134.9Q327.2 135.1 326.3 135.1Z "/></g><defs><clipPath id="satori_bc-id-1-2-1-2" clip-path="url(#satori_cp-id)"><path x="351" y="118" width="170" height="25" d="M357,118 h158 a6,6 0 0 1 6,6 v13 a6,6 0 0 1 -6,6 h-158 a6,6 0 0 1 -6,-6 v-13 a6,6 0 0 1 6,-6"/></clipPath></defs><mask id="satori_om-id-1-2-1-2"><rect x="352" y="119" width="168" height="23" fill="#fff" mask="url(#satori_om-id)"/><path width="170" height="25" fill="none" stroke="#000" stroke-width="2" d="M352.757,119.757 A6,6 0 0 1 357,118 h158 a6,6 0 0 1 6,6 v13 a6,6 0 0 1 -6,6 h-158 a6,6 0 0 1 -6,-6 v-13 A6,6 0 0 1 352.757,119.757"/></mask><path x="351" y="118" width="170" height="25" fill="#fb718515" d="M357,118 h158 a6,6 0 0 1 6,6 v13 a6,6 0 0 1 -6,6 h-158 a6,6 0 0 1 -6,-6 v-13 a6,6 0 0 1 6,-6" clip-path="url(#satori_cp-id)" mask="url(#satori_om-id)"/><path width="170" height="25" clip-path="url(#satori_bc-id-1-2-1-2)" fill="none" stroke="#fb718535" stroke-width="2" d="M352.757,119.757 A6,6 0 0 1 357,118 h158 a6,6 0 0 1 6,6 v13 a6,6 0 0 1 -6,6 h-158 a6,6 0 0 1 -6,-6 v-13 A6,6 0 0 1 352.757,119.757"/><g mask="url(#satori_om-id)" clip-path="url(#satori_cp-id)"><path fill="rgba(225,220,255,0.85)" d="M369.7 135L367.6 135L365.3 126.3L367.2 126.3L368.3 130.6Q368.4 131.1 368.5 131.7Q368.6 132.3 368.7 132.9L368.7 132.9Q368.7 133.1 368.7 133.2L368.7 133.2Q368.7 133.1 368.8 132.9L368.8 132.9Q368.9 132.3 369.0 131.7Q369.1 131.1 369.2 130.6L369.2 130.6L370.3 126.3L372.2 126.3L373.2 130.6Q373.3 131.1 373.5 131.7Q373.6 132.3 373.7 132.9L373.7 132.9Q373.7 133.1 373.7 133.2L373.7 133.2Q373.7 133.1 373.8 132.9L373.8 132.9Q373.9 132.3 374.0 131.7Q374.1 131.1 374.2 130.6L374.2 130.6L375.2 126.3L377.2 126.3L374.8 135L372.8 135L371.6 130.5Q371.4 129.8 371.3 128.9L371.3 128.9Q371.3 128.7 371.2 128.4L371.2 128.4Q371.2 128.7 371.2 128.9L371.2 128.9Q371.0 129.7 370.8 130.5L370.8 130.5L369.7 135ZM381.1 135.1L381.1 135.1Q380.1 135.1 379.4 134.7Q378.7 134.3 378.3 133.5Q377.9 132.8 377.9 131.8L377.9 131.8Q377.9 130.7 378.3 130.0Q378.7 129.2 379.4 128.8Q380.1 128.4 381.1 128.4L381.1 128.4Q382.1 128.4 382.8 128.8Q383.6 129.2 383.9 130.0Q384.3 130.7 384.3 131.8L384.3 131.8Q384.3 132.8 383.9 133.5Q383.6 134.3 382.8 134.7Q382.1 135.1 381.1 135.1ZM381.1 133.7L381.1 133.7Q381.6 133.7 381.9 133.5Q382.2 133.2 382.4 132.8Q382.5 132.3 382.5 131.7L382.5 131.7Q382.5 131.2 382.4 130.7Q382.2 130.3 381.9 130.0Q381.6 129.8 381.1 129.8L381.1 129.8Q380.7 129.8 380.3 130.0Q380.0 130.3 379.9 130.7Q379.7 131.2 379.7 131.7L379.7 131.7Q379.7 132.3 379.9 132.8Q380.0 133.2 380.3 133.5Q380.7 133.7 381.1 133.7ZM387.3 135L385.6 135L385.6 128.4L387.3 128.4L387.3 129.6L387.3 129.6Q387.5 129.0 387.9 128.7Q388.4 128.4 388.9 128.4L388.9 128.4Q389.0 128.4 389.2 128.4Q389.4 128.4 389.5 128.4L389.5 128.4L389.5 130.0Q389.4 129.9 389.1 129.9Q388.9 129.9 388.7 129.9L388.7 129.9Q388.3 129.9 388.0 130.1Q387.7 130.2 387.5 130.6Q387.3 130.9 387.3 131.3L387.3 131.3L387.3 135ZM392.2 135L390.4 135L390.4 126.3L392.2 126.3L392.2 131.0L392.3 131.0L394.4 128.4L396.5 128.4L394.0 131.3L396.6 135L394.5 135L392.7 132.3L392.2 132.9L392.2 135ZM399.7 128.4L401.1 128.4L401.1 129.8L399.7 129.8L399.7 135L397.9 135L397.9 129.8L396.8 129.8L396.8 128.4L397.9 128.4L397.9 127.9Q397.9 127.2 398.2 126.8Q398.5 126.3 399.0 126.1Q399.4 125.9 400.1 125.9L400.1 125.9Q400.5 125.9 400.8 125.9Q401.2 126.0 401.3 126.0L401.3 126.0L401 127.4Q400.9 127.3 400.7 127.3Q400.6 127.3 400.4 127.3L400.4 127.3Q400.0 127.3 399.8 127.5Q399.7 127.7 399.7 128.0L399.7 128.0L399.7 128.4ZM402.2 126.3L403.9 126.3L403.9 135L402.2 135L402.2 126.3ZM408.4 135.1L408.4 135.1Q407.4 135.1 406.7 134.7Q405.9 134.3 405.5 133.5Q405.2 132.8 405.2 131.8L405.2 131.8Q405.2 130.7 405.5 130.0Q405.9 129.2 406.7 128.8Q407.4 128.4 408.4 128.4L408.4 128.4Q409.4 128.4 410.1 128.8Q410.8 129.2 411.2 130.0Q411.6 130.7 411.6 131.8L411.6 131.8Q411.6 132.8 411.2 133.5Q410.8 134.3 410.1 134.7Q409.4 135.1 408.4 135.1ZM408.4 133.7L408.4 133.7Q408.8 133.7 409.2 133.5Q409.5 133.2 409.6 132.8Q409.8 132.3 409.8 131.7L409.8 131.7Q409.8 131.2 409.6 130.7Q409.5 130.3 409.2 130.0Q408.8 129.8 408.4 129.8L408.4 129.8Q407.9 129.8 407.6 130.0Q407.3 130.3 407.1 130.7Q407.0 131.2 407.0 131.7L407.0 131.7Q407.0 132.3 407.1 132.8Q407.3 133.2 407.6 133.5Q407.9 133.7 408.4 133.7ZM415.9 135L414.2 135L412.2 128.4L414.1 128.4L414.6 130.9Q414.8 131.5 415.0 132.3L415.0 132.3Q415.1 132.8 415.2 133.4L415.2 133.4Q415.3 132.8 415.4 132.3L415.4 132.3Q415.6 131.5 415.7 130.9L415.7 130.9L416.3 128.4L418.0 128.4L418.5 130.9Q418.7 131.5 418.9 132.3L418.9 132.3Q419.0 132.8 419.1 133.4L419.1 133.4Q419.2 132.8 419.3 132.3L419.3 132.3Q419.5 131.5 419.6 130.9L419.6 130.9L420.2 128.4L422.1 128.4L420.1 135L418.3 135L417.6 132.5Q417.5 132.1 417.4 131.6Q417.3 131.2 417.2 130.7L417.2 130.7Q417.2 130.6 417.1 130.5L417.1 130.5Q417.1 130.6 417.1 130.7L417.1 130.7Q417.0 131.2 416.9 131.6Q416.8 132.1 416.7 132.5L416.7 132.5L415.9 135Z M429.7 135.1L429.7 135.1Q428.6 135.1 427.6 134.6Q426.7 134.1 426.2 133.1Q425.6 132.1 425.6 130.6L425.6 130.6Q425.6 129.2 426.2 128.2Q426.7 127.2 427.6 126.7Q428.6 126.2 429.7 126.2L429.7 126.2Q430.9 126.2 431.8 126.7Q432.7 127.2 433.2 128.2Q433.8 129.2 433.8 130.6L433.8 130.6Q433.8 132.1 433.2 133.1Q432.7 134.1 431.8 134.6Q430.9 135.1 429.7 135.1ZM429.7 133.5L429.7 133.5Q430.4 133.5 430.9 133.2Q431.4 132.9 431.7 132.2Q432.0 131.6 432.0 130.6L432.0 130.6Q432.0 129.7 431.7 129.0Q431.4 128.4 430.9 128.1Q430.4 127.7 429.7 127.7L429.7 127.7Q429.0 127.7 428.5 128.1Q428.0 128.4 427.7 129.1Q427.5 129.7 427.5 130.6L427.5 130.6Q427.5 131.6 427.7 132.2Q428.0 132.9 428.5 133.2Q429.0 133.5 429.7 133.5ZM436.8 135L435.1 135L435.1 128.4L436.8 128.4L436.8 129.6L436.9 129.6Q437.0 129.0 437.5 128.7Q437.9 128.4 438.4 128.4L438.4 128.4Q438.6 128.4 438.7 128.4Q438.9 128.4 439.0 128.4L439.0 128.4L439.0 130.0Q438.9 129.9 438.7 129.9Q438.4 129.9 438.2 129.9L438.2 129.9Q437.8 129.9 437.5 130.1Q437.2 130.2 437.0 130.6Q436.8 130.9 436.8 131.3L436.8 131.3L436.8 135ZM442.9 135.1L442.9 135.1Q441.9 135.1 441.2 134.7Q440.5 134.3 440.1 133.5Q439.7 132.8 439.7 131.8L439.7 131.8Q439.7 130.7 440.1 130.0Q440.5 129.2 441.2 128.8Q441.9 128.4 442.9 128.4L442.9 128.4Q443.5 128.4 444.0 128.5Q444.5 128.7 444.8 129.0Q445.2 129.2 445.5 129.6Q445.7 130.0 445.8 130.5L445.8 130.5L444.2 130.9Q444.1 130.6 444.0 130.4Q443.9 130.2 443.7 130.0Q443.6 129.9 443.4 129.8Q443.2 129.8 442.9 129.8L442.9 129.8Q442.4 129.8 442.1 130.0Q441.8 130.3 441.6 130.7Q441.5 131.2 441.5 131.7L441.5 131.7Q441.5 132.3 441.6 132.8Q441.8 133.2 442.1 133.5Q442.4 133.7 442.9 133.7L442.9 133.7Q443.2 133.7 443.4 133.7Q443.6 133.6 443.8 133.4Q443.9 133.3 444.0 133.1Q444.1 132.9 444.2 132.6L444.2 132.6L445.8 132.9Q445.7 133.4 445.5 133.8Q445.2 134.2 444.9 134.5Q444.5 134.8 444.0 135.0Q443.5 135.1 442.9 135.1ZM448.8 131.2L448.8 131.2L448.8 135L447.0 135L447.0 126.3L448.8 126.3L448.8 129.7Q449 129.2 449.4 128.8L449.4 128.8Q449.9 128.4 450.8 128.4L450.8 128.4Q451.4 128.4 451.9 128.7Q452.4 129.0 452.7 129.5Q453.0 130.1 453.0 130.8L453.0 130.8L453.0 135L451.2 135L451.2 131.1Q451.2 130.5 450.9 130.2Q450.6 129.8 450.1 129.8L450.1 129.8Q449.7 129.8 449.4 130.0Q449.1 130.2 449.0 130.5Q448.8 130.8 448.8 131.2ZM457.5 135.1L457.5 135.1Q456.5 135.1 455.7 134.7Q455.0 134.3 454.6 133.6Q454.2 132.8 454.2 131.8L454.2 131.8Q454.2 130.7 454.6 130.0Q455 129.2 455.7 128.8Q456.4 128.4 457.4 128.4L457.4 128.4Q458.0 128.4 458.6 128.6Q459.1 128.8 459.6 129.2Q460.0 129.6 460.2 130.2Q460.4 130.8 460.4 131.7L460.4 131.7L460.4 132.2L456.0 132.2Q456.0 132.7 456.2 133.0L456.2 133.0Q456.3 133.4 456.7 133.6Q457.0 133.8 457.5 133.8L457.5 133.8Q457.8 133.8 458.1 133.7Q458.3 133.6 458.5 133.5Q458.7 133.3 458.8 133.0L458.8 133.0L460.3 133.3Q460.2 133.9 459.8 134.3Q459.4 134.7 458.8 134.9Q458.2 135.1 457.5 135.1ZM456.0 131.1L456.0 131.1L458.8 131.1Q458.7 130.8 458.6 130.5L458.6 130.5Q458.5 130.1 458.1 129.9Q457.8 129.7 457.4 129.7L457.4 129.7Q456.9 129.7 456.6 129.9Q456.3 130.1 456.1 130.5L456.1 130.5Q456.0 130.7 456.0 131.1ZM464.3 135.1L464.3 135.1Q463.5 135.1 462.9 134.9Q462.2 134.7 461.9 134.2Q461.5 133.8 461.4 133.2L461.4 133.2L463.0 132.9Q463.1 133.4 463.4 133.6Q463.8 133.8 464.3 133.8L464.3 133.8Q464.8 133.8 465.1 133.6Q465.4 133.5 465.4 133.2L465.4 133.2Q465.4 132.9 465.2 132.7Q465.0 132.6 464.5 132.5L464.5 132.5L463.4 132.3Q462.5 132.1 462.0 131.6Q461.5 131.1 461.5 130.4L461.5 130.4Q461.5 129.8 461.9 129.3Q462.2 128.9 462.8 128.6Q463.4 128.4 464.3 128.4L464.3 128.4Q465.1 128.4 465.6 128.6Q466.2 128.8 466.5 129.2Q466.9 129.6 467.0 130.1L467.0 130.1L465.5 130.4Q465.4 130.1 465.1 129.8Q464.8 129.6 464.3 129.6L464.3 129.6Q463.9 129.6 463.6 129.8Q463.3 130.0 463.3 130.3L463.3 130.3Q463.3 130.5 463.5 130.7Q463.7 130.9 464.1 131.0L464.1 131.0L465.3 131.2Q466.3 131.4 466.7 131.8Q467.2 132.3 467.2 133.0L467.2 133.0Q467.2 133.6 466.8 134.1Q466.4 134.6 465.8 134.9Q465.1 135.1 464.3 135.1ZM470.4 128.4L471.6 128.4L471.6 129.8L470.4 129.8L470.4 133.1Q470.4 133.4 470.5 133.5Q470.7 133.7 471.0 133.7L471.0 133.7Q471.1 133.7 471.3 133.7Q471.5 133.6 471.6 133.6L471.6 133.6L471.8 134.9Q471.5 135.0 471.2 135.1Q470.9 135.1 470.7 135.1L470.7 135.1Q469.7 135.1 469.2 134.6Q468.6 134.1 468.6 133.2L468.6 133.2L468.6 129.8L467.7 129.8L467.7 128.4L468.6 128.4L468.6 126.9L470.4 126.9L470.4 128.4ZM474.5 135L472.8 135L472.8 128.4L474.5 128.4L474.5 129.6L474.5 129.6Q474.7 129.0 475.1 128.7Q475.6 128.4 476.1 128.4L476.1 128.4Q476.3 128.4 476.4 128.4Q476.6 128.4 476.7 128.4L476.7 128.4L476.7 130.0Q476.6 129.9 476.3 129.9Q476.1 129.9 475.9 129.9L475.9 129.9Q475.5 129.9 475.2 130.1Q474.9 130.2 474.7 130.6Q474.5 130.9 474.5 131.3L474.5 131.3L474.5 135ZM479.5 135.1L479.5 135.1Q478.9 135.1 478.4 134.9Q477.9 134.7 477.6 134.3Q477.3 133.8 477.3 133.2L477.3 133.2Q477.3 132.6 477.5 132.3Q477.7 131.9 478.1 131.7Q478.4 131.4 478.8 131.3Q479.3 131.2 479.8 131.2L479.8 131.2Q480.3 131.1 480.7 131.0Q481.0 131.0 481.2 130.9Q481.4 130.8 481.4 130.6L481.4 130.6L481.4 130.5Q481.4 130.3 481.2 130.1Q481.1 129.9 480.9 129.8Q480.7 129.7 480.3 129.7L480.3 129.7Q480.0 129.7 479.7 129.8Q479.5 129.9 479.3 130.0Q479.2 130.2 479.1 130.4L479.1 130.4L477.5 130.2Q477.7 129.6 478.1 129.2Q478.4 128.8 479.0 128.6Q479.6 128.4 480.3 128.4L480.3 128.4Q480.9 128.4 481.4 128.5Q481.9 128.6 482.3 128.9Q482.7 129.1 482.9 129.6Q483.1 130.0 483.1 130.6L483.1 130.6L483.1 135L481.5 135L481.5 134.1L481.4 134.1Q481.2 134.4 481.0 134.6Q480.7 134.9 480.3 135.0Q480.0 135.1 479.5 135.1ZM480.0 133.9L480.0 133.9Q480.4 133.9 480.7 133.7Q481.0 133.6 481.2 133.3Q481.4 133.0 481.4 132.7L481.4 132.7L481.4 131.9Q481.3 132.0 481.1 132.1Q481.0 132.1 480.8 132.1Q480.6 132.2 480.4 132.2Q480.2 132.2 480.1 132.2L480.1 132.2Q479.8 132.3 479.5 132.4Q479.3 132.5 479.1 132.7Q479.0 132.8 479.0 133.1L479.0 133.1Q479.0 133.4 479.1 133.5Q479.2 133.7 479.5 133.8Q479.7 133.9 480.0 133.9ZM486.6 128.4L487.9 128.4L487.9 129.8L486.6 129.8L486.6 133.1Q486.6 133.4 486.8 133.5Q486.9 133.7 487.2 133.7L487.2 133.7Q487.3 133.7 487.5 133.7Q487.7 133.6 487.8 133.6L487.8 133.6L488.1 134.9Q487.8 135.0 487.5 135.1Q487.2 135.1 486.9 135.1L486.9 135.1Q485.9 135.1 485.4 134.6Q484.9 134.1 484.9 133.2L484.9 133.2L484.9 129.8L484.0 129.8L484.0 128.4L484.9 128.4L484.9 126.9L486.6 126.9L486.6 128.4ZM490.8 135L489.0 135L489.0 128.4L490.8 128.4L490.8 135ZM489.9 127.6L489.9 127.6Q489.5 127.6 489.2 127.3Q488.9 127.1 488.9 126.7L488.9 126.7Q488.9 126.3 489.2 126.1Q489.5 125.8 489.9 125.8L489.9 125.8Q490.3 125.8 490.6 126.0Q490.9 126.3 490.9 126.7L490.9 126.7Q490.9 127.1 490.6 127.3Q490.3 127.6 489.9 127.6ZM495.2 135.1L495.2 135.1Q494.2 135.1 493.5 134.7Q492.8 134.3 492.4 133.5Q492.0 132.8 492.0 131.8L492.0 131.8Q492.0 130.7 492.4 130.0Q492.8 129.2 493.5 128.8Q494.2 128.4 495.2 128.4L495.2 128.4Q496.2 128.4 496.9 128.8Q497.6 129.2 498.0 130.0Q498.4 130.7 498.4 131.8L498.4 131.8Q498.4 132.8 498.0 133.5Q497.6 134.3 496.9 134.7Q496.2 135.1 495.2 135.1ZM495.2 133.7L495.2 133.7Q495.7 133.7 496.0 133.5Q496.3 133.2 496.5 132.8Q496.6 132.3 496.6 131.7L496.6 131.7Q496.6 131.2 496.5 130.7Q496.3 130.3 496.0 130.0Q495.7 129.8 495.2 129.8L495.2 129.8Q494.7 129.8 494.4 130.0Q494.1 130.3 493.9 130.7Q493.8 131.2 493.8 131.7L493.8 131.7Q493.8 132.3 493.9 132.8Q494.1 133.2 494.4 133.5Q494.7 133.7 495.2 133.7ZM501.4 131.2L501.4 131.2L501.4 135L499.6 135L499.6 128.4L501.3 128.4L501.3 129.8Q501.6 129.2 502.0 128.8L502.0 128.8Q502.5 128.4 503.3 128.4L503.3 128.4Q504.0 128.4 504.5 128.7Q505.0 129.0 505.3 129.5Q505.6 130.1 505.6 130.8L505.6 130.8L505.6 135L503.8 135L503.8 131.1Q503.8 130.5 503.5 130.2Q503.2 129.8 502.7 129.8L502.7 129.8Q502.3 129.8 502.0 130.0Q501.7 130.2 501.5 130.5Q501.4 130.8 501.4 131.2Z "/></g></svg>