<!-- Generated by readme-aura https://github.com/collectioneur/readme-aura -->
<svg width="160" height="52" viewBox="0 0 160 52" xmlns="http://www.w3.org/2000/svg"><mask id="satori_om-id"><rect x="14" y="0" width="160" height="52" fill="#fff"/></mask><path x="14" y="0" width="160" height="52" fill="#0077b5" d="M28,0 h132 a14,14 0 0 1 14,14 v24 a14,14 0 0 1 -14,14 h-132 a14,14 0 0 1 -14,-14 v-24 a14,14 0 0 1 14,-14"/><mask id="satori_om-id-0"><rect x="61" y="17" width="67" height="19" fill="#fff"/></mask><g  ><path fill="#fff" d="M69.5 33L62.1 33L62.1 21.4L64.4 21.4L64.4 31.0L69.5 31.0L69.5 33ZM73.4 33L71.0 33L71.0 24.3L73.4 24.3L73.4 33ZM72.2 23.1L72.2 23.1Q71.7 23.1 71.3 22.8Q70.9 22.4 70.9 21.9L70.9 21.9Q70.9 21.4 71.3 21.1Q71.7 20.7 72.2 20.7L72.2 20.7Q72.8 20.7 73.1 21.1Q73.5 21.4 73.5 21.9L73.5 21.9Q73.5 22.4 73.1 22.8Q72.8 23.1 72.2 23.1ZM77.7 27.9L77.7 27.9L77.7 33L75.4 33L75.4 24.3L77.6 24.3L77.6 26.1Q78.0 25.2 78.5 24.8L78.5 24.8Q79.2 24.2 80.3 24.2L80.3 24.2Q81.3 24.2 81.9 24.6Q82.6 24.9 83.0 25.7Q83.3 26.4 83.3 27.4L83.3 27.4L83.3 33L81 33L81 27.9Q81 27.0 80.6 26.6Q80.2 26.1 79.4 26.1L79.4 26.1Q78.9 26.1 78.5 26.3Q78.2 26.5 77.9 27.0Q77.7 27.4 77.7 27.9ZM87.7 33L85.3 33L85.3 21.4L87.7 21.4L87.7 27.6L87.8 27.6L90.7 24.3L93.4 24.3L90.1 28.1L93.6 33L90.8 33L88.4 29.4L87.7 30.2L87.7 33ZM98.6 33.2L98.6 33.2Q97.2 33.2 96.3 32.6Q95.3 32.1 94.8 31.1Q94.3 30.1 94.3 28.7L94.3 28.7Q94.3 27.3 94.8 26.3Q95.3 25.3 96.2 24.7Q97.2 24.2 98.5 24.2L98.5 24.2Q99.3 24.2 100.1 24.4Q100.8 24.7 101.4 25.3Q101.9 25.8 102.2 26.6Q102.6 27.5 102.6 28.6L102.6 28.6L102.6 29.2L96.6 29.2Q96.6 29.9 96.8 30.4L96.8 30.4Q97.1 30.9 97.5 31.1Q98 31.4 98.6 31.4L98.6 31.4Q99.0 31.4 99.4 31.3Q99.7 31.2 99.9 30.9Q100.2 30.7 100.3 30.4L100.3 30.4L102.4 30.8Q102.2 31.5 101.7 32.0Q101.2 32.6 100.4 32.9Q99.6 33.2 98.6 33.2ZM96.6 27.8L96.6 27.8L100.3 27.8Q100.3 27.3 100.1 27.0L100.1 27.0Q99.9 26.5 99.5 26.2Q99.1 25.9 98.5 25.9L98.5 25.9Q97.9 25.9 97.4 26.2Q97.0 26.5 96.8 27.0L96.8 27.0Q96.6 27.3 96.6 27.8ZM107.3 33.1L107.3 33.1Q106.3 33.1 105.5 32.6Q104.7 32.1 104.3 31.1Q103.8 30.1 103.8 28.6L103.8 28.6Q103.8 27.2 104.3 26.2Q104.8 25.2 105.6 24.7Q106.4 24.2 107.3 24.2L107.3 24.2Q108.1 24.2 108.6 24.4Q109.1 24.7 109.4 25.0Q109.7 25.4 109.8 25.7L109.8 25.7L109.9 25.7L109.9 21.4L112.2 21.4L112.2 33L109.9 33L109.9 31.6L109.8 31.6Q109.7 32.0 109.4 32.3Q109.0 32.7 108.6 32.9Q108.1 33.1 107.3 33.1ZM108.1 31.3L108.1 31.3Q108.7 31.3 109.1 30.9Q109.5 30.6 109.7 30.0Q109.9 29.4 109.9 28.6L109.9 28.6Q109.9 27.8 109.7 27.3Q109.5 26.7 109.1 26.4Q108.7 26.0 108.1 26.0L108.1 26.0Q107.5 26.0 107.0 26.4Q106.6 26.7 106.4 27.3Q106.2 27.9 106.2 28.6L106.2 28.6Q106.2 29.4 106.4 30Q106.6 30.6 107.0 30.9Q107.5 31.3 108.1 31.3ZM114.3 21.4L116.7 21.4L116.7 33L114.3 33L114.3 21.4ZM121.1 27.9L121.1 27.9L121.1 33L118.7 33L118.7 24.3L120.9 24.3L121.0 26.1Q121.3 25.2 121.9 24.8L121.9 24.8Q122.6 24.2 123.7 24.2L123.7 24.2Q124.6 24.2 125.3 24.6Q126.0 24.9 126.3 25.7Q126.7 26.4 126.7 27.4L126.7 27.4L126.7 33L124.4 33L124.4 27.9Q124.4 27.0 123.9 26.6Q123.5 26.1 122.8 26.1L122.8 26.1Q122.3 26.1 121.9 26.3Q121.5 26.5 121.3 27.0Q121.1 27.4 121.1 27.9Z "/></g></svg>