<!-- Generated by readme-aura https://github.com/collectioneur/readme-aura -->
<svg width="860" height="140" viewBox="0 0 860 140" xmlns="http://www.w3.org/2000/svg"><defs><clipPath id="satori_bc-id"><path x="0" y="0" width="860" height="140" d="M16,0 h828 a16,16 0 0 1 16,16 v108 a16,16 0 0 1 -16,16 h-828 a16,16 0 0 1 -16,-16 v-108 a16,16 0 0 1 16,-16"/></clipPath></defs><clipPath id="satori_cp-id"><path x="0" y="0" width="860" height="140" d="M16,0 h828 a16,16 0 0 1 16,16 v108 a16,16 0 0 1 -16,16 h-828 a16,16 0 0 1 -16,-16 v-108 a16,16 0 0 1 16,-16"/></clipPath><mask id="satori_om-id"><rect x="1" y="1" width="858" height="138" fill="#fff"/><path width="860" height="140" fill="none" stroke="#000" stroke-width="2" d="M4.686,4.686 A16,16 0 0 1 16,0 h828 a16,16 0 0 1 16,16 v108 a16,16 0 0 1 -16,16 h-828 a16,16 0 0 1 -16,-16 v-108 A16,16 0 0 1 4.686,4.686"/></mask><path x="0" y="0" width="860" height="140" fill="#08080c" d="M16,0 h828 a16,16 0 0 1 16,16 v108 a16,16 0 0 1 -16,16 h-828 a16,16 0 0 1 -16,-16 v-108 a16,16 0 0 1 16,-16"/><path width="860" height="140" clip-path="url(#satori_bc-id)" fill="none" stroke="rgba(110,80,220,0.18)" stroke-width="2" d="M4.686,4.686 A16,16 0 0 1 16,0 h828 a16,16 0 0 1 16,16 v108 a16,16 0 0 1 -16,16 h-828 a16,16 0 0 1 -16,-16 v-108 A16,16 0 0 1 4.686,4.686"/><defs><clipPath id="satori_bc-id-0" clip-path="url(#satori_cp-id)"><rect x="1" y="30" width="211" height="80"/></clipPath></defs><mask id="satori_om-id-0"><rect x="1" y="30" width="210" height="80" fill="#fff" mask="url(#satori_om-id)"/><path width="211" height="80" fill="none" stroke="#000" stroke-width="2" d="M212,30 A0,0 0 0 1 212,30 v80 A0,0 0 0 1 212,110"/></mask><path width="211" height="80" clip-path="url(#satori_bc-id-0)" fill="none" stroke="rgba(255,255,255,0.06)" stroke-width="2" d="M212,30 A0,0 0 0 1 212,30 v80 A0,0 0 0 1 212,110"/><mask id="satori_om-id-0-0"><rect x="87" y="46" width="38" height="30" fill="#fff" mask="url(#satori_om-id)"/></mask><g mask="url(#satori_om-id)" clip-path="url(#satori_cp-id)"><path fill="#a78bfa" d="M104.3 72L88.8 72L88.8 68.8L96.6 61.5Q97.5 60.6 98.2 59.8Q98.9 59.0 99.3 58.2Q99.6 57.5 99.6 56.6L99.6 56.6Q99.6 55.6 99.2 54.9Q98.7 54.2 98.0 53.8Q97.2 53.5 96.2 53.5L96.2 53.5Q95.2 53.5 94.5 53.9Q93.7 54.3 93.3 55.0Q92.9 55.8 92.9 56.9L92.9 56.9L88.6 56.9Q88.6 54.7 89.6 53.2Q90.6 51.6 92.3 50.7Q94.0 49.9 96.3 49.9L96.3 49.9Q98.6 49.9 100.3 50.7Q102.0 51.5 103.0 53.0Q104.0 54.4 104.0 56.3L104.0 56.3Q104.0 57.5 103.5 58.7Q103.0 59.9 101.8 61.4Q100.6 62.9 98.3 64.9L98.3 64.9L95.0 68.2L95.0 68.3L104.3 68.3L104.3 72ZM115.1 72.3L115.1 72.3Q112.9 72.3 111.1 71.5Q109.4 70.6 108.3 69.2Q107.3 67.7 107.3 65.9L107.3 65.9L111.6 65.9Q111.7 66.7 112.1 67.4Q112.6 68.0 113.4 68.4Q114.2 68.7 115.1 68.7L115.1 68.7Q116.2 68.7 117.0 68.3Q117.9 67.8 118.4 66.9Q118.8 66.0 118.8 64.9L118.8 64.9Q118.8 63.7 118.4 62.8Q117.9 61.9 117.0 61.4Q116.2 60.9 115.0 60.9L115.0 60.9Q114.0 60.9 113.1 61.3Q112.2 61.7 111.7 62.3L111.7 62.3L107.7 61.6L108.8 50.2L122.0 50.2L122.0 53.9L112.5 53.9L111.9 59.4L112.0 59.4Q112.6 58.6 113.8 58.1Q114.9 57.6 116.3 57.6L116.3 57.6Q117.8 57.6 119.1 58.1Q120.3 58.6 121.2 59.6Q122.2 60.5 122.7 61.9Q123.2 63.2 123.2 64.7L123.2 64.7Q123.2 66.9 122.2 68.6Q121.1 70.3 119.3 71.3Q117.5 72.3 115.1 72.3Z "/></g><mask id="satori_om-id-0-1"><rect x="84" y="81" width="45" height="13" fill="#fff" mask="url(#satori_om-id)"/></mask><g mask="url(#satori_om-id)" clip-path="url(#satori_cp-id)"><path fill="rgba(200,195,225,0.45)" d="M86.4 92L84.7 92L84.7 84.0L87.8 84.0Q88.8 84.0 89.4 84.3Q90.0 84.6 90.4 85.2Q90.7 85.8 90.7 86.6Q90.7 87.4 90.4 88.0Q90.0 88.5 89.4 88.8L89.4 88.8Q89.3 88.9 89.3 88.9L89.3 88.9L91.0 92L89.2 92L87.6 89.1L86.4 89.1L86.4 92ZM86.4 85.4L86.4 87.8L87.5 87.8Q88.0 87.8 88.4 87.7Q88.7 87.5 88.9 87.3Q89.0 87.0 89.0 86.6L89.0 86.6Q89.0 86.2 88.9 85.9Q88.7 85.6 88.4 85.5Q88.0 85.4 87.5 85.4L87.5 85.4L86.4 85.4ZM98.8 92L93.4 92L93.4 84.0L98.8 84.0L98.8 85.4L95.1 85.4L95.1 87.3L98.5 87.3L98.5 88.6L95.1 88.6L95.1 90.6L98.8 90.6L98.8 92ZM103.3 92L101.6 92L101.6 84.0L104.8 84.0Q105.7 84.0 106.3 84.3Q106.9 84.7 107.3 85.3Q107.6 85.9 107.6 86.7L107.6 86.7Q107.6 87.5 107.3 88.1Q106.9 88.7 106.3 89.0Q105.6 89.4 104.7 89.4L104.7 89.4L103.3 89.4L103.3 92ZM103.3 85.4L103.3 88.1L104.5 88.1Q105.0 88.1 105.3 87.9Q105.6 87.7 105.8 87.4Q105.9 87.1 105.9 86.7Q105.9 86.3 105.8 86.0Q105.6 85.7 105.3 85.5Q105.0 85.4 104.4 85.4L104.4 85.4L103.3 85.4ZM113.8 92.1L113.8 92.1Q112.7 92.1 111.9 91.6Q111.0 91.1 110.5 90.2Q110.0 89.3 110.0 88.0L110.0 88.0Q110.0 86.7 110.5 85.8Q111.0 84.9 111.9 84.4Q112.7 83.9 113.8 83.9L113.8 83.9Q114.8 83.9 115.7 84.4Q116.5 84.9 117.0 85.8Q117.5 86.7 117.5 88.0L117.5 88.0Q117.5 89.3 117.0 90.2Q116.5 91.1 115.7 91.6Q114.8 92.1 113.8 92.1ZM113.8 90.7L113.8 90.7Q114.4 90.7 114.9 90.3Q115.3 90.0 115.6 89.5Q115.8 88.9 115.8 88.0L115.8 88.0Q115.8 87.1 115.6 86.5Q115.3 86.0 114.9 85.6Q114.4 85.3 113.8 85.3L113.8 85.3Q113.2 85.3 112.7 85.7Q112.2 86.0 112.0 86.6Q111.7 87.1 111.7 88.0L111.7 88.0Q111.7 88.9 112.0 89.4Q112.2 90.0 112.7 90.3Q113.2 90.7 113.8 90.7ZM123.2 92.1L123.2 92.1Q122.2 92.1 121.5 91.8Q120.8 91.5 120.4 90.9Q120.0 90.4 120.0 89.5L120.0 89.5L121.6 89.5Q121.6 89.9 121.8 90.2Q122.0 90.5 122.4 90.6Q122.7 90.7 123.2 90.7L123.2 90.7Q123.6 90.7 123.9 90.6Q124.2 90.5 124.4 90.2Q124.6 90.0 124.6 89.7L124.6 89.7Q124.6 89.4 124.4 89.3Q124.3 89.1 124.0 88.9Q123.7 88.8 123.2 88.7L123.2 88.7L122.3 88.5Q121.3 88.2 120.8 87.7Q120.2 87.2 120.2 86.3L120.2 86.3Q120.2 85.6 120.6 85.0Q121.0 84.5 121.6 84.2Q122.3 83.9 123.2 83.9L123.2 83.9Q124.1 83.9 124.7 84.2Q125.4 84.5 125.8 85.0Q126.1 85.6 126.1 86.3L126.1 86.3L124.6 86.3Q124.5 85.8 124.2 85.5Q123.8 85.3 123.2 85.3L123.2 85.3Q122.8 85.3 122.5 85.4Q122.2 85.5 122.0 85.7Q121.9 85.9 121.9 86.2L121.9 86.2Q121.9 86.5 122.0 86.7Q122.2 86.9 122.5 87.0Q122.8 87.1 123.1 87.2L123.1 87.2L123.9 87.4Q124.4 87.5 124.8 87.7Q125.2 87.9 125.6 88.2Q125.9 88.4 126.1 88.8Q126.3 89.2 126.3 89.7L126.3 89.7Q126.3 90.4 125.9 91.0Q125.5 91.5 124.8 91.8Q124.1 92.1 123.2 92.1Z "/></g><defs><clipPath id="satori_bc-id-1" clip-path="url(#satori_cp-id)"><rect x="212" y="30" width="219" height="80"/></clipPath></defs><mask id="satori_om-id-1"><rect x="212" y="30" width="218" height="80" fill="#fff" mask="url(#satori_om-id)"/><path width="219" height="80" fill="none" stroke="#000" stroke-width="2" d="M431,30 A0,0 0 0 1 431,30 v80 A0,0 0 0 1 431,110"/></mask><path width="219" height="80" clip-path="url(#satori_bc-id-1)" fill="none" stroke="rgba(255,255,255,0.06)" stroke-width="2" d="M431,30 A0,0 0 0 1 431,30 v80 A0,0 0 0 1 431,110"/><mask id="satori_om-id-1-0"><rect x="295" y="46" width="52" height="30" fill="#fff" mask="url(#satori_om-id)"/></mask><g mask="url(#satori_om-id)" clip-path="url(#satori_cp-id)"><path fill="#60a5fa" d="M301.2 50.2L306.0 50.2L306.0 72L301.5 72L301.5 54.1L301.4 54.1L296.4 57.7L296.4 53.6L301.2 50.2ZM325.2 72L309.8 72L309.8 68.8L317.5 61.5Q318.5 60.6 319.2 59.8Q319.8 59.0 320.2 58.2Q320.6 57.5 320.6 56.6L320.6 56.6Q320.6 55.6 320.1 54.9Q319.7 54.2 318.9 53.8Q318.2 53.5 317.2 53.5L317.2 53.5Q316.2 53.5 315.4 53.9Q314.6 54.3 314.2 55.0Q313.8 55.8 313.8 56.9L313.8 56.9L309.5 56.9Q309.5 54.7 310.5 53.2Q311.5 51.6 313.2 50.7Q315.0 49.9 317.2 49.9L317.2 49.9Q319.5 49.9 321.3 50.7Q323.0 51.5 323.9 53.0Q324.9 54.4 324.9 56.3L324.9 56.3Q324.9 57.5 324.4 58.7Q323.9 59.9 322.7 61.4Q321.5 62.9 319.3 64.9L319.3 64.9L316.0 68.2L316.0 68.3L325.2 68.3L325.2 72ZM336.6 72.3L336.6 72.3Q334.1 72.3 332.3 71.5Q330.4 70.7 329.3 69.3Q328.2 67.9 328.2 66.1L328.2 66.1Q328.2 64.8 328.8 63.6Q329.5 62.5 330.5 61.7Q331.6 60.9 332.9 60.7L332.9 60.7L332.9 60.6Q331.2 60.2 330.1 58.9Q329.0 57.5 329.0 55.7L329.0 55.7Q329.0 54.1 330.0 52.7Q331.0 51.4 332.7 50.6Q334.4 49.9 336.6 49.9L336.6 49.9Q338.8 49.9 340.5 50.6Q342.2 51.4 343.2 52.7Q344.2 54.1 344.2 55.7L344.2 55.7Q344.2 57.5 343.1 58.9Q342.0 60.2 340.3 60.6L340.3 60.6L340.3 60.7Q341.6 60.9 342.7 61.7Q343.7 62.5 344.4 63.6Q345.0 64.8 345.0 66.1L345.0 66.1Q345.0 67.9 343.9 69.3Q342.8 70.7 340.9 71.5Q339.0 72.3 336.6 72.3ZM336.6 69.0L336.6 69.0Q337.7 69.0 338.5 68.6Q339.4 68.2 339.9 67.5Q340.3 66.7 340.3 65.8L340.3 65.8Q340.3 64.8 339.8 64.1Q339.4 63.3 338.5 62.9Q337.7 62.5 336.6 62.5L336.6 62.5Q335.5 62.5 334.7 62.9Q333.8 63.3 333.3 64.1Q332.9 64.8 332.9 65.8L332.9 65.8Q332.9 66.7 333.3 67.4Q333.8 68.2 334.6 68.6Q335.5 69.0 336.6 69.0ZM336.6 59.2L336.6 59.2Q337.5 59.2 338.2 58.8Q339.0 58.4 339.4 57.8Q339.8 57.1 339.8 56.2L339.8 56.2Q339.8 55.3 339.4 54.7Q339.0 54.0 338.3 53.7Q337.5 53.3 336.6 53.3L336.6 53.3Q335.6 53.3 334.9 53.7Q334.2 54.0 333.8 54.7Q333.4 55.3 333.4 56.2L333.4 56.2Q333.4 57.1 333.8 57.8Q334.2 58.4 334.9 58.8Q335.6 59.2 336.6 59.2Z "/></g><mask id="satori_om-id-1-1"><rect x="298" y="81" width="45" height="13" fill="#fff" mask="url(#satori_om-id)"/></mask><g mask="url(#satori_om-id)" clip-path="url(#satori_cp-id)"><path fill="rgba(200,195,225,0.45)" d="M301.7 92.1L301.7 92.1Q300.7 92.1 300.0 91.8Q299.3 91.5 298.9 90.9Q298.5 90.4 298.5 89.5L298.5 89.5L300.1 89.5Q300.1 89.9 300.3 90.2Q300.5 90.5 300.9 90.6Q301.2 90.7 301.6 90.7L301.6 90.7Q302.1 90.7 302.4 90.6Q302.7 90.5 302.9 90.2Q303.1 90.0 303.1 89.7L303.1 89.7Q303.1 89.4 302.9 89.3Q302.8 89.1 302.5 88.9Q302.2 88.8 301.7 88.7L301.7 88.7L300.8 88.5Q299.8 88.2 299.2 87.7Q298.7 87.2 298.7 86.3L298.7 86.3Q298.7 85.6 299.1 85.0Q299.5 84.5 300.1 84.2Q300.8 83.9 301.7 83.9L301.7 83.9Q302.6 83.9 303.2 84.2Q303.9 84.5 304.3 85.0Q304.6 85.6 304.6 86.3L304.6 86.3L303.1 86.3Q303.0 85.8 302.6 85.5Q302.3 85.3 301.7 85.3L301.7 85.3Q301.2 85.3 301.0 85.4Q300.7 85.5 300.5 85.7Q300.4 85.9 300.4 86.2L300.4 86.2Q300.4 86.5 300.5 86.7Q300.7 86.9 301.0 87.0Q301.3 87.1 301.6 87.2L301.6 87.2L302.4 87.4Q302.9 87.5 303.3 87.7Q303.7 87.9 304.1 88.2Q304.4 88.4 304.6 88.8Q304.7 89.2 304.7 89.7L304.7 89.7Q304.7 90.4 304.4 91.0Q304.0 91.5 303.3 91.8Q302.6 92.1 301.7 92.1ZM309.6 85.4L307.1 85.4L307.1 84.0L313.6 84.0L313.6 85.4L311.2 85.4L311.2 92L309.6 92L309.6 85.4ZM317.6 92L315.8 92L318.5 84.0L320.7 84.0L323.5 92L321.7 92L321.1 90.1L318.2 90.1L317.6 92ZM318.6 88.9L320.6 88.9L320.4 88.1Q320.2 87.4 319.9 86.5L319.9 86.5Q319.8 85.9 319.6 85.3L319.6 85.3Q319.4 85.9 319.3 86.5L319.3 86.5Q319.1 87.4 318.9 88.1L318.9 88.1L318.6 88.9ZM327.6 92L326.0 92L326.0 84.0L329.1 84.0Q330.0 84.0 330.7 84.3Q331.3 84.6 331.6 85.2Q332.0 85.8 332.0 86.6Q332.0 87.4 331.6 88.0Q331.3 88.5 330.6 88.8L330.6 88.8Q330.6 88.9 330.5 88.9L330.5 88.9L332.3 92L330.4 92L328.9 89.1L327.6 89.1L327.6 92ZM327.6 85.4L327.6 87.8L328.8 87.8Q329.3 87.8 329.6 87.7Q330.0 87.5 330.1 87.3Q330.3 87.0 330.3 86.6L330.3 86.6Q330.3 86.2 330.1 85.9Q330.0 85.6 329.6 85.5Q329.3 85.4 328.8 85.4L328.8 85.4L327.6 85.4ZM337.6 92.1L337.6 92.1Q336.7 92.1 336.0 91.8Q335.3 91.5 334.9 90.9Q334.5 90.4 334.4 89.5L334.4 89.5L336.0 89.5Q336.1 89.9 336.3 90.2Q336.5 90.5 336.8 90.6Q337.2 90.7 337.6 90.7L337.6 90.7Q338.1 90.7 338.4 90.6Q338.7 90.5 338.9 90.2Q339.1 90.0 339.1 89.7L339.1 89.7Q339.1 89.4 338.9 89.3Q338.8 89.1 338.4 88.9Q338.1 88.8 337.7 88.7L337.7 88.7L336.8 88.5Q335.8 88.2 335.2 87.7Q334.7 87.2 334.7 86.3L334.7 86.3Q334.7 85.6 335.0 85.0Q335.4 84.5 336.1 84.2Q336.8 83.9 337.7 83.9L337.7 83.9Q338.5 83.9 339.2 84.2Q339.9 84.5 340.2 85.0Q340.6 85.6 340.6 86.3L340.6 86.3L339.0 86.3Q339.0 85.8 338.6 85.5Q338.3 85.3 337.6 85.3L337.6 85.3Q337.2 85.3 336.9 85.4Q336.6 85.5 336.5 85.7Q336.3 85.9 336.3 86.2L336.3 86.2Q336.3 86.5 336.5 86.7Q336.7 86.9 337.0 87.0Q337.3 87.1 337.6 87.2L337.6 87.2L338.3 87.4Q338.8 87.5 339.3 87.7Q339.7 87.9 340.0 88.2Q340.4 88.4 340.5 88.8Q340.7 89.2 340.7 89.7L340.7 89.7Q340.7 90.4 340.4 91.0Q340.0 91.5 339.3 91.8Q338.6 92.1 337.6 92.1Z "/></g><defs><clipPath id="satori_bc-id-2" clip-path="url(#satori_cp-id)"><rect x="431" y="30" width="236" height="80"/></clipPath></defs><mask id="satori_om-id-2"><rect x="431" y="30" width="235" height="80" fill="#fff" mask="url(#satori_om-id)"/><path width="236" height="80" fill="none" stroke="#000" stroke-width="2" d="M667,30 A0,0 0 0 1 667,30 v80 A0,0 0 0 1 667,110"/></mask><path width="236" height="80" clip-path="url(#satori_bc-id-2)" fill="none" stroke="rgba(255,255,255,0.06)" stroke-width="2" d="M667,30 A0,0 0 0 1 667,30 v80 A0,0 0 0 1 667,110"/><mask id="satori_om-id-2-0"><rect x="514" y="46" width="70" height="30" fill="#fff" mask="url(#satori_om-id)"/></mask><g mask="url(#satori_om-id)" clip-path="url(#satori_cp-id)"><path fill="#f59e0b" d="M520.2 50.2L525.0 50.2L525.0 72L520.5 72L520.5 54.1L520.4 54.1L515.4 57.7L515.4 53.6L520.2 50.2ZM536.1 72.3L536.1 72.3Q533.9 72.3 532.1 71.5Q530.4 70.6 529.4 69.2Q528.4 67.7 528.3 65.9L528.3 65.9L532.7 65.9Q532.7 66.7 533.2 67.4Q533.7 68.0 534.4 68.4Q535.2 68.7 536.1 68.7L536.1 68.7Q537.2 68.7 538.1 68.3Q538.9 67.8 539.4 66.9Q539.9 66.0 539.9 64.9L539.9 64.9Q539.9 63.7 539.4 62.8Q538.9 61.9 538.0 61.4Q537.2 60.9 536.1 60.9L536.1 60.9Q535.1 60.9 534.2 61.3Q533.3 61.7 532.8 62.3L532.8 62.3L528.8 61.6L529.8 50.2L543.0 50.2L543.0 53.9L533.5 53.9L533.0 59.4L533.1 59.4Q533.7 58.6 534.8 58.1Q536.0 57.6 537.4 57.6L537.4 57.6Q538.8 57.6 540.1 58.1Q541.3 58.6 542.3 59.6Q543.2 60.5 543.7 61.9Q544.2 63.2 544.2 64.7L544.2 64.7Q544.2 66.9 543.2 68.6Q542.2 70.3 540.4 71.3Q538.5 72.3 536.1 72.3ZM557.5 68.1L547.1 68.1L547.1 64.6L556.2 50.2L561.8 50.2L561.8 64.5L564.5 64.5L564.5 68.1L561.8 68.1L561.8 72L557.5 72L557.5 68.1ZM551.6 64.5L557.6 64.5L557.6 55.1L557.4 55.1L551.6 64.3L551.6 64.5ZM573.1 72L568.5 72L577.6 54.0L577.6 53.9L567.0 53.9L567.0 50.2L582.2 50.2L582.2 53.9L573.1 72Z "/></g><mask id="satori_om-id-2-1"><rect x="516" y="81" width="66" height="13" fill="#fff" mask="url(#satori_om-id)"/></mask><g mask="url(#satori_om-id)" clip-path="url(#satori_cp-id)"><path fill="rgba(200,195,225,0.45)" d="M520.2 92.1L520.2 92.1Q519.2 92.1 518.3 91.6Q517.5 91.1 517.0 90.2Q516.5 89.3 516.5 88.0L516.5 88.0Q516.5 86.7 517.0 85.8Q517.5 84.9 518.3 84.4Q519.2 83.9 520.2 83.9L520.2 83.9Q520.9 83.9 521.5 84.1Q522.1 84.3 522.5 84.6Q523.0 85.0 523.3 85.5Q523.6 86.1 523.7 86.7L523.7 86.7L522.0 86.7Q522.0 86.4 521.8 86.1Q521.6 85.9 521.4 85.7Q521.2 85.5 520.9 85.4Q520.6 85.3 520.3 85.3L520.3 85.3Q519.6 85.3 519.2 85.7Q518.7 86.0 518.4 86.6Q518.2 87.2 518.2 88.0L518.2 88.0Q518.2 88.9 518.4 89.5Q518.7 90.1 519.2 90.4Q519.6 90.7 520.2 90.7L520.2 90.7Q520.6 90.7 520.9 90.6Q521.2 90.5 521.4 90.3Q521.6 90.1 521.8 89.8Q522.0 89.6 522.0 89.3L522.0 89.3L523.7 89.3Q523.6 89.8 523.3 90.3Q523.1 90.8 522.6 91.2Q522.2 91.6 521.6 91.9Q521.0 92.1 520.2 92.1ZM529.9 92.1L529.9 92.1Q528.8 92.1 528.0 91.6Q527.1 91.1 526.6 90.2Q526.1 89.3 526.1 88.0L526.1 88.0Q526.1 86.7 526.6 85.8Q527.1 84.9 528.0 84.4Q528.8 83.9 529.9 83.9L529.9 83.9Q530.9 83.9 531.8 84.4Q532.6 84.9 533.1 85.8Q533.6 86.7 533.6 88.0L533.6 88.0Q533.6 89.3 533.1 90.2Q532.6 91.1 531.8 91.6Q530.9 92.1 529.9 92.1ZM529.9 90.7L529.9 90.7Q530.5 90.7 531.0 90.3Q531.4 90.0 531.7 89.5Q531.9 88.9 531.9 88.0L531.9 88.0Q531.9 87.1 531.7 86.5Q531.4 86.0 531.0 85.6Q530.5 85.3 529.9 85.3L529.9 85.3Q529.3 85.3 528.8 85.7Q528.3 86.0 528.1 86.6Q527.8 87.1 527.8 88.0L527.8 88.0Q527.8 88.9 528.1 89.4Q528.3 90.0 528.8 90.3Q529.3 90.7 529.9 90.7ZM538.0 92L536.3 92L536.3 84.0L538.9 84.0L540.2 87.7Q540.2 87.9 540.3 88.3Q540.4 88.7 540.5 89.2L540.5 89.2Q540.7 89.7 540.7 90.1L540.7 90.1Q540.8 89.7 540.9 89.2L540.9 89.2Q541.0 88.8 541.2 88.3Q541.3 87.9 541.3 87.7L541.3 87.7L542.6 84.0L545.1 84.0L545.1 92L543.5 92L543.5 88.2Q543.5 88.0 543.5 87.6Q543.5 87.2 543.5 86.7Q543.5 86.3 543.5 85.8L543.5 85.8Q543.6 85.6 543.6 85.4L543.6 85.4Q543.5 85.6 543.4 85.9L543.4 85.9Q543.3 86.3 543.2 86.8Q543.1 87.2 542.9 87.6Q542.8 88.0 542.8 88.2L542.8 88.2L541.4 92L540.0 92L538.7 88.2Q538.6 88.0 538.5 87.6Q538.4 87.2 538.3 86.8Q538.1 86.4 538.0 85.9L538.0 85.9Q538.0 85.7 537.9 85.5L537.9 85.5Q537.9 85.6 537.9 85.8L537.9 85.8Q537.9 86.2 537.9 86.7Q537.9 87.2 538.0 87.6Q538.0 88.0 538.0 88.2L538.0 88.2L538.0 92ZM549.7 92L548.1 92L548.1 84.0L550.6 84.0L551.9 87.7Q552.0 87.9 552.1 88.3Q552.2 88.7 552.3 89.2L552.3 89.2Q552.4 89.7 552.5 90.1L552.5 90.1Q552.6 89.7 552.7 89.2L552.7 89.2Q552.8 88.8 552.9 88.3Q553.0 87.9 553.1 87.7L553.1 87.7L554.4 84.0L556.9 84.0L556.9 92L555.2 92L555.2 88.2Q555.2 88.0 555.2 87.6Q555.3 87.2 555.3 86.7Q555.3 86.3 555.3 85.8L555.3 85.8Q555.3 85.6 555.3 85.4L555.3 85.4Q555.2 85.6 555.2 85.9L555.2 85.9Q555.1 86.3 554.9 86.8Q554.8 87.2 554.7 87.6Q554.6 88.0 554.5 88.2L554.5 88.2L553.2 92L551.8 92L550.4 88.2Q550.4 88.0 550.3 87.6Q550.1 87.2 550.0 86.8Q549.9 86.4 549.8 85.9L549.8 85.9Q549.7 85.7 549.7 85.5L549.7 85.5Q549.7 85.6 549.7 85.8L549.7 85.8Q549.7 86.2 549.7 86.7Q549.7 87.2 549.7 87.6Q549.7 88.0 549.7 88.2L549.7 88.2L549.7 92ZM559.8 84.0L561.5 84.0L561.5 92L559.8 92L559.8 84.0ZM566.5 85.4L564.1 85.4L564.1 84.0L570.6 84.0L570.6 85.4L568.2 85.4L568.2 92L566.5 92L566.5 85.4ZM576.2 92.1L576.2 92.1Q575.2 92.1 574.5 91.8Q573.8 91.5 573.4 90.9Q573.0 90.4 573.0 89.5L573.0 89.5L574.6 89.5Q574.6 89.9 574.8 90.2Q575.0 90.5 575.4 90.6Q575.7 90.7 576.2 90.7L576.2 90.7Q576.6 90.7 576.9 90.6Q577.3 90.5 577.5 90.2Q577.6 90.0 577.6 89.7L577.6 89.7Q577.6 89.4 577.5 89.3Q577.3 89.1 577.0 88.9Q576.7 88.8 576.3 88.7L576.3 88.7L575.4 88.5Q574.4 88.2 573.8 87.7Q573.2 87.2 573.2 86.3L573.2 86.3Q573.2 85.6 573.6 85.0Q574.0 84.5 574.7 84.2Q575.3 83.9 576.2 83.9L576.2 83.9Q577.1 83.9 577.8 84.2Q578.4 84.5 578.8 85.0Q579.2 85.6 579.2 86.3L579.2 86.3L577.6 86.3Q577.6 85.8 577.2 85.5Q576.8 85.3 576.2 85.3L576.2 85.3Q575.8 85.3 575.5 85.4Q575.2 85.5 575.0 85.7Q574.9 85.9 574.9 86.2L574.9 86.2Q574.9 86.5 575.1 86.7Q575.2 86.9 575.5 87.0Q575.8 87.1 576.2 87.2L576.2 87.2L576.9 87.4Q577.4 87.5 577.8 87.7Q578.3 87.9 578.6 88.2Q578.9 88.4 579.1 88.8Q579.3 89.2 579.3 89.7L579.3 89.7Q579.3 90.4 578.9 91.0Q578.6 91.5 577.9 91.8Q577.2 92.1 576.2 92.1Z "/></g><mask id="satori_om-id-3"><rect x="667" y="30" width="192" height="80" fill="#fff" mask="url(#satori_om-id)"/></mask><mask id="satori_om-id-3-0"><rect x="753" y="46" width="21" height="30" fill="#fff" mask="url(#satori_om-id)"/></mask><g mask="url(#satori_om-id)" clip-path="url(#satori_cp-id)"><path fill="#fb7185" d="M763.1 72.3L763.1 72.3Q760.4 72.3 758.4 71.0Q756.5 69.6 755.4 67.1Q754.4 64.6 754.4 61.1L754.4 61.1Q754.4 57.6 755.4 55.1Q756.5 52.5 758.4 51.2Q760.4 49.9 763.1 49.9L763.1 49.9Q765.9 49.9 767.8 51.2Q769.8 52.6 770.8 55.1Q771.9 57.6 771.9 61.1L771.9 61.1Q771.9 64.6 770.8 67.1Q769.8 69.6 767.8 71.0Q765.9 72.3 763.1 72.3ZM763.1 68.6L763.1 68.6Q764.5 68.6 765.4 67.7Q766.3 66.8 766.8 65.2Q767.3 63.5 767.3 61.1L767.3 61.1Q767.3 58.7 766.8 57.0Q766.3 55.3 765.4 54.5Q764.5 53.6 763.1 53.6L763.1 53.6Q761.8 53.6 760.8 54.5Q759.9 55.3 759.4 57.0Q758.9 58.7 758.9 61.1L758.9 61.1Q758.9 63.5 759.4 65.2Q759.9 66.8 760.8 67.7Q761.8 68.6 763.1 68.6Z "/></g><mask id="satori_om-id-3-1"><rect x="750" y="81" width="27" height="13" fill="#fff" mask="url(#satori_om-id)"/></mask><g mask="url(#satori_om-id)" clip-path="url(#satori_cp-id)"><path fill="rgba(200,195,225,0.45)" d="M752.4 92L750.7 92L750.7 84.0L753.8 84.0Q754.8 84.0 755.4 84.3Q756.0 84.7 756.4 85.3Q756.7 85.9 756.7 86.7L756.7 86.7Q756.7 87.5 756.4 88.1Q756.0 88.7 755.4 89.0Q754.7 89.4 753.8 89.4L753.8 89.4L752.4 89.4L752.4 92ZM752.4 85.4L752.4 88.1L753.5 88.1Q754.0 88.1 754.4 87.9Q754.7 87.7 754.9 87.4Q755.0 87.1 755.0 86.7Q755.0 86.3 754.9 86.0Q754.7 85.7 754.4 85.5Q754.0 85.4 753.5 85.4L753.5 85.4L752.4 85.4ZM761.0 92L759.4 92L759.4 84.0L762.5 84.0Q763.4 84.0 764.0 84.3Q764.7 84.6 765.0 85.2Q765.3 85.8 765.3 86.6Q765.3 87.4 765.0 88.0Q764.7 88.5 764.0 88.8L764.0 88.8Q764.0 88.9 763.9 88.9L763.9 88.9L765.6 92L763.8 92L762.3 89.1L761.0 89.1L761.0 92ZM761.0 85.4L761.0 87.8L762.2 87.8Q762.7 87.8 763.0 87.7Q763.3 87.5 763.5 87.3Q763.6 87.0 763.6 86.6L763.6 86.6Q763.6 86.2 763.5 85.9Q763.3 85.6 763.0 85.5Q762.7 85.4 762.2 85.4L762.2 85.4L761.0 85.4ZM771.0 92.1L771.0 92.1Q770.0 92.1 769.3 91.8Q768.6 91.5 768.2 90.9Q767.8 90.4 767.8 89.5L767.8 89.5L769.4 89.5Q769.4 89.9 769.6 90.2Q769.9 90.5 770.2 90.6Q770.6 90.7 771.0 90.7L771.0 90.7Q771.4 90.7 771.8 90.6Q772.1 90.5 772.3 90.2Q772.4 90.0 772.4 89.7L772.4 89.7Q772.4 89.4 772.3 89.3Q772.1 89.1 771.8 88.9Q771.5 88.8 771.1 88.7L771.1 88.7L770.2 88.5Q769.2 88.2 768.6 87.7Q768.0 87.2 768.0 86.3L768.0 86.3Q768.0 85.6 768.4 85.0Q768.8 84.5 769.5 84.2Q770.2 83.9 771.0 83.9L771.0 83.9Q771.9 83.9 772.6 84.2Q773.2 84.5 773.6 85.0Q774.0 85.6 774.0 86.3L774.0 86.3L772.4 86.3Q772.4 85.8 772.0 85.5Q771.6 85.3 771.0 85.3L771.0 85.3Q770.6 85.3 770.3 85.4Q770.0 85.5 769.9 85.7Q769.7 85.9 769.7 86.2L769.7 86.2Q769.7 86.5 769.9 86.7Q770.1 86.9 770.4 87.0Q770.6 87.1 771.0 87.2L771.0 87.2L771.7 87.4Q772.2 87.5 772.6 87.7Q773.1 87.9 773.4 88.2Q773.7 88.4 773.9 88.8Q774.1 89.2 774.1 89.7L774.1 89.7Q774.1 90.4 773.7 91.0Q773.4 91.5 772.7 91.8Q772.0 92.1 771.0 92.1Z "/></g></svg>