<!-- Generated by readme-aura https://github.com/collectioneur/readme-aura -->
<svg width="860" height="168" viewBox="0 0 860 168" xmlns="http://www.w3.org/2000/svg"><defs><clipPath id="satori_bc-id"><path x="0" y="0" width="860" height="168" d="M16,0 h828 a16,16 0 0 1 16,16 v136 a16,16 0 0 1 -16,16 h-828 a16,16 0 0 1 -16,-16 v-136 a16,16 0 0 1 16,-16"/></clipPath></defs><clipPath id="satori_cp-id"><path x="0" y="0" width="860" height="168" d="M16,0 h828 a16,16 0 0 1 16,16 v136 a16,16 0 0 1 -16,16 h-828 a16,16 0 0 1 -16,-16 v-136 a16,16 0 0 1 16,-16"/></clipPath><mask id="satori_om-id"><rect x="1" y="1" width="858" height="166" fill="#fff"/><path width="860" height="168" fill="none" stroke="#000" stroke-width="2" d="M4.686,4.686 A16,16 0 0 1 16,0 h828 a16,16 0 0 1 16,16 v136 a16,16 0 0 1 -16,16 h-828 a16,16 0 0 1 -16,-16 v-136 A16,16 0 0 1 4.686,4.686"/></mask><path x="0" y="0" width="860" height="168" fill="#08080c" d="M16,0 h828 a16,16 0 0 1 16,16 v136 a16,16 0 0 1 -16,16 h-828 a16,16 0 0 1 -16,-16 v-136 a16,16 0 0 1 16,-16"/><path width="860" height="168" clip-path="url(#satori_bc-id)" fill="none" stroke="rgba(110,80,220,0.18)" stroke-width="2" d="M4.686,4.686 A16,16 0 0 1 16,0 h828 a16,16 0 0 1 16,16 v136 a16,16 0 0 1 -16,16 h-828 a16,16 0 0 1 -16,-16 v-136 A16,16 0 0 1 4.686,4.686"/><clipPath id="satori_cp-id-0" clip-path="url(#satori_cp-id)"><rect x="1" y="1" width="860" height="168"/></clipPath><mask id="satori_om-id-0"><rect x="1" y="1" width="860" height="168" fill="#fff" mask="url(#satori_om-id)"/></mask><svg x="1" y="1" width="860" height="168" preserveAspectRatio="none" clip-path="url(#satori_cp-id-0)" mask="url(#satori_om-id-0)"><defs><radialGradient id="g1" cx="50%" cy="50%" r="50%"><stop offset="0%" stop-color="rgba(115,20,215,0.68)"></stop><stop offset="42%" stop-color="rgba(85,15,175,0.30)"></stop><stop offset="70%" stop-color="rgba(85,15,175,0)"></stop></radialGradient><radialGradient id="g2" cx="50%" cy="50%" r="50%"><stop offset="0%" stop-color="rgba(55,55,255,0.55)"></stop><stop offset="45%" stop-color="rgba(35,45,210,0.22)"></stop><stop offset="70%" stop-color="rgba(35,45,210,0)"></stop></radialGradient><radialGradient id="g3" cx="50%" cy="50%" r="50%"><stop offset="0%" stop-color="rgba(0,130,255,0.42)"></stop><stop offset="50%" stop-color="rgba(0,100,220,0.16)"></stop><stop offset="70%" stop-color="rgba(0,100,220,0)"></stop></radialGradient><radialGradient id="g4" cx="50%" cy="50%" r="50%"><stop offset="0%" stop-color="rgba(0,185,240,0.32)"></stop><stop offset="70%" stop-color="rgba(0,185,240,0)"></stop></radialGradient><radialGradient id="g5" cx="50%" cy="50%" r="50%"><stop offset="0%" stop-color="rgba(100,25,205,0.42)"></stop><stop offset="70%" stop-color="rgba(100,25,205,0)"></stop></radialGradient><radialGradient id="g6" cx="50%" cy="50%" r="50%"><stop offset="0%" stop-color="rgba(60,80,255,0.35)"></stop><stop offset="70%" stop-color="rgba(60,80,255,0)"></stop></radialGradient></defs><ellipse id="glow-1" cx="170" cy="168" rx="260" ry="170" fill="url(#g1)"></ellipse><ellipse id="glow-2" cx="320" cy="178" rx="220" ry="140" fill="url(#g2)"></ellipse><ellipse id="glow-3" cx="460" cy="178" rx="190" ry="130" fill="url(#g3)"></ellipse><ellipse id="glow-4" cx="590" cy="188" rx="160" ry="110" fill="url(#g4)"></ellipse><ellipse id="glow-5" cx="750" cy="188" rx="140" ry="100" fill="url(#g5)"></ellipse><ellipse id="glow-6" cx="420" cy="138" rx="100" ry="80" fill="url(#g6)"></ellipse><style>

         @keyframes float-slow {
           0%, 100% { transform: translateX(0px); opacity: 0.8; }
           50% { transform: translateX(350px); opacity: 1.2; }
         }
         @keyframes float-medium {
           0%, 100% { transform: translateX(0px); opacity: 0.7; }
           50% { transform: translateX(-250px); opacity: 1.1; }
         }
         @keyframes float-fast {
           0%, 100% { transform: translateX(0px); opacity: 0.9; }
           50% { transform: translateX(200px); opacity: 0.6; }
         }
         @keyframes float-diagonal {
           0%, 100% { transform: translate(0px, 0px); opacity: 0.75; }
           50% { transform: translate(120px, 30px); opacity: 1.0; }
         }
         @keyframes float-wave {
           0%, 100% { transform: translateX(0px); opacity: 0.65; }
           33% { transform: translateX(-160px); opacity: 0.9; }
           66% { transform: translateX(80px); opacity: 1.0; }
         }
         @keyframes float-pulse {
           0%, 100% { transform: scale(1); opacity: 0.8; }
           50% { transform: scale(1.3); opacity: 0.4; }
         }
         #glow-1 { animation: float-slow 9s ease-in-out infinite; }
         #glow-2 { animation: float-medium 12s ease-in-out infinite; }
         #glow-3 { animation: float-fast 8s ease-in-out infinite; }
         #glow-4 { animation: float-diagonal 11s ease-in-out infinite reverse; }
         #glow-5 { animation: float-wave 14s ease-in-out infinite reverse; }
         #glow-6 { animation: float-pulse 6s ease-in-out infinite; }
       
</style>
</svg><mask id="satori_om-id-0-0"><rect x="1" y="1" width="0" height="168" fill="#fff" mask="url(#satori_om-id)"/></mask><mask id="satori_om-id-0-0-0"><rect x="1" y="1" width="0" height="168" fill="#fff" mask="url(#satori_om-id)"/></mask><mask id="satori_om-id-0-0-0-0"><rect x="1" y="1" width="0" height="168" fill="#fff" mask="url(#satori_om-id)"/></mask><mask id="satori_om-id-0-0-0-1"><rect x="1" y="1" width="0" height="168" fill="#fff" mask="url(#satori_om-id)"/></mask><mask id="satori_om-id-0-0-0-2"><rect x="1" y="1" width="0" height="168" fill="#fff" mask="url(#satori_om-id)"/></mask><mask id="satori_om-id-0-0-1"><rect x="1" y="1" width="0" height="168" fill="#fff" mask="url(#satori_om-id)"/></mask><mask id="satori_om-id-0-0-1-0"><rect x="1" y="1" width="0" height="168" fill="#fff" mask="url(#satori_om-id)"/></mask><mask id="satori_om-id-0-0-1-1"><rect x="1" y="1" width="0" height="168" fill="#fff" mask="url(#satori_om-id)"/></mask><mask id="satori_om-id-0-0-1-2"><rect x="1" y="1" width="0" height="168" fill="#fff" mask="url(#satori_om-id)"/></mask><mask id="satori_om-id-0-0-2"><rect x="1" y="1" width="0" height="168" fill="#fff" mask="url(#satori_om-id)"/></mask><mask id="satori_om-id-0-0-2-0"><rect x="1" y="1" width="0" height="168" fill="#fff" mask="url(#satori_om-id)"/></mask><mask id="satori_om-id-0-0-2-1"><rect x="1" y="1" width="0" height="168" fill="#fff" mask="url(#satori_om-id)"/></mask><mask id="satori_om-id-0-0-2-2"><rect x="1" y="1" width="0" height="168" fill="#fff" mask="url(#satori_om-id)"/></mask><mask id="satori_om-id-0-0-3"><rect x="1" y="1" width="0" height="168" fill="#fff" mask="url(#satori_om-id)"/></mask><mask id="satori_om-id-0-0-3-0"><rect x="1" y="1" width="0" height="168" fill="#fff" mask="url(#satori_om-id)"/></mask><mask id="satori_om-id-0-0-3-1"><rect x="1" y="1" width="0" height="168" fill="#fff" mask="url(#satori_om-id)"/></mask><mask id="satori_om-id-0-0-4"><rect x="1" y="1" width="0" height="168" fill="#fff" mask="url(#satori_om-id)"/></mask><mask id="satori_om-id-0-0-4-0"><rect x="1" y="1" width="0" height="168" fill="#fff" mask="url(#satori_om-id)"/></mask><mask id="satori_om-id-0-0-4-1"><rect x="1" y="1" width="0" height="168" fill="#fff" mask="url(#satori_om-id)"/></mask><mask id="satori_om-id-0-0-5"><rect x="1" y="1" width="0" height="168" fill="#fff" mask="url(#satori_om-id)"/></mask><mask id="satori_om-id-0-0-5-0"><rect x="1" y="1" width="0" height="168" fill="#fff" mask="url(#satori_om-id)"/></mask><mask id="satori_om-id-0-0-5-1"><rect x="1" y="1" width="0" height="168" fill="#fff" mask="url(#satori_om-id)"/></mask><mask id="satori_om-id-0-1"><rect x="1" y="1" width="0" height="168" fill="#fff" mask="url(#satori_om-id)"/></mask><mask id="satori_om-id-0-2"><rect x="1" y="1" width="0" height="168" fill="#fff" mask="url(#satori_om-id)"/></mask><mask id="satori_om-id-0-3"><rect x="1" y="1" width="0" height="168" fill="#fff" mask="url(#satori_om-id)"/></mask><mask id="satori_om-id-0-4"><rect x="1" y="1" width="0" height="168" fill="#fff" mask="url(#satori_om-id)"/></mask><mask id="satori_om-id-0-5"><rect x="1" y="1" width="0" height="168" fill="#fff" mask="url(#satori_om-id)"/></mask><mask id="satori_om-id-0-6"><rect x="1" y="1" width="0" height="168" fill="#fff" mask="url(#satori_om-id)"/></mask><mask id="satori_om-id-1"><rect x="33" y="19" width="794" height="12" fill="#fff" mask="url(#satori_om-id)"/></mask><g mask="url(#satori_om-id)" clip-path="url(#satori_cp-id)"><path fill="rgba(155,140,210,0.5)" d="M35.6 23.0L33.4 23.0L33.4 21.7L39.3 21.7L39.3 23.0L37.1 23.0L37.1 29L35.6 29L35.6 23.0ZM48.2 29L43.3 29L43.3 21.7L48.2 21.7L48.2 23.0L44.8 23.0L44.8 24.7L47.9 24.7L47.9 25.9L44.8 25.9L44.8 27.8L48.2 27.8L48.2 29ZM55.6 29.1L55.6 29.1Q54.6 29.1 53.9 28.7Q53.1 28.2 52.6 27.4Q52.2 26.5 52.2 25.4L52.2 25.4Q52.2 24.2 52.7 23.3Q53.1 22.5 53.9 22.1Q54.6 21.6 55.6 21.6L55.6 21.6Q56.2 21.6 56.7 21.8Q57.3 22.0 57.7 22.3Q58.1 22.6 58.4 23.1Q58.6 23.6 58.7 24.2L58.7 24.2L57.2 24.2Q57.2 23.9 57.0 23.7Q56.9 23.4 56.7 23.3Q56.5 23.1 56.2 23.0Q55.9 23.0 55.6 23.0L55.6 23.0Q55.0 23.0 54.6 23.2Q54.2 23.5 54.0 24.1Q53.7 24.6 53.7 25.4L53.7 25.4Q53.7 26.2 54.0 26.7Q54.2 27.2 54.6 27.5Q55.0 27.8 55.6 27.8L55.6 27.8Q55.9 27.8 56.2 27.7Q56.5 27.6 56.7 27.4Q56.9 27.3 57.0 27.0Q57.2 26.8 57.2 26.5L57.2 26.5L58.7 26.5Q58.7 27.0 58.4 27.5Q58.2 27.9 57.8 28.3Q57.4 28.7 56.8 28.9Q56.3 29.1 55.6 29.1ZM64.3 29L62.8 29L62.8 21.7L64.3 21.7L64.3 24.7L67.5 24.7L67.5 21.7L69.0 21.7L69.0 29L67.5 29L67.5 25.9L64.3 25.9L64.3 29Z M81.3 29.1L81.3 29.1Q80.4 29.1 79.8 28.8Q79.1 28.6 78.8 28.0Q78.4 27.5 78.4 26.7L78.4 26.7L79.9 26.7Q79.9 27.1 80.1 27.4Q80.3 27.6 80.6 27.7Q80.9 27.8 81.3 27.8L81.3 27.8Q81.7 27.8 82.0 27.7Q82.3 27.6 82.5 27.4Q82.6 27.2 82.6 26.9L82.6 26.9Q82.6 26.7 82.5 26.5Q82.3 26.3 82.0 26.2Q81.8 26.1 81.4 26.0L81.4 26.0L80.6 25.8Q79.6 25.6 79.1 25.1Q78.6 24.6 78.6 23.8L78.6 23.8Q78.6 23.2 78.9 22.7Q79.3 22.2 79.9 21.9Q80.5 21.6 81.3 21.6L81.3 21.6Q82.1 21.6 82.7 21.9Q83.3 22.2 83.7 22.7Q84.0 23.2 84.0 23.8L84.0 23.8L82.6 23.8Q82.5 23.4 82.2 23.1Q81.9 22.9 81.3 22.9L81.3 22.9Q80.9 22.9 80.7 23.0Q80.4 23.1 80.3 23.3Q80.1 23.5 80.1 23.7L80.1 23.7Q80.1 24.0 80.3 24.2Q80.4 24.3 80.7 24.5Q81.0 24.6 81.3 24.6L81.3 24.6L81.9 24.8Q82.4 24.9 82.8 25.1Q83.2 25.3 83.5 25.5Q83.8 25.8 84.0 26.1Q84.1 26.5 84.1 26.9L84.1 26.9Q84.1 27.6 83.8 28.1Q83.5 28.6 82.8 28.8Q82.2 29.1 81.3 29.1ZM90.1 23.0L87.9 23.0L87.9 21.7L93.8 21.7L93.8 23.0L91.6 23.0L91.6 29L90.1 29L90.1 23.0ZM99.1 29L97.4 29L99.9 21.7L101.9 21.7L104.4 29L102.8 29L102.2 27.3L99.6 27.3L99.1 29ZM100.0 26.1L101.8 26.1L101.6 25.5Q101.4 24.8 101.2 24L101.2 24Q101.0 23.5 100.9 22.9L100.9 22.9Q100.7 23.5 100.6 24.0L100.6 24.0Q100.4 24.8 100.2 25.5L100.2 25.5L100.0 26.1ZM111.5 29.1L111.5 29.1Q110.5 29.1 109.8 28.7Q109.0 28.2 108.6 27.4Q108.1 26.5 108.1 25.4L108.1 25.4Q108.1 24.2 108.6 23.3Q109.0 22.5 109.8 22.1Q110.6 21.6 111.5 21.6L111.5 21.6Q112.1 21.6 112.7 21.8Q113.2 22.0 113.6 22.3Q114.0 22.6 114.3 23.1Q114.6 23.6 114.6 24.2L114.6 24.2L113.1 24.2Q113.1 23.9 112.9 23.7Q112.8 23.4 112.6 23.3Q112.4 23.1 112.1 23.0Q111.9 23.0 111.5 23.0L111.5 23.0Q111.0 23.0 110.5 23.2Q110.1 23.5 109.9 24.1Q109.6 24.6 109.6 25.4L109.6 25.4Q109.6 26.2 109.9 26.7Q110.1 27.2 110.5 27.5Q111.0 27.8 111.5 27.8L111.5 27.8Q111.8 27.8 112.1 27.7Q112.4 27.6 112.6 27.4Q112.8 27.3 112.9 27.0Q113.1 26.8 113.1 26.5L113.1 26.5L114.6 26.5Q114.6 27.0 114.3 27.5Q114.1 27.9 113.7 28.3Q113.3 28.7 112.8 28.9Q112.2 29.1 111.5 29.1ZM120.2 29L118.7 29L118.7 21.7L120.2 21.7L120.2 23.7L120.2 25.4Q120.2 25.3 120.3 25.3L120.3 25.3Q120.5 24.9 120.7 24.6Q121.0 24.2 121.3 23.8L121.3 23.8L123.1 21.7L124.9 21.7L122.2 24.9L125.0 29L123.3 29L121.2 25.9L120.2 26.9L120.2 29Z "/></g><mask id="satori_om-id-2"><rect x="33" y="45" width="794" height="103" fill="#fff" mask="url(#satori_om-id)"/></mask><mask id="satori_om-id-2-0"><rect x="33" y="45" width="794" height="25" fill="#fff" mask="url(#satori_om-id)"/></mask><mask id="satori_om-id-2-0-0"><rect x="33" y="52" width="80" height="12" fill="#fff" mask="url(#satori_om-id)"/></mask><g mask="url(#satori_om-id)" clip-path="url(#satori_cp-id)"><path fill="#a78bfa" d="M36.8 62.1L36.8 62.1Q35.9 62.1 35.1 61.7Q34.3 61.2 33.9 60.4Q33.5 59.5 33.5 58.4L33.5 58.4Q33.5 57.2 33.9 56.3Q34.3 55.5 35.1 55.1Q35.9 54.6 36.8 54.6L36.8 54.6Q37.5 54.6 38.0 54.8Q38.5 55.0 38.9 55.3Q39.4 55.6 39.6 56.1Q39.9 56.6 40.0 57.2L40.0 57.2L38.5 57.2Q38.4 56.9 38.3 56.7Q38.1 56.4 37.9 56.3Q37.7 56.1 37.4 56.0Q37.2 56.0 36.9 56.0L36.9 56.0Q36.3 56.0 35.9 56.2Q35.4 56.5 35.2 57.1Q35.0 57.6 35.0 58.4L35.0 58.4Q35.0 59.2 35.2 59.7Q35.5 60.2 35.9 60.5Q36.3 60.8 36.9 60.8L36.9 60.8Q37.2 60.8 37.4 60.7Q37.7 60.6 37.9 60.4Q38.1 60.3 38.3 60.0Q38.4 59.8 38.5 59.5L38.5 59.5L40.0 59.5Q39.9 60.0 39.7 60.5Q39.4 60.9 39.0 61.3Q38.6 61.7 38.1 61.9Q37.5 62.1 36.8 62.1ZM45.3 62.1L45.3 62.1Q44.3 62.1 43.5 61.7Q42.8 61.2 42.3 60.4Q41.9 59.5 41.9 58.4L41.9 58.4Q41.9 57.2 42.3 56.3Q42.8 55.5 43.5 55.1Q44.3 54.6 45.3 54.6L45.3 54.6Q46.2 54.6 47.0 55.1Q47.8 55.5 48.2 56.3Q48.6 57.2 48.6 58.4L48.6 58.4Q48.6 59.5 48.2 60.4Q47.8 61.2 47.0 61.7Q46.2 62.1 45.3 62.1ZM45.3 60.8L45.3 60.8Q45.8 60.8 46.2 60.5Q46.7 60.2 46.9 59.7Q47.1 59.1 47.1 58.4L47.1 58.4Q47.1 57.6 46.9 57.0Q46.7 56.5 46.2 56.2Q45.8 56.0 45.3 56.0L45.3 56.0Q44.7 56.0 44.3 56.2Q43.8 56.5 43.6 57.0Q43.4 57.6 43.4 58.4L43.4 58.4Q43.4 59.1 43.6 59.7Q43.8 60.2 44.3 60.5Q44.7 60.8 45.3 60.8ZM52.3 62L50.8 62L50.8 54.7L53.6 54.7Q54.4 54.7 55.0 55.0Q55.6 55.3 55.9 55.8Q56.2 56.4 56.2 57.1Q56.2 57.8 55.9 58.3Q55.6 58.9 55.0 59.1L55.0 59.1Q55.0 59.1 54.9 59.2L54.9 59.2L56.5 62L54.8 62L53.4 59.4L52.3 59.4L52.3 62ZM52.3 56.0L52.3 58.2L53.3 58.2Q53.8 58.2 54.1 58.1Q54.4 57.9 54.5 57.7Q54.7 57.5 54.7 57.1L54.7 57.1Q54.7 56.7 54.5 56.5Q54.4 56.2 54.1 56.1Q53.8 56.0 53.3 56.0L53.3 56.0L52.3 56.0ZM63.2 62L58.3 62L58.3 54.7L63.2 54.7L63.2 56.0L59.8 56.0L59.8 57.7L62.9 57.7L62.9 58.9L59.8 58.9L59.8 60.8L63.2 60.8L63.2 62Z M71.4 62.1L71.4 62.1Q70.6 62.1 69.9 61.8Q69.3 61.6 68.9 61.0Q68.5 60.5 68.5 59.7L68.5 59.7L70.0 59.7Q70.0 60.1 70.2 60.4Q70.4 60.6 70.7 60.7Q71.0 60.8 71.4 60.8L71.4 60.8Q71.8 60.8 72.1 60.7Q72.4 60.6 72.6 60.4Q72.7 60.2 72.7 59.9L72.7 59.9Q72.7 59.7 72.6 59.5Q72.4 59.3 72.2 59.2Q71.9 59.1 71.5 59.0L71.5 59.0L70.7 58.8Q69.8 58.6 69.2 58.1Q68.7 57.6 68.7 56.8L68.7 56.8Q68.7 56.2 69.1 55.7Q69.4 55.2 70.0 54.9Q70.7 54.6 71.5 54.6L71.5 54.6Q72.3 54.6 72.9 54.9Q73.5 55.2 73.8 55.7Q74.1 56.2 74.1 56.8L74.1 56.8L72.7 56.8Q72.7 56.4 72.3 56.1Q72.0 55.9 71.4 55.9L71.4 55.9Q71.1 55.9 70.8 56.0Q70.5 56.1 70.4 56.3Q70.3 56.5 70.3 56.7L70.3 56.7Q70.3 57.0 70.4 57.2Q70.6 57.3 70.8 57.5Q71.1 57.6 71.4 57.6L71.4 57.6L72.1 57.8Q72.5 57.9 72.9 58.1Q73.3 58.3 73.6 58.5Q73.9 58.8 74.1 59.1Q74.2 59.5 74.2 59.9L74.2 59.9Q74.2 60.6 73.9 61.1Q73.6 61.6 73.0 61.8Q72.3 62.1 71.4 62.1ZM78.3 56.0L76.0 56.0L76.0 54.7L82.0 54.7L82.0 56.0L79.7 56.0L79.7 62L78.3 62L78.3 56.0ZM85.2 62L83.6 62L86.1 54.7L88.0 54.7L90.6 62L88.9 62L88.3 60.3L85.8 60.3L85.2 62ZM86.1 59.1L88.0 59.1L87.7 58.5Q87.5 57.8 87.3 57L87.3 57Q87.2 56.5 87.0 55.9L87.0 55.9Q86.9 56.5 86.7 57.0L86.7 57.0Q86.5 57.8 86.3 58.5L86.3 58.5L86.1 59.1ZM95.6 62.1L95.6 62.1Q94.7 62.1 93.9 61.7Q93.1 61.2 92.7 60.4Q92.3 59.5 92.3 58.4L92.3 58.4Q92.3 57.2 92.7 56.3Q93.1 55.5 93.9 55.1Q94.7 54.6 95.6 54.6L95.6 54.6Q96.3 54.6 96.8 54.8Q97.3 55.0 97.7 55.3Q98.2 55.6 98.4 56.1Q98.7 56.6 98.8 57.2L98.8 57.2L97.3 57.2Q97.2 56.9 97.1 56.7Q96.9 56.4 96.7 56.3Q96.5 56.1 96.2 56.0Q96.0 56.0 95.7 56.0L95.7 56.0Q95.1 56.0 94.7 56.2Q94.2 56.5 94.0 57.1Q93.8 57.6 93.8 58.4L93.8 58.4Q93.8 59.2 94.0 59.7Q94.3 60.2 94.7 60.5Q95.1 60.8 95.7 60.8L95.7 60.8Q96.0 60.8 96.2 60.7Q96.5 60.6 96.7 60.4Q96.9 60.3 97.1 60.0Q97.2 59.8 97.3 59.5L97.3 59.5L98.8 59.5Q98.7 60.0 98.5 60.5Q98.2 60.9 97.8 61.3Q97.4 61.7 96.9 61.9Q96.3 62.1 95.6 62.1ZM102.3 62L100.9 62L100.9 54.7L102.3 54.7L102.3 56.7L102.3 58.4Q102.4 58.3 102.4 58.3L102.4 58.3Q102.6 57.9 102.9 57.6Q103.1 57.2 103.5 56.8L103.5 56.8L105.2 54.7L107.1 54.7L104.3 57.9L107.1 62L105.4 62L103.3 58.9L102.3 59.9L102.3 62Z "/></g><mask id="satori_om-id-2-0-1"><rect x="129" y="45" width="339" height="25" fill="#fff" mask="url(#satori_om-id)"/></mask><defs><clipPath id="satori_bc-id-2-0-1-0" clip-path="url(#satori_cp-id)"><path x="129" y="45" width="92" height="25" d="M135,45 h80 a6,6 0 0 1 6,6 v13 a6,6 0 0 1 -6,6 h-80 a6,6 0 0 1 -6,-6 v-13 a6,6 0 0 1 6,-6"/></clipPath></defs><mask id="satori_om-id-2-0-1-0"><rect x="130" y="46" width="90" height="23" fill="#fff" mask="url(#satori_om-id)"/><path width="92" height="25" fill="none" stroke="#000" stroke-width="2" d="M130.757,46.757 A6,6 0 0 1 135,45 h80 a6,6 0 0 1 6,6 v13 a6,6 0 0 1 -6,6 h-80 a6,6 0 0 1 -6,-6 v-13 A6,6 0 0 1 130.757,46.757"/></mask><path x="129" y="45" width="92" height="25" fill="#a78bfa15" d="M135,45 h80 a6,6 0 0 1 6,6 v13 a6,6 0 0 1 -6,6 h-80 a6,6 0 0 1 -6,-6 v-13 a6,6 0 0 1 6,-6" clip-path="url(#satori_cp-id)" mask="url(#satori_om-id)"/><path width="92" height="25" clip-path="url(#satori_bc-id-2-0-1-0)" fill="none" stroke="#a78bfa35" stroke-width="2" d="M130.757,46.757 A6,6 0 0 1 135,45 h80 a6,6 0 0 1 6,6 v13 a6,6 0 0 1 -6,6 h-80 a6,6 0 0 1 -6,-6 v-13 A6,6 0 0 1 130.757,46.757"/><g mask="url(#satori_om-id)" clip-path="url(#satori_cp-id)"><path fill="rgba(225,220,255,0.85)" d="M146.3 62.1L146.3 62.1Q145.0 62.1 144.2 61.4Q143.4 60.7 143.4 59.4L143.4 59.4L143.4 58.9L145.2 58.9L145.2 59.4Q145.2 60.0 145.5 60.4Q145.8 60.7 146.3 60.7L146.3 60.7Q146.8 60.7 147.1 60.4Q147.5 60.0 147.5 59.4L147.5 59.4L147.5 53.3L149.2 53.3L149.2 59.4Q149.2 60.7 148.4 61.4Q147.7 62.1 146.3 62.1ZM152.6 62.1L152.6 62.1Q152.0 62.1 151.5 61.9Q151.0 61.7 150.7 61.3Q150.4 60.8 150.4 60.2L150.4 60.2Q150.4 59.6 150.6 59.3Q150.8 58.9 151.2 58.7Q151.5 58.4 152.0 58.3Q152.4 58.2 152.9 58.2L152.9 58.2Q153.5 58.1 153.8 58.0Q154.2 58.0 154.3 57.9Q154.5 57.8 154.5 57.6L154.5 57.6L154.5 57.5Q154.5 57.3 154.4 57.1Q154.2 56.9 154.0 56.8Q153.8 56.7 153.4 56.7L153.4 56.7Q153.1 56.7 152.9 56.8Q152.6 56.9 152.4 57.0Q152.3 57.2 152.2 57.4L152.2 57.4L150.6 57.2Q150.8 56.6 151.2 56.2Q151.6 55.8 152.1 55.6Q152.7 55.4 153.5 55.4L153.5 55.4Q154.0 55.4 154.5 55.5Q155.0 55.6 155.4 55.9Q155.8 56.1 156.0 56.6Q156.2 57.0 156.2 57.6L156.2 57.6L156.2 62L154.6 62L154.6 61.1L154.5 61.1Q154.3 61.4 154.1 61.6Q153.8 61.9 153.5 62.0Q153.1 62.1 152.6 62.1ZM153.1 60.9L153.1 60.9Q153.5 60.9 153.8 60.7Q154.1 60.6 154.3 60.3Q154.5 60.0 154.5 59.7L154.5 59.7L154.5 58.9Q154.4 59.0 154.3 59.1Q154.1 59.1 153.9 59.1Q153.7 59.2 153.5 59.2Q153.3 59.2 153.2 59.2L153.2 59.2Q152.9 59.3 152.6 59.4Q152.4 59.5 152.2 59.7Q152.1 59.8 152.1 60.1L152.1 60.1Q152.1 60.4 152.2 60.5Q152.4 60.7 152.6 60.8Q152.8 60.9 153.1 60.9ZM161.6 62L159.6 62L157.2 55.4L159.0 55.4L160.1 58.8Q160.3 59.5 160.5 60.1L160.5 60.1Q160.5 60.4 160.6 60.6L160.6 60.6Q160.7 60.4 160.7 60.1L160.7 60.1Q160.9 59.5 161.1 58.8L161.1 58.8L162.1 55.4L164.0 55.4L161.6 62ZM166.8 62.1L166.8 62.1Q166.1 62.1 165.6 61.9Q165.1 61.7 164.9 61.3Q164.6 60.8 164.6 60.2L164.6 60.2Q164.6 59.6 164.8 59.3Q165.0 58.9 165.3 58.7Q165.7 58.4 166.1 58.3Q166.6 58.2 167.0 58.2L167.0 58.2Q167.6 58.1 168.0 58.0Q168.3 58.0 168.5 57.9Q168.6 57.8 168.6 57.6L168.6 57.6L168.6 57.5Q168.6 57.3 168.5 57.1Q168.4 56.9 168.2 56.8Q167.9 56.7 167.6 56.7L167.6 56.7Q167.3 56.7 167.0 56.8Q166.8 56.9 166.6 57.0Q166.4 57.2 166.4 57.4L166.4 57.4L164.8 57.2Q164.9 56.6 165.3 56.2Q165.7 55.8 166.3 55.6Q166.9 55.4 167.6 55.4L167.6 55.4Q168.1 55.4 168.6 55.5Q169.1 55.6 169.5 55.9Q169.9 56.1 170.2 56.6Q170.4 57.0 170.4 57.6L170.4 57.6L170.4 62L168.7 62L168.7 61.1L168.7 61.1Q168.5 61.4 168.2 61.6Q168.0 61.9 167.6 62.0Q167.2 62.1 166.8 62.1ZM167.3 60.9L167.3 60.9Q167.7 60.9 168.0 60.7Q168.3 60.6 168.5 60.3Q168.6 60.0 168.6 59.7L168.6 59.7L168.6 58.9Q168.6 59.0 168.4 59.1Q168.3 59.1 168.1 59.1Q167.9 59.2 167.7 59.2Q167.5 59.2 167.3 59.2L167.3 59.2Q167.0 59.3 166.8 59.4Q166.5 59.5 166.4 59.7Q166.3 59.8 166.3 60.1L166.3 60.1Q166.3 60.4 166.4 60.5Q166.5 60.7 166.7 60.8Q167.0 60.9 167.3 60.9ZM175.1 62.1L175.1 62.1Q174.1 62.1 173.3 61.8Q172.5 61.5 172.1 60.9Q171.7 60.2 171.6 59.3L171.6 59.3L173.4 59.3Q173.4 59.7 173.6 60.0Q173.9 60.3 174.3 60.5Q174.6 60.6 175.1 60.6L175.1 60.6Q175.6 60.6 176.0 60.5Q176.3 60.3 176.5 60.1Q176.7 59.8 176.7 59.5L176.7 59.5Q176.7 59.2 176.5 59.0Q176.3 58.8 176.0 58.7Q175.7 58.5 175.2 58.4L175.2 58.4L174.2 58.2Q173.1 57.9 172.5 57.3Q171.9 56.7 171.9 55.8L171.9 55.8Q171.9 55.0 172.3 54.4Q172.7 53.8 173.5 53.5Q174.2 53.2 175.2 53.2L175.2 53.2Q176.1 53.2 176.8 53.5Q177.6 53.8 178.0 54.4Q178.4 55.0 178.4 55.8L178.4 55.8L176.7 55.8Q176.6 55.2 176.2 54.9Q175.8 54.7 175.1 54.7L175.1 54.7Q174.7 54.7 174.4 54.8Q174.0 54.9 173.9 55.1Q173.7 55.4 173.7 55.7L173.7 55.7Q173.7 56.0 173.9 56.2Q174.1 56.4 174.4 56.5Q174.7 56.7 175.1 56.8L175.1 56.8L175.9 57.0Q176.4 57.1 176.9 57.3Q177.4 57.5 177.8 57.8Q178.1 58.1 178.3 58.5Q178.5 59.0 178.5 59.5L178.5 59.5Q178.5 60.3 178.1 60.9Q177.7 61.5 176.9 61.8Q176.2 62.1 175.1 62.1ZM182.7 62.1L182.7 62.1Q181.7 62.1 181.0 61.7Q180.3 61.3 179.9 60.5Q179.5 59.8 179.5 58.8L179.5 58.8Q179.5 57.7 179.9 57.0Q180.3 56.2 181.0 55.8Q181.7 55.4 182.7 55.4L182.7 55.4Q183.3 55.4 183.8 55.5Q184.2 55.7 184.6 56.0Q185.0 56.2 185.3 56.6Q185.5 57.0 185.6 57.5L185.6 57.5L184.0 57.9Q183.9 57.6 183.8 57.4Q183.7 57.2 183.5 57.0Q183.4 56.9 183.2 56.8Q182.9 56.8 182.7 56.8L182.7 56.8Q182.2 56.8 181.9 57.0Q181.6 57.3 181.4 57.7Q181.3 58.2 181.3 58.7L181.3 58.7Q181.3 59.3 181.4 59.8Q181.6 60.2 181.9 60.5Q182.2 60.7 182.7 60.7L182.7 60.7Q182.9 60.7 183.2 60.7Q183.4 60.6 183.5 60.4Q183.7 60.3 183.8 60.1Q183.9 59.9 184.0 59.6L184.0 59.6L185.6 59.9Q185.5 60.4 185.3 60.8Q185.0 61.2 184.6 61.5Q184.3 61.8 183.8 62.0Q183.3 62.1 182.7 62.1ZM188.6 62L186.8 62L186.8 55.4L188.5 55.4L188.5 56.6L188.6 56.6Q188.8 56.0 189.2 55.7Q189.6 55.4 190.2 55.4L190.2 55.4Q190.3 55.4 190.5 55.4Q190.6 55.4 190.7 55.4L190.7 55.4L190.7 57.0Q190.6 56.9 190.4 56.9Q190.2 56.9 190.0 56.9L190.0 56.9Q189.6 56.9 189.2 57.1Q188.9 57.2 188.7 57.6Q188.6 57.9 188.6 58.3L188.6 58.3L188.6 62ZM193.5 62L191.7 62L191.7 55.4L193.5 55.4L193.5 62ZM192.6 54.6L192.6 54.6Q192.2 54.6 191.9 54.3Q191.6 54.1 191.6 53.7L191.6 53.7Q191.6 53.3 191.9 53.1Q192.2 52.8 192.6 52.8L192.6 52.8Q193.0 52.8 193.3 53.0Q193.5 53.3 193.5 53.7L193.5 53.7Q193.5 54.1 193.3 54.3Q193.0 54.6 192.6 54.6ZM196.7 64.4L194.9 64.4L194.9 55.4L196.7 55.4L196.7 56.6L196.8 56.6Q196.9 56.3 197.1 56.0Q197.3 55.7 197.7 55.6Q198.1 55.4 198.6 55.4L198.6 55.4Q199.4 55.4 200.0 55.7Q200.6 56.1 200.9 56.9Q201.3 57.6 201.3 58.7L201.3 58.7Q201.3 59.8 200.9 60.6Q200.6 61.3 200.0 61.7Q199.4 62.1 198.6 62.1L198.6 62.1Q198.1 62.1 197.7 61.9Q197.3 61.7 197.1 61.5Q196.9 61.2 196.8 61.0L196.8 61.0L196.7 61.0L196.7 64.4ZM198.1 60.7L198.1 60.7Q198.5 60.7 198.8 60.4Q199.2 60.2 199.3 59.8Q199.5 59.3 199.5 58.7L199.5 58.7Q199.5 58.2 199.3 57.7Q199.2 57.3 198.9 57.0Q198.5 56.8 198.1 56.8L198.1 56.8Q197.6 56.8 197.3 57.0Q197.0 57.3 196.8 57.7Q196.7 58.1 196.7 58.7L196.7 58.7Q196.7 59.3 196.8 59.8Q197 60.2 197.3 60.5Q197.6 60.7 198.1 60.7ZM204.5 55.4L205.8 55.4L205.8 56.8L204.5 56.8L204.5 60.1Q204.5 60.4 204.7 60.5Q204.8 60.7 205.1 60.7L205.1 60.7Q205.2 60.7 205.4 60.7Q205.6 60.6 205.7 60.6L205.7 60.6L205.9 61.9Q205.7 62.0 205.4 62.1Q205.1 62.1 204.8 62.1L204.8 62.1Q203.8 62.1 203.3 61.6Q202.8 61.1 202.8 60.2L202.8 60.2L202.8 56.8L201.9 56.8L201.9 55.4L202.8 55.4L202.8 53.9L204.5 53.9L204.5 55.4Z "/></g><defs><clipPath id="satori_bc-id-2-0-1-1" clip-path="url(#satori_cp-id)"><path x="228" y="45" width="93" height="25" d="M234,45 h81 a6,6 0 0 1 6,6 v13 a6,6 0 0 1 -6,6 h-81 a6,6 0 0 1 -6,-6 v-13 a6,6 0 0 1 6,-6"/></clipPath></defs><mask id="satori_om-id-2-0-1-1"><rect x="229" y="46" width="91" height="23" fill="#fff" mask="url(#satori_om-id)"/><path width="93" height="25" fill="none" stroke="#000" stroke-width="2" d="M229.757,46.757 A6,6 0 0 1 234,45 h81 a6,6 0 0 1 6,6 v13 a6,6 0 0 1 -6,6 h-81 a6,6 0 0 1 -6,-6 v-13 A6,6 0 0 1 229.757,46.757"/></mask><path x="228" y="45" width="93" height="25" fill="#a78bfa15" d="M234,45 h81 a6,6 0 0 1 6,6 v13 a6,6 0 0 1 -6,6 h-81 a6,6 0 0 1 -6,-6 v-13 a6,6 0 0 1 6,-6" clip-path="url(#satori_cp-id)" mask="url(#satori_om-id)"/><path width="93" height="25" clip-path="url(#satori_bc-id-2-0-1-1)" fill="none" stroke="#a78bfa35" stroke-width="2" d="M229.757,46.757 A6,6 0 0 1 234,45 h81 a6,6 0 0 1 6,6 v13 a6,6 0 0 1 -6,6 h-81 a6,6 0 0 1 -6,-6 v-13 A6,6 0 0 1 229.757,46.757"/><g mask="url(#satori_om-id)" clip-path="url(#satori_cp-id)"><path fill="rgba(225,220,255,0.85)" d="M245.1 54.8L242.4 54.8L242.4 53.3L249.6 53.3L249.6 54.8L246.9 54.8L246.9 62L245.1 62L245.1 54.8ZM250.7 64.3L250.7 64.3L251.1 63.0L251.3 63.0Q251.7 63.1 252.0 63.1Q252.2 63.1 252.4 62.9Q252.6 62.7 252.6 62.4L252.6 62.4L252.7 62.0L250.2 55.4L252.1 55.4L253.2 58.8Q253.4 59.5 253.5 60.1L253.5 60.1Q253.5 60.4 253.6 60.6L253.6 60.6Q253.6 60.4 253.7 60.1L253.7 60.1Q253.8 59.5 254.1 58.8L254.1 58.8L255.2 55.4L257.0 55.4L254.3 62.8Q254.1 63.3 253.8 63.7Q253.4 64.1 253.0 64.3Q252.5 64.5 251.9 64.5L251.9 64.5Q251.5 64.5 251.2 64.4Q250.9 64.4 250.7 64.3ZM259.7 64.4L258.0 64.4L258.0 55.4L259.7 55.4L259.7 56.6L259.8 56.6Q259.9 56.3 260.1 56.0Q260.4 55.7 260.7 55.6Q261.1 55.4 261.7 55.4L261.7 55.4Q262.4 55.4 263.0 55.7Q263.6 56.1 264.0 56.9Q264.3 57.6 264.3 58.7L264.3 58.7Q264.3 59.8 264.0 60.6Q263.6 61.3 263.0 61.7Q262.4 62.1 261.7 62.1L261.7 62.1Q261.1 62.1 260.8 61.9Q260.4 61.7 260.1 61.5Q259.9 61.2 259.8 61.0L259.8 61.0L259.7 61.0L259.7 64.4ZM261.1 60.7L261.1 60.7Q261.6 60.7 261.9 60.4Q262.2 60.2 262.4 59.8Q262.5 59.3 262.5 58.7L262.5 58.7Q262.5 58.2 262.4 57.7Q262.2 57.3 261.9 57.0Q261.6 56.8 261.1 56.8L261.1 56.8Q260.7 56.8 260.3 57.0Q260.0 57.3 259.9 57.7Q259.7 58.1 259.7 58.7L259.7 58.7Q259.7 59.3 259.9 59.8Q260.0 60.2 260.4 60.5Q260.7 60.7 261.1 60.7ZM268.5 62.1L268.5 62.1Q267.5 62.1 266.8 61.7Q266.1 61.3 265.7 60.6Q265.3 59.8 265.3 58.8L265.3 58.8Q265.3 57.7 265.7 57.0Q266.0 56.2 266.8 55.8Q267.5 55.4 268.4 55.4L268.4 55.4Q269.1 55.4 269.6 55.6Q270.2 55.8 270.6 56.2Q271.0 56.6 271.3 57.2Q271.5 57.8 271.5 58.7L271.5 58.7L271.5 59.2L267.0 59.2Q267.0 59.7 267.2 60.0L267.2 60.0Q267.4 60.4 267.7 60.6Q268.1 60.8 268.5 60.8L268.5 60.8Q268.8 60.8 269.1 60.7Q269.4 60.6 269.5 60.5Q269.7 60.3 269.8 60.0L269.8 60.0L271.4 60.3Q271.2 60.9 270.8 61.3Q270.5 61.7 269.9 61.9Q269.3 62.1 268.5 62.1ZM267.0 58.1L267.0 58.1L269.8 58.1Q269.8 57.8 269.7 57.5L269.7 57.5Q269.5 57.1 269.2 56.9Q268.9 56.7 268.4 56.7L268.4 56.7Q268.0 56.7 267.7 56.9Q267.3 57.1 267.2 57.5L267.2 57.5Q267.1 57.7 267.0 58.1ZM275.9 62.1L275.9 62.1Q274.9 62.1 274.1 61.8Q273.3 61.5 272.9 60.9Q272.5 60.2 272.4 59.3L272.4 59.3L274.2 59.3Q274.2 59.7 274.4 60.0Q274.7 60.3 275.1 60.5Q275.4 60.6 275.9 60.6L275.9 60.6Q276.4 60.6 276.8 60.5Q277.1 60.3 277.3 60.1Q277.5 59.8 277.5 59.5L277.5 59.5Q277.5 59.2 277.3 59.0Q277.2 58.8 276.8 58.7Q276.5 58.5 276.0 58.4L276.0 58.4L275.0 58.2Q273.9 57.9 273.3 57.3Q272.7 56.7 272.7 55.8L272.7 55.8Q272.7 55.0 273.1 54.4Q273.5 53.8 274.3 53.5Q275.0 53.2 276.0 53.2L276.0 53.2Q276.9 53.2 277.6 53.5Q278.4 53.8 278.8 54.4Q279.2 55.0 279.2 55.8L279.2 55.8L277.5 55.8Q277.4 55.2 277.0 54.9Q276.6 54.7 275.9 54.7L275.9 54.7Q275.5 54.7 275.2 54.8Q274.8 54.9 274.7 55.1Q274.5 55.4 274.5 55.7L274.5 55.7Q274.5 56.0 274.7 56.2Q274.9 56.4 275.2 56.5Q275.5 56.7 275.9 56.8L275.9 56.8L276.7 57.0Q277.3 57.1 277.7 57.3Q278.2 57.5 278.6 57.8Q278.9 58.1 279.1 58.5Q279.3 59.0 279.3 59.5L279.3 59.5Q279.3 60.3 278.9 60.9Q278.5 61.5 277.8 61.8Q277.0 62.1 275.9 62.1ZM283.5 62.1L283.5 62.1Q282.5 62.1 281.8 61.7Q281.1 61.3 280.7 60.5Q280.3 59.8 280.3 58.8L280.3 58.8Q280.3 57.7 280.7 57.0Q281.1 56.2 281.8 55.8Q282.5 55.4 283.5 55.4L283.5 55.4Q284.1 55.4 284.6 55.5Q285.0 55.7 285.4 56.0Q285.8 56.2 286.1 56.6Q286.3 57.0 286.4 57.5L286.4 57.5L284.8 57.9Q284.7 57.6 284.6 57.4Q284.5 57.2 284.3 57.0Q284.2 56.9 284.0 56.8Q283.8 56.8 283.5 56.8L283.5 56.8Q283.0 56.8 282.7 57.0Q282.4 57.3 282.2 57.7Q282.1 58.2 282.1 58.7L282.1 58.7Q282.1 59.3 282.2 59.8Q282.4 60.2 282.7 60.5Q283.0 60.7 283.5 60.7L283.5 60.7Q283.8 60.7 284.0 60.7Q284.2 60.6 284.3 60.4Q284.5 60.3 284.6 60.1Q284.7 59.9 284.8 59.6L284.8 59.6L286.4 59.9Q286.3 60.4 286.1 60.8Q285.8 61.2 285.4 61.5Q285.1 61.8 284.6 62.0Q284.1 62.1 283.5 62.1ZM289.4 62L287.6 62L287.6 55.4L289.3 55.4L289.3 56.6L289.4 56.6Q289.6 56.0 290.0 55.7Q290.4 55.4 291.0 55.4L291.0 55.4Q291.1 55.4 291.3 55.4Q291.4 55.4 291.5 55.4L291.5 55.4L291.5 57.0Q291.4 56.9 291.2 56.9Q291.0 56.9 290.8 56.9L290.8 56.9Q290.4 56.9 290.1 57.1Q289.7 57.2 289.6 57.6Q289.4 57.9 289.4 58.3L289.4 58.3L289.4 62ZM294.3 62L292.5 62L292.5 55.4L294.3 55.4L294.3 62ZM293.4 54.6L293.4 54.6Q293.0 54.6 292.7 54.3Q292.4 54.1 292.4 53.7L292.4 53.7Q292.4 53.3 292.7 53.1Q293.0 52.8 293.4 52.8L293.4 52.8Q293.8 52.8 294.1 53.0Q294.3 53.3 294.3 53.7L294.3 53.7Q294.3 54.1 294.1 54.3Q293.8 54.6 293.4 54.6ZM297.5 64.4L295.8 64.4L295.8 55.4L297.5 55.4L297.5 56.6L297.6 56.6Q297.7 56.3 297.9 56.0Q298.1 55.7 298.5 55.6Q298.9 55.4 299.4 55.4L299.4 55.4Q300.2 55.4 300.8 55.7Q301.4 56.1 301.7 56.9Q302.1 57.6 302.1 58.7L302.1 58.7Q302.1 59.8 301.7 60.6Q301.4 61.3 300.8 61.7Q300.2 62.1 299.4 62.1L299.4 62.1Q298.9 62.1 298.5 61.9Q298.2 61.7 297.9 61.5Q297.7 61.2 297.6 61.0L297.6 61.0L297.5 61.0L297.5 64.4ZM298.9 60.7L298.9 60.7Q299.3 60.7 299.7 60.4Q300.0 60.2 300.1 59.8Q300.3 59.3 300.3 58.7L300.3 58.7Q300.3 58.2 300.1 57.7Q300.0 57.3 299.7 57.0Q299.3 56.8 298.9 56.8L298.9 56.8Q298.4 56.8 298.1 57.0Q297.8 57.3 297.6 57.7Q297.5 58.1 297.5 58.7L297.5 58.7Q297.5 59.3 297.6 59.8Q297.8 60.2 298.1 60.5Q298.4 60.7 298.9 60.7ZM305.3 55.4L306.6 55.4L306.6 56.8L305.3 56.8L305.3 60.1Q305.3 60.4 305.5 60.5Q305.6 60.7 305.9 60.7L305.9 60.7Q306.0 60.7 306.2 60.7Q306.4 60.6 306.5 60.6L306.5 60.6L306.8 61.9Q306.5 62.0 306.2 62.1Q305.9 62.1 305.6 62.1L305.6 62.1Q304.6 62.1 304.1 61.6Q303.6 61.1 303.6 60.2L303.6 60.2L303.6 56.8L302.7 56.8L302.7 55.4L303.6 55.4L303.6 53.9L305.3 53.9L305.3 55.4Z "/></g><defs><clipPath id="satori_bc-id-2-0-1-2" clip-path="url(#satori_cp-id)"><path x="328" y="45" width="70" height="25" d="M334,45 h58 a6,6 0 0 1 6,6 v13 a6,6 0 0 1 -6,6 h-58 a6,6 0 0 1 -6,-6 v-13 a6,6 0 0 1 6,-6"/></clipPath></defs><mask id="satori_om-id-2-0-1-2"><rect x="329" y="46" width="68" height="23" fill="#fff" mask="url(#satori_om-id)"/><path width="70" height="25" fill="none" stroke="#000" stroke-width="2" d="M329.757,46.757 A6,6 0 0 1 334,45 h58 a6,6 0 0 1 6,6 v13 a6,6 0 0 1 -6,6 h-58 a6,6 0 0 1 -6,-6 v-13 A6,6 0 0 1 329.757,46.757"/></mask><path x="328" y="45" width="70" height="25" fill="#a78bfa15" d="M334,45 h58 a6,6 0 0 1 6,6 v13 a6,6 0 0 1 -6,6 h-58 a6,6 0 0 1 -6,-6 v-13 a6,6 0 0 1 6,-6" clip-path="url(#satori_cp-id)" mask="url(#satori_om-id)"/><path width="70" height="25" clip-path="url(#satori_bc-id-2-0-1-2)" fill="none" stroke="#a78bfa35" stroke-width="2" d="M329.757,46.757 A6,6 0 0 1 334,45 h58 a6,6 0 0 1 6,6 v13 a6,6 0 0 1 -6,6 h-58 a6,6 0 0 1 -6,-6 v-13 A6,6 0 0 1 329.757,46.757"/><g mask="url(#satori_om-id)" clip-path="url(#satori_cp-id)"><path fill="rgba(225,220,255,0.85)" d="M344.6 62L342.8 62L342.8 53.3L346.2 53.3Q347.2 53.3 347.9 53.6Q348.6 54.0 349.0 54.7Q349.3 55.4 349.3 56.2L349.3 56.2Q349.3 57.1 348.9 57.7Q348.6 58.4 347.9 58.8Q347.2 59.1 346.2 59.1L346.2 59.1L344.6 59.1L344.6 62ZM344.6 54.7L344.6 57.7L345.9 57.7Q346.4 57.7 346.8 57.5Q347.1 57.3 347.3 57.0Q347.5 56.7 347.5 56.2Q347.5 55.8 347.3 55.4Q347.1 55.1 346.8 54.9Q346.4 54.7 345.9 54.7L345.9 54.7L344.6 54.7ZM350.5 64.3L350.5 64.3L350.9 63.0L351.1 63.0Q351.5 63.1 351.7 63.1Q352.0 63.1 352.2 62.9Q352.3 62.7 352.4 62.4L352.4 62.4L352.4 62.0L350.0 55.4L351.8 55.4L352.9 58.8Q353.1 59.5 353.3 60.1L353.3 60.1Q353.3 60.4 353.3 60.6L353.3 60.6Q353.4 60.4 353.4 60.1L353.4 60.1Q353.6 59.5 353.8 58.8L353.8 58.8L355.0 55.4L356.8 55.4L354.0 62.8Q353.8 63.3 353.5 63.7Q353.2 64.1 352.7 64.3Q352.3 64.5 351.6 64.5L351.6 64.5Q351.3 64.5 351.0 64.4Q350.7 64.4 350.5 64.3ZM359.8 55.4L361.0 55.4L361.0 56.8L359.8 56.8L359.8 60.1Q359.8 60.4 359.9 60.5Q360.1 60.7 360.4 60.7L360.4 60.7Q360.5 60.7 360.7 60.7Q360.8 60.6 360.9 60.6L360.9 60.6L361.2 61.9Q360.9 62.0 360.6 62.1Q360.3 62.1 360.0 62.1L360.0 62.1Q359.1 62.1 358.5 61.6Q358.0 61.1 358.0 60.2L358.0 60.2L358.0 56.8L357.1 56.8L357.1 55.4L358.0 55.4L358.0 53.9L359.8 53.9L359.8 55.4ZM363.9 58.2L363.9 58.2L363.9 62L362.1 62L362.1 53.3L363.9 53.3L363.9 56.7Q364.1 56.2 364.5 55.8L364.5 55.8Q365.0 55.4 365.9 55.4L365.9 55.4Q366.5 55.4 367.1 55.7Q367.6 56.0 367.8 56.5Q368.1 57.1 368.1 57.8L368.1 57.8L368.1 62L366.4 62L366.4 58.1Q366.4 57.5 366.0 57.2Q365.7 56.8 365.2 56.8L365.2 56.8Q364.8 56.8 364.5 57.0Q364.2 57.2 364.1 57.5Q363.9 57.8 363.9 58.2ZM372.5 62.1L372.5 62.1Q371.6 62.1 370.8 61.7Q370.1 61.3 369.7 60.5Q369.3 59.8 369.3 58.8L369.3 58.8Q369.3 57.7 369.7 57.0Q370.1 56.2 370.8 55.8Q371.6 55.4 372.5 55.4L372.5 55.4Q373.5 55.4 374.3 55.8Q375.0 56.2 375.4 57.0Q375.8 57.7 375.8 58.8L375.8 58.8Q375.8 59.8 375.4 60.5Q375.0 61.3 374.3 61.7Q373.5 62.1 372.5 62.1ZM372.5 60.7L372.5 60.7Q373.0 60.7 373.3 60.5Q373.6 60.2 373.8 59.8Q374.0 59.3 374.0 58.7L374.0 58.7Q374.0 58.2 373.8 57.7Q373.6 57.3 373.3 57.0Q373.0 56.8 372.5 56.8L372.5 56.8Q372.1 56.8 371.8 57.0Q371.4 57.3 371.3 57.7Q371.1 58.2 371.1 58.7L371.1 58.7Q371.1 59.3 371.3 59.8Q371.4 60.2 371.8 60.5Q372.1 60.7 372.5 60.7ZM378.7 58.2L378.7 58.2L378.7 62L377.0 62L377.0 55.4L378.6 55.4L378.7 56.8Q378.9 56.2 379.3 55.8L379.3 55.8Q379.9 55.4 380.7 55.4L380.7 55.4Q381.4 55.4 381.9 55.7Q382.4 56.0 382.7 56.5Q382.9 57.1 382.9 57.8L382.9 57.8L382.9 62L381.2 62L381.2 58.1Q381.2 57.5 380.9 57.2Q380.6 56.8 380.0 56.8L380.0 56.8Q379.6 56.8 379.3 57.0Q379.1 57.2 378.9 57.5Q378.7 57.8 378.7 58.2Z "/></g><defs><clipPath id="satori_bc-id-2-0-1-3" clip-path="url(#satori_cp-id)"><path x="405" y="45" width="63" height="25" d="M411,45 h51 a6,6 0 0 1 6,6 v13 a6,6 0 0 1 -6,6 h-51 a6,6 0 0 1 -6,-6 v-13 a6,6 0 0 1 6,-6"/></clipPath></defs><mask id="satori_om-id-2-0-1-3"><rect x="406" y="46" width="61" height="23" fill="#fff" mask="url(#satori_om-id)"/><path width="63" height="25" fill="none" stroke="#000" stroke-width="2" d="M406.757,46.757 A6,6 0 0 1 411,45 h51 a6,6 0 0 1 6,6 v13 a6,6 0 0 1 -6,6 h-51 a6,6 0 0 1 -6,-6 v-13 A6,6 0 0 1 406.757,46.757"/></mask><path x="405" y="45" width="63" height="25" fill="#a78bfa15" d="M411,45 h51 a6,6 0 0 1 6,6 v13 a6,6 0 0 1 -6,6 h-51 a6,6 0 0 1 -6,-6 v-13 a6,6 0 0 1 6,-6" clip-path="url(#satori_cp-id)" mask="url(#satori_om-id)"/><path width="63" height="25" clip-path="url(#satori_bc-id-2-0-1-3)" fill="none" stroke="#a78bfa35" stroke-width="2" d="M406.757,46.757 A6,6 0 0 1 411,45 h51 a6,6 0 0 1 6,6 v13 a6,6 0 0 1 -6,6 h-51 a6,6 0 0 1 -6,-6 v-13 A6,6 0 0 1 406.757,46.757"/><g mask="url(#satori_om-id)" clip-path="url(#satori_cp-id)"><path fill="rgba(225,220,255,0.85)" d="M421.6 62L419.8 62L419.8 53.3L421.6 53.3L421.6 55.7L421.6 57.6Q421.6 57.6 421.6 57.5L421.6 57.5Q421.9 57.1 422.2 56.7Q422.5 56.3 422.9 55.8L422.9 55.8L425.1 53.3L427.2 53.3L424.0 57.0L427.3 62L425.2 62L422.7 58.2L421.6 59.5L421.6 62ZM431.3 62.1L431.3 62.1Q430.3 62.1 429.6 61.7Q428.9 61.3 428.5 60.5Q428.1 59.8 428.1 58.8L428.1 58.8Q428.1 57.7 428.5 57.0Q428.9 56.2 429.6 55.8Q430.3 55.4 431.3 55.4L431.3 55.4Q432.3 55.4 433.0 55.8Q433.7 56.2 434.1 57.0Q434.5 57.7 434.5 58.8L434.5 58.8Q434.5 59.8 434.1 60.5Q433.7 61.3 433.0 61.7Q432.3 62.1 431.3 62.1ZM431.3 60.7L431.3 60.7Q431.8 60.7 432.1 60.5Q432.4 60.2 432.6 59.8Q432.7 59.3 432.7 58.7L432.7 58.7Q432.7 58.2 432.6 57.7Q432.4 57.3 432.1 57.0Q431.8 56.8 431.3 56.8L431.3 56.8Q430.8 56.8 430.5 57.0Q430.2 57.3 430.1 57.7Q429.9 58.2 429.9 58.7L429.9 58.7Q429.9 59.3 430.1 59.8Q430.2 60.2 430.5 60.5Q430.8 60.7 431.3 60.7ZM437.8 55.4L439.0 55.4L439.0 56.8L437.8 56.8L437.8 60.1Q437.8 60.4 437.9 60.5Q438.0 60.7 438.4 60.7L438.4 60.7Q438.5 60.7 438.6 60.7Q438.8 60.6 438.9 60.6L438.9 60.6L439.2 61.9Q438.9 62.0 438.6 62.1Q438.3 62.1 438.0 62.1L438.0 62.1Q437.1 62.1 436.5 61.6Q436.0 61.1 436.0 60.2L436.0 60.2L436.0 56.8L435.1 56.8L435.1 55.4L436.0 55.4L436.0 53.9L437.8 53.9L437.8 55.4ZM440.1 53.3L441.9 53.3L441.9 62L440.1 62L440.1 53.3ZM445.1 62L443.4 62L443.4 55.4L445.1 55.4L445.1 62ZM444.3 54.6L444.3 54.6Q443.9 54.6 443.6 54.3Q443.3 54.1 443.3 53.7L443.3 53.7Q443.3 53.3 443.6 53.1Q443.9 52.8 444.3 52.8L444.3 52.8Q444.7 52.8 444.9 53.0Q445.2 53.3 445.2 53.7L445.2 53.7Q445.2 54.1 444.9 54.3Q444.7 54.6 444.3 54.6ZM448.4 58.2L448.4 58.2L448.4 62L446.6 62L446.6 55.4L448.3 55.4L448.3 56.8Q448.6 56.2 449.0 55.8L449.0 55.8Q449.5 55.4 450.4 55.4L450.4 55.4Q451.0 55.4 451.5 55.7Q452.1 56.0 452.3 56.5Q452.6 57.1 452.6 57.8L452.6 57.8L452.6 62L450.9 62L450.9 58.1Q450.9 57.5 450.5 57.2Q450.2 56.8 449.7 56.8L449.7 56.8Q449.3 56.8 449.0 57.0Q448.7 57.2 448.6 57.5Q448.4 57.8 448.4 58.2Z "/></g><mask id="satori_om-id-2-1"><rect x="33" y="84" width="794" height="25" fill="#fff" mask="url(#satori_om-id)"/></mask><mask id="satori_om-id-2-1-0"><rect x="33" y="91" width="80" height="12" fill="#fff" mask="url(#satori_om-id)"/></mask><g mask="url(#satori_om-id)" clip-path="url(#satori_cp-id)"><path fill="#60a5fa" d="M33.7 93.7L35.1 93.7L35.1 101L33.7 101L33.7 93.7ZM39.0 101L37.5 101L37.5 93.7L39.1 93.7L41.4 97.4Q41.6 97.7 41.8 98.0Q42.0 98.4 42.2 98.8L42.2 98.8Q42.2 99.0 42.3 99.2L42.3 99.2Q42.3 99.0 42.3 98.8L42.3 98.8Q42.3 98.3 42.3 97.9Q42.2 97.5 42.2 97.2L42.2 97.2L42.2 93.7L43.8 93.7L43.8 101L42.1 101L40.0 97.7Q39.8 97.3 39.6 96.9Q39.4 96.6 39.2 96.1L39.2 96.1Q39.1 95.9 38.9 95.6L38.9 95.6Q38.9 95.9 38.9 96.1L38.9 96.1Q39.0 96.6 39.0 97.0Q39.0 97.4 39.0 97.7L39.0 97.7L39.0 101ZM47.6 101L46.1 101L46.1 93.7L50.9 93.7L50.9 95.0L47.6 95.0L47.6 97.0L50.6 97.0L50.6 98.2L47.6 98.2L47.6 101ZM54.4 101L53.0 101L53.0 93.7L55.8 93.7Q56.6 93.7 57.2 94.0Q57.8 94.3 58.1 94.8Q58.4 95.4 58.4 96.1Q58.4 96.8 58.1 97.3Q57.8 97.9 57.2 98.1L57.2 98.1Q57.1 98.1 57.1 98.2L57.1 98.2L58.7 101L57.0 101L55.6 98.4L54.4 98.4L54.4 101ZM54.4 95.0L54.4 97.2L55.5 97.2Q56.0 97.2 56.3 97.1Q56.6 96.9 56.7 96.7Q56.9 96.5 56.9 96.1L56.9 96.1Q56.9 95.7 56.7 95.5Q56.6 95.2 56.3 95.1Q56.0 95.0 55.5 95.0L55.5 95.0L54.4 95.0ZM61.8 101L60.1 101L62.6 93.7L64.5 93.7L67.1 101L65.4 101L64.9 99.3L62.3 99.3L61.8 101ZM62.7 98.1L64.5 98.1L64.3 97.5Q64.1 96.8 63.8 96L63.8 96Q63.7 95.5 63.6 94.9L63.6 94.9Q63.4 95.5 63.3 96.0L63.3 96.0Q63.1 96.8 62.9 97.5L62.9 97.5L62.7 98.1ZM71.7 101.1L71.7 101.1Q70.8 101.1 70.1 100.8Q69.5 100.6 69.1 100.0Q68.8 99.5 68.7 98.7L68.7 98.7L70.2 98.7Q70.2 99.1 70.4 99.4Q70.6 99.6 70.9 99.7Q71.2 99.8 71.6 99.8L71.6 99.8Q72.0 99.8 72.3 99.7Q72.6 99.6 72.8 99.4Q73.0 99.2 73.0 98.9L73.0 98.9Q73.0 98.7 72.8 98.5Q72.7 98.3 72.4 98.2Q72.1 98.1 71.7 98.0L71.7 98.0L70.9 97.8Q70.0 97.6 69.5 97.1Q68.9 96.6 68.9 95.8L68.9 95.8Q68.9 95.2 69.3 94.7Q69.7 94.2 70.3 93.9Q70.9 93.6 71.7 93.6L71.7 93.6Q72.5 93.6 73.1 93.9Q73.7 94.2 74.0 94.7Q74.4 95.2 74.4 95.8L74.4 95.8L72.9 95.8Q72.9 95.4 72.6 95.1Q72.2 94.9 71.7 94.9L71.7 94.9Q71.3 94.9 71.0 95.0Q70.7 95.1 70.6 95.3Q70.5 95.5 70.5 95.7L70.5 95.7Q70.5 96.0 70.6 96.2Q70.8 96.3 71.1 96.5Q71.3 96.6 71.6 96.6L71.6 96.6L72.3 96.8Q72.8 96.9 73.1 97.1Q73.5 97.3 73.8 97.5Q74.1 97.8 74.3 98.1Q74.5 98.5 74.5 98.9L74.5 98.9Q74.5 99.6 74.1 100.1Q73.8 100.6 73.2 100.8Q72.5 101.1 71.7 101.1ZM78.5 95.0L76.2 95.0L76.2 93.7L82.2 93.7L82.2 95.0L80.0 95.0L80.0 101L78.5 101L78.5 95.0ZM85.7 101L84.2 101L84.2 93.7L87.1 93.7Q87.9 93.7 88.5 94.0Q89.0 94.3 89.3 94.8Q89.7 95.4 89.7 96.1Q89.7 96.8 89.3 97.3Q89.0 97.9 88.4 98.1L88.4 98.1Q88.4 98.1 88.4 98.2L88.4 98.2L89.9 101L88.3 101L86.9 98.4L85.7 98.4L85.7 101ZM85.7 95.0L85.7 97.2L86.8 97.2Q87.2 97.2 87.5 97.1Q87.8 96.9 88.0 96.7Q88.1 96.5 88.1 96.1L88.1 96.1Q88.1 95.7 88.0 95.5Q87.8 95.2 87.5 95.1Q87.2 95.0 86.8 95.0L86.8 95.0L85.7 95.0ZM94.8 101.1L94.8 101.1Q93.9 101.1 93.2 100.8Q92.5 100.4 92.2 99.8Q91.8 99.2 91.8 98.4L91.8 98.4L91.8 93.7L93.3 93.7L93.3 98.3Q93.3 98.7 93.5 99.1Q93.6 99.4 94.0 99.6Q94.3 99.8 94.8 99.8L94.8 99.8Q95.2 99.8 95.6 99.6Q95.9 99.4 96.1 99.1Q96.3 98.7 96.3 98.3L96.3 98.3L96.3 93.7L97.8 93.7L97.8 98.4Q97.8 99.2 97.4 99.8Q97.0 100.4 96.4 100.8Q95.7 101.1 94.8 101.1ZM103.3 101.1L103.3 101.1Q102.3 101.1 101.5 100.7Q100.8 100.2 100.3 99.4Q99.9 98.5 99.9 97.4L99.9 97.4Q99.9 96.2 100.3 95.3Q100.8 94.5 101.6 94.1Q102.3 93.6 103.3 93.6L103.3 93.6Q103.9 93.6 104.4 93.8Q105.0 94.0 105.4 94.3Q105.8 94.6 106.1 95.1Q106.3 95.6 106.4 96.2L106.4 96.2L104.9 96.2Q104.9 95.9 104.7 95.7Q104.6 95.4 104.4 95.3Q104.2 95.1 103.9 95.0Q103.6 95.0 103.3 95.0L103.3 95.0Q102.7 95.0 102.3 95.2Q101.9 95.5 101.7 96.1Q101.4 96.6 101.4 97.4L101.4 97.4Q101.4 98.2 101.7 98.7Q101.9 99.2 102.3 99.5Q102.7 99.8 103.3 99.8L103.3 99.8Q103.6 99.8 103.9 99.7Q104.1 99.6 104.4 99.4Q104.6 99.3 104.7 99.0Q104.9 98.8 104.9 98.5L104.9 98.5L106.4 98.5Q106.4 99.0 106.1 99.5Q105.9 99.9 105.5 100.3Q105.1 100.7 104.5 100.9Q104.0 101.1 103.3 101.1ZM110.4 95.0L108.2 95.0L108.2 93.7L114.1 93.7L114.1 95.0L111.9 95.0L111.9 101L110.4 101L110.4 95.0ZM119.2 101.1L119.2 101.1Q118.3 101.1 117.6 100.8Q116.9 100.4 116.5 99.8Q116.2 99.2 116.2 98.4L116.2 98.4L116.2 93.7L117.7 93.7L117.7 98.3Q117.7 98.7 117.9 99.1Q118.0 99.4 118.4 99.6Q118.7 99.8 119.2 99.8L119.2 99.8Q119.6 99.8 120.0 99.6Q120.3 99.4 120.5 99.1Q120.7 98.7 120.7 98.3L120.7 98.3L120.7 93.7L122.2 93.7L122.2 98.4Q122.2 99.2 121.8 99.8Q121.4 100.4 120.8 100.8Q120.1 101.1 119.2 101.1ZM126.0 101L124.5 101L124.5 93.7L127.3 93.7Q128.2 93.7 128.7 94.0Q129.3 94.3 129.6 94.8Q129.9 95.4 129.9 96.1Q129.9 96.8 129.6 97.3Q129.3 97.9 128.7 98.1L128.7 98.1Q128.7 98.1 128.6 98.2L128.6 98.2L130.2 101L128.5 101L127.1 98.4L126.0 98.4L126.0 101ZM126.0 95.0L126.0 97.2L127.1 97.2Q127.5 97.2 127.8 97.1Q128.1 96.9 128.2 96.7Q128.4 96.5 128.4 96.1L128.4 96.1Q128.4 95.7 128.2 95.5Q128.1 95.2 127.8 95.1Q127.5 95.0 127.1 95.0L127.1 95.0L126.0 95.0ZM136.9 101L132.1 101L132.1 93.7L136.9 93.7L136.9 95.0L133.5 95.0L133.5 96.7L136.7 96.7L136.7 97.9L133.5 97.9L133.5 99.8L136.9 99.8L136.9 101Z "/></g><mask id="satori_om-id-2-1-1"><rect x="129" y="84" width="304" height="25" fill="#fff" mask="url(#satori_om-id)"/></mask><defs><clipPath id="satori_bc-id-2-1-1-0" clip-path="url(#satori_cp-id)"><path x="129" y="84" width="98" height="25" d="M135,84 h86 a6,6 0 0 1 6,6 v13 a6,6 0 0 1 -6,6 h-86 a6,6 0 0 1 -6,-6 v-13 a6,6 0 0 1 6,-6"/></clipPath></defs><mask id="satori_om-id-2-1-1-0"><rect x="130" y="85" width="96" height="23" fill="#fff" mask="url(#satori_om-id)"/><path width="98" height="25" fill="none" stroke="#000" stroke-width="2" d="M130.757,85.757 A6,6 0 0 1 135,84 h86 a6,6 0 0 1 6,6 v13 a6,6 0 0 1 -6,6 h-86 a6,6 0 0 1 -6,-6 v-13 A6,6 0 0 1 130.757,85.757"/></mask><path x="129" y="84" width="98" height="25" fill="#60a5fa15" d="M135,84 h86 a6,6 0 0 1 6,6 v13 a6,6 0 0 1 -6,6 h-86 a6,6 0 0 1 -6,-6 v-13 a6,6 0 0 1 6,-6" clip-path="url(#satori_cp-id)" mask="url(#satori_om-id)"/><path width="98" height="25" clip-path="url(#satori_bc-id-2-1-1-0)" fill="none" stroke="#60a5fa35" stroke-width="2" d="M130.757,85.757 A6,6 0 0 1 135,84 h86 a6,6 0 0 1 6,6 v13 a6,6 0 0 1 -6,6 h-86 a6,6 0 0 1 -6,-6 v-13 A6,6 0 0 1 130.757,85.757"/><g mask="url(#satori_om-id)" clip-path="url(#satori_cp-id)"><path fill="rgba(225,220,255,0.85)" d="M145.6 101L143.8 101L143.8 92.3L147.2 92.3Q148.2 92.3 148.9 92.6Q149.6 93.0 150.0 93.7Q150.3 94.4 150.3 95.2L150.3 95.2Q150.3 96.1 149.9 96.7Q149.6 97.4 148.9 97.8Q148.2 98.1 147.2 98.1L147.2 98.1L145.6 98.1L145.6 101ZM145.6 93.7L145.6 96.7L146.9 96.7Q147.4 96.7 147.8 96.5Q148.1 96.3 148.3 96.0Q148.5 95.7 148.5 95.2Q148.5 94.8 148.3 94.4Q148.1 94.1 147.8 93.9Q147.4 93.7 146.9 93.7L146.9 93.7L145.6 93.7ZM154.5 101.1L154.5 101.1Q153.5 101.1 152.8 100.7Q152.0 100.3 151.6 99.5Q151.3 98.8 151.3 97.8L151.3 97.8Q151.3 96.7 151.6 96.0Q152.0 95.2 152.8 94.8Q153.5 94.4 154.5 94.4L154.5 94.4Q155.4 94.4 156.2 94.8Q156.9 95.2 157.3 96.0Q157.7 96.7 157.7 97.8L157.7 97.8Q157.7 98.8 157.3 99.5Q156.9 100.3 156.2 100.7Q155.4 101.1 154.5 101.1ZM154.5 99.7L154.5 99.7Q154.9 99.7 155.2 99.5Q155.6 99.2 155.7 98.8Q155.9 98.3 155.9 97.7L155.9 97.7Q155.9 97.2 155.7 96.7Q155.6 96.3 155.2 96.0Q154.9 95.8 154.5 95.8L154.5 95.8Q154.0 95.8 153.7 96.0Q153.4 96.3 153.2 96.7Q153.0 97.2 153.0 97.7L153.0 97.7Q153.0 98.3 153.2 98.8Q153.4 99.2 153.7 99.5Q154.0 99.7 154.5 99.7ZM161.5 101.1L161.5 101.1Q160.7 101.1 160.1 100.9Q159.5 100.7 159.1 100.2Q158.7 99.8 158.6 99.2L158.6 99.2L160.2 98.9Q160.4 99.4 160.7 99.6Q161 99.8 161.5 99.8L161.5 99.8Q162.0 99.8 162.3 99.6Q162.6 99.5 162.6 99.2L162.6 99.2Q162.6 98.9 162.4 98.7Q162.2 98.6 161.8 98.5L161.8 98.5L160.6 98.3Q159.7 98.1 159.2 97.6Q158.8 97.1 158.8 96.4L158.8 96.4Q158.8 95.8 159.1 95.3Q159.5 94.9 160.1 94.6Q160.7 94.4 161.5 94.4L161.5 94.4Q162.3 94.4 162.9 94.6Q163.4 94.8 163.8 95.2Q164.1 95.6 164.2 96.1L164.2 96.1L162.7 96.4Q162.6 96.1 162.3 95.8Q162.0 95.6 161.5 95.6L161.5 95.6Q161.1 95.6 160.8 95.8Q160.5 96.0 160.5 96.3L160.5 96.3Q160.5 96.5 160.7 96.7Q160.9 96.9 161.4 97.0L161.4 97.0L162.5 97.2Q163.5 97.4 164.0 97.8Q164.4 98.3 164.4 99.0L164.4 99.0Q164.4 99.6 164.0 100.1Q163.7 100.6 163.0 100.9Q162.3 101.1 161.5 101.1ZM167.6 94.4L168.9 94.4L168.9 95.8L167.6 95.8L167.6 99.1Q167.6 99.4 167.8 99.5Q167.9 99.7 168.2 99.7L168.2 99.7Q168.3 99.7 168.5 99.7Q168.7 99.6 168.8 99.6L168.8 99.6L169.0 100.9Q168.7 101.0 168.5 101.1Q168.2 101.1 167.9 101.1L167.9 101.1Q166.9 101.1 166.4 100.6Q165.9 100.1 165.9 99.2L165.9 99.2L165.9 95.8L165.0 95.8L165.0 94.4L165.9 94.4L165.9 92.9L167.6 92.9L167.6 94.4ZM172.9 103.6L172.9 103.6Q172.1 103.6 171.5 103.4Q170.9 103.2 170.5 102.8Q170.1 102.4 170.0 102.0L170.0 102.0L171.5 101.6Q171.6 101.7 171.7 101.9Q171.9 102.1 172.2 102.2Q172.5 102.3 172.9 102.3L172.9 102.3Q173.6 102.3 174.0 102.0Q174.3 101.7 174.3 101.0L174.3 101.0L174.3 99.8L174.2 99.8Q174.1 100.1 173.9 100.3Q173.6 100.6 173.3 100.8Q172.9 100.9 172.4 100.9L172.4 100.9Q171.7 100.9 171.0 100.6Q170.4 100.2 170.1 99.5Q169.7 98.8 169.7 97.7L169.7 97.7Q169.7 96.6 170.1 95.9Q170.5 95.1 171.1 94.7Q171.7 94.4 172.4 94.4L172.4 94.4Q172.9 94.4 173.3 94.6Q173.7 94.7 173.9 95.0Q174.2 95.3 174.3 95.6L174.3 95.6L174.4 95.6L174.4 94.4L176.1 94.4L176.1 100.9Q176.1 101.8 175.7 102.4Q175.3 103.0 174.6 103.3Q173.8 103.6 172.9 103.6ZM172.9 99.6L172.9 99.6Q173.4 99.6 173.7 99.3Q174.0 99.1 174.2 98.7Q174.3 98.3 174.3 97.7L174.3 97.7Q174.3 97.1 174.2 96.7Q174.0 96.3 173.7 96.0Q173.4 95.8 172.9 95.8L172.9 95.8Q172.5 95.8 172.2 96.0Q171.9 96.3 171.7 96.7Q171.5 97.1 171.5 97.7L171.5 97.7Q171.5 98.3 171.7 98.7Q171.9 99.1 172.2 99.3Q172.5 99.6 172.9 99.6ZM179.3 101L177.6 101L177.6 94.4L179.3 94.4L179.3 95.6L179.4 95.6Q179.5 95.0 180.0 94.7Q180.4 94.4 180.9 94.4L180.9 94.4Q181.1 94.4 181.2 94.4Q181.4 94.4 181.5 94.4L181.5 94.4L181.5 96.0Q181.4 95.9 181.2 95.9Q180.9 95.9 180.7 95.9L180.7 95.9Q180.3 95.9 180.0 96.1Q179.7 96.2 179.5 96.6Q179.3 96.9 179.3 97.3L179.3 97.3L179.3 101ZM185.4 101.1L185.4 101.1Q184.4 101.1 183.7 100.7Q183.0 100.3 182.6 99.6Q182.2 98.8 182.2 97.8L182.2 97.8Q182.2 96.7 182.6 96.0Q183.0 95.2 183.7 94.8Q184.4 94.4 185.3 94.4L185.3 94.4Q186.0 94.4 186.5 94.6Q187.1 94.8 187.5 95.2Q187.9 95.6 188.2 96.2Q188.4 96.8 188.4 97.7L188.4 97.7L188.4 98.2L183.9 98.2Q184.0 98.7 184.1 99.0L184.1 99.0Q184.3 99.4 184.7 99.6Q185 99.8 185.5 99.8L185.5 99.8Q185.8 99.8 186.0 99.7Q186.3 99.6 186.5 99.5Q186.6 99.3 186.7 99.0L186.7 99.0L188.3 99.3Q188.2 99.9 187.8 100.3Q187.4 100.7 186.8 100.9Q186.2 101.1 185.4 101.1ZM183.9 97.1L183.9 97.1L186.7 97.1Q186.7 96.8 186.6 96.5L186.6 96.5Q186.4 96.1 186.1 95.9Q185.8 95.7 185.4 95.7L185.4 95.7Q184.9 95.7 184.6 95.9Q184.3 96.1 184.1 96.5L184.1 96.5Q184.0 96.7 183.9 97.1ZM192.9 101.1L192.9 101.1Q191.8 101.1 191.0 100.8Q190.3 100.5 189.8 99.9Q189.4 99.2 189.4 98.3L189.4 98.3L191.1 98.3Q191.1 98.7 191.4 99.0Q191.6 99.3 192.0 99.5Q192.4 99.6 192.8 99.6L192.8 99.6Q193.3 99.6 193.7 99.5Q194.0 99.3 194.2 99.1Q194.4 98.8 194.4 98.5L194.4 98.5Q194.4 98.2 194.2 98.0Q194.1 97.8 193.7 97.7Q193.4 97.5 192.9 97.4L192.9 97.4L192.0 97.2Q190.9 96.9 190.2 96.3Q189.6 95.7 189.6 94.8L189.6 94.8Q189.6 94.0 190.0 93.4Q190.4 92.8 191.2 92.5Q191.9 92.2 192.9 92.2L192.9 92.2Q193.8 92.2 194.6 92.5Q195.3 92.8 195.7 93.4Q196.1 94.0 196.1 94.8L196.1 94.8L194.4 94.8Q194.3 94.2 193.9 93.9Q193.5 93.7 192.9 93.7L192.9 93.7Q192.4 93.7 192.1 93.8Q191.8 93.9 191.6 94.1Q191.4 94.4 191.4 94.7L191.4 94.7Q191.4 95.0 191.6 95.2Q191.8 95.4 192.1 95.5Q192.5 95.7 192.8 95.8L192.8 95.8L193.6 96.0Q194.2 96.1 194.6 96.3Q195.1 96.5 195.5 96.8Q195.8 97.1 196.0 97.5Q196.2 98.0 196.2 98.5L196.2 98.5Q196.2 99.3 195.8 99.9Q195.4 100.5 194.7 100.8Q193.9 101.1 192.9 101.1ZM201.3 101.1L201.3 101.1Q200.2 101.1 199.3 100.6Q198.3 100.1 197.8 99.1Q197.3 98.1 197.3 96.6L197.3 96.6Q197.3 95.2 197.8 94.2Q198.3 93.2 199.3 92.7Q200.2 92.2 201.3 92.2L201.3 92.2Q202.5 92.2 203.4 92.7Q204.3 93.2 204.9 94.2Q205.4 95.2 205.4 96.6L205.4 96.6Q205.4 98.1 204.9 99.1L204.9 99.1Q204.5 99.7 204.1 100.1L204.1 100.1L205.3 101.7L203.6 101.7L202.9 100.8Q202.2 101.1 201.3 101.1ZM201.9 99.5L200.8 98L202.3 98L203.0 98.8Q203.2 98.6 203.3 98.2L203.3 98.2Q203.6 97.6 203.6 96.6L203.6 96.6Q203.6 95.7 203.3 95.0Q203.0 94.4 202.5 94.1Q202.0 93.7 201.3 93.7L201.3 93.7Q200.7 93.7 200.2 94.1Q199.7 94.4 199.4 95.1Q199.1 95.7 199.1 96.6L199.1 96.6Q199.1 97.6 199.4 98.2Q199.7 98.9 200.2 99.2Q200.7 99.5 201.3 99.5L201.3 99.5Q201.6 99.5 201.9 99.5L201.9 99.5ZM212.4 101L206.8 101L206.8 92.3L208.6 92.3L208.6 99.5L212.4 99.5L212.4 101Z "/></g><defs><clipPath id="satori_bc-id-2-1-1-1" clip-path="url(#satori_cp-id)"><path x="234" y="84" width="61" height="25" d="M240,84 h49 a6,6 0 0 1 6,6 v13 a6,6 0 0 1 -6,6 h-49 a6,6 0 0 1 -6,-6 v-13 a6,6 0 0 1 6,-6"/></clipPath></defs><mask id="satori_om-id-2-1-1-1"><rect x="235" y="85" width="59" height="23" fill="#fff" mask="url(#satori_om-id)"/><path width="61" height="25" fill="none" stroke="#000" stroke-width="2" d="M235.757,85.757 A6,6 0 0 1 240,84 h49 a6,6 0 0 1 6,6 v13 a6,6 0 0 1 -6,6 h-49 a6,6 0 0 1 -6,-6 v-13 A6,6 0 0 1 235.757,85.757"/></mask><path x="234" y="84" width="61" height="25" fill="#60a5fa15" d="M240,84 h49 a6,6 0 0 1 6,6 v13 a6,6 0 0 1 -6,6 h-49 a6,6 0 0 1 -6,-6 v-13 a6,6 0 0 1 6,-6" clip-path="url(#satori_cp-id)" mask="url(#satori_om-id)"/><path width="61" height="25" clip-path="url(#satori_bc-id-2-1-1-1)" fill="none" stroke="#60a5fa35" stroke-width="2" d="M235.757,85.757 A6,6 0 0 1 240,84 h49 a6,6 0 0 1 6,6 v13 a6,6 0 0 1 -6,6 h-49 a6,6 0 0 1 -6,-6 v-13 A6,6 0 0 1 235.757,85.757"/><g mask="url(#satori_om-id)" clip-path="url(#satori_cp-id)"><path fill="rgba(225,220,255,0.85)" d="M250.6 101L248.8 101L248.8 92.3L252.2 92.3Q253.2 92.3 253.9 92.6Q254.6 93.0 255.0 93.6Q255.3 94.3 255.3 95.1Q255.3 96.0 254.9 96.6Q254.6 97.2 253.9 97.5L253.9 97.5Q253.8 97.6 253.8 97.6L253.8 97.6L255.6 101L253.6 101L252.0 97.9L250.6 97.9L250.6 101ZM250.6 93.7L250.6 96.4L251.9 96.4Q252.4 96.4 252.8 96.3Q253.1 96.1 253.3 95.8Q253.5 95.5 253.5 95.1L253.5 95.1Q253.5 94.7 253.3 94.4Q253.1 94.1 252.8 93.9Q252.4 93.7 251.9 93.7L251.9 93.7L250.6 93.7ZM259.6 101.1L259.6 101.1Q258.6 101.1 257.9 100.7Q257.1 100.3 256.7 99.6Q256.4 98.8 256.4 97.8L256.4 97.8Q256.4 96.7 256.7 96.0Q257.1 95.2 257.8 94.8Q258.5 94.4 259.5 94.4L259.5 94.4Q260.1 94.4 260.7 94.6Q261.3 94.8 261.7 95.2Q262.1 95.6 262.3 96.2Q262.6 96.8 262.6 97.7L262.6 97.7L262.6 98.2L258.1 98.2Q258.1 98.7 258.3 99.0L258.3 99.0Q258.5 99.4 258.8 99.6Q259.2 99.8 259.6 99.8L259.6 99.8Q259.9 99.8 260.2 99.7Q260.4 99.6 260.6 99.5Q260.8 99.3 260.9 99.0L260.9 99.0L262.5 99.3Q262.3 99.9 261.9 100.3Q261.5 100.7 260.9 100.9Q260.4 101.1 259.6 101.1ZM258.1 97.1L258.1 97.1L260.9 97.1Q260.8 96.8 260.7 96.5L260.7 96.5Q260.6 96.1 260.3 95.9Q260.0 95.7 259.5 95.7L259.5 95.7Q259.1 95.7 258.7 95.9Q258.4 96.1 258.3 96.5L258.3 96.5Q258.1 96.7 258.1 97.1ZM266.2 101.1L266.2 101.1Q265.4 101.1 264.8 100.7Q264.2 100.3 263.9 99.6Q263.5 98.8 263.5 97.7L263.5 97.7Q263.5 96.6 263.9 95.9Q264.2 95.1 264.8 94.7Q265.4 94.4 266.2 94.4L266.2 94.4Q266.7 94.4 267.1 94.6Q267.5 94.7 267.7 95.0Q267.9 95.3 268.0 95.6L268.0 95.6L268.1 95.6L268.1 92.3L269.8 92.3L269.8 101L268.1 101L268.1 100.0L268.0 100.0Q267.9 100.2 267.7 100.5Q267.4 100.7 267.1 100.9Q266.7 101.1 266.2 101.1ZM266.7 99.7L266.7 99.7Q267.2 99.7 267.5 99.5Q267.8 99.2 268.0 98.8Q268.1 98.3 268.1 97.7L268.1 97.7Q268.1 97.1 268.0 96.7Q267.8 96.3 267.5 96.0Q267.2 95.8 266.7 95.8L266.7 95.8Q266.3 95.8 265.9 96.0Q265.6 96.3 265.5 96.7Q265.3 97.2 265.3 97.7L265.3 97.7Q265.3 98.3 265.5 98.8Q265.6 99.2 265.9 99.4Q266.3 99.7 266.7 99.7ZM273.1 101L271.3 101L271.3 94.4L273.1 94.4L273.1 101ZM272.2 93.6L272.2 93.6Q271.8 93.6 271.5 93.3Q271.3 93.1 271.3 92.7L271.3 92.7Q271.3 92.3 271.5 92.1Q271.8 91.8 272.2 91.8L272.2 91.8Q272.6 91.8 272.9 92.0Q273.2 92.3 273.2 92.7L273.2 92.7Q273.2 93.1 272.9 93.3Q272.6 93.6 272.2 93.6ZM277.2 101.1L277.2 101.1Q276.4 101.1 275.8 100.9Q275.2 100.7 274.8 100.2Q274.4 99.8 274.3 99.2L274.3 99.2L275.9 98.9Q276.1 99.4 276.4 99.6Q276.7 99.8 277.3 99.8L277.3 99.8Q277.8 99.8 278.0 99.6Q278.3 99.5 278.3 99.2L278.3 99.2Q278.3 98.9 278.1 98.7Q277.9 98.6 277.5 98.5L277.5 98.5L276.4 98.3Q275.4 98.1 274.9 97.6Q274.5 97.1 274.5 96.4L274.5 96.4Q274.5 95.8 274.8 95.3Q275.2 94.9 275.8 94.6Q276.4 94.4 277.2 94.4L277.2 94.4Q278 94.4 278.6 94.6Q279.1 94.8 279.5 95.2Q279.8 95.6 280.0 96.1L280.0 96.1L278.4 96.4Q278.3 96.1 278.0 95.8Q277.7 95.6 277.3 95.6L277.3 95.6Q276.8 95.6 276.5 95.8Q276.2 96.0 276.2 96.3L276.2 96.3Q276.2 96.5 276.4 96.7Q276.6 96.9 277.1 97.0L277.1 97.0L278.3 97.2Q279.2 97.4 279.7 97.8Q280.1 98.3 280.1 99.0L280.1 99.0Q280.1 99.6 279.8 100.1Q279.4 100.6 278.7 100.9Q278.1 101.1 277.2 101.1Z "/></g><defs><clipPath id="satori_bc-id-2-1-1-2" clip-path="url(#satori_cp-id)"><path x="302" y="84" width="71" height="25" d="M308,84 h59 a6,6 0 0 1 6,6 v13 a6,6 0 0 1 -6,6 h-59 a6,6 0 0 1 -6,-6 v-13 a6,6 0 0 1 6,-6"/></clipPath></defs><mask id="satori_om-id-2-1-1-2"><rect x="303" y="85" width="69" height="23" fill="#fff" mask="url(#satori_om-id)"/><path width="71" height="25" fill="none" stroke="#000" stroke-width="2" d="M303.757,85.757 A6,6 0 0 1 308,84 h59 a6,6 0 0 1 6,6 v13 a6,6 0 0 1 -6,6 h-59 a6,6 0 0 1 -6,-6 v-13 A6,6 0 0 1 303.757,85.757"/></mask><path x="302" y="84" width="71" height="25" fill="#60a5fa15" d="M308,84 h59 a6,6 0 0 1 6,6 v13 a6,6 0 0 1 -6,6 h-59 a6,6 0 0 1 -6,-6 v-13 a6,6 0 0 1 6,-6" clip-path="url(#satori_cp-id)" mask="url(#satori_om-id)"/><path width="71" height="25" clip-path="url(#satori_bc-id-2-1-1-2)" fill="none" stroke="#60a5fa35" stroke-width="2" d="M303.757,85.757 A6,6 0 0 1 308,84 h59 a6,6 0 0 1 6,6 v13 a6,6 0 0 1 -6,6 h-59 a6,6 0 0 1 -6,-6 v-13 A6,6 0 0 1 303.757,85.757"/><g mask="url(#satori_om-id)" clip-path="url(#satori_cp-id)"><path fill="rgba(225,220,255,0.85)" d="M319.9 101L319.9 101L316.8 101L316.8 92.3L319.9 92.3Q321.2 92.3 322.1 92.8Q323.1 93.3 323.6 94.3Q324.1 95.3 324.1 96.6L324.1 96.6Q324.1 98.0 323.6 99.0Q323.1 100.0 322.1 100.5Q321.2 101 319.9 101ZM318.6 93.8L318.6 99.5L319.8 99.5Q320.6 99.5 321.2 99.2Q321.8 98.9 322.0 98.2Q322.3 97.6 322.3 96.6L322.3 96.6Q322.3 95.7 322.0 95.0Q321.8 94.4 321.2 94.1Q320.6 93.8 319.8 93.8L319.8 93.8L318.6 93.8ZM328.3 101.1L328.3 101.1Q327.4 101.1 326.6 100.7Q325.9 100.3 325.5 99.5Q325.1 98.8 325.1 97.8L325.1 97.8Q325.1 96.7 325.5 96.0Q325.9 95.2 326.6 94.8Q327.4 94.4 328.3 94.4L328.3 94.4Q329.3 94.4 330.1 94.8Q330.8 95.2 331.2 96.0Q331.6 96.7 331.6 97.8L331.6 97.8Q331.6 98.8 331.2 99.5Q330.8 100.3 330.1 100.7Q329.3 101.1 328.3 101.1ZM328.3 99.7L328.3 99.7Q328.8 99.7 329.1 99.5Q329.4 99.2 329.6 98.8Q329.8 98.3 329.8 97.7L329.8 97.7Q329.8 97.2 329.6 96.7Q329.4 96.3 329.1 96.0Q328.8 95.8 328.3 95.8L328.3 95.8Q327.9 95.8 327.6 96.0Q327.3 96.3 327.1 96.7Q326.9 97.2 326.9 97.7L326.9 97.7Q326.9 98.3 327.1 98.8Q327.3 99.2 327.6 99.5Q327.9 99.7 328.3 99.7ZM335.7 101.1L335.7 101.1Q334.7 101.1 334.0 100.7Q333.3 100.3 332.9 99.5Q332.5 98.8 332.5 97.8L332.5 97.8Q332.5 96.7 332.9 96.0Q333.3 95.2 334.0 94.8Q334.7 94.4 335.7 94.4L335.7 94.4Q336.3 94.4 336.8 94.5Q337.3 94.7 337.7 95.0Q338.0 95.2 338.3 95.6Q338.5 96.0 338.6 96.5L338.6 96.5L337.0 96.9Q336.9 96.6 336.8 96.4Q336.7 96.2 336.5 96.0Q336.4 95.9 336.2 95.8Q336.0 95.8 335.7 95.8L335.7 95.8Q335.3 95.8 334.9 96.0Q334.6 96.3 334.5 96.7Q334.3 97.2 334.3 97.7L334.3 97.7Q334.3 98.3 334.5 98.8Q334.6 99.2 334.9 99.5Q335.3 99.7 335.7 99.7L335.7 99.7Q336.0 99.7 336.2 99.7Q336.4 99.6 336.6 99.4Q336.7 99.3 336.8 99.1Q336.9 98.9 337.0 98.6L337.0 98.6L338.6 98.9Q338.5 99.4 338.3 99.8Q338.0 100.2 337.7 100.5Q337.3 100.8 336.8 101.0Q336.3 101.1 335.7 101.1ZM341.6 101L339.8 101L339.8 92.3L341.6 92.3L341.6 97.0L341.7 97.0L343.8 94.4L345.9 94.4L343.4 97.3L346.0 101L343.9 101L342.1 98.3L341.6 98.9L341.6 101ZM349.8 101.1L349.8 101.1Q348.8 101.1 348.0 100.7Q347.3 100.3 346.9 99.6Q346.5 98.8 346.5 97.8L346.5 97.8Q346.5 96.7 346.9 96.0Q347.3 95.2 348.0 94.8Q348.7 94.4 349.7 94.4L349.7 94.4Q350.3 94.4 350.9 94.6Q351.4 94.8 351.8 95.2Q352.3 95.6 352.5 96.2Q352.7 96.8 352.7 97.7L352.7 97.7L352.7 98.2L348.3 98.2Q348.3 98.7 348.5 99.0L348.5 99.0Q348.6 99.4 349.0 99.6Q349.3 99.8 349.8 99.8L349.8 99.8Q350.1 99.8 350.3 99.7Q350.6 99.6 350.8 99.5Q351.0 99.3 351.1 99.0L351.1 99.0L352.6 99.3Q352.5 99.9 352.1 100.3Q351.7 100.7 351.1 100.9Q350.5 101.1 349.8 101.1ZM348.3 97.1L348.3 97.1L351.1 97.1Q351.0 96.8 350.9 96.5L350.9 96.5Q350.8 96.1 350.4 95.9Q350.1 95.7 349.7 95.7L349.7 95.7Q349.2 95.7 348.9 95.9Q348.6 96.1 348.4 96.5L348.4 96.5Q348.3 96.7 348.3 97.1ZM355.7 101L353.9 101L353.9 94.4L355.6 94.4L355.6 95.6L355.7 95.6Q355.9 95.0 356.3 94.7Q356.7 94.4 357.3 94.4L357.3 94.4Q357.4 94.4 357.6 94.4Q357.7 94.4 357.9 94.4L357.9 94.4L357.9 96.0Q357.7 95.9 357.5 95.9Q357.3 95.9 357.1 95.9L357.1 95.9Q356.7 95.9 356.4 96.1Q356.1 96.2 355.9 96.6Q355.7 96.9 355.7 97.3L355.7 97.3L355.7 101Z "/></g><defs><clipPath id="satori_bc-id-2-1-1-3" clip-path="url(#satori_cp-id)"><path x="380" y="84" width="53" height="25" d="M386,84 h41 a6,6 0 0 1 6,6 v13 a6,6 0 0 1 -6,6 h-41 a6,6 0 0 1 -6,-6 v-13 a6,6 0 0 1 6,-6"/></clipPath></defs><mask id="satori_om-id-2-1-1-3"><rect x="381" y="85" width="51" height="23" fill="#fff" mask="url(#satori_om-id)"/><path width="53" height="25" fill="none" stroke="#000" stroke-width="2" d="M381.757,85.757 A6,6 0 0 1 386,84 h41 a6,6 0 0 1 6,6 v13 a6,6 0 0 1 -6,6 h-41 a6,6 0 0 1 -6,-6 v-13 A6,6 0 0 1 381.757,85.757"/></mask><path x="380" y="84" width="53" height="25" fill="#60a5fa15" d="M386,84 h41 a6,6 0 0 1 6,6 v13 a6,6 0 0 1 -6,6 h-41 a6,6 0 0 1 -6,-6 v-13 a6,6 0 0 1 6,-6" clip-path="url(#satori_cp-id)" mask="url(#satori_om-id)"/><path width="53" height="25" clip-path="url(#satori_bc-id-2-1-1-3)" fill="none" stroke="#60a5fa35" stroke-width="2" d="M381.757,85.757 A6,6 0 0 1 386,84 h41 a6,6 0 0 1 6,6 v13 a6,6 0 0 1 -6,6 h-41 a6,6 0 0 1 -6,-6 v-13 A6,6 0 0 1 381.757,85.757"/><g mask="url(#satori_om-id)" clip-path="url(#satori_cp-id)"><path fill="rgba(225,220,255,0.85)" d="M396.6 101L394.8 101L394.8 92.3L398.2 92.3Q399.2 92.3 399.9 92.6Q400.6 93.0 401.0 93.7Q401.3 94.4 401.3 95.2L401.3 95.2Q401.3 96.1 400.9 96.7Q400.6 97.4 399.9 97.8Q399.2 98.1 398.2 98.1L398.2 98.1L396.6 98.1L396.6 101ZM396.6 93.7L396.6 96.7L397.9 96.7Q398.4 96.7 398.8 96.5Q399.1 96.3 399.3 96.0Q399.5 95.7 399.5 95.2Q399.5 94.8 399.3 94.4Q399.1 94.1 398.8 93.9Q398.4 93.7 397.9 93.7L397.9 93.7L396.6 93.7ZM404.4 101L402.6 101L402.6 92.3L404.4 92.3L404.4 95.8L408.2 95.8L408.2 92.3L409.9 92.3L409.9 101L408.2 101L408.2 97.3L404.4 97.3L404.4 101ZM413.3 101L411.5 101L411.5 92.3L414.9 92.3Q415.9 92.3 416.6 92.6Q417.3 93.0 417.7 93.7Q418.1 94.4 418.1 95.2L418.1 95.2Q418.1 96.1 417.7 96.7Q417.3 97.4 416.6 97.8Q415.9 98.1 414.9 98.1L414.9 98.1L413.3 98.1L413.3 101ZM413.3 93.7L413.3 96.7L414.6 96.7Q415.2 96.7 415.5 96.5Q415.9 96.3 416.0 96.0Q416.2 95.7 416.2 95.2Q416.2 94.8 416.0 94.4Q415.9 94.1 415.5 93.9Q415.2 93.7 414.6 93.7L414.6 93.7L413.3 93.7Z "/></g><mask id="satori_om-id-2-2"><rect x="33" y="123" width="794" height="25" fill="#fff" mask="url(#satori_om-id)"/></mask><mask id="satori_om-id-2-2-0"><rect x="33" y="124" width="80" height="24" fill="#fff" mask="url(#satori_om-id)"/></mask><g mask="url(#satori_om-id)" clip-path="url(#satori_cp-id)"><path fill="#fb7185" d="M35.1 134L33.7 134L33.7 126.7L38.4 126.7L38.4 128.0L35.1 128.0L35.1 130.0L38.1 130.0L38.1 131.2L35.1 131.2L35.1 134ZM43.7 134.1L43.7 134.1Q42.8 134.1 42.0 133.7Q41.2 133.2 40.8 132.4Q40.3 131.5 40.3 130.4L40.3 130.4Q40.3 129.2 40.8 128.3Q41.2 127.5 42.0 127.1Q42.8 126.6 43.7 126.6L43.7 126.6Q44.7 126.6 45.5 127.1Q46.2 127.5 46.7 128.3Q47.1 129.2 47.1 130.4L47.1 130.4Q47.1 131.5 46.7 132.4Q46.2 133.2 45.5 133.7Q44.7 134.1 43.7 134.1ZM43.7 132.8L43.7 132.8Q44.3 132.8 44.7 132.5Q45.1 132.2 45.4 131.7Q45.6 131.1 45.6 130.4L45.6 130.4Q45.6 129.6 45.4 129.0Q45.1 128.5 44.7 128.2Q44.3 128.0 43.7 128.0L43.7 128.0Q43.2 128.0 42.7 128.2Q42.3 128.5 42.1 129.0Q41.8 129.6 41.8 130.4L41.8 130.4Q41.8 131.1 42.1 131.7Q42.3 132.2 42.7 132.5Q43.2 132.8 43.7 132.8ZM52.4 134.1L52.4 134.1Q51.4 134.1 50.7 133.7Q49.9 133.2 49.5 132.4Q49.0 131.5 49.0 130.4L49.0 130.4Q49.0 129.2 49.5 128.3Q49.9 127.5 50.7 127.1Q51.5 126.6 52.4 126.6L52.4 126.6Q53.0 126.6 53.6 126.8Q54.1 127.0 54.5 127.3Q54.9 127.6 55.2 128.1Q55.5 128.6 55.5 129.2L55.5 129.2L54.0 129.2Q54.0 128.9 53.8 128.7Q53.7 128.4 53.5 128.3Q53.3 128.1 53.0 128.0Q52.8 128.0 52.4 128.0L52.4 128.0Q51.9 128.0 51.4 128.2Q51.0 128.5 50.8 129.1Q50.5 129.6 50.5 130.4L50.5 130.4Q50.5 131.2 50.8 131.7Q51.0 132.2 51.5 132.5Q51.9 132.8 52.4 132.8L52.4 132.8Q52.7 132.8 53.0 132.7Q53.3 132.6 53.5 132.4Q53.7 132.3 53.8 132.0Q54.0 131.8 54.0 131.5L54.0 131.5L55.5 131.5Q55.5 132.0 55.2 132.5Q55.0 132.9 54.6 133.3Q54.2 133.7 53.7 133.9Q53.1 134.1 52.4 134.1ZM60.6 134.1L60.6 134.1Q59.7 134.1 59.1 133.8Q58.4 133.4 58.0 132.8Q57.6 132.2 57.6 131.4L57.6 131.4L57.6 126.7L59.1 126.7L59.1 131.3Q59.1 131.7 59.3 132.1Q59.5 132.4 59.8 132.6Q60.2 132.8 60.6 132.8L60.6 132.8Q61.1 132.8 61.4 132.6Q61.8 132.4 62.0 132.1Q62.1 131.7 62.1 131.3L62.1 131.3L62.1 126.7L63.6 126.7L63.6 131.4Q63.6 132.2 63.3 132.8Q62.9 133.4 62.2 133.8Q61.5 134.1 60.6 134.1ZM68.6 134.1L68.6 134.1Q67.7 134.1 67.1 133.8Q66.4 133.6 66.1 133.0Q65.7 132.5 65.7 131.7L65.7 131.7L67.2 131.7Q67.2 132.1 67.4 132.4Q67.6 132.6 67.9 132.7Q68.2 132.8 68.6 132.8L68.6 132.8Q69.0 132.8 69.3 132.7Q69.6 132.6 69.8 132.4Q69.9 132.2 69.9 131.9L69.9 131.9Q69.9 131.7 69.8 131.5Q69.6 131.3 69.3 131.2Q69.1 131.1 68.7 131.0L68.7 131.0L67.9 130.8Q66.9 130.6 66.4 130.1Q65.9 129.6 65.9 128.8L65.9 128.8Q65.9 128.2 66.3 127.7Q66.6 127.2 67.2 126.9Q67.8 126.6 68.6 126.6L68.6 126.6Q69.4 126.6 70.0 126.9Q70.6 127.2 71.0 127.7Q71.3 128.2 71.3 128.8L71.3 128.8L69.9 128.8Q69.8 128.4 69.5 128.1Q69.2 127.9 68.6 127.9L68.6 127.9Q68.2 127.9 68.0 128.0Q67.7 128.1 67.6 128.3Q67.4 128.5 67.4 128.7L67.4 128.7Q67.4 129.0 67.6 129.2Q67.8 129.3 68.0 129.5Q68.3 129.6 68.6 129.6L68.6 129.6L69.3 129.8Q69.7 129.9 70.1 130.1Q70.5 130.3 70.8 130.5Q71.1 130.8 71.3 131.1Q71.4 131.5 71.4 131.9L71.4 131.9Q71.4 132.6 71.1 133.1Q70.8 133.6 70.1 133.8Q69.5 134.1 68.6 134.1Z M34.9 146L33.2 146L35.7 138.7L37.7 138.7L40.2 146L38.6 146L38.0 144.3L35.4 144.3L34.9 146ZM35.8 143.1L37.6 143.1L37.4 142.5Q37.2 141.8 37.0 141L37.0 141Q36.8 140.5 36.7 139.9L36.7 139.9Q36.5 140.5 36.4 141.0L36.4 141.0Q36.2 141.8 36.0 142.5L36.0 142.5L35.8 143.1ZM43.6 146L42.1 146L42.1 138.7L45.0 138.7Q45.8 138.7 46.4 139.0Q47.0 139.3 47.3 139.8Q47.6 140.4 47.6 141.1Q47.6 141.8 47.3 142.3Q46.9 142.9 46.4 143.1L46.4 143.1Q46.3 143.1 46.3 143.2L46.3 143.2L47.8 146L46.2 146L44.8 143.4L43.6 143.4L43.6 146ZM43.6 140.0L43.6 142.2L44.7 142.2Q45.1 142.2 45.4 142.1Q45.7 141.9 45.9 141.7Q46.0 141.5 46.0 141.1L46.0 141.1Q46.0 140.7 45.9 140.5Q45.7 140.2 45.4 140.1Q45.1 140.0 44.7 140.0L44.7 140.0L43.6 140.0ZM54.6 146L49.7 146L49.7 138.7L54.6 138.7L54.6 140.0L51.2 140.0L51.2 141.7L54.3 141.7L54.3 142.9L51.2 142.9L51.2 144.8L54.6 144.8L54.6 146ZM58.0 146L56.3 146L58.8 138.7L60.8 138.7L63.3 146L61.7 146L61.1 144.3L58.5 144.3L58.0 146ZM58.9 143.1L60.7 143.1L60.5 142.5Q60.3 141.8 60.1 141L60.1 141Q59.9 140.5 59.8 139.9L59.8 139.9Q59.6 140.5 59.5 141.0L59.5 141.0Q59.3 141.8 59.1 142.5L59.1 142.5L58.9 143.1ZM67.9 146.1L67.9 146.1Q67.0 146.1 66.4 145.8Q65.7 145.6 65.4 145.0Q65.0 144.5 65.0 143.7L65.0 143.7L66.4 143.7Q66.5 144.1 66.7 144.4Q66.8 144.6 67.2 144.7Q67.5 144.8 67.9 144.8L67.9 144.8Q68.3 144.8 68.6 144.7Q68.9 144.6 69.0 144.4Q69.2 144.2 69.2 143.9L69.2 143.9Q69.2 143.7 69.1 143.5Q68.9 143.3 68.6 143.2Q68.4 143.1 68.0 143.0L68.0 143.0L67.2 142.8Q66.2 142.6 65.7 142.1Q65.2 141.6 65.2 140.8L65.2 140.8Q65.2 140.2 65.5 139.7Q65.9 139.2 66.5 138.9Q67.1 138.6 67.9 138.6L67.9 138.6Q68.7 138.6 69.3 138.9Q69.9 139.2 70.3 139.7Q70.6 140.2 70.6 140.8L70.6 140.8L69.2 140.8Q69.1 140.4 68.8 140.1Q68.5 139.9 67.9 139.9L67.9 139.9Q67.5 139.9 67.3 140.0Q67.0 140.1 66.9 140.3Q66.7 140.5 66.7 140.7L66.7 140.7Q66.7 141.0 66.9 141.2Q67.0 141.3 67.3 141.5Q67.6 141.6 67.9 141.6L67.9 141.6L68.5 141.8Q69.0 141.9 69.4 142.1Q69.8 142.3 70.1 142.5Q70.4 142.8 70.5 143.1Q70.7 143.5 70.7 143.9L70.7 143.9Q70.7 144.6 70.4 145.1Q70.0 145.6 69.4 145.8Q68.8 146.1 67.9 146.1Z "/></g><mask id="satori_om-id-2-2-1"><rect x="129" y="123" width="423" height="25" fill="#fff" mask="url(#satori_om-id)"/></mask><defs><clipPath id="satori_bc-id-2-2-1-0" clip-path="url(#satori_cp-id)"><path x="129" y="123" width="63" height="25" d="M135,123 h51 a6,6 0 0 1 6,6 v13 a6,6 0 0 1 -6,6 h-51 a6,6 0 0 1 -6,-6 v-13 a6,6 0 0 1 6,-6"/></clipPath></defs><mask id="satori_om-id-2-2-1-0"><rect x="130" y="124" width="61" height="23" fill="#fff" mask="url(#satori_om-id)"/><path width="63" height="25" fill="none" stroke="#000" stroke-width="2" d="M130.757,124.757 A6,6 0 0 1 135,123 h51 a6,6 0 0 1 6,6 v13 a6,6 0 0 1 -6,6 h-51 a6,6 0 0 1 -6,-6 v-13 A6,6 0 0 1 130.757,124.757"/></mask><path x="129" y="123" width="63" height="25" fill="#fb718515" d="M135,123 h51 a6,6 0 0 1 6,6 v13 a6,6 0 0 1 -6,6 h-51 a6,6 0 0 1 -6,-6 v-13 a6,6 0 0 1 6,-6" clip-path="url(#satori_cp-id)" mask="url(#satori_om-id)"/><path width="63" height="25" clip-path="url(#satori_bc-id-2-2-1-0)" fill="none" stroke="#fb718535" stroke-width="2" d="M130.757,124.757 A6,6 0 0 1 135,123 h51 a6,6 0 0 1 6,6 v13 a6,6 0 0 1 -6,6 h-51 a6,6 0 0 1 -6,-6 v-13 A6,6 0 0 1 130.757,124.757"/><g mask="url(#satori_om-id)" clip-path="url(#satori_cp-id)"><path fill="rgba(225,220,255,0.85)" d="M145.3 140L143.3 140L146.3 131.3L148.6 131.3L151.7 140L149.7 140L149.0 138.0L145.9 138.0L145.3 140ZM146.4 136.6L148.5 136.6L148.3 135.8Q148.0 135.0 147.8 134L147.8 134Q147.6 133.4 147.4 132.7L147.4 132.7Q147.2 133.4 147.1 134.0L147.1 134.0Q146.8 135.0 146.6 135.8L146.6 135.8L146.4 136.6ZM152.8 131.3L154.5 131.3L154.5 140L152.8 140L152.8 131.3ZM158.3 130.9L159.8 130.9L157.0 141.3L155.5 141.3L158.3 130.9ZM162.6 140L160.8 140L160.8 131.3L163.5 131.3L164.9 135.3Q165.0 135.6 165.1 136.0Q165.3 136.4 165.4 137.0L165.4 137.0Q165.5 137.5 165.6 137.9L165.6 137.9Q165.7 137.5 165.8 137.0L165.8 137.0Q165.9 136.5 166.0 136.0Q166.1 135.6 166.2 135.3L166.2 135.3L167.6 131.3L170.4 131.3L170.4 140L168.6 140L168.6 135.9Q168.6 135.6 168.6 135.2Q168.6 134.7 168.6 134.2Q168.6 133.8 168.6 133.3L168.6 133.3Q168.6 133.0 168.7 132.8L168.7 132.8Q168.6 133.1 168.5 133.3L168.5 133.3Q168.4 133.8 168.3 134.3Q168.1 134.8 168.0 135.2Q167.9 135.6 167.8 135.9L167.8 135.9L166.3 140L164.8 140L163.4 135.9Q163.3 135.6 163.1 135.2Q163.0 134.8 162.9 134.3Q162.7 133.8 162.6 133.3L162.6 133.3Q162.5 133.1 162.5 132.9L162.5 132.9Q162.5 133.0 162.5 133.2L162.5 133.2Q162.5 133.7 162.5 134.2Q162.5 134.7 162.5 135.2Q162.6 135.6 162.6 135.9L162.6 135.9L162.6 140ZM177.5 140L172.0 140L172.0 131.3L173.7 131.3L173.7 138.5L177.5 138.5L177.5 140Z "/></g><defs><clipPath id="satori_bc-id-2-2-1-1" clip-path="url(#satori_cp-id)"><path x="199" y="123" width="157" height="25" d="M205,123 h145 a6,6 0 0 1 6,6 v13 a6,6 0 0 1 -6,6 h-145 a6,6 0 0 1 -6,-6 v-13 a6,6 0 0 1 6,-6"/></clipPath></defs><mask id="satori_om-id-2-2-1-1"><rect x="200" y="124" width="155" height="23" fill="#fff" mask="url(#satori_om-id)"/><path width="157" height="25" fill="none" stroke="#000" stroke-width="2" d="M200.757,124.757 A6,6 0 0 1 205,123 h145 a6,6 0 0 1 6,6 v13 a6,6 0 0 1 -6,6 h-145 a6,6 0 0 1 -6,-6 v-13 A6,6 0 0 1 200.757,124.757"/></mask><path x="199" y="123" width="157" height="25" fill="#fb718515" d="M205,123 h145 a6,6 0 0 1 6,6 v13 a6,6 0 0 1 -6,6 h-145 a6,6 0 0 1 -6,-6 v-13 a6,6 0 0 1 6,-6" clip-path="url(#satori_cp-id)" mask="url(#satori_om-id)"/><path width="157" height="25" clip-path="url(#satori_bc-id-2-2-1-1)" fill="none" stroke="#fb718535" stroke-width="2" d="M200.757,124.757 A6,6 0 0 1 205,123 h145 a6,6 0 0 1 6,6 v13 a6,6 0 0 1 -6,6 h-145 a6,6 0 0 1 -6,-6 v-13 A6,6 0 0 1 200.757,124.757"/><g mask="url(#satori_om-id)" clip-path="url(#satori_cp-id)"><path fill="rgba(225,220,255,0.85)" d="M217.7 140L215.6 140L213.3 131.3L215.2 131.3L216.3 135.6Q216.4 136.1 216.5 136.7Q216.6 137.3 216.7 137.9L216.7 137.9Q216.7 138.1 216.7 138.2L216.7 138.2Q216.7 138.1 216.8 137.9L216.8 137.9Q216.9 137.3 217.0 136.7Q217.1 136.1 217.2 135.6L217.2 135.6L218.3 131.3L220.2 131.3L221.2 135.6Q221.3 136.1 221.5 136.7Q221.6 137.3 221.7 137.9L221.7 137.9Q221.7 138.1 221.7 138.2L221.7 138.2Q221.7 138.1 221.8 137.9L221.8 137.9Q221.9 137.3 222.0 136.7Q222.1 136.1 222.2 135.6L222.2 135.6L223.2 131.3L225.2 131.3L222.8 140L220.8 140L219.6 135.5Q219.4 134.8 219.3 133.9L219.3 133.9Q219.3 133.7 219.2 133.4L219.2 133.4Q219.2 133.7 219.2 133.9L219.2 133.9Q219.0 134.7 218.8 135.5L218.8 135.5L217.7 140ZM229.1 140.1L229.1 140.1Q228.1 140.1 227.4 139.7Q226.7 139.3 226.3 138.5Q225.9 137.8 225.9 136.8L225.9 136.8Q225.9 135.7 226.3 135.0Q226.7 134.2 227.4 133.8Q228.1 133.4 229.1 133.4L229.1 133.4Q230.1 133.4 230.8 133.8Q231.6 134.2 231.9 135.0Q232.3 135.7 232.3 136.8L232.3 136.8Q232.3 137.8 231.9 138.5Q231.6 139.3 230.8 139.7Q230.1 140.1 229.1 140.1ZM229.1 138.7L229.1 138.7Q229.6 138.7 229.9 138.5Q230.2 138.2 230.4 137.8Q230.5 137.3 230.5 136.7L230.5 136.7Q230.5 136.2 230.4 135.7Q230.2 135.3 229.9 135.0Q229.6 134.8 229.1 134.8L229.1 134.8Q228.7 134.8 228.3 135.0Q228.0 135.3 227.9 135.7Q227.7 136.2 227.7 136.7L227.7 136.7Q227.7 137.3 227.9 137.8Q228.0 138.2 228.3 138.5Q228.7 138.7 229.1 138.7ZM235.3 140L233.6 140L233.6 133.4L235.3 133.4L235.3 134.6L235.3 134.6Q235.5 134.0 235.9 133.7Q236.4 133.4 236.9 133.4L236.9 133.4Q237.0 133.4 237.2 133.4Q237.4 133.4 237.5 133.4L237.5 133.4L237.5 135.0Q237.4 134.9 237.1 134.9Q236.9 134.9 236.7 134.9L236.7 134.9Q236.3 134.9 236.0 135.1Q235.7 135.2 235.5 135.6Q235.3 135.9 235.3 136.3L235.3 136.3L235.3 140ZM240.2 140L238.4 140L238.4 131.3L240.2 131.3L240.2 136.0L240.3 136.0L242.4 133.4L244.5 133.4L242.0 136.3L244.6 140L242.5 140L240.7 137.3L240.2 137.9L240.2 140ZM247.7 133.4L249.1 133.4L249.1 134.8L247.7 134.8L247.7 140L245.9 140L245.9 134.8L244.8 134.8L244.8 133.4L245.9 133.4L245.9 132.9Q245.9 132.2 246.2 131.8Q246.5 131.3 247.0 131.1Q247.4 130.9 248.1 130.9L248.1 130.9Q248.5 130.9 248.8 130.9Q249.2 131.0 249.3 131.0L249.3 131.0L249 132.4Q248.9 132.3 248.7 132.3Q248.6 132.3 248.4 132.3L248.4 132.3Q248.0 132.3 247.8 132.5Q247.7 132.7 247.7 133.0L247.7 133.0L247.7 133.4ZM250.2 131.3L251.9 131.3L251.9 140L250.2 140L250.2 131.3ZM256.4 140.1L256.4 140.1Q255.4 140.1 254.7 139.7Q253.9 139.3 253.5 138.5Q253.2 137.8 253.2 136.8L253.2 136.8Q253.2 135.7 253.5 135.0Q253.9 134.2 254.7 133.8Q255.4 133.4 256.4 133.4L256.4 133.4Q257.4 133.4 258.1 133.8Q258.8 134.2 259.2 135.0Q259.6 135.7 259.6 136.8L259.6 136.8Q259.6 137.8 259.2 138.5Q258.8 139.3 258.1 139.7Q257.4 140.1 256.4 140.1ZM256.4 138.7L256.4 138.7Q256.8 138.7 257.2 138.5Q257.5 138.2 257.6 137.8Q257.8 137.3 257.8 136.7L257.8 136.7Q257.8 136.2 257.6 135.7Q257.5 135.3 257.2 135.0Q256.8 134.8 256.4 134.8L256.4 134.8Q255.9 134.8 255.6 135.0Q255.3 135.3 255.1 135.7Q255.0 136.2 255.0 136.7L255.0 136.7Q255.0 137.3 255.1 137.8Q255.3 138.2 255.6 138.5Q255.9 138.7 256.4 138.7ZM263.9 140L262.2 140L260.2 133.4L262.1 133.4L262.6 135.9Q262.8 136.5 263.0 137.3L263.0 137.3Q263.1 137.8 263.2 138.4L263.2 138.4Q263.3 137.8 263.4 137.3L263.4 137.3Q263.6 136.5 263.7 135.9L263.7 135.9L264.3 133.4L266.0 133.4L266.5 135.9Q266.7 136.5 266.9 137.3L266.9 137.3Q267.0 137.8 267.1 138.4L267.1 138.4Q267.2 137.8 267.3 137.3L267.3 137.3Q267.5 136.5 267.6 135.9L267.6 135.9L268.2 133.4L270.1 133.4L268.1 140L266.3 140L265.6 137.5Q265.5 137.1 265.4 136.6Q265.3 136.2 265.2 135.7L265.2 135.7Q265.2 135.6 265.1 135.5L265.1 135.5Q265.1 135.6 265.1 135.7L265.1 135.7Q265.0 136.2 264.9 136.6Q264.8 137.1 264.7 137.5L264.7 137.5L263.9 140Z M275.3 140L273.4 140L276.4 131.3L278.7 131.3L281.8 140L279.8 140L279.1 138.0L276 138.0L275.3 140ZM276.4 136.6L278.6 136.6L278.4 135.8Q278.1 135.0 277.9 134L277.9 134Q277.7 133.4 277.5 132.7L277.5 132.7Q277.3 133.4 277.2 134.0L277.2 134.0Q276.9 135.0 276.7 135.8L276.7 135.8L276.4 136.6ZM285.1 140.1L285.1 140.1Q284.4 140.1 283.9 139.8Q283.4 139.5 283.1 138.9Q282.8 138.4 282.8 137.6L282.8 137.6L282.8 133.4L284.6 133.4L284.6 137.3Q284.6 137.9 284.9 138.3Q285.2 138.6 285.7 138.6L285.7 138.6Q286.1 138.6 286.4 138.5Q286.7 138.3 286.8 138.0Q287.0 137.7 287.0 137.2L287.0 137.2L287.0 133.4L288.8 133.4L288.8 140L287.1 140L287.1 138.6Q286.8 139.3 286.4 139.6L286.4 139.6Q285.9 140.1 285.1 140.1ZM292.3 133.4L293.5 133.4L293.5 134.8L292.3 134.8L292.3 138.1Q292.3 138.4 292.4 138.5Q292.6 138.7 292.9 138.7L292.9 138.7Q293.0 138.7 293.2 138.7Q293.4 138.6 293.4 138.6L293.4 138.6L293.7 139.9Q293.4 140.0 293.1 140.1Q292.8 140.1 292.6 140.1L292.6 140.1Q291.6 140.1 291.1 139.6Q290.5 139.1 290.5 138.2L290.5 138.2L290.5 134.8L289.6 134.8L289.6 133.4L290.5 133.4L290.5 131.9L292.3 131.9L292.3 133.4ZM297.6 140.1L297.6 140.1Q296.6 140.1 295.9 139.7Q295.2 139.3 294.8 138.5Q294.4 137.8 294.4 136.8L294.4 136.8Q294.4 135.7 294.8 135.0Q295.2 134.2 295.9 133.8Q296.6 133.4 297.6 133.4L297.6 133.4Q298.6 133.4 299.3 133.8Q300.0 134.2 300.4 135.0Q300.8 135.7 300.8 136.8L300.8 136.8Q300.8 137.8 300.4 138.5Q300.0 139.3 299.3 139.7Q298.6 140.1 297.6 140.1ZM297.6 138.7L297.6 138.7Q298.1 138.7 298.4 138.5Q298.7 138.2 298.9 137.8Q299.0 137.3 299.0 136.7L299.0 136.7Q299.0 136.2 298.9 135.7Q298.7 135.3 298.4 135.0Q298.1 134.8 297.6 134.8L297.6 134.8Q297.1 134.8 296.8 135.0Q296.5 135.3 296.3 135.7Q296.2 136.2 296.2 136.7L296.2 136.7Q296.2 137.3 296.3 137.8Q296.5 138.2 296.8 138.5Q297.1 138.7 297.6 138.7ZM303.8 140L302.0 140L302.0 133.4L303.7 133.4L303.7 134.7Q303.9 134.4 304.1 134.1L304.1 134.1Q304.4 133.7 304.8 133.5Q305.2 133.3 305.6 133.3L305.6 133.3Q306.3 133.3 306.7 133.8L306.7 133.8Q307.1 134.2 307.3 134.8L307.3 134.8Q307.4 134.4 307.6 134.1L307.6 134.1Q308.0 133.7 308.4 133.5Q308.9 133.3 309.4 133.3L309.4 133.3Q310.0 133.3 310.5 133.6Q310.9 133.9 311.2 134.4Q311.5 134.9 311.5 135.6L311.5 135.6L311.5 140L309.7 140L309.7 135.9Q309.7 135.4 309.4 135.1Q309.1 134.8 308.7 134.8L308.7 134.8Q308.3 134.8 308.1 135.0Q307.9 135.1 307.7 135.4Q307.6 135.6 307.6 136.0L307.6 136.0L307.6 140L305.9 140L305.9 135.9Q305.9 135.4 305.6 135.1Q305.3 134.8 304.9 134.8L304.9 134.8Q304.6 134.8 304.3 135.0Q304.1 135.1 303.9 135.4Q303.8 135.6 303.8 136.0L303.8 136.0L303.8 140ZM314.8 140.1L314.8 140.1Q314.2 140.1 313.7 139.9Q313.2 139.7 312.9 139.3Q312.6 138.8 312.6 138.2L312.6 138.2Q312.6 137.6 312.8 137.3Q313.0 136.9 313.4 136.7Q313.7 136.4 314.2 136.3Q314.6 136.2 315.1 136.2L315.1 136.2Q315.7 136.1 316.0 136.0Q316.4 136.0 316.5 135.9Q316.7 135.8 316.7 135.6L316.7 135.6L316.7 135.5Q316.7 135.3 316.6 135.1Q316.4 134.9 316.2 134.8Q316.0 134.7 315.7 134.7L315.7 134.7Q315.3 134.7 315.1 134.8Q314.8 134.9 314.7 135.0Q314.5 135.2 314.4 135.4L314.4 135.4L312.8 135.2Q313.0 134.6 313.4 134.2Q313.8 133.8 314.3 133.6Q314.9 133.4 315.7 133.4L315.7 133.4Q316.2 133.4 316.7 133.5Q317.2 133.6 317.6 133.9Q318.0 134.1 318.2 134.6Q318.4 135.0 318.4 135.6L318.4 135.6L318.4 140L316.8 140L316.8 139.1L316.7 139.1Q316.6 139.4 316.3 139.6Q316.0 139.9 315.7 140.0Q315.3 140.1 314.8 140.1ZM315.3 138.9L315.3 138.9Q315.7 138.9 316.0 138.7Q316.3 138.6 316.5 138.3Q316.7 138.0 316.7 137.7L316.7 137.7L316.7 136.9Q316.6 137.0 316.5 137.1Q316.3 137.1 316.1 137.1Q315.9 137.2 315.7 137.2Q315.5 137.2 315.4 137.2L315.4 137.2Q315.1 137.3 314.8 137.4Q314.6 137.5 314.4 137.7Q314.3 137.8 314.3 138.1L314.3 138.1Q314.3 138.4 314.4 138.5Q314.6 138.7 314.8 138.8Q315.0 138.9 315.3 138.9ZM322.0 133.4L323.2 133.4L323.2 134.8L322.0 134.8L322.0 138.1Q322.0 138.4 322.1 138.5Q322.2 138.7 322.6 138.7L322.6 138.7Q322.7 138.7 322.8 138.7Q323.0 138.6 323.1 138.6L323.1 138.6L323.4 139.9Q323.1 140.0 322.8 140.1Q322.5 140.1 322.2 140.1L322.2 140.1Q321.3 140.1 320.7 139.6Q320.2 139.1 320.2 138.2L320.2 138.2L320.2 134.8L319.3 134.8L319.3 133.4L320.2 133.4L320.2 131.9L322.0 131.9L322.0 133.4ZM326.1 140L324.3 140L324.3 133.4L326.1 133.4L326.1 140ZM325.2 132.6L325.2 132.6Q324.8 132.6 324.5 132.3Q324.3 132.1 324.3 131.7L324.3 131.7Q324.3 131.3 324.5 131.1Q324.8 130.8 325.2 130.8L325.2 130.8Q325.6 130.8 325.9 131.0Q326.2 131.3 326.2 131.7L326.2 131.7Q326.2 132.1 325.9 132.3Q325.6 132.6 325.2 132.6ZM330.5 140.1L330.5 140.1Q329.5 140.1 328.8 139.7Q328.1 139.3 327.7 138.5Q327.3 137.8 327.3 136.8L327.3 136.8Q327.3 135.7 327.7 135.0Q328.1 134.2 328.8 133.8Q329.5 133.4 330.5 133.4L330.5 133.4Q331.5 133.4 332.2 133.8Q332.9 134.2 333.3 135.0Q333.7 135.7 333.7 136.8L333.7 136.8Q333.7 137.8 333.3 138.5Q332.9 139.3 332.2 139.7Q331.5 140.1 330.5 140.1ZM330.5 138.7L330.5 138.7Q331.0 138.7 331.3 138.5Q331.6 138.2 331.8 137.8Q331.9 137.3 331.9 136.7L331.9 136.7Q331.9 136.2 331.8 135.7Q331.6 135.3 331.3 135.0Q331.0 134.8 330.5 134.8L330.5 134.8Q330.0 134.8 329.7 135.0Q329.4 135.3 329.3 135.7Q329.1 136.2 329.1 136.7L329.1 136.7Q329.1 137.3 329.3 137.8Q329.4 138.2 329.7 138.5Q330.0 138.7 330.5 138.7ZM336.7 136.2L336.7 136.2L336.7 140L334.9 140L334.9 133.4L336.6 133.4L336.6 134.8Q336.9 134.2 337.3 133.8L337.3 133.8Q337.8 133.4 338.7 133.4L338.7 133.4Q339.3 133.4 339.9 133.7Q340.4 134.0 340.6 134.5Q340.9 135.1 340.9 135.8L340.9 135.8L340.9 140L339.2 140L339.2 136.1Q339.2 135.5 338.8 135.2Q338.5 134.8 338.0 134.8L338.0 134.8Q337.6 134.8 337.3 135.0Q337.0 135.2 336.9 135.5Q336.7 135.8 336.7 136.2Z "/></g><defs><clipPath id="satori_bc-id-2-2-1-2" clip-path="url(#satori_cp-id)"><path x="363" y="123" width="189" height="25" d="M369,123 h177 a6,6 0 0 1 6,6 v13 a6,6 0 0 1 -6,6 h-177 a6,6 0 0 1 -6,-6 v-13 a6,6 0 0 1 6,-6"/></clipPath></defs><mask id="satori_om-id-2-2-1-2"><rect x="364" y="124" width="187" height="23" fill="#fff" mask="url(#satori_om-id)"/><path width="189" height="25" fill="none" stroke="#000" stroke-width="2" d="M364.757,124.757 A6,6 0 0 1 369,123 h177 a6,6 0 0 1 6,6 v13 a6,6 0 0 1 -6,6 h-177 a6,6 0 0 1 -6,-6 v-13 A6,6 0 0 1 364.757,124.757"/></mask><path x="363" y="123" width="189" height="25" fill="#fb718515" d="M369,123 h177 a6,6 0 0 1 6,6 v13 a6,6 0 0 1 -6,6 h-177 a6,6 0 0 1 -6,-6 v-13 a6,6 0 0 1 6,-6" clip-path="url(#satori_cp-id)" mask="url(#satori_om-id)"/><path width="189" height="25" clip-path="url(#satori_bc-id-2-2-1-2)" fill="none" stroke="#fb718535" stroke-width="2" d="M364.757,124.757 A6,6 0 0 1 369,123 h177 a6,6 0 0 1 6,6 v13 a6,6 0 0 1 -6,6 h-177 a6,6 0 0 1 -6,-6 v-13 A6,6 0 0 1 364.757,124.757"/><g mask="url(#satori_om-id)" clip-path="url(#satori_cp-id)"><path fill="rgba(225,220,255,0.85)" d="M377.8 131.3L379.6 131.3L379.6 140L377.8 140L377.8 131.3ZM382.9 136.2L382.9 136.2L382.9 140L381.1 140L381.1 133.4L382.8 133.4L382.8 134.8Q383.1 134.2 383.5 133.8L383.5 133.8Q384.0 133.4 384.8 133.4L384.8 133.4Q385.5 133.4 386.0 133.7Q386.5 134.0 386.8 134.5Q387.1 135.1 387.1 135.8L387.1 135.8L387.1 140L385.3 140L385.3 136.1Q385.3 135.5 385.0 135.2Q384.7 134.8 384.1 134.8L384.1 134.8Q383.8 134.8 383.5 135.0Q383.2 135.2 383.0 135.5Q382.9 135.8 382.9 136.2ZM390.9 133.4L392.2 133.4L392.2 134.8L390.9 134.8L390.9 140L389.1 140L389.1 134.8L388.0 134.8L388.0 133.4L389.1 133.4L389.1 132.9Q389.1 132.2 389.4 131.8Q389.7 131.3 390.1 131.1Q390.6 130.9 391.2 130.9L391.2 130.9Q391.7 130.9 392.0 130.9Q392.3 131.0 392.5 131.0L392.5 131.0L392.2 132.4Q392.1 132.3 391.9 132.3Q391.8 132.3 391.6 132.3L391.6 132.3Q391.2 132.3 391.0 132.5Q390.9 132.7 390.9 133.0L390.9 133.0L390.9 133.4ZM395.1 140L393.4 140L393.4 133.4L395.1 133.4L395.1 134.6L395.1 134.6Q395.3 134.0 395.7 133.7Q396.2 133.4 396.7 133.4L396.7 133.4Q396.9 133.4 397.0 133.4Q397.2 133.4 397.3 133.4L397.3 133.4L397.3 135.0Q397.2 134.9 396.9 134.9Q396.7 134.9 396.5 134.9L396.5 134.9Q396.1 134.9 395.8 135.1Q395.5 135.2 395.3 135.6Q395.1 135.9 395.1 136.3L395.1 136.3L395.1 140ZM400.1 140.1L400.1 140.1Q399.5 140.1 399.0 139.9Q398.5 139.7 398.2 139.3Q397.9 138.8 397.9 138.2L397.9 138.2Q397.9 137.6 398.1 137.3Q398.3 136.9 398.7 136.7Q399.0 136.4 399.4 136.3Q399.9 136.2 400.4 136.2L400.4 136.2Q400.9 136.1 401.3 136.0Q401.6 136.0 401.8 135.9Q402.0 135.8 402.0 135.6L402.0 135.6L402.0 135.5Q402.0 135.3 401.8 135.1Q401.7 134.9 401.5 134.8Q401.3 134.7 400.9 134.7L400.9 134.7Q400.6 134.7 400.3 134.8Q400.1 134.9 399.9 135.0Q399.8 135.2 399.7 135.4L399.7 135.4L398.1 135.2Q398.3 134.6 398.7 134.2Q399.0 133.8 399.6 133.6Q400.2 133.4 400.9 133.4L400.9 133.4Q401.5 133.4 402.0 133.5Q402.5 133.6 402.9 133.9Q403.3 134.1 403.5 134.6Q403.7 135.0 403.7 135.6L403.7 135.6L403.7 140L402.1 140L402.1 139.1L402.0 139.1Q401.8 139.4 401.6 139.6Q401.3 139.9 400.9 140.0Q400.6 140.1 400.1 140.1ZM400.6 138.9L400.6 138.9Q401.0 138.9 401.3 138.7Q401.6 138.6 401.8 138.3Q402.0 138.0 402.0 137.7L402.0 137.7L402.0 136.9Q401.9 137.0 401.7 137.1Q401.6 137.1 401.4 137.1Q401.2 137.2 401.0 137.2Q400.8 137.2 400.7 137.2L400.7 137.2Q400.3 137.3 400.1 137.4Q399.9 137.5 399.7 137.7Q399.6 137.8 399.6 138.1L399.6 138.1Q399.6 138.4 399.7 138.5Q399.8 138.7 400.1 138.8Q400.3 138.9 400.6 138.9ZM407.8 140.1L407.8 140.1Q407.0 140.1 406.4 139.9Q405.8 139.7 405.4 139.2Q405.0 138.8 404.9 138.2L404.9 138.2L406.6 137.9Q406.7 138.4 407.0 138.6Q407.3 138.8 407.9 138.8L407.9 138.8Q408.4 138.8 408.7 138.6Q409.0 138.5 409.0 138.2L409.0 138.2Q409.0 137.9 408.7 137.7Q408.5 137.6 408.1 137.5L408.1 137.5L407.0 137.3Q406.0 137.1 405.6 136.6Q405.1 136.1 405.1 135.4L405.1 135.4Q405.1 134.8 405.4 134.3Q405.8 133.9 406.4 133.6Q407.0 133.4 407.8 133.4L407.8 133.4Q408.6 133.4 409.2 133.6Q409.8 133.8 410.1 134.2Q410.5 134.6 410.6 135.1L410.6 135.1L409.0 135.4Q408.9 135.1 408.6 134.8Q408.4 134.6 407.9 134.6L407.9 134.6Q407.4 134.6 407.1 134.8Q406.9 135.0 406.9 135.3L406.9 135.3Q406.9 135.5 407.0 135.7Q407.2 135.9 407.7 136.0L407.7 136.0L408.9 136.2Q409.8 136.4 410.3 136.8Q410.8 137.3 410.8 138.0L410.8 138.0Q410.8 138.6 410.4 139.1Q410 139.6 409.3 139.9Q408.7 140.1 407.8 140.1ZM414.0 133.4L415.2 133.4L415.2 134.8L414.0 134.8L414.0 138.1Q414.0 138.4 414.1 138.5Q414.2 138.7 414.6 138.7L414.6 138.7Q414.7 138.7 414.8 138.7Q415.0 138.6 415.1 138.6L415.1 138.6L415.4 139.9Q415.1 140.0 414.8 140.1Q414.5 140.1 414.2 140.1L414.2 140.1Q413.3 140.1 412.7 139.6Q412.2 139.1 412.2 138.2L412.2 138.2L412.2 134.8L411.3 134.8L411.3 133.4L412.2 133.4L412.2 131.9L414.0 131.9L414.0 133.4ZM418.1 140L416.3 140L416.3 133.4L418.0 133.4L418.0 134.6L418.1 134.6Q418.3 134.0 418.7 133.7Q419.1 133.4 419.7 133.4L419.7 133.4Q419.8 133.4 420.0 133.4Q420.1 133.4 420.3 133.4L420.3 133.4L420.3 135.0Q420.1 134.9 419.9 134.9Q419.7 134.9 419.5 134.9L419.5 134.9Q419.1 134.9 418.8 135.1Q418.4 135.2 418.3 135.6Q418.1 135.9 418.1 136.3L418.1 136.3L418.1 140ZM423.5 140.1L423.5 140.1Q422.8 140.1 422.3 139.8Q421.8 139.5 421.5 138.9Q421.2 138.4 421.2 137.6L421.2 137.6L421.2 133.4L423.0 133.4L423.0 137.3Q423.0 137.9 423.3 138.3Q423.6 138.6 424.2 138.6L424.2 138.6Q424.5 138.6 424.8 138.5Q425.1 138.3 425.3 138.0Q425.4 137.7 425.4 137.2L425.4 137.2L425.4 133.4L427.2 133.4L427.2 140L425.5 140L425.5 138.6Q425.3 139.3 424.8 139.6L424.8 139.6Q424.3 140.1 423.5 140.1ZM431.6 140.1L431.6 140.1Q430.6 140.1 429.9 139.7Q429.2 139.3 428.8 138.5Q428.4 137.8 428.4 136.8L428.4 136.8Q428.4 135.7 428.8 135.0Q429.2 134.2 429.9 133.8Q430.6 133.4 431.6 133.4L431.6 133.4Q432.2 133.4 432.7 133.5Q433.2 133.7 433.6 134.0Q433.9 134.2 434.2 134.6Q434.4 135.0 434.5 135.5L434.5 135.5L432.9 135.9Q432.8 135.6 432.7 135.4Q432.6 135.2 432.5 135.0Q432.3 134.9 432.1 134.8Q431.9 134.8 431.6 134.8L431.6 134.8Q431.2 134.8 430.9 135.0Q430.5 135.3 430.4 135.7Q430.2 136.2 430.2 136.7L430.2 136.7Q430.2 137.3 430.4 137.8Q430.5 138.2 430.9 138.5Q431.2 138.7 431.6 138.7L431.6 138.7Q431.9 138.7 432.1 138.7Q432.3 138.6 432.5 138.4Q432.6 138.3 432.8 138.1Q432.9 137.9 432.9 137.6L432.9 137.6L434.5 137.9Q434.5 138.4 434.2 138.8Q434.0 139.2 433.6 139.5Q433.2 139.8 432.7 140.0Q432.2 140.1 431.6 140.1ZM437.8 133.4L439.0 133.4L439.0 134.8L437.8 134.8L437.8 138.1Q437.8 138.4 437.9 138.5Q438.1 138.7 438.4 138.7L438.4 138.7Q438.5 138.7 438.7 138.7Q438.8 138.6 438.9 138.6L438.9 138.6L439.2 139.9Q438.9 140.0 438.6 140.1Q438.3 140.1 438.0 140.1L438.0 140.1Q437.1 140.1 436.5 139.6Q436.0 139.1 436.0 138.2L436.0 138.2L436.0 134.8L435.1 134.8L435.1 133.4L436.0 133.4L436.0 131.9L437.8 131.9L437.8 133.4ZM442.4 140.1L442.4 140.1Q441.7 140.1 441.2 139.8Q440.7 139.5 440.4 138.9Q440.1 138.4 440.1 137.6L440.1 137.6L440.1 133.4L441.9 133.4L441.9 137.3Q441.9 137.9 442.2 138.3Q442.5 138.6 443.1 138.6L443.1 138.6Q443.5 138.6 443.8 138.5Q444.0 138.3 444.2 138.0Q444.4 137.7 444.4 137.2L444.4 137.2L444.4 133.4L446.1 133.4L446.1 140L444.5 140L444.4 138.6Q444.2 139.3 443.8 139.6L443.8 139.6Q443.2 140.1 442.4 140.1ZM449.4 140L447.6 140L447.6 133.4L449.3 133.4L449.3 134.6L449.4 134.6Q449.6 134.0 450.0 133.7Q450.4 133.4 451.0 133.4L451.0 133.4Q451.1 133.4 451.3 133.4Q451.4 133.4 451.5 133.4L451.5 133.4L451.5 135.0Q451.4 134.9 451.2 134.9Q451.0 134.9 450.8 134.9L450.8 134.9Q450.4 134.9 450.1 135.1Q449.7 135.2 449.6 135.6Q449.4 135.9 449.4 136.3L449.4 136.3L449.4 140ZM455.5 140.1L455.5 140.1Q454.5 140.1 453.7 139.7Q453.0 139.3 452.6 138.6Q452.2 137.8 452.2 136.8L452.2 136.8Q452.2 135.7 452.6 135.0Q453.0 134.2 453.7 133.8Q454.4 133.4 455.4 133.4L455.4 133.4Q456.0 133.4 456.6 133.6Q457.1 133.8 457.6 134.2Q458.0 134.6 458.2 135.2Q458.5 135.8 458.5 136.7L458.5 136.7L458.5 137.2L454.0 137.2Q454.0 137.7 454.2 138.0L454.2 138.0Q454.3 138.4 454.7 138.6Q455.0 138.8 455.5 138.8L455.5 138.8Q455.8 138.8 456.1 138.7Q456.3 138.6 456.5 138.5Q456.7 138.3 456.8 138.0L456.8 138.0L458.4 138.3Q458.2 138.9 457.8 139.3Q457.4 139.7 456.8 139.9Q456.2 140.1 455.5 140.1ZM454.0 136.1L454.0 136.1L456.8 136.1Q456.7 135.8 456.6 135.5L456.6 135.5Q456.5 135.1 456.2 134.9Q455.8 134.7 455.4 134.7L455.4 134.7Q454.9 134.7 454.6 134.9Q454.3 135.1 454.1 135.5L454.1 135.5Q454.0 135.7 454.0 136.1Z M464.0 140L462.0 140L465.0 131.3L467.4 131.3L470.4 140L468.4 140L467.8 138.0L464.7 138.0L464.0 140ZM465.1 136.6L467.3 136.6L467.0 135.8Q466.8 135.0 466.5 134L466.5 134Q466.3 133.4 466.2 132.7L466.2 132.7Q466.0 133.4 465.8 134.0L465.8 134.0Q465.6 135.0 465.4 135.8L465.4 135.8L465.1 136.6ZM475.1 140.1L475.1 140.1Q474.6 140.1 474.2 139.9Q473.8 139.7 473.6 139.5Q473.4 139.2 473.3 139.0L473.3 139.0L473.2 139.0L473.2 140L471.5 140L471.5 131.3L473.2 131.3L473.2 134.6L473.3 134.6Q473.4 134.3 473.6 134.0Q473.8 133.7 474.2 133.6Q474.6 133.4 475.1 133.4L475.1 133.4Q475.9 133.4 476.5 133.7Q477.1 134.1 477.4 134.9Q477.8 135.6 477.8 136.7L477.8 136.7Q477.8 137.8 477.4 138.6Q477.1 139.3 476.5 139.7Q475.9 140.1 475.1 140.1ZM474.6 138.7L474.6 138.7Q475.0 138.7 475.4 138.4Q475.7 138.2 475.8 137.8Q476.0 137.3 476.0 136.7L476.0 136.7Q476.0 136.2 475.8 135.7Q475.7 135.3 475.4 135.0Q475.0 134.8 474.6 134.8L474.6 134.8Q474.1 134.8 473.8 135.0Q473.5 135.3 473.3 135.7Q473.2 136.1 473.2 136.7L473.2 136.7Q473.2 137.3 473.3 137.8Q473.5 138.2 473.8 138.5Q474.1 138.7 474.6 138.7ZM481.6 140.1L481.6 140.1Q480.8 140.1 480.2 139.9Q479.6 139.7 479.2 139.2Q478.8 138.8 478.7 138.2L478.7 138.2L480.4 137.9Q480.5 138.4 480.8 138.6Q481.1 138.8 481.7 138.8L481.7 138.8Q482.2 138.8 482.5 138.6Q482.8 138.5 482.8 138.2L482.8 138.2Q482.8 137.9 482.5 137.7Q482.3 137.6 481.9 137.5L481.9 137.5L480.8 137.3Q479.8 137.1 479.4 136.6Q478.9 136.1 478.9 135.4L478.9 135.4Q478.9 134.8 479.2 134.3Q479.6 133.9 480.2 133.6Q480.8 133.4 481.6 133.4L481.6 133.4Q482.4 133.4 483.0 133.6Q483.6 133.8 483.9 134.2Q484.3 134.6 484.4 135.1L484.4 135.1L482.8 135.4Q482.7 135.1 482.4 134.8Q482.2 134.6 481.7 134.6L481.7 134.6Q481.2 134.6 480.9 134.8Q480.7 135.0 480.7 135.3L480.7 135.3Q480.7 135.5 480.8 135.7Q481.0 135.9 481.5 136.0L481.5 136.0L482.7 136.2Q483.6 136.4 484.1 136.8Q484.5 137.3 484.5 138.0L484.5 138.0Q484.5 138.6 484.2 139.1Q483.8 139.6 483.1 139.9Q482.5 140.1 481.6 140.1ZM487.8 133.4L489.0 133.4L489.0 134.8L487.8 134.8L487.8 138.1Q487.8 138.4 487.9 138.5Q488.0 138.7 488.4 138.7L488.4 138.7Q488.5 138.7 488.6 138.7Q488.8 138.6 488.9 138.6L488.9 138.6L489.2 139.9Q488.9 140.0 488.6 140.1Q488.3 140.1 488.0 140.1L488.0 140.1Q487.1 140.1 486.5 139.6Q486.0 139.1 486.0 138.2L486.0 138.2L486.0 134.8L485.1 134.8L485.1 133.4L486.0 133.4L486.0 131.9L487.8 131.9L487.8 133.4ZM491.9 140L490.1 140L490.1 133.4L491.8 133.4L491.8 134.6L491.9 134.6Q492.1 134.0 492.5 133.7Q492.9 133.4 493.5 133.4L493.5 133.4Q493.6 133.4 493.8 133.4Q493.9 133.4 494.1 133.4L494.1 133.4L494.1 135.0Q493.9 134.9 493.7 134.9Q493.5 134.9 493.3 134.9L493.3 134.9Q492.9 134.9 492.6 135.1Q492.2 135.2 492.1 135.6Q491.9 135.9 491.9 136.3L491.9 136.3L491.9 140ZM496.8 140.1L496.8 140.1Q496.2 140.1 495.7 139.9Q495.2 139.7 495.0 139.3Q494.7 138.8 494.7 138.2L494.7 138.2Q494.7 137.6 494.9 137.3Q495.1 136.9 495.4 136.7Q495.8 136.4 496.2 136.3Q496.7 136.2 497.1 136.2L497.1 136.2Q497.7 136.1 498.1 136.0Q498.4 136.0 498.6 135.9Q498.7 135.8 498.7 135.6L498.7 135.6L498.7 135.5Q498.7 135.3 498.6 135.1Q498.5 134.9 498.3 134.8Q498.0 134.7 497.7 134.7L497.7 134.7Q497.4 134.7 497.1 134.8Q496.9 134.9 496.7 135.0Q496.5 135.2 496.5 135.4L496.5 135.4L494.9 135.2Q495.0 134.6 495.4 134.2Q495.8 133.8 496.4 133.6Q497.0 133.4 497.7 133.4L497.7 133.4Q498.2 133.4 498.7 133.5Q499.2 133.6 499.6 133.9Q500.0 134.1 500.3 134.6Q500.5 135.0 500.5 135.6L500.5 135.6L500.5 140L498.8 140L498.8 139.1L498.8 139.1Q498.6 139.4 498.3 139.6Q498.1 139.9 497.7 140.0Q497.3 140.1 496.8 140.1ZM497.3 138.9L497.3 138.9Q497.8 138.9 498.1 138.7Q498.4 138.6 498.6 138.3Q498.7 138.0 498.7 137.7L498.7 137.7L498.7 136.9Q498.7 137.0 498.5 137.1Q498.3 137.1 498.2 137.1Q498.0 137.2 497.8 137.2Q497.6 137.2 497.4 137.2L497.4 137.2Q497.1 137.3 496.9 137.4Q496.6 137.5 496.5 137.7Q496.4 137.8 496.4 138.1L496.4 138.1Q496.4 138.4 496.5 138.5Q496.6 138.7 496.8 138.8Q497.1 138.9 497.3 138.9ZM504.9 140.1L504.9 140.1Q503.9 140.1 503.2 139.7Q502.5 139.3 502.1 138.5Q501.7 137.8 501.7 136.8L501.7 136.8Q501.7 135.7 502.1 135.0Q502.5 134.2 503.2 133.8Q503.9 133.4 504.9 133.4L504.9 133.4Q505.5 133.4 506.0 133.5Q506.5 133.7 506.9 134.0Q507.2 134.2 507.5 134.6Q507.7 135.0 507.8 135.5L507.8 135.5L506.2 135.9Q506.1 135.6 506.0 135.4Q505.9 135.2 505.8 135.0Q505.6 134.9 505.4 134.8Q505.2 134.8 504.9 134.8L504.9 134.8Q504.5 134.8 504.1 135.0Q503.8 135.3 503.7 135.7Q503.5 136.2 503.5 136.7L503.5 136.7Q503.5 137.3 503.7 137.8Q503.8 138.2 504.1 138.5Q504.5 138.7 504.9 138.7L504.9 138.7Q505.2 138.7 505.4 138.7Q505.6 138.6 505.8 138.4Q505.9 138.3 506.0 138.1Q506.2 137.9 506.2 137.6L506.2 137.6L507.8 137.9Q507.7 138.4 507.5 138.8Q507.3 139.2 506.9 139.5Q506.5 139.8 506.0 140.0Q505.5 140.1 504.9 140.1ZM511.1 133.4L512.3 133.4L512.3 134.8L511.1 134.8L511.1 138.1Q511.1 138.4 511.2 138.5Q511.3 138.7 511.7 138.7L511.7 138.7Q511.8 138.7 512.0 138.7Q512.1 138.6 512.2 138.6L512.2 138.6L512.5 139.9Q512.2 140.0 511.9 140.1Q511.6 140.1 511.3 140.1L511.3 140.1Q510.4 140.1 509.8 139.6Q509.3 139.1 509.3 138.2L509.3 138.2L509.3 134.8L508.4 134.8L508.4 133.4L509.3 133.4L509.3 131.9L511.1 131.9L511.1 133.4ZM515.2 140L513.4 140L513.4 133.4L515.2 133.4L515.2 140ZM514.3 132.6L514.3 132.6Q513.9 132.6 513.6 132.3Q513.4 132.1 513.4 131.7L513.4 131.7Q513.4 131.3 513.6 131.1Q513.9 130.8 514.3 130.8L514.3 130.8Q514.7 130.8 515.0 131.0Q515.3 131.3 515.3 131.7L515.3 131.7Q515.3 132.1 515.0 132.3Q514.7 132.6 514.3 132.6ZM519.6 140.1L519.6 140.1Q518.6 140.1 517.9 139.7Q517.2 139.3 516.8 138.5Q516.4 137.8 516.4 136.8L516.4 136.8Q516.4 135.7 516.8 135.0Q517.2 134.2 517.9 133.8Q518.6 133.4 519.6 133.4L519.6 133.4Q520.6 133.4 521.3 133.8Q522.0 134.2 522.4 135.0Q522.8 135.7 522.8 136.8L522.8 136.8Q522.8 137.8 522.4 138.5Q522.0 139.3 521.3 139.7Q520.6 140.1 519.6 140.1ZM519.6 138.7L519.6 138.7Q520.1 138.7 520.4 138.5Q520.7 138.2 520.9 137.8Q521.0 137.3 521.0 136.7L521.0 136.7Q521.0 136.2 520.9 135.7Q520.7 135.3 520.4 135.0Q520.1 134.8 519.6 134.8L519.6 134.8Q519.2 134.8 518.8 135.0Q518.5 135.3 518.4 135.7Q518.2 136.2 518.2 136.7L518.2 136.7Q518.2 137.3 518.4 137.8Q518.5 138.2 518.8 138.5Q519.2 138.7 519.6 138.7ZM525.8 136.2L525.8 136.2L525.8 140L524.1 140L524.1 133.4L525.7 133.4L525.7 134.8Q526.0 134.2 526.4 133.8L526.4 133.8Q526.9 133.4 527.8 133.4L527.8 133.4Q528.5 133.4 529.0 133.7Q529.5 134.0 529.7 134.5Q530.0 135.1 530.0 135.8L530.0 135.8L530.0 140L528.3 140L528.3 136.1Q528.3 135.5 528.0 135.2Q527.6 134.8 527.1 134.8L527.1 134.8Q526.7 134.8 526.4 135.0Q526.1 135.2 526.0 135.5Q525.8 135.8 525.8 136.2ZM534.1 140.1L534.1 140.1Q533.3 140.1 532.7 139.9Q532.1 139.7 531.7 139.2Q531.3 138.8 531.2 138.2L531.2 138.2L532.9 137.9Q533.0 138.4 533.3 138.6Q533.6 138.8 534.2 138.8L534.2 138.8Q534.7 138.8 535.0 138.6Q535.3 138.5 535.3 138.2L535.3 138.2Q535.3 137.9 535.1 137.7Q534.8 137.6 534.4 137.5L534.4 137.5L533.3 137.3Q532.3 137.1 531.9 136.6Q531.4 136.1 531.4 135.4L531.4 135.4Q531.4 134.8 531.7 134.3Q532.1 133.9 532.7 133.6Q533.3 133.4 534.2 133.4L534.2 133.4Q534.9 133.4 535.5 133.6Q536.1 133.8 536.4 134.2Q536.8 134.6 536.9 135.1L536.9 135.1L535.3 135.4Q535.2 135.1 534.9 134.8Q534.7 134.6 534.2 134.6L534.2 134.6Q533.7 134.6 533.5 134.8Q533.2 135.0 533.2 135.3L533.2 135.3Q533.2 135.5 533.3 135.7Q533.5 135.9 534.0 136.0L534.0 136.0L535.2 136.2Q536.1 136.4 536.6 136.8Q537.1 137.3 537.1 138.0L537.1 138.0Q537.1 138.6 536.7 139.1Q536.3 139.6 535.6 139.9Q535.0 140.1 534.1 140.1Z "/></g></svg>