<!-- Generated by readme-aura https://github.com/collectioneur/readme-aura -->
<svg width="860" height="140" viewBox="0 0 860 140" xmlns="http://www.w3.org/2000/svg"><defs><clipPath id="satori_bc-id"><path x="0" y="0" width="860" height="140" d="M16,0 h828 a16,16 0 0 1 16,16 v108 a16,16 0 0 1 -16,16 h-828 a16,16 0 0 1 -16,-16 v-108 a16,16 0 0 1 16,-16"/></clipPath></defs><clipPath id="satori_cp-id"><path x="0" y="0" width="860" height="140" d="M16,0 h828 a16,16 0 0 1 16,16 v108 a16,16 0 0 1 -16,16 h-828 a16,16 0 0 1 -16,-16 v-108 a16,16 0 0 1 16,-16"/></clipPath><mask id="satori_om-id"><rect x="1" y="1" width="858" height="138" fill="#fff"/><path width="860" height="140" fill="none" stroke="#000" stroke-width="2" d="M4.686,4.686 A16,16 0 0 1 16,0 h828 a16,16 0 0 1 16,16 v108 a16,16 0 0 1 -16,16 h-828 a16,16 0 0 1 -16,-16 v-108 A16,16 0 0 1 4.686,4.686"/></mask><path x="0" y="0" width="860" height="140" fill="#08080c" d="M16,0 h828 a16,16 0 0 1 16,16 v108 a16,16 0 0 1 -16,16 h-828 a16,16 0 0 1 -16,-16 v-108 a16,16 0 0 1 16,-16"/><path width="860" height="140" clip-path="url(#satori_bc-id)" fill="none" stroke="rgba(110,80,220,0.18)" stroke-width="2" d="M4.686,4.686 A16,16 0 0 1 16,0 h828 a16,16 0 0 1 16,16 v108 a16,16 0 0 1 -16,16 h-828 a16,16 0 0 1 -16,-16 v-108 A16,16 0 0 1 4.686,4.686"/><clipPath id="satori_cp-id-0" clip-path="url(#satori_cp-id)"><rect x="1" y="1" width="860" height="140"/></clipPath><mask id="satori_om-id-0"><rect x="1" y="1" width="860" height="140" fill="#fff" mask="url(#satori_om-id)"/></mask><svg x="1" y="1" width="860" height="140" preserveAspectRatio="none" clip-path="url(#satori_cp-id-0)" mask="url(#satori_om-id-0)"><defs><radialGradient id="g1" cx="50%" cy="50%" r="50%"><stop offset="0%" stop-color="rgba(110,20,210,0.65)"></stop><stop offset="45%" stop-color="rgba(80,15,170,0.28)"></stop><stop offset="70%" stop-color="rgba(80,15,170,0)"></stop></radialGradient><radialGradient id="g2" cx="50%" cy="50%" r="50%"><stop offset="0%" stop-color="rgba(40,70,255,0.55)"></stop><stop offset="45%" stop-color="rgba(20,50,200,0.22)"></stop><stop offset="70%" stop-color="rgba(20,50,200,0)"></stop></radialGradient><radialGradient id="g3" cx="50%" cy="50%" r="50%"><stop offset="0%" stop-color="rgba(0,140,255,0.42)"></stop><stop offset="70%" stop-color="rgba(0,140,255,0)"></stop></radialGradient><radialGradient id="g4" cx="50%" cy="50%" r="50%"><stop offset="0%" stop-color="rgba(0,195,235,0.30)"></stop><stop offset="70%" stop-color="rgba(0,195,235,0)"></stop></radialGradient><radialGradient id="g5" cx="50%" cy="50%" r="50%"><stop offset="0%" stop-color="rgba(100,30,210,0.40)"></stop><stop offset="70%" stop-color="rgba(100,30,210,0)"></stop></radialGradient></defs><ellipse id="glow-1" cx="710" cy="150" rx="210" ry="150" fill="url(#g1)"></ellipse><ellipse id="glow-2" cx="550" cy="140" rx="190" ry="140" fill="url(#g2)"></ellipse><ellipse id="glow-3" cx="400" cy="130" rx="170" ry="130" fill="url(#g3)"></ellipse><ellipse id="glow-4" cx="250" cy="140" rx="150" ry="120" fill="url(#g4)"></ellipse><ellipse id="glow-5" cx="100" cy="150" rx="130" ry="110" fill="url(#g5)"></ellipse><style>

         @keyframes float-slow {
           0%, 100% { transform: translateX(0px); opacity: 0.8; }
           50% { transform: translateX(350px); opacity: 1.2; }
         }
         @keyframes float-medium {
           0%, 100% { transform: translateX(0px); opacity: 0.7; }
           50% { transform: translateX(-250px); opacity: 1.1; }
         }
         @keyframes float-fast {
           0%, 100% { transform: translateX(0px); opacity: 0.9; }
           50% { transform: translateX(200px); opacity: 0.6; }
         }
         @keyframes float-diagonal {
           0%, 100% { transform: translate(0px, 0px); opacity: 0.75; }
           50% { transform: translate(120px, 30px); opacity: 1.0; }
         }
         @keyframes float-wave {
           0%, 100% { transform: translateX(0px); opacity: 0.65; }
           33% { transform: translateX(-160px); opacity: 0.9; }
           66% { transform: translateX(80px); opacity: 1.0; }
         }
         @keyframes float-pulse {
           0%, 100% { transform: scale(1); opacity: 0.8; }
           50% { transform: scale(1.3); opacity: 0.4; }
         }
         #glow-1 { animation: float-slow 8s ease-in-out infinite; }
         #glow-2 { animation: float-medium 12s ease-in-out infinite; }
         #glow-3 { animation: float-fast 9s ease-in-out infinite; }
         #glow-4 { animation: float-diagonal 10s ease-in-out infinite; }
         #glow-5 { animation: float-wave 14s ease-in-out infinite; }
       
</style>
</svg><mask id="satori_om-id-0-0"><rect x="1" y="1" width="0" height="140" fill="#fff" mask="url(#satori_om-id)"/></mask><mask id="satori_om-id-0-0-0"><rect x="1" y="1" width="0" height="140" fill="#fff" mask="url(#satori_om-id)"/></mask><mask id="satori_om-id-0-0-0-0"><rect x="1" y="1" width="0" height="140" fill="#fff" mask="url(#satori_om-id)"/></mask><mask id="satori_om-id-0-0-0-1"><rect x="1" y="1" width="0" height="140" fill="#fff" mask="url(#satori_om-id)"/></mask><mask id="satori_om-id-0-0-0-2"><rect x="1" y="1" width="0" height="140" fill="#fff" mask="url(#satori_om-id)"/></mask><mask id="satori_om-id-0-0-1"><rect x="1" y="1" width="0" height="140" fill="#fff" mask="url(#satori_om-id)"/></mask><mask id="satori_om-id-0-0-1-0"><rect x="1" y="1" width="0" height="140" fill="#fff" mask="url(#satori_om-id)"/></mask><mask id="satori_om-id-0-0-1-1"><rect x="1" y="1" width="0" height="140" fill="#fff" mask="url(#satori_om-id)"/></mask><mask id="satori_om-id-0-0-1-2"><rect x="1" y="1" width="0" height="140" fill="#fff" mask="url(#satori_om-id)"/></mask><mask id="satori_om-id-0-0-2"><rect x="1" y="1" width="0" height="140" fill="#fff" mask="url(#satori_om-id)"/></mask><mask id="satori_om-id-0-0-2-0"><rect x="1" y="1" width="0" height="140" fill="#fff" mask="url(#satori_om-id)"/></mask><mask id="satori_om-id-0-0-2-1"><rect x="1" y="1" width="0" height="140" fill="#fff" mask="url(#satori_om-id)"/></mask><mask id="satori_om-id-0-0-3"><rect x="1" y="1" width="0" height="140" fill="#fff" mask="url(#satori_om-id)"/></mask><mask id="satori_om-id-0-0-3-0"><rect x="1" y="1" width="0" height="140" fill="#fff" mask="url(#satori_om-id)"/></mask><mask id="satori_om-id-0-0-3-1"><rect x="1" y="1" width="0" height="140" fill="#fff" mask="url(#satori_om-id)"/></mask><mask id="satori_om-id-0-0-4"><rect x="1" y="1" width="0" height="140" fill="#fff" mask="url(#satori_om-id)"/></mask><mask id="satori_om-id-0-0-4-0"><rect x="1" y="1" width="0" height="140" fill="#fff" mask="url(#satori_om-id)"/></mask><mask id="satori_om-id-0-0-4-1"><rect x="1" y="1" width="0" height="140" fill="#fff" mask="url(#satori_om-id)"/></mask><mask id="satori_om-id-0-1"><rect x="1" y="1" width="0" height="140" fill="#fff" mask="url(#satori_om-id)"/></mask><mask id="satori_om-id-0-2"><rect x="1" y="1" width="0" height="140" fill="#fff" mask="url(#satori_om-id)"/></mask><mask id="satori_om-id-0-3"><rect x="1" y="1" width="0" height="140" fill="#fff" mask="url(#satori_om-id)"/></mask><mask id="satori_om-id-0-4"><rect x="1" y="1" width="0" height="140" fill="#fff" mask="url(#satori_om-id)"/></mask><mask id="satori_om-id-0-5"><rect x="1" y="1" width="0" height="140" fill="#fff" mask="url(#satori_om-id)"/></mask><defs><clipPath id="satori_bc-id-1" clip-path="url(#satori_cp-id)"><rect x="1" y="30" width="270" height="80"/></clipPath></defs><mask id="satori_om-id-1"><rect x="1" y="30" width="269" height="80" fill="#fff" mask="url(#satori_om-id)"/><path width="270" height="80" fill="none" stroke="#000" stroke-width="2" d="M271,30 A0,0 0 0 1 271,30 v80 A0,0 0 0 1 271,110"/></mask><path width="270" height="80" clip-path="url(#satori_bc-id-1)" fill="none" stroke="rgba(255,255,255,0.06)" stroke-width="2" d="M271,30 A0,0 0 0 1 271,30 v80 A0,0 0 0 1 271,110"/><mask id="satori_om-id-1-0"><rect x="116" y="46" width="39" height="30" fill="#fff" mask="url(#satori_om-id)"/></mask><g mask="url(#satori_om-id)" clip-path="url(#satori_cp-id)"><path fill="#a78bfa" d="M125.7 72.3L125.7 72.3Q123.3 72.3 121.4 71.5Q119.6 70.7 118.5 69.2Q117.5 67.8 117.5 65.9L117.5 65.9L121.9 65.9Q122.0 66.7 122.5 67.3Q123.0 67.9 123.8 68.3Q124.6 68.6 125.7 68.6L125.7 68.6Q126.8 68.6 127.6 68.2Q128.4 67.8 128.9 67.2Q129.3 66.5 129.3 65.6L129.3 65.6Q129.3 64.7 128.8 64.0Q128.3 63.3 127.4 62.9Q126.5 62.5 125.3 62.5L125.3 62.5L123.2 62.5L123.2 59.2L125.3 59.2Q126.3 59.2 127.1 58.8Q127.9 58.5 128.4 57.8Q128.9 57.2 128.9 56.3L128.9 56.3Q128.9 55.4 128.5 54.8Q128.1 54.2 127.4 53.8Q126.6 53.5 125.7 53.5L125.7 53.5Q124.7 53.5 124.0 53.8Q123.2 54.1 122.7 54.8Q122.2 55.4 122.2 56.2L122.2 56.2L117.9 56.2Q117.9 54.4 118.9 52.9Q120.0 51.5 121.7 50.7Q123.5 49.9 125.7 49.9L125.7 49.9Q128.0 49.9 129.7 50.7Q131.3 51.5 132.3 52.9Q133.2 54.3 133.2 56.0L133.2 56.0Q133.2 57.8 132.1 59.1Q130.9 60.3 129.1 60.6L129.1 60.6L129.1 60.8Q130.7 61.0 131.8 61.7Q132.9 62.4 133.4 63.5Q134.0 64.5 134.0 65.9L134.0 65.9Q134.0 67.7 132.9 69.2Q131.8 70.6 130.0 71.5Q128.1 72.3 125.7 72.3ZM152.6 72L137.2 72L137.2 68.8L144.9 61.5Q145.9 60.6 146.6 59.8Q147.3 59.0 147.6 58.2Q148.0 57.5 148.0 56.6L148.0 56.6Q148.0 55.6 147.6 54.9Q147.1 54.2 146.4 53.8Q145.6 53.5 144.6 53.5L144.6 53.5Q143.6 53.5 142.8 53.9Q142.1 54.3 141.7 55.0Q141.3 55.8 141.3 56.9L141.3 56.9L137.0 56.9Q137.0 54.7 138.0 53.2Q138.9 51.6 140.7 50.7Q142.4 49.9 144.6 49.9L144.6 49.9Q147.0 49.9 148.7 50.7Q150.4 51.5 151.4 53.0Q152.3 54.4 152.3 56.3L152.3 56.3Q152.3 57.5 151.9 58.7Q151.4 59.9 150.2 61.4Q148.9 62.9 146.7 64.9L146.7 64.9L143.4 68.2L143.4 68.3L152.6 68.3L152.6 72Z "/></g><mask id="satori_om-id-1-1"><rect x="113" y="81" width="45" height="13" fill="#fff" mask="url(#satori_om-id)"/></mask><g mask="url(#satori_om-id)" clip-path="url(#satori_cp-id)"><path fill="rgba(200,195,225,0.45)" d="M115.4 92L113.7 92L113.7 84.0L116.8 84.0Q117.8 84.0 118.4 84.3Q119.0 84.6 119.4 85.2Q119.7 85.8 119.7 86.6Q119.7 87.4 119.4 88.0Q119.0 88.5 118.4 88.8L118.4 88.8Q118.3 88.9 118.3 88.9L118.3 88.9L120.0 92L118.2 92L116.6 89.1L115.4 89.1L115.4 92ZM115.4 85.4L115.4 87.8L116.5 87.8Q117.0 87.8 117.4 87.7Q117.7 87.5 117.9 87.3Q118.0 87.0 118.0 86.6L118.0 86.6Q118.0 86.2 117.9 85.9Q117.7 85.6 117.4 85.5Q117.0 85.4 116.5 85.4L116.5 85.4L115.4 85.4ZM127.8 92L122.4 92L122.4 84.0L127.8 84.0L127.8 85.4L124.1 85.4L124.1 87.3L127.5 87.3L127.5 88.6L124.1 88.6L124.1 90.6L127.8 90.6L127.8 92ZM132.3 92L130.6 92L130.6 84.0L133.8 84.0Q134.7 84.0 135.3 84.3Q135.9 84.7 136.3 85.3Q136.6 85.9 136.6 86.7L136.6 86.7Q136.6 87.5 136.3 88.1Q135.9 88.7 135.3 89.0Q134.6 89.4 133.7 89.4L133.7 89.4L132.3 89.4L132.3 92ZM132.3 85.4L132.3 88.1L133.5 88.1Q134.0 88.1 134.3 87.9Q134.6 87.7 134.8 87.4Q134.9 87.1 134.9 86.7Q134.9 86.3 134.8 86.0Q134.6 85.7 134.3 85.5Q134.0 85.4 133.4 85.4L133.4 85.4L132.3 85.4ZM142.8 92.1L142.8 92.1Q141.7 92.1 140.9 91.6Q140.0 91.1 139.5 90.2Q139.0 89.3 139.0 88.0L139.0 88.0Q139.0 86.7 139.5 85.8Q140.0 84.9 140.9 84.4Q141.7 83.9 142.8 83.9L142.8 83.9Q143.8 83.9 144.7 84.4Q145.5 84.9 146.0 85.8Q146.5 86.7 146.5 88.0L146.5 88.0Q146.5 89.3 146.0 90.2Q145.5 91.1 144.7 91.6Q143.8 92.1 142.8 92.1ZM142.8 90.7L142.8 90.7Q143.4 90.7 143.9 90.3Q144.3 90.0 144.6 89.5Q144.8 88.9 144.8 88.0L144.8 88.0Q144.8 87.1 144.6 86.5Q144.3 86.0 143.9 85.6Q143.4 85.3 142.8 85.3L142.8 85.3Q142.2 85.3 141.7 85.7Q141.2 86.0 141.0 86.6Q140.7 87.1 140.7 88.0L140.7 88.0Q140.7 88.9 141.0 89.4Q141.2 90.0 141.7 90.3Q142.2 90.7 142.8 90.7ZM152.2 92.1L152.2 92.1Q151.2 92.1 150.5 91.8Q149.8 91.5 149.4 90.9Q149.0 90.4 149.0 89.5L149.0 89.5L150.6 89.5Q150.6 89.9 150.8 90.2Q151.0 90.5 151.4 90.6Q151.7 90.7 152.2 90.7L152.2 90.7Q152.6 90.7 152.9 90.6Q153.2 90.5 153.4 90.2Q153.6 90.0 153.6 89.7L153.6 89.7Q153.6 89.4 153.4 89.3Q153.3 89.1 153.0 88.9Q152.7 88.8 152.2 88.7L152.2 88.7L151.3 88.5Q150.3 88.2 149.8 87.7Q149.2 87.2 149.2 86.3L149.2 86.3Q149.2 85.6 149.6 85.0Q150.0 84.5 150.6 84.2Q151.3 83.9 152.2 83.9L152.2 83.9Q153.1 83.9 153.7 84.2Q154.4 84.5 154.8 85.0Q155.1 85.6 155.1 86.3L155.1 86.3L153.6 86.3Q153.5 85.8 153.2 85.5Q152.8 85.3 152.2 85.3L152.2 85.3Q151.8 85.3 151.5 85.4Q151.2 85.5 151.0 85.7Q150.9 85.9 150.9 86.2L150.9 86.2Q150.9 86.5 151.0 86.7Q151.2 86.9 151.5 87.0Q151.8 87.1 152.1 87.2L152.1 87.2L152.9 87.4Q153.4 87.5 153.8 87.7Q154.2 87.9 154.6 88.2Q154.9 88.4 155.1 88.8Q155.3 89.2 155.3 89.7L155.3 89.7Q155.3 90.4 154.9 91.0Q154.5 91.5 153.8 91.8Q153.1 92.1 152.2 92.1Z "/></g><defs><clipPath id="satori_bc-id-2" clip-path="url(#satori_cp-id)"><rect x="271" y="30" width="270" height="80"/></clipPath></defs><mask id="satori_om-id-2"><rect x="271" y="30" width="269" height="80" fill="#fff" mask="url(#satori_om-id)"/><path width="270" height="80" fill="none" stroke="#000" stroke-width="2" d="M541,30 A0,0 0 0 1 541,30 v80 A0,0 0 0 1 541,110"/></mask><path width="270" height="80" clip-path="url(#satori_bc-id-2)" fill="none" stroke="rgba(255,255,255,0.06)" stroke-width="2" d="M541,30 A0,0 0 0 1 541,30 v80 A0,0 0 0 1 541,110"/><mask id="satori_om-id-2-0"><rect x="396" y="46" width="19" height="30" fill="#fff" mask="url(#satori_om-id)"/></mask><g mask="url(#satori_om-id)" clip-path="url(#satori_cp-id)"><path fill="#60a5fa" d="M405.2 72.3L405.2 72.3Q403.0 72.3 401.2 71.5Q399.5 70.6 398.4 69.2Q397.4 67.7 397.4 65.9L397.4 65.9L401.7 65.9Q401.8 66.7 402.2 67.4Q402.7 68.0 403.5 68.4Q404.3 68.7 405.2 68.7L405.2 68.7Q406.3 68.7 407.1 68.3Q408.0 67.8 408.5 66.9Q408.9 66.0 408.9 64.9L408.9 64.9Q408.9 63.7 408.5 62.8Q408.0 61.9 407.1 61.4Q406.3 60.9 405.1 60.9L405.1 60.9Q404.1 60.9 403.2 61.3Q402.3 61.7 401.8 62.3L401.8 62.3L397.8 61.6L398.9 50.2L412.1 50.2L412.1 53.9L402.6 53.9L402.0 59.4L402.1 59.4Q402.7 58.6 403.9 58.1Q405.0 57.6 406.4 57.6L406.4 57.6Q407.9 57.6 409.2 58.1Q410.4 58.6 411.3 59.6Q412.3 60.5 412.8 61.9Q413.3 63.2 413.3 64.7L413.3 64.7Q413.3 66.9 412.3 68.6Q411.2 70.3 409.4 71.3Q407.6 72.3 405.2 72.3Z "/></g><mask id="satori_om-id-2-1"><rect x="383" y="81" width="45" height="13" fill="#fff" mask="url(#satori_om-id)"/></mask><g mask="url(#satori_om-id)" clip-path="url(#satori_cp-id)"><path fill="rgba(200,195,225,0.45)" d="M386.7 92.1L386.7 92.1Q385.7 92.1 385.0 91.8Q384.3 91.5 383.9 90.9Q383.5 90.4 383.5 89.5L383.5 89.5L385.1 89.5Q385.1 89.9 385.3 90.2Q385.5 90.5 385.9 90.6Q386.2 90.7 386.6 90.7L386.6 90.7Q387.1 90.7 387.4 90.6Q387.7 90.5 387.9 90.2Q388.1 90.0 388.1 89.7L388.1 89.7Q388.1 89.4 387.9 89.3Q387.8 89.1 387.5 88.9Q387.2 88.8 386.7 88.7L386.7 88.7L385.8 88.5Q384.8 88.2 384.2 87.7Q383.7 87.2 383.7 86.3L383.7 86.3Q383.7 85.6 384.1 85.0Q384.5 84.5 385.1 84.2Q385.8 83.9 386.7 83.9L386.7 83.9Q387.6 83.9 388.2 84.2Q388.9 84.5 389.3 85.0Q389.6 85.6 389.6 86.3L389.6 86.3L388.1 86.3Q388.0 85.8 387.6 85.5Q387.3 85.3 386.7 85.3L386.7 85.3Q386.2 85.3 386.0 85.4Q385.7 85.5 385.5 85.7Q385.4 85.9 385.4 86.2L385.4 86.2Q385.4 86.5 385.5 86.7Q385.7 86.9 386.0 87.0Q386.3 87.1 386.6 87.2L386.6 87.2L387.4 87.4Q387.9 87.5 388.3 87.7Q388.7 87.9 389.1 88.2Q389.4 88.4 389.6 88.8Q389.7 89.2 389.7 89.7L389.7 89.7Q389.7 90.4 389.4 91.0Q389.0 91.5 388.3 91.8Q387.6 92.1 386.7 92.1ZM394.6 85.4L392.1 85.4L392.1 84.0L398.6 84.0L398.6 85.4L396.2 85.4L396.2 92L394.6 92L394.6 85.4ZM402.6 92L400.8 92L403.5 84.0L405.7 84.0L408.5 92L406.7 92L406.1 90.1L403.2 90.1L402.6 92ZM403.6 88.9L405.6 88.9L405.4 88.1Q405.2 87.4 404.9 86.5L404.9 86.5Q404.8 85.9 404.6 85.3L404.6 85.3Q404.4 85.9 404.3 86.5L404.3 86.5Q404.1 87.4 403.9 88.1L403.9 88.1L403.6 88.9ZM412.6 92L411.0 92L411.0 84.0L414.1 84.0Q415.0 84.0 415.7 84.3Q416.3 84.6 416.6 85.2Q417.0 85.8 417.0 86.6Q417.0 87.4 416.6 88.0Q416.3 88.5 415.6 88.8L415.6 88.8Q415.6 88.9 415.5 88.9L415.5 88.9L417.3 92L415.4 92L413.9 89.1L412.6 89.1L412.6 92ZM412.6 85.4L412.6 87.8L413.8 87.8Q414.3 87.8 414.6 87.7Q415.0 87.5 415.1 87.3Q415.3 87.0 415.3 86.6L415.3 86.6Q415.3 86.2 415.1 85.9Q415.0 85.6 414.6 85.5Q414.3 85.4 413.8 85.4L413.8 85.4L412.6 85.4ZM422.6 92.1L422.6 92.1Q421.7 92.1 421.0 91.8Q420.3 91.5 419.9 90.9Q419.5 90.4 419.4 89.5L419.4 89.5L421.0 89.5Q421.1 89.9 421.3 90.2Q421.5 90.5 421.8 90.6Q422.2 90.7 422.6 90.7L422.6 90.7Q423.1 90.7 423.4 90.6Q423.7 90.5 423.9 90.2Q424.1 90.0 424.1 89.7L424.1 89.7Q424.1 89.4 423.9 89.3Q423.8 89.1 423.4 88.9Q423.1 88.8 422.7 88.7L422.7 88.7L421.8 88.5Q420.8 88.2 420.2 87.7Q419.7 87.2 419.7 86.3L419.7 86.3Q419.7 85.6 420.0 85.0Q420.4 84.5 421.1 84.2Q421.8 83.9 422.7 83.9L422.7 83.9Q423.5 83.9 424.2 84.2Q424.9 84.5 425.2 85.0Q425.6 85.6 425.6 86.3L425.6 86.3L424.0 86.3Q424.0 85.8 423.6 85.5Q423.3 85.3 422.6 85.3L422.6 85.3Q422.2 85.3 421.9 85.4Q421.6 85.5 421.5 85.7Q421.3 85.9 421.3 86.2L421.3 86.2Q421.3 86.5 421.5 86.7Q421.7 86.9 422.0 87.0Q422.3 87.1 422.6 87.2L422.6 87.2L423.3 87.4Q423.8 87.5 424.3 87.7Q424.7 87.9 425.0 88.2Q425.4 88.4 425.5 88.8Q425.7 89.2 425.7 89.7L425.7 89.7Q425.7 90.4 425.4 91.0Q425.0 91.5 424.3 91.8Q423.6 92.1 422.6 92.1Z "/></g><mask id="satori_om-id-3"><rect x="541" y="30" width="318" height="80" fill="#fff" mask="url(#satori_om-id)"/></mask><mask id="satori_om-id-3-0"><rect x="653" y="46" width="94" height="30" fill="#fff" mask="url(#satori_om-id)"/></mask><g mask="url(#satori_om-id)" clip-path="url(#satori_cp-id)"><path fill="#f59e0b" d="M663.0 72.3L663.0 72.3Q661.4 72.3 659.8 71.7Q658.3 71.2 657.0 69.9Q655.8 68.7 655.1 66.7Q654.4 64.6 654.4 61.6L654.4 61.6Q654.4 58.8 655.0 56.7Q655.6 54.5 656.8 53.0Q657.9 51.5 659.5 50.7Q661.2 49.9 663.2 49.9L663.2 49.9Q665.3 49.9 667.0 50.7Q668.6 51.6 669.7 53.0Q670.7 54.4 670.9 56.2L670.9 56.2L666.5 56.2Q666.2 55.1 665.3 54.4Q664.5 53.7 663.2 53.7L663.2 53.7Q661.7 53.7 660.8 54.6Q659.8 55.4 659.3 57.0Q658.8 58.6 658.8 60.7L658.8 60.7L658.9 60.7Q659.4 59.8 660.2 59.1Q661.1 58.4 662.1 58.0Q663.2 57.7 664.4 57.7L664.4 57.7Q666.3 57.7 667.8 58.6Q669.4 59.5 670.2 61.1Q671.1 62.7 671.1 64.7L671.1 64.7Q671.1 66.9 670.1 68.6Q669.1 70.3 667.3 71.3Q665.4 72.3 663.0 72.3ZM663.0 68.7L663.0 68.7Q664.1 68.7 664.9 68.2Q665.8 67.7 666.3 66.8Q666.8 65.9 666.8 64.8L666.8 64.8Q666.8 63.7 666.3 62.8Q665.8 62.0 665.0 61.4Q664.1 60.9 663.0 60.9L663.0 60.9Q662.2 60.9 661.5 61.2Q660.8 61.5 660.3 62.1Q659.8 62.6 659.5 63.3Q659.2 64.0 659.2 64.8L659.2 64.8Q659.2 65.9 659.7 66.8Q660.2 67.7 661.0 68.2Q661.9 68.7 663.0 68.7ZM682.6 72.3L682.6 72.3Q679.8 72.3 677.9 71.0Q675.9 69.6 674.9 67.1Q673.9 64.6 673.9 61.1L673.9 61.1Q673.9 57.6 674.9 55.1Q675.9 52.5 677.9 51.2Q679.8 49.9 682.6 49.9L682.6 49.9Q685.3 49.9 687.3 51.2Q689.3 52.6 690.3 55.1Q691.3 57.6 691.3 61.1L691.3 61.1Q691.3 64.6 690.3 67.1Q689.3 69.6 687.3 71.0Q685.4 72.3 682.6 72.3ZM682.6 68.6L682.6 68.6Q683.9 68.6 684.9 67.7Q685.8 66.8 686.3 65.2Q686.8 63.5 686.8 61.1L686.8 61.1Q686.8 58.7 686.3 57.0Q685.8 55.3 684.9 54.5Q683.9 53.6 682.6 53.6L682.6 53.6Q681.3 53.6 680.3 54.5Q679.4 55.3 678.9 57.0Q678.4 58.7 678.4 61.1L678.4 61.1Q678.4 63.5 678.9 65.2Q679.4 66.8 680.3 67.7Q681.3 68.6 682.6 68.6ZM704.6 68.1L694.2 68.1L694.2 64.6L703.3 50.2L708.9 50.2L708.9 64.5L711.7 64.5L711.7 68.1L708.9 68.1L708.9 72L704.6 72L704.6 68.1ZM698.7 64.5L704.7 64.5L704.7 55.1L704.5 55.1L698.7 64.3L698.7 64.5ZM724.9 68.1L714.5 68.1L714.5 64.6L723.6 50.2L729.2 50.2L729.2 64.5L731.9 64.5L731.9 68.1L729.2 68.1L729.2 72L724.9 72L724.9 68.1ZM719.0 64.5L725.0 64.5L725.0 55.1L724.8 55.1L719.0 64.3L719.0 64.5ZM738.3 50.2L743.1 50.2L743.1 72L738.6 72L738.6 54.1L738.5 54.1L733.5 57.7L733.5 53.6L738.3 50.2Z "/></g><mask id="satori_om-id-3-1"><rect x="667" y="81" width="66" height="13" fill="#fff" mask="url(#satori_om-id)"/></mask><g mask="url(#satori_om-id)" clip-path="url(#satori_cp-id)"><path fill="rgba(200,195,225,0.45)" d="M671.2 92.1L671.2 92.1Q670.2 92.1 669.3 91.6Q668.5 91.1 668.0 90.2Q667.5 89.3 667.5 88.0L667.5 88.0Q667.5 86.7 668.0 85.8Q668.5 84.9 669.3 84.4Q670.2 83.9 671.2 83.9L671.2 83.9Q671.9 83.9 672.5 84.1Q673.1 84.3 673.5 84.6Q674.0 85.0 674.3 85.5Q674.6 86.1 674.7 86.7L674.7 86.7L673.0 86.7Q673.0 86.4 672.8 86.1Q672.6 85.9 672.4 85.7Q672.2 85.5 671.9 85.4Q671.6 85.3 671.3 85.3L671.3 85.3Q670.6 85.3 670.2 85.7Q669.7 86.0 669.4 86.6Q669.2 87.2 669.2 88.0L669.2 88.0Q669.2 88.9 669.4 89.5Q669.7 90.1 670.2 90.4Q670.6 90.7 671.2 90.7L671.2 90.7Q671.6 90.7 671.9 90.6Q672.2 90.5 672.4 90.3Q672.6 90.1 672.8 89.8Q673.0 89.6 673.0 89.3L673.0 89.3L674.7 89.3Q674.6 89.8 674.3 90.3Q674.1 90.8 673.6 91.2Q673.2 91.6 672.6 91.9Q672.0 92.1 671.2 92.1ZM680.9 92.1L680.9 92.1Q679.8 92.1 679.0 91.6Q678.1 91.1 677.6 90.2Q677.1 89.3 677.1 88.0L677.1 88.0Q677.1 86.7 677.6 85.8Q678.1 84.9 679.0 84.4Q679.8 83.9 680.9 83.9L680.9 83.9Q681.9 83.9 682.8 84.4Q683.6 84.9 684.1 85.8Q684.6 86.7 684.6 88.0L684.6 88.0Q684.6 89.3 684.1 90.2Q683.6 91.1 682.8 91.6Q681.9 92.1 680.9 92.1ZM680.9 90.7L680.9 90.7Q681.5 90.7 682.0 90.3Q682.4 90.0 682.7 89.5Q682.9 88.9 682.9 88.0L682.9 88.0Q682.9 87.1 682.7 86.5Q682.4 86.0 682.0 85.6Q681.5 85.3 680.9 85.3L680.9 85.3Q680.3 85.3 679.8 85.7Q679.3 86.0 679.1 86.6Q678.8 87.1 678.8 88.0L678.8 88.0Q678.8 88.9 679.1 89.4Q679.3 90.0 679.8 90.3Q680.3 90.7 680.9 90.7ZM689.0 92L687.3 92L687.3 84.0L689.9 84.0L691.2 87.7Q691.2 87.9 691.3 88.3Q691.4 88.7 691.5 89.2L691.5 89.2Q691.7 89.7 691.7 90.1L691.7 90.1Q691.8 89.7 691.9 89.2L691.9 89.2Q692.0 88.8 692.2 88.3Q692.3 87.9 692.3 87.7L692.3 87.7L693.6 84.0L696.1 84.0L696.1 92L694.5 92L694.5 88.2Q694.5 88.0 694.5 87.6Q694.5 87.2 694.5 86.7Q694.5 86.3 694.5 85.8L694.5 85.8Q694.6 85.6 694.6 85.4L694.6 85.4Q694.5 85.6 694.4 85.9L694.4 85.9Q694.3 86.3 694.2 86.8Q694.1 87.2 693.9 87.6Q693.8 88.0 693.8 88.2L693.8 88.2L692.4 92L691.0 92L689.7 88.2Q689.6 88.0 689.5 87.6Q689.4 87.2 689.3 86.8Q689.1 86.4 689.0 85.9L689.0 85.9Q689.0 85.7 688.9 85.5L688.9 85.5Q688.9 85.6 688.9 85.8L688.9 85.8Q688.9 86.2 688.9 86.7Q688.9 87.2 689.0 87.6Q689.0 88.0 689.0 88.2L689.0 88.2L689.0 92ZM700.7 92L699.1 92L699.1 84.0L701.6 84.0L702.9 87.7Q703.0 87.9 703.1 88.3Q703.2 88.7 703.3 89.2L703.3 89.2Q703.4 89.7 703.5 90.1L703.5 90.1Q703.6 89.7 703.7 89.2L703.7 89.2Q703.8 88.8 703.9 88.3Q704.0 87.9 704.1 87.7L704.1 87.7L705.4 84.0L707.9 84.0L707.9 92L706.2 92L706.2 88.2Q706.2 88.0 706.2 87.6Q706.3 87.2 706.3 86.7Q706.3 86.3 706.3 85.8L706.3 85.8Q706.3 85.6 706.3 85.4L706.3 85.4Q706.2 85.6 706.2 85.9L706.2 85.9Q706.1 86.3 705.9 86.8Q705.8 87.2 705.7 87.6Q705.6 88.0 705.5 88.2L705.5 88.2L704.2 92L702.8 92L701.4 88.2Q701.4 88.0 701.3 87.6Q701.1 87.2 701.0 86.8Q700.9 86.4 700.8 85.9L700.8 85.9Q700.7 85.7 700.7 85.5L700.7 85.5Q700.7 85.6 700.7 85.8L700.7 85.8Q700.7 86.2 700.7 86.7Q700.7 87.2 700.7 87.6Q700.7 88.0 700.7 88.2L700.7 88.2L700.7 92ZM710.8 84.0L712.5 84.0L712.5 92L710.8 92L710.8 84.0ZM717.5 85.4L715.1 85.4L715.1 84.0L721.6 84.0L721.6 85.4L719.2 85.4L719.2 92L717.5 92L717.5 85.4ZM727.2 92.1L727.2 92.1Q726.2 92.1 725.5 91.8Q724.8 91.5 724.4 90.9Q724.0 90.4 724.0 89.5L724.0 89.5L725.6 89.5Q725.6 89.9 725.8 90.2Q726.0 90.5 726.4 90.6Q726.7 90.7 727.2 90.7L727.2 90.7Q727.6 90.7 727.9 90.6Q728.3 90.5 728.5 90.2Q728.6 90.0 728.6 89.7L728.6 89.7Q728.6 89.4 728.5 89.3Q728.3 89.1 728.0 88.9Q727.7 88.8 727.3 88.7L727.3 88.7L726.4 88.5Q725.4 88.2 724.8 87.7Q724.2 87.2 724.2 86.3L724.2 86.3Q724.2 85.6 724.6 85.0Q725.0 84.5 725.7 84.2Q726.3 83.9 727.2 83.9L727.2 83.9Q728.1 83.9 728.8 84.2Q729.4 84.5 729.8 85.0Q730.2 85.6 730.2 86.3L730.2 86.3L728.6 86.3Q728.6 85.8 728.2 85.5Q727.8 85.3 727.2 85.3L727.2 85.3Q726.8 85.3 726.5 85.4Q726.2 85.5 726.0 85.7Q725.9 85.9 725.9 86.2L725.9 86.2Q725.9 86.5 726.1 86.7Q726.2 86.9 726.5 87.0Q726.8 87.1 727.2 87.2L727.2 87.2L727.9 87.4Q728.4 87.5 728.8 87.7Q729.3 87.9 729.6 88.2Q729.9 88.4 730.1 88.8Q730.3 89.2 730.3 89.7L730.3 89.7Q730.3 90.4 729.9 91.0Q729.6 91.5 728.9 91.8Q728.2 92.1 727.2 92.1Z "/></g></svg>