<!-- Generated by readme-aura https://github.com/collectioneur/readme-aura -->
<svg width="860" height="140" viewBox="0 0 860 140" xmlns="http://www.w3.org/2000/svg"><defs><clipPath id="satori_bc-id"><path x="0" y="0" width="860" height="140" d="M24,0 h812 a24,24 0 0 1 24,24 v92 a24,24 0 0 1 -24,24 h-812 a24,24 0 0 1 -24,-24 v-92 a24,24 0 0 1 24,-24"/></clipPath></defs><mask id="satori_om-id"><rect x="1" y="1" width="858" height="138" fill="#fff"/><path width="860" height="140" fill="none" stroke="#000" stroke-width="2" d="M7.029,7.029 A24,24 0 0 1 24,0 h812 a24,24 0 0 1 24,24 v92 a24,24 0 0 1 -24,24 h-812 a24,24 0 0 1 -24,-24 v-92 A24,24 0 0 1 7.029,7.029"/></mask><path x="0" y="0" width="860" height="140" fill="#08080c" d="M24,0 h812 a24,24 0 0 1 24,24 v92 a24,24 0 0 1 -24,24 h-812 a24,24 0 0 1 -24,-24 v-92 a24,24 0 0 1 24,-24"/><path width="860" height="140" clip-path="url(#satori_bc-id)" fill="none" stroke="rgba(255,255,255,0.06)" stroke-width="2" d="M7.029,7.029 A24,24 0 0 1 24,0 h812 a24,24 0 0 1 24,24 v92 a24,24 0 0 1 -24,24 h-812 a24,24 0 0 1 -24,-24 v-92 A24,24 0 0 1 7.029,7.029"/><mask id="satori_om-id-0"><rect x="39" y="50" width="60" height="40" fill="#fff"/></mask><defs><pattern id="satori_pattern_id-0-0_0" x="0" y="0" width="1" height="1" patternUnits="objectBoundingBox"><linearGradient id="satori_biid-0-0_0" x1="-4.810966440042345e-16" y1="4.810966440042355e-16" x2="1.0000000000000004" y2="0.9999999999999994" spreadMethod="pad"><stop offset="0%" stop-color="#6622ee"/><stop offset="100%" stop-color="#0088ff"/></linearGradient><rect x="0" y="0" width="12" height="12" fill="url(#satori_biid-0-0_0)"/></pattern></defs><mask id="satori_ms-id-0-0-0" maskUnits="userSpaceOnUse"><rect x="0" y="0" width="860" height="140" fill="#fff"/><path x="63" y="50" width="12" height="12" fill="#000"  stroke-width="0" d="M69,50 h0 a6,6 0 0 1 6,6 v0 a6,6 0 0 1 -6,6 h0 a6,6 0 0 1 -6,-6 v0 a6,6 0 0 1 6,-6"/></mask><defs><filter id="satori_s-id-0-0-0" x="-208.33333333333334%" y="-208.33333333333334%" width="516.6666666666667%" height="516.6666666666667%"><feGaussianBlur stdDeviation="5" result="b"/><feFlood flood-color="rgba(102, 34, 238, 0.5)" in="SourceGraphic" result="f"/><feComposite in="f" in2="b" operator="in"/></filter></defs><g mask="url(#satori_ms-id-0-0-0)" filter="url(#satori_s-id-0-0-0)" opacity="1"><path x="63" y="50" width="12" height="12" fill="#fff" stroke="#fff" stroke-width="0" d="M69,50 h0 a6,6 0 0 1 6,6 v0 a6,6 0 0 1 -6,6 h0 a6,6 0 0 1 -6,-6 v0 a6,6 0 0 1 6,-6"/></g><mask id="satori_om-id-0-0"><rect x="63" y="50" width="12" height="12" fill="#fff"/></mask><path x="63" y="50" width="12" height="12" fill="url(#satori_pattern_id-0-0_0)" d="M69,50 h0 a6,6 0 0 1 6,6 v0 a6,6 0 0 1 -6,6 h0 a6,6 0 0 1 -6,-6 v0 a6,6 0 0 1 6,-6"/><mask id="satori_om-id-0-1"><rect x="39" y="68" width="60" height="22" fill="#fff"/></mask><g  ><path fill="#fff" d="M42.9 85L40.2 85L40.2 71.9L45.3 71.9Q46.8 71.9 47.8 72.5Q48.9 73.0 49.4 74.0Q50.0 75.0 50.0 76.3L50.0 76.3Q50.0 77.6 49.4 78.6Q48.9 79.6 47.8 80.2Q46.7 80.7 45.2 80.7L45.2 80.7L42.9 80.7L42.9 85ZM42.9 74.1L42.9 78.6L44.8 78.6Q45.6 78.6 46.2 78.3Q46.7 78.0 46.9 77.5Q47.2 77.0 47.2 76.3Q47.2 75.7 46.9 75.2Q46.7 74.7 46.2 74.4Q45.6 74.1 44.8 74.1L44.8 74.1L42.9 74.1ZM51.2 88.5L51.2 88.5L51.8 86.5L52.1 86.6Q52.7 86.7 53.1 86.7Q53.5 86.6 53.8 86.3Q54.0 86.0 54.1 85.6L54.1 85.6L54.1 85.0L50.4 75.2L53.2 75.2L54.9 80.3Q55.2 81.2 55.4 82.2L55.4 82.2Q55.4 82.5 55.5 82.9L55.5 82.9Q55.6 82.5 55.7 82.2L55.7 82.2Q55.9 81.2 56.2 80.3L56.2 80.3L58.0 75.2L60.7 75.2L56.5 86.2Q56.2 87.0 55.8 87.5Q55.3 88.1 54.6 88.4Q53.9 88.7 52.9 88.7L52.9 88.7Q52.4 88.7 52.0 88.7Q51.5 88.6 51.2 88.5ZM64.7 75.2L66.5 75.2L66.5 77.2L64.7 77.2L64.7 82.1Q64.7 82.6 64.9 82.8Q65.1 83.0 65.6 83.0L65.6 83.0Q65.7 83.0 66.0 83.0Q66.3 83.0 66.4 82.9L66.4 82.9L66.8 84.9Q66.3 85.0 65.9 85.1Q65.5 85.1 65.1 85.1L65.1 85.1Q63.6 85.1 62.8 84.4Q62.0 83.7 62.0 82.4L62.0 82.4L62.0 77.2L60.7 77.2L60.7 75.2L62.0 75.2L62.0 72.8L64.7 72.8L64.7 75.2ZM70.4 79.3L70.4 79.3L70.4 85L67.7 85L67.7 71.9L70.3 71.9L70.3 77.1Q70.7 76.2 71.3 75.7L71.3 75.7Q72.0 75.1 73.3 75.1L73.3 75.1Q74.3 75.1 75.1 75.5Q75.8 75.9 76.3 76.8Q76.7 77.6 76.7 78.8L76.7 78.8L76.7 85L74.0 85L74.0 79.2Q74.0 78.3 73.6 77.8Q73.1 77.3 72.3 77.3L72.3 77.3Q71.7 77.3 71.3 77.5Q70.8 77.7 70.6 78.2Q70.4 78.7 70.4 79.3ZM82.8 85.2L82.8 85.2Q81.3 85.2 80.3 84.6Q79.2 83.9 78.6 82.8Q78.0 81.6 78.0 80.1L78.0 80.1Q78.0 78.6 78.6 77.5Q79.2 76.3 80.3 75.7Q81.3 75.1 82.8 75.1L82.8 75.1Q84.3 75.1 85.4 75.7Q86.5 76.3 87.0 77.5Q87.6 78.6 87.6 80.1L87.6 80.1Q87.6 81.6 87.0 82.8Q86.5 83.9 85.4 84.6Q84.3 85.2 82.8 85.2ZM82.8 83.1L82.8 83.1Q83.5 83.1 84.0 82.7Q84.5 82.3 84.7 81.7Q84.9 81.0 84.9 80.1L84.9 80.1Q84.9 79.3 84.7 78.6Q84.5 77.9 84.0 77.5Q83.5 77.1 82.8 77.1L82.8 77.1Q82.1 77.1 81.6 77.5Q81.2 77.9 80.9 78.6Q80.7 79.3 80.7 80.1L80.7 80.1Q80.7 81.0 80.9 81.7Q81.2 82.3 81.6 82.7Q82.1 83.1 82.8 83.1ZM91.6 79.3L91.6 79.3L91.6 85L89.0 85L89.0 75.2L91.4 75.2L91.5 77.2Q91.9 76.3 92.5 75.7L92.5 75.7Q93.3 75.1 94.5 75.1L94.5 75.1Q95.6 75.1 96.3 75.5Q97.1 75.9 97.5 76.8Q97.9 77.6 97.9 78.8L97.9 78.8L97.9 85L95.3 85L95.3 79.2Q95.3 78.3 94.8 77.8Q94.3 77.3 93.5 77.3L93.5 77.3Q93.0 77.3 92.5 77.5Q92.1 77.7 91.8 78.2Q91.6 78.7 91.6 79.3Z "/></g><mask id="satori_om-id-1"><rect x="174" y="50" width="72" height="40" fill="#fff"/></mask><defs><pattern id="satori_pattern_id-1-0_0" x="0" y="0" width="1" height="1" patternUnits="objectBoundingBox"><linearGradient id="satori_biid-1-0_0" x1="-4.810966440042345e-16" y1="4.810966440042355e-16" x2="1.0000000000000004" y2="0.9999999999999994" spreadMethod="pad"><stop offset="0%" stop-color="#6622ee"/><stop offset="100%" stop-color="#0088ff"/></linearGradient><rect x="0" y="0" width="12" height="12" fill="url(#satori_biid-1-0_0)"/></pattern></defs><mask id="satori_ms-id-1-0-0" maskUnits="userSpaceOnUse"><rect x="0" y="0" width="860" height="140" fill="#fff"/><path x="204" y="50" width="12" height="12" fill="#000"  stroke-width="0" d="M210,50 h0 a6,6 0 0 1 6,6 v0 a6,6 0 0 1 -6,6 h0 a6,6 0 0 1 -6,-6 v0 a6,6 0 0 1 6,-6"/></mask><defs><filter id="satori_s-id-1-0-0" x="-208.33333333333334%" y="-208.33333333333334%" width="516.6666666666667%" height="516.6666666666667%"><feGaussianBlur stdDeviation="5" result="b"/><feFlood flood-color="rgba(102, 34, 238, 0.5)" in="SourceGraphic" result="f"/><feComposite in="f" in2="b" operator="in"/></filter></defs><g mask="url(#satori_ms-id-1-0-0)" filter="url(#satori_s-id-1-0-0)" opacity="1"><path x="204" y="50" width="12" height="12" fill="#fff" stroke="#fff" stroke-width="0" d="M210,50 h0 a6,6 0 0 1 6,6 v0 a6,6 0 0 1 -6,6 h0 a6,6 0 0 1 -6,-6 v0 a6,6 0 0 1 6,-6"/></g><mask id="satori_om-id-1-0"><rect x="204" y="50" width="12" height="12" fill="#fff"/></mask><path x="204" y="50" width="12" height="12" fill="url(#satori_pattern_id-1-0_0)" d="M210,50 h0 a6,6 0 0 1 6,6 v0 a6,6 0 0 1 -6,6 h0 a6,6 0 0 1 -6,-6 v0 a6,6 0 0 1 6,-6"/><mask id="satori_om-id-1-1"><rect x="174" y="68" width="72" height="22" fill="#fff"/></mask><g  ><path fill="#fff" d="M177.9 85L175.2 85L175.2 71.9L180.3 71.9Q181.8 71.9 182.8 72.5Q183.9 73.0 184.4 74.0Q185.0 75.0 185.0 76.3L185.0 76.3Q185.0 77.6 184.4 78.6Q183.9 79.6 182.8 80.2Q181.7 80.7 180.2 80.7L180.2 80.7L177.9 80.7L177.9 85ZM177.9 74.1L177.9 78.6L179.8 78.6Q180.6 78.6 181.2 78.3Q181.7 78.0 181.9 77.5Q182.2 77.0 182.2 76.3Q182.2 75.7 181.9 75.2Q181.7 74.7 181.2 74.4Q180.6 74.1 179.8 74.1L179.8 74.1L177.9 74.1ZM186.2 88.5L186.2 88.5L186.8 86.5L187.1 86.6Q187.7 86.7 188.1 86.7Q188.5 86.6 188.8 86.3Q189.0 86.0 189.1 85.6L189.1 85.6L189.1 85.0L185.4 75.2L188.2 75.2L189.9 80.3Q190.2 81.2 190.4 82.2L190.4 82.2Q190.4 82.5 190.5 82.9L190.5 82.9Q190.6 82.5 190.7 82.2L190.7 82.2Q190.9 81.2 191.2 80.3L191.2 80.3L193.0 75.2L195.7 75.2L191.5 86.2Q191.2 87.0 190.8 87.5Q190.3 88.1 189.6 88.4Q188.9 88.7 187.9 88.7L187.9 88.7Q187.4 88.7 187.0 88.7Q186.5 88.6 186.2 88.5ZM200.2 74.1L196.2 74.1L196.2 71.9L206.9 71.9L206.9 74.1L202.9 74.1L202.9 85L200.2 85L200.2 74.1ZM212.5 85.2L212.5 85.2Q211.1 85.2 210.0 84.6Q208.9 83.9 208.3 82.8Q207.7 81.6 207.7 80.1L207.7 80.1Q207.7 78.6 208.3 77.5Q208.9 76.3 210.0 75.7Q211.1 75.1 212.5 75.1L212.5 75.1Q214.0 75.1 215.1 75.7Q216.2 76.3 216.8 77.5Q217.3 78.6 217.3 80.1L217.3 80.1Q217.3 81.6 216.8 82.8Q216.2 83.9 215.1 84.6Q214.0 85.2 212.5 85.2ZM212.5 83.1L212.5 83.1Q213.2 83.1 213.7 82.7Q214.2 82.3 214.4 81.7Q214.7 81.0 214.7 80.1L214.7 80.1Q214.7 79.3 214.4 78.6Q214.2 77.9 213.7 77.5Q213.2 77.1 212.5 77.1L212.5 77.1Q211.8 77.1 211.4 77.5Q210.9 77.9 210.7 78.6Q210.4 79.3 210.4 80.1L210.4 80.1Q210.4 81.0 210.7 81.7Q210.9 82.3 211.4 82.7Q211.8 83.1 212.5 83.1ZM221.3 85L218.7 85L218.7 75.2L221.2 75.2L221.2 76.9L221.3 76.9Q221.6 76.0 222.2 75.5Q222.9 75.0 223.7 75.0L223.7 75.0Q223.9 75.0 224.1 75.1Q224.4 75.1 224.6 75.1L224.6 75.1L224.6 77.5Q224.4 77.4 224.0 77.4Q223.7 77.4 223.4 77.4L223.4 77.4Q222.8 77.4 222.3 77.6Q221.9 77.9 221.6 78.3Q221.3 78.8 221.3 79.4L221.3 79.4L221.3 85ZM229.9 85.2L229.9 85.2Q228.4 85.2 227.3 84.6Q226.3 83.9 225.7 82.8Q225.1 81.6 225.1 80.1L225.1 80.1Q225.1 78.6 225.7 77.5Q226.3 76.3 227.3 75.7Q228.4 75.1 229.9 75.1L229.9 75.1Q230.8 75.1 231.5 75.3Q232.3 75.5 232.8 75.9Q233.4 76.4 233.8 77.0Q234.1 77.6 234.3 78.3L234.3 78.3L231.8 78.8Q231.7 78.4 231.6 78.1Q231.4 77.8 231.2 77.6Q230.9 77.4 230.6 77.2Q230.3 77.1 229.9 77.1L229.9 77.1Q229.2 77.1 228.7 77.5Q228.3 77.9 228.0 78.6Q227.8 79.2 227.8 80.1L227.8 80.1Q227.8 81.0 228.0 81.7Q228.3 82.3 228.7 82.7Q229.2 83.1 229.9 83.1L229.9 83.1Q230.3 83.1 230.6 83.0Q230.9 82.9 231.2 82.7Q231.4 82.4 231.6 82.1Q231.8 81.8 231.8 81.4L231.8 81.4L234.3 81.9Q234.1 82.6 233.8 83.2Q233.4 83.9 232.8 84.3Q232.3 84.7 231.5 85.0Q230.8 85.2 229.9 85.2ZM238.2 79.3L238.2 79.3L238.2 85L235.6 85L235.6 71.9L238.2 71.9L238.2 77.1Q238.6 76.2 239.2 75.7L239.2 75.7Q239.9 75.1 241.2 75.1L241.2 75.1Q242.2 75.1 243.0 75.5Q243.7 75.9 244.1 76.8Q244.6 77.6 244.6 78.8L244.6 78.8L244.6 85L241.9 85L241.9 79.2Q241.9 78.3 241.4 77.8Q241.0 77.3 240.1 77.3L240.1 77.3Q239.6 77.3 239.2 77.5Q238.7 77.7 238.5 78.2Q238.2 78.7 238.2 79.3Z "/></g><mask id="satori_om-id-2"><rect x="322" y="50" width="65" height="40" fill="#fff"/></mask><defs><pattern id="satori_pattern_id-2-0_0" x="0" y="0" width="1" height="1" patternUnits="objectBoundingBox"><linearGradient id="satori_biid-2-0_0" x1="-4.810966440042345e-16" y1="4.810966440042355e-16" x2="1.0000000000000004" y2="0.9999999999999994" spreadMethod="pad"><stop offset="0%" stop-color="#6622ee"/><stop offset="100%" stop-color="#0088ff"/></linearGradient><rect x="0" y="0" width="12" height="12" fill="url(#satori_biid-2-0_0)"/></pattern></defs><mask id="satori_ms-id-2-0-0" maskUnits="userSpaceOnUse"><rect x="0" y="0" width="860" height="140" fill="#fff"/><path x="349" y="50" width="12" height="12" fill="#000"  stroke-width="0" d="M355,50 h0 a6,6 0 0 1 6,6 v0 a6,6 0 0 1 -6,6 h0 a6,6 0 0 1 -6,-6 v0 a6,6 0 0 1 6,-6"/></mask><defs><filter id="satori_s-id-2-0-0" x="-208.33333333333334%" y="-208.33333333333334%" width="516.6666666666667%" height="516.6666666666667%"><feGaussianBlur stdDeviation="5" result="b"/><feFlood flood-color="rgba(102, 34, 238, 0.5)" in="SourceGraphic" result="f"/><feComposite in="f" in2="b" operator="in"/></filter></defs><g mask="url(#satori_ms-id-2-0-0)" filter="url(#satori_s-id-2-0-0)" opacity="1"><path x="349" y="50" width="12" height="12" fill="#fff" stroke="#fff" stroke-width="0" d="M355,50 h0 a6,6 0 0 1 6,6 v0 a6,6 0 0 1 -6,6 h0 a6,6 0 0 1 -6,-6 v0 a6,6 0 0 1 6,-6"/></g><mask id="satori_om-id-2-0"><rect x="349" y="50" width="12" height="12" fill="#fff"/></mask><path x="349" y="50" width="12" height="12" fill="url(#satori_pattern_id-2-0_0)" d="M355,50 h0 a6,6 0 0 1 6,6 v0 a6,6 0 0 1 -6,6 h0 a6,6 0 0 1 -6,-6 v0 a6,6 0 0 1 6,-6"/><mask id="satori_om-id-2-1"><rect x="322" y="68" width="65" height="22" fill="#fff"/></mask><g  ><path fill="#fff" d="M325.9 85L323.2 85L323.2 71.9L331.8 71.9L331.8 74.1L325.9 74.1L325.9 77.8L331.2 77.8L331.2 80.0L325.9 80.0L325.9 85ZM335.9 85.2L335.9 85.2Q335 85.2 334.3 84.9Q333.5 84.5 333.1 83.9Q332.7 83.2 332.7 82.2L332.7 82.2Q332.7 81.4 333.0 80.9Q333.3 80.3 333.8 80.0Q334.3 79.7 335.0 79.5Q335.6 79.3 336.4 79.2L336.4 79.2Q337.2 79.1 337.7 79.1Q338.3 79.0 338.5 78.8Q338.8 78.7 338.8 78.4L338.8 78.4L338.8 78.3Q338.8 77.9 338.6 77.6Q338.4 77.3 338.1 77.2Q337.7 77.0 337.2 77.0L337.2 77.0Q336.7 77.0 336.3 77.2Q335.9 77.3 335.7 77.6Q335.5 77.8 335.4 78.1L335.4 78.1L332.9 77.7Q333.2 76.9 333.8 76.3Q334.4 75.7 335.3 75.4Q336.1 75.1 337.2 75.1L337.2 75.1Q338.0 75.1 338.8 75.2Q339.5 75.4 340.1 75.8Q340.7 76.2 341.0 76.9Q341.4 77.5 341.4 78.4L341.4 78.4L341.4 85L338.9 85L338.9 83.6L338.8 83.6Q338.6 84.1 338.2 84.4Q337.8 84.8 337.2 85.0Q336.7 85.2 335.9 85.2ZM336.7 83.3L336.7 83.3Q337.3 83.3 337.8 83.1Q338.2 82.8 338.5 82.4Q338.8 82.0 338.8 81.5L338.8 81.5L338.8 80.4Q338.7 80.5 338.4 80.6Q338.2 80.6 337.9 80.7Q337.6 80.8 337.3 80.8Q337.0 80.8 336.8 80.9L336.8 80.9Q336.3 80.9 336.0 81.1Q335.6 81.3 335.4 81.5Q335.2 81.8 335.2 82.2L335.2 82.2Q335.2 82.6 335.4 82.8Q335.6 83.1 335.9 83.2Q336.2 83.3 336.7 83.3ZM347.0 85.2L347.0 85.2Q345.9 85.2 344.9 84.9Q344.0 84.5 343.4 83.9Q342.9 83.2 342.7 82.3L342.7 82.3L345.2 81.9Q345.3 82.6 345.8 82.9Q346.3 83.3 347.1 83.3L347.1 83.3Q347.9 83.3 348.3 83.0Q348.7 82.7 348.7 82.2L348.7 82.2Q348.7 81.9 348.4 81.6Q348.1 81.4 347.5 81.2L347.5 81.2L345.8 80.9Q344.4 80.6 343.7 79.9Q343.0 79.2 343.0 78.1L343.0 78.1Q343.0 77.2 343.5 76.5Q344.0 75.8 344.9 75.4Q345.8 75.1 347.1 75.1L347.1 75.1Q348.2 75.1 349.1 75.4Q350.0 75.7 350.5 76.3Q351.0 76.9 351.2 77.7L351.2 77.7L348.8 78.1Q348.7 77.6 348.3 77.3Q347.8 76.9 347.1 76.9L347.1 76.9Q346.5 76.9 346.0 77.2Q345.6 77.5 345.6 77.9L345.6 77.9Q345.6 78.3 345.9 78.6Q346.2 78.8 346.9 79.0L346.9 79.0L348.6 79.3Q350.0 79.6 350.7 80.3Q351.4 80.9 351.4 82.0L351.4 82.0Q351.4 82.9 350.9 83.7Q350.3 84.4 349.3 84.8Q348.3 85.2 347.0 85.2ZM355.8 75.2L357.6 75.2L357.6 77.2L355.8 77.2L355.8 82.1Q355.8 82.6 356.0 82.8Q356.2 83.0 356.7 83.0L356.7 83.0Q356.8 83.0 357.1 83.0Q357.4 83.0 357.5 82.9L357.5 82.9L357.9 84.9Q357.4 85.0 357.0 85.1Q356.6 85.1 356.2 85.1L356.2 85.1Q354.7 85.1 353.9 84.4Q353.1 83.7 353.1 82.4L353.1 82.4L353.1 77.2L351.8 77.2L351.8 75.2L353.1 75.2L353.1 72.8L355.8 72.8L355.8 75.2ZM361.1 85L358.1 85L362.6 71.9L366.1 71.9L370.7 85L367.7 85L366.7 82.0L362.1 82.0L361.1 85ZM362.7 79.9L366.0 79.9L365.6 78.7Q365.2 77.5 364.9 76L364.9 76Q364.6 75.1 364.3 74.0L364.3 74.0Q364.1 75.1 363.8 76.0L363.8 76.0Q363.5 77.5 363.1 78.7L363.1 78.7L362.7 79.9ZM374.5 85L371.8 85L371.8 71.9L376.9 71.9Q378.4 71.9 379.5 72.5Q380.5 73.0 381.1 74.0Q381.6 75.0 381.6 76.3L381.6 76.3Q381.6 77.6 381.0 78.6Q380.5 79.6 379.4 80.2Q378.4 80.7 376.9 80.7L376.9 80.7L374.5 80.7L374.5 85ZM374.5 74.1L374.5 78.6L376.4 78.6Q377.3 78.6 377.8 78.3Q378.3 78.0 378.6 77.5Q378.8 77.0 378.8 76.3Q378.8 75.7 378.6 75.2Q378.3 74.7 377.8 74.4Q377.2 74.1 376.4 74.1L376.4 74.1L374.5 74.1ZM383.0 71.9L385.7 71.9L385.7 85L383.0 85L383.0 71.9Z "/></g><mask id="satori_om-id-3"><rect x="462" y="50" width="100" height="40" fill="#fff"/></mask><defs><pattern id="satori_pattern_id-3-0_0" x="0" y="0" width="1" height="1" patternUnits="objectBoundingBox"><linearGradient id="satori_biid-3-0_0" x1="-4.810966440042345e-16" y1="4.810966440042355e-16" x2="1.0000000000000004" y2="0.9999999999999994" spreadMethod="pad"><stop offset="0%" stop-color="#6622ee"/><stop offset="100%" stop-color="#0088ff"/></linearGradient><rect x="0" y="0" width="12" height="12" fill="url(#satori_biid-3-0_0)"/></pattern></defs><mask id="satori_ms-id-3-0-0" maskUnits="userSpaceOnUse"><rect x="0" y="0" width="860" height="140" fill="#fff"/><path x="506" y="50" width="12" height="12" fill="#000"  stroke-width="0" d="M512,50 h0 a6,6 0 0 1 6,6 v0 a6,6 0 0 1 -6,6 h0 a6,6 0 0 1 -6,-6 v0 a6,6 0 0 1 6,-6"/></mask><defs><filter id="satori_s-id-3-0-0" x="-208.33333333333334%" y="-208.33333333333334%" width="516.6666666666667%" height="516.6666666666667%"><feGaussianBlur stdDeviation="5" result="b"/><feFlood flood-color="rgba(102, 34, 238, 0.5)" in="SourceGraphic" result="f"/><feComposite in="f" in2="b" operator="in"/></filter></defs><g mask="url(#satori_ms-id-3-0-0)" filter="url(#satori_s-id-3-0-0)" opacity="1"><path x="506" y="50" width="12" height="12" fill="#fff" stroke="#fff" stroke-width="0" d="M512,50 h0 a6,6 0 0 1 6,6 v0 a6,6 0 0 1 -6,6 h0 a6,6 0 0 1 -6,-6 v0 a6,6 0 0 1 6,-6"/></g><mask id="satori_om-id-3-0"><rect x="506" y="50" width="12" height="12" fill="#fff"/></mask><path x="506" y="50" width="12" height="12" fill="url(#satori_pattern_id-3-0_0)" d="M512,50 h0 a6,6 0 0 1 6,6 v0 a6,6 0 0 1 -6,6 h0 a6,6 0 0 1 -6,-6 v0 a6,6 0 0 1 6,-6"/><mask id="satori_om-id-3-1"><rect x="462" y="68" width="100" height="22" fill="#fff"/></mask><g  ><path fill="#fff" d="M465.9 85L463.2 85L463.2 71.9L468.3 71.9Q469.8 71.9 470.8 72.5Q471.9 73.0 472.4 74.0Q473.0 75.0 473.0 76.3L473.0 76.3Q473.0 77.6 472.4 78.6Q471.9 79.6 470.8 80.2Q469.7 80.7 468.2 80.7L468.2 80.7L465.9 80.7L465.9 85ZM465.9 74.1L465.9 78.6L467.8 78.6Q468.6 78.6 469.2 78.3Q469.7 78.0 469.9 77.5Q470.2 77.0 470.2 76.3Q470.2 75.7 469.9 75.2Q469.7 74.7 469.2 74.4Q468.6 74.1 467.8 74.1L467.8 74.1L465.9 74.1ZM478.7 85.2L478.7 85.2Q477.2 85.2 476.1 84.6Q475.0 83.9 474.5 82.8Q473.9 81.6 473.9 80.1L473.9 80.1Q473.9 78.6 474.5 77.5Q475.0 76.3 476.1 75.7Q477.2 75.1 478.7 75.1L478.7 75.1Q480.2 75.1 481.2 75.7Q482.3 76.3 482.9 77.5Q483.5 78.6 483.5 80.1L483.5 80.1Q483.5 81.6 482.9 82.8Q482.3 83.9 481.2 84.6Q480.2 85.2 478.7 85.2ZM478.7 83.1L478.7 83.1Q479.4 83.1 479.9 82.7Q480.3 82.3 480.6 81.7Q480.8 81.0 480.8 80.1L480.8 80.1Q480.8 79.3 480.6 78.6Q480.3 77.9 479.9 77.5Q479.4 77.1 478.7 77.1L478.7 77.1Q478.0 77.1 477.5 77.5Q477.0 77.9 476.8 78.6Q476.6 79.3 476.6 80.1L476.6 80.1Q476.6 81.0 476.8 81.7Q477.0 82.3 477.5 82.7Q478.0 83.1 478.7 83.1ZM488.7 85.2L488.7 85.2Q487.5 85.2 486.6 84.9Q485.7 84.5 485.1 83.9Q484.6 83.2 484.4 82.3L484.4 82.3L486.8 81.9Q487.0 82.6 487.5 82.9Q488 83.3 488.8 83.3L488.8 83.3Q489.6 83.3 490.0 83.0Q490.4 82.7 490.4 82.2L490.4 82.2Q490.4 81.9 490.1 81.6Q489.8 81.4 489.2 81.2L489.2 81.2L487.5 80.9Q486.0 80.6 485.3 79.9Q484.6 79.2 484.6 78.1L484.6 78.1Q484.6 77.2 485.2 76.5Q485.7 75.8 486.6 75.4Q487.5 75.1 488.8 75.1L488.8 75.1Q489.9 75.1 490.8 75.4Q491.6 75.7 492.2 76.3Q492.7 76.9 492.9 77.7L492.9 77.7L490.5 78.1Q490.4 77.6 490.0 77.3Q489.5 76.9 488.8 76.9L488.8 76.9Q488.2 76.9 487.7 77.2Q487.3 77.5 487.3 77.9L487.3 77.9Q487.3 78.3 487.6 78.6Q487.9 78.8 488.5 79.0L488.5 79.0L490.3 79.3Q491.7 79.6 492.4 80.3Q493.1 80.9 493.1 82.0L493.1 82.0Q493.1 82.9 492.6 83.7Q492.0 84.4 491.0 84.8Q490.0 85.2 488.7 85.2ZM497.4 75.2L499.3 75.2L499.3 77.2L497.4 77.2L497.4 82.1Q497.4 82.6 497.7 82.8Q497.9 83.0 498.3 83.0L498.3 83.0Q498.5 83.0 498.8 83.0Q499.0 83.0 499.2 82.9L499.2 82.9L499.6 84.9Q499.1 85.0 498.7 85.1Q498.2 85.1 497.9 85.1L497.9 85.1Q496.4 85.1 495.6 84.4Q494.8 83.7 494.8 82.4L494.8 82.4L494.8 77.2L493.5 77.2L493.5 75.2L494.8 75.2L494.8 72.8L497.4 72.8L497.4 75.2ZM504.9 88.9L504.9 88.9Q503.6 88.9 502.7 88.6Q501.8 88.3 501.2 87.7Q500.7 87.2 500.4 86.5L500.4 86.5L502.7 85.8Q502.8 86.1 503.1 86.4Q503.4 86.6 503.8 86.8Q504.2 87.0 504.9 87.0L504.9 87.0Q505.9 87.0 506.4 86.5Q507.0 86.0 507.0 85.1L507.0 85.1L507.0 83.3L506.8 83.3Q506.6 83.7 506.3 84.0Q506.0 84.4 505.4 84.6Q504.9 84.9 504.1 84.9L504.1 84.9Q503.0 84.9 502.1 84.3Q501.2 83.8 500.6 82.8Q500.1 81.7 500.1 80.1L500.1 80.1Q500.1 78.4 500.6 77.3Q501.2 76.2 502.1 75.6Q503.0 75.1 504.1 75.1L504.1 75.1Q504.9 75.1 505.5 75.3Q506.0 75.6 506.4 76.0Q506.7 76.4 506.9 76.8L506.9 76.8L507.0 76.8L507.0 75.2L509.6 75.2L509.6 84.9Q509.6 86.2 509.0 87.1Q508.4 88.0 507.3 88.4Q506.3 88.9 504.9 88.9ZM504.9 82.9L504.9 82.9Q505.6 82.9 506.1 82.5Q506.5 82.2 506.8 81.6Q507.0 80.9 507.0 80.1L507.0 80.1Q507.0 79.2 506.8 78.5Q506.5 77.9 506.1 77.5Q505.6 77.2 504.9 77.2L504.9 77.2Q504.2 77.2 503.7 77.5Q503.3 77.9 503.0 78.6Q502.8 79.2 502.8 80.1L502.8 80.1Q502.8 80.9 503.0 81.5Q503.3 82.2 503.8 82.5Q504.2 82.9 504.9 82.9ZM514.0 85L511.4 85L511.4 75.2L513.9 75.2L513.9 76.9L514.0 76.9Q514.3 76.0 514.9 75.5Q515.6 75.0 516.4 75.0L516.4 75.0Q516.6 75.0 516.8 75.1Q517.1 75.1 517.3 75.1L517.3 75.1L517.3 77.5Q517.1 77.4 516.7 77.4Q516.4 77.4 516.1 77.4L516.1 77.4Q515.5 77.4 515.0 77.6Q514.5 77.9 514.3 78.3Q514.0 78.8 514.0 79.4L514.0 79.4L514.0 85ZM522.6 85.2L522.6 85.2Q521.1 85.2 520.0 84.6Q519.0 84.0 518.4 82.8Q517.8 81.7 517.8 80.1L517.8 80.1Q517.8 78.6 518.4 77.5Q519.0 76.3 520.0 75.7Q521.1 75.1 522.5 75.1L522.5 75.1Q523.5 75.1 524.3 75.4Q525.1 75.7 525.8 76.3Q526.4 76.9 526.8 77.8Q527.1 78.8 527.1 80.0L527.1 80.0L527.1 80.8L520.4 80.8Q520.4 81.5 520.7 82.0L520.7 82.0Q521.0 82.6 521.5 82.9Q522 83.2 522.7 83.2L522.7 83.2Q523.2 83.2 523.5 83.1Q523.9 82.9 524.2 82.7Q524.4 82.4 524.6 82.0L524.6 82.0L527.0 82.5Q526.7 83.3 526.1 83.9Q525.6 84.5 524.7 84.9Q523.8 85.2 522.6 85.2ZM520.4 79.1L520.4 79.1L524.6 79.1Q524.5 78.6 524.4 78.2L524.4 78.2Q524.1 77.7 523.7 77.3Q523.2 77.0 522.5 77.0L522.5 77.0Q521.9 77.0 521.4 77.4Q520.9 77.7 520.6 78.2L520.6 78.2Q520.5 78.6 520.4 79.1ZM533.3 85.2L533.3 85.2Q531.7 85.2 530.5 84.7Q529.4 84.2 528.7 83.3Q528.1 82.3 528.0 80.9L528.0 80.9L530.7 80.9Q530.7 81.6 531.1 82.0Q531.4 82.5 532.0 82.7Q532.5 82.9 533.3 82.9L533.3 82.9Q534.0 82.9 534.5 82.7Q535.0 82.5 535.3 82.1Q535.6 81.8 535.6 81.3L535.6 81.3Q535.6 80.8 535.4 80.5Q535.1 80.2 534.6 80.0Q534.1 79.8 533.4 79.6L533.4 79.6L531.9 79.2Q530.3 78.8 529.3 78.0Q528.4 77.1 528.4 75.7L528.4 75.7Q528.4 74.5 529.0 73.6Q529.7 72.7 530.8 72.2Q531.9 71.7 533.3 71.7L533.3 71.7Q534.8 71.7 535.9 72.2Q536.9 72.7 537.5 73.6Q538.1 74.5 538.2 75.6L538.2 75.6L535.6 75.6Q535.5 74.8 534.9 74.4Q534.3 74.0 533.3 74.0L533.3 74.0Q532.6 74.0 532.1 74.2Q531.7 74.4 531.4 74.7Q531.2 75.1 531.2 75.5L531.2 75.5Q531.2 76.0 531.4 76.3Q531.7 76.6 532.2 76.8Q532.7 77.0 533.2 77.2L533.2 77.2L534.4 77.4Q535.3 77.6 536.0 77.9Q536.7 78.3 537.2 78.7Q537.8 79.2 538.0 79.8Q538.3 80.4 538.3 81.3L538.3 81.3Q538.3 82.5 537.7 83.3Q537.1 84.2 536.0 84.7Q534.9 85.2 533.3 85.2ZM545.5 85.2L545.5 85.2Q543.8 85.2 542.4 84.4Q541.0 83.6 540.2 82.1Q539.4 80.6 539.4 78.5L539.4 78.5Q539.4 76.3 540.2 74.8Q541.0 73.3 542.4 72.5Q543.8 71.7 545.5 71.7L545.5 71.7Q547.3 71.7 548.6 72.5Q550.0 73.3 550.8 74.8Q551.6 76.3 551.6 78.5L551.6 78.5Q551.6 80.6 550.8 82.1L550.8 82.1Q550.3 83.0 549.6 83.7L549.6 83.7L551.5 86.1L549.0 86.1L547.9 84.7Q546.8 85.2 545.5 85.2ZM546.4 82.7L544.7 80.5L547.0 80.5L547.9 81.7Q548.3 81.3 548.5 80.8L548.5 80.8Q548.9 79.9 548.9 78.5L548.9 78.5Q548.9 77.0 548.5 76.1Q548.1 75.1 547.3 74.6Q546.5 74.1 545.5 74.1L545.5 74.1Q544.5 74.1 543.7 74.6Q543.0 75.1 542.6 76.1Q542.1 77.1 542.1 78.5L542.1 78.5Q542.1 79.9 542.6 80.8Q543.0 81.8 543.7 82.3Q544.5 82.8 545.5 82.8L545.5 82.8Q546.0 82.8 546.4 82.7L546.4 82.7ZM561.6 85L553.3 85L553.3 71.9L555.9 71.9L555.9 82.8L561.6 82.8L561.6 85Z "/></g><mask id="satori_om-id-4"><rect x="638" y="50" width="47" height="40" fill="#fff"/></mask><defs><pattern id="satori_pattern_id-4-0_0" x="0" y="0" width="1" height="1" patternUnits="objectBoundingBox"><linearGradient id="satori_biid-4-0_0" x1="-4.810966440042345e-16" y1="4.810966440042355e-16" x2="1.0000000000000004" y2="0.9999999999999994" spreadMethod="pad"><stop offset="0%" stop-color="#6622ee"/><stop offset="100%" stop-color="#0088ff"/></linearGradient><rect x="0" y="0" width="12" height="12" fill="url(#satori_biid-4-0_0)"/></pattern></defs><mask id="satori_ms-id-4-0-0" maskUnits="userSpaceOnUse"><rect x="0" y="0" width="860" height="140" fill="#fff"/><path x="656" y="50" width="12" height="12" fill="#000"  stroke-width="0" d="M662,50 h0 a6,6 0 0 1 6,6 v0 a6,6 0 0 1 -6,6 h0 a6,6 0 0 1 -6,-6 v0 a6,6 0 0 1 6,-6"/></mask><defs><filter id="satori_s-id-4-0-0" x="-208.33333333333334%" y="-208.33333333333334%" width="516.6666666666667%" height="516.6666666666667%"><feGaussianBlur stdDeviation="5" result="b"/><feFlood flood-color="rgba(102, 34, 238, 0.5)" in="SourceGraphic" result="f"/><feComposite in="f" in2="b" operator="in"/></filter></defs><g mask="url(#satori_ms-id-4-0-0)" filter="url(#satori_s-id-4-0-0)" opacity="1"><path x="656" y="50" width="12" height="12" fill="#fff" stroke="#fff" stroke-width="0" d="M662,50 h0 a6,6 0 0 1 6,6 v0 a6,6 0 0 1 -6,6 h0 a6,6 0 0 1 -6,-6 v0 a6,6 0 0 1 6,-6"/></g><mask id="satori_om-id-4-0"><rect x="656" y="50" width="12" height="12" fill="#fff"/></mask><path x="656" y="50" width="12" height="12" fill="url(#satori_pattern_id-4-0_0)" d="M662,50 h0 a6,6 0 0 1 6,6 v0 a6,6 0 0 1 -6,6 h0 a6,6 0 0 1 -6,-6 v0 a6,6 0 0 1 6,-6"/><mask id="satori_om-id-4-1"><rect x="638" y="68" width="47" height="22" fill="#fff"/></mask><g  ><path fill="#fff" d="M641.9 85L639.2 85L639.2 71.9L644.3 71.9Q645.8 71.9 646.8 72.4Q647.9 73.0 648.4 73.9Q649.0 74.9 649.0 76.2Q649.0 77.5 648.4 78.4Q647.9 79.3 646.8 79.8L646.8 79.8Q646.7 79.9 646.7 79.9L646.7 79.9L649.4 85L646.5 85L644.0 80.3L641.9 80.3L641.9 85ZM641.9 74.1L641.9 78.2L643.8 78.2Q644.6 78.2 645.2 77.9Q645.7 77.7 645.9 77.3Q646.2 76.8 646.2 76.2L646.2 76.2Q646.2 75.5 645.9 75.0Q645.7 74.6 645.1 74.4Q644.6 74.1 643.8 74.1L643.8 74.1L641.9 74.1ZM654.9 85.2L654.9 85.2Q653.4 85.2 652.3 84.6Q651.2 84.0 650.6 82.8Q650.0 81.7 650.0 80.1L650.0 80.1Q650.0 78.6 650.6 77.5Q651.2 76.3 652.3 75.7Q653.3 75.1 654.8 75.1L654.8 75.1Q655.7 75.1 656.6 75.4Q657.4 75.7 658.0 76.3Q658.7 76.9 659.0 77.8Q659.4 78.8 659.4 80.0L659.4 80.0L659.4 80.8L652.6 80.8Q652.7 81.5 652.9 82.0L652.9 82.0Q653.2 82.6 653.7 82.9Q654.2 83.2 654.9 83.2L654.9 83.2Q655.4 83.2 655.8 83.1Q656.2 82.9 656.4 82.7Q656.7 82.4 656.8 82.0L656.8 82.0L659.2 82.5Q659.0 83.3 658.4 83.9Q657.8 84.5 656.9 84.9Q656.0 85.2 654.9 85.2ZM652.7 79.1L652.7 79.1L656.8 79.1Q656.8 78.6 656.6 78.2L656.6 78.2Q656.4 77.7 655.9 77.3Q655.5 77.0 654.8 77.0L654.8 77.0Q654.1 77.0 653.6 77.4Q653.1 77.7 652.9 78.2L652.9 78.2Q652.7 78.6 652.7 79.1ZM664.3 85.2L664.3 85.2Q663.1 85.2 662.2 84.6Q661.3 84.0 660.8 82.9Q660.3 81.7 660.3 80.1L660.3 80.1Q660.3 78.4 660.8 77.3Q661.3 76.2 662.3 75.6Q663.2 75.1 664.2 75.1L664.2 75.1Q665.1 75.1 665.6 75.3Q666.2 75.6 666.5 76.0Q666.9 76.4 667.0 76.8L667.0 76.8L667.1 76.8L667.1 71.9L669.8 71.9L669.8 85L667.2 85L667.2 83.4L667.0 83.4Q666.9 83.8 666.5 84.2Q666.2 84.6 665.6 84.9Q665.1 85.2 664.3 85.2ZM665.1 83.0L665.1 83.0Q665.7 83.0 666.2 82.7Q666.7 82.3 666.9 81.6Q667.2 81.0 667.2 80.1L667.2 80.1Q667.2 79.2 666.9 78.5Q666.7 77.9 666.2 77.5Q665.7 77.2 665.1 77.2L665.1 77.2Q664.4 77.2 663.9 77.5Q663.4 77.9 663.2 78.6Q663.0 79.2 663.0 80.1L663.0 80.1Q663.0 81.0 663.2 81.6Q663.4 82.3 663.9 82.7Q664.4 83.0 665.1 83.0ZM674.2 85L671.5 85L671.5 75.2L674.2 75.2L674.2 85ZM672.8 73.9L672.8 73.9Q672.2 73.9 671.8 73.5Q671.4 73.1 671.4 72.5L671.4 72.5Q671.4 72.0 671.8 71.6Q672.2 71.2 672.8 71.2L672.8 71.2Q673.4 71.2 673.9 71.6Q674.3 72.0 674.3 72.5L674.3 72.5Q674.3 73.1 673.9 73.5Q673.4 73.9 672.8 73.9ZM679.8 85.2L679.8 85.2Q678.6 85.2 677.7 84.9Q676.8 84.5 676.2 83.9Q675.6 83.2 675.5 82.3L675.5 82.3L677.9 81.9Q678.1 82.6 678.6 82.9Q679.1 83.3 679.9 83.3L679.9 83.3Q680.6 83.3 681.1 83.0Q681.5 82.7 681.5 82.2L681.5 82.2Q681.5 81.9 681.2 81.6Q680.9 81.4 680.2 81.2L680.2 81.2L678.5 80.9Q677.1 80.6 676.4 79.9Q675.7 79.2 675.7 78.1L675.7 78.1Q675.7 77.2 676.2 76.5Q676.7 75.8 677.7 75.4Q678.6 75.1 679.8 75.1L679.8 75.1Q681 75.1 681.9 75.4Q682.7 75.7 683.2 76.3Q683.8 76.9 683.9 77.7L683.9 77.7L681.6 78.1Q681.4 77.6 681.0 77.3Q680.6 76.9 679.9 76.9L679.9 76.9Q679.2 76.9 678.8 77.2Q678.3 77.5 678.3 77.9L678.3 77.9Q678.3 78.3 678.6 78.6Q678.9 78.8 679.6 79.0L679.6 79.0L681.4 79.3Q682.8 79.6 683.5 80.3Q684.2 80.9 684.2 82.0L684.2 82.0Q684.2 82.9 683.6 83.7Q683.1 84.4 682.1 84.8Q681.1 85.2 679.8 85.2Z "/></g><mask id="satori_om-id-5"><rect x="760" y="50" width="61" height="40" fill="#fff"/></mask><defs><pattern id="satori_pattern_id-5-0_0" x="0" y="0" width="1" height="1" patternUnits="objectBoundingBox"><linearGradient id="satori_biid-5-0_0" x1="-4.810966440042345e-16" y1="4.810966440042355e-16" x2="1.0000000000000004" y2="0.9999999999999994" spreadMethod="pad"><stop offset="0%" stop-color="#6622ee"/><stop offset="100%" stop-color="#0088ff"/></linearGradient><rect x="0" y="0" width="12" height="12" fill="url(#satori_biid-5-0_0)"/></pattern></defs><mask id="satori_ms-id-5-0-0" maskUnits="userSpaceOnUse"><rect x="0" y="0" width="860" height="140" fill="#fff"/><path x="785" y="50" width="12" height="12" fill="#000"  stroke-width="0" d="M791,50 h0 a6,6 0 0 1 6,6 v0 a6,6 0 0 1 -6,6 h0 a6,6 0 0 1 -6,-6 v0 a6,6 0 0 1 6,-6"/></mask><defs><filter id="satori_s-id-5-0-0" x="-208.33333333333334%" y="-208.33333333333334%" width="516.6666666666667%" height="516.6666666666667%"><feGaussianBlur stdDeviation="5" result="b"/><feFlood flood-color="rgba(102, 34, 238, 0.5)" in="SourceGraphic" result="f"/><feComposite in="f" in2="b" operator="in"/></filter></defs><g mask="url(#satori_ms-id-5-0-0)" filter="url(#satori_s-id-5-0-0)" opacity="1"><path x="785" y="50" width="12" height="12" fill="#fff" stroke="#fff" stroke-width="0" d="M791,50 h0 a6,6 0 0 1 6,6 v0 a6,6 0 0 1 -6,6 h0 a6,6 0 0 1 -6,-6 v0 a6,6 0 0 1 6,-6"/></g><mask id="satori_om-id-5-0"><rect x="785" y="50" width="12" height="12" fill="#fff"/></mask><path x="785" y="50" width="12" height="12" fill="url(#satori_pattern_id-5-0_0)" d="M791,50 h0 a6,6 0 0 1 6,6 v0 a6,6 0 0 1 -6,6 h0 a6,6 0 0 1 -6,-6 v0 a6,6 0 0 1 6,-6"/><mask id="satori_om-id-5-1"><rect x="760" y="68" width="61" height="22" fill="#fff"/></mask><g  ><path fill="#fff" d="M765.8 85L765.8 85L761.2 85L761.2 71.9L765.8 71.9Q767.8 71.9 769.2 72.7Q770.6 73.5 771.4 74.9Q772.2 76.4 772.2 78.4L772.2 78.4Q772.2 80.5 771.4 82.0Q770.6 83.4 769.2 84.2Q767.8 85 765.8 85ZM763.9 74.2L763.9 82.7L765.7 82.7Q766.9 82.7 767.8 82.2Q768.6 81.8 769.1 80.9Q769.5 79.9 769.5 78.4L769.5 78.4Q769.5 77.0 769.1 76.0Q768.6 75.1 767.8 74.7Q766.9 74.2 765.7 74.2L765.7 74.2L763.9 74.2ZM778.0 85.2L778.0 85.2Q776.5 85.2 775.5 84.6Q774.4 83.9 773.8 82.8Q773.2 81.6 773.2 80.1L773.2 80.1Q773.2 78.6 773.8 77.5Q774.4 76.3 775.5 75.7Q776.5 75.1 778.0 75.1L778.0 75.1Q779.5 75.1 780.6 75.7Q781.7 76.3 782.2 77.5Q782.8 78.6 782.8 80.1L782.8 80.1Q782.8 81.6 782.2 82.8Q781.7 83.9 780.6 84.6Q779.5 85.2 778.0 85.2ZM778.0 83.1L778.0 83.1Q778.7 83.1 779.2 82.7Q779.7 82.3 779.9 81.7Q780.1 81.0 780.1 80.1L780.1 80.1Q780.1 79.3 779.9 78.6Q779.7 77.9 779.2 77.5Q778.7 77.1 778.0 77.1L778.0 77.1Q777.3 77.1 776.8 77.5Q776.4 77.9 776.1 78.6Q775.9 79.3 775.9 80.1L775.9 80.1Q775.9 81.0 776.1 81.7Q776.4 82.3 776.8 82.7Q777.3 83.1 778.0 83.1ZM788.6 85.2L788.6 85.2Q787.1 85.2 786.0 84.6Q784.9 83.9 784.3 82.8Q783.8 81.6 783.8 80.1L783.8 80.1Q783.8 78.6 784.3 77.5Q784.9 76.3 786.0 75.7Q787.1 75.1 788.6 75.1L788.6 75.1Q789.4 75.1 790.2 75.3Q790.9 75.5 791.5 75.9Q792.0 76.4 792.4 77.0Q792.8 77.6 792.9 78.3L792.9 78.3L790.5 78.8Q790.4 78.4 790.2 78.1Q790.1 77.8 789.8 77.6Q789.6 77.4 789.3 77.2Q789.0 77.1 788.6 77.1L788.6 77.1Q787.9 77.1 787.4 77.5Q786.9 77.9 786.7 78.6Q786.4 79.2 786.4 80.1L786.4 80.1Q786.4 81.0 786.7 81.7Q786.9 82.3 787.4 82.7Q787.9 83.1 788.6 83.1L788.6 83.1Q789.0 83.1 789.3 83.0Q789.6 82.9 789.8 82.7Q790.1 82.4 790.3 82.1Q790.4 81.8 790.5 81.4L790.5 81.4L792.9 81.9Q792.8 82.6 792.4 83.2Q792.1 83.9 791.5 84.3Q790.9 84.7 790.2 85.0Q789.4 85.2 788.6 85.2ZM796.9 85L794.3 85L794.3 71.9L796.9 71.9L796.9 79.0L797.0 79.0L800.3 75.2L803.3 75.2L799.6 79.4L803.5 85L800.4 85L797.6 81.0L796.9 81.8L796.9 85ZM808.6 85.2L808.6 85.2Q807.1 85.2 806.0 84.6Q805.0 84.0 804.4 82.8Q803.8 81.7 803.8 80.1L803.8 80.1Q803.8 78.6 804.4 77.5Q804.9 76.3 806.0 75.7Q807.1 75.1 808.5 75.1L808.5 75.1Q809.5 75.1 810.3 75.4Q811.1 75.7 811.8 76.3Q812.4 76.9 812.8 77.8Q813.1 78.8 813.1 80.0L813.1 80.0L813.1 80.8L806.4 80.8Q806.4 81.5 806.7 82.0L806.7 82.0Q807.0 82.6 807.5 82.9Q808.0 83.2 808.7 83.2L808.7 83.2Q809.1 83.2 809.5 83.1Q809.9 82.9 810.2 82.7Q810.4 82.4 810.6 82.0L810.6 82.0L813.0 82.5Q812.7 83.3 812.1 83.9Q811.6 84.5 810.7 84.9Q809.8 85.2 808.6 85.2ZM806.4 79.1L806.4 79.1L810.6 79.1Q810.5 78.6 810.4 78.2L810.4 78.2Q810.1 77.7 809.7 77.3Q809.2 77.0 808.5 77.0L808.5 77.0Q807.8 77.0 807.4 77.4Q806.9 77.7 806.6 78.2L806.6 78.2Q806.5 78.6 806.4 79.1ZM817.1 85L814.4 85L814.4 75.2L817.0 75.2L817.0 76.9L817.1 76.9Q817.3 76.0 818.0 75.5Q818.6 75.0 819.4 75.0L819.4 75.0Q819.6 75.0 819.9 75.1Q820.1 75.1 820.3 75.1L820.3 75.1L820.3 77.5Q820.1 77.4 819.8 77.4Q819.5 77.4 819.2 77.4L819.2 77.4Q818.6 77.4 818.1 77.6Q817.6 77.9 817.3 78.3Q817.1 78.8 817.1 79.4L817.1 79.4L817.1 85Z "/></g></svg>