<!-- Generated by readme-aura https://github.com/collectioneur/readme-aura -->
<svg width="860" height="168" viewBox="0 0 860 168" xmlns="http://www.w3.org/2000/svg"><defs><clipPath id="satori_bc-id"><path x="0" y="0" width="860" height="168" d="M16,0 h828 a16,16 0 0 1 16,16 v136 a16,16 0 0 1 -16,16 h-828 a16,16 0 0 1 -16,-16 v-136 a16,16 0 0 1 16,-16"/></clipPath></defs><clipPath id="satori_cp-id"><path x="0" y="0" width="860" height="168" d="M16,0 h828 a16,16 0 0 1 16,16 v136 a16,16 0 0 1 -16,16 h-828 a16,16 0 0 1 -16,-16 v-136 a16,16 0 0 1 16,-16"/></clipPath><mask id="satori_om-id"><rect x="1" y="1" width="858" height="166" fill="#fff"/><path width="860" height="168" fill="none" stroke="#000" stroke-width="2" d="M4.686,4.686 A16,16 0 0 1 16,0 h828 a16,16 0 0 1 16,16 v136 a16,16 0 0 1 -16,16 h-828 a16,16 0 0 1 -16,-16 v-136 A16,16 0 0 1 4.686,4.686"/></mask><path x="0" y="0" width="860" height="168" fill="#08080c" d="M16,0 h828 a16,16 0 0 1 16,16 v136 a16,16 0 0 1 -16,16 h-828 a16,16 0 0 1 -16,-16 v-136 a16,16 0 0 1 16,-16"/><path width="860" height="168" clip-path="url(#satori_bc-id)" fill="none" stroke="rgba(110,80,220,0.18)" stroke-width="2" d="M4.686,4.686 A16,16 0 0 1 16,0 h828 a16,16 0 0 1 16,16 v136 a16,16 0 0 1 -16,16 h-828 a16,16 0 0 1 -16,-16 v-136 A16,16 0 0 1 4.686,4.686"/><clipPath id="satori_cp-id-0" clip-path="url(#satori_cp-id)"><rect x="1" y="1" width="860" height="168"/></clipPath><mask id="satori_om-id-0"><rect x="1" y="1" width="860" height="168" fill="#fff" mask="url(#satori_om-id)"/></mask><svg x="1" y="1" width="860" height="168" preserveAspectRatio="none" clip-path="url(#satori_cp-id-0)" mask="url(#satori_om-id-0)"><defs><radialGradient id="g1" cx="50%" cy="50%" r="50%"><stop offset="0%" stop-color="rgba(115,20,215,0.68)"></stop><stop offset="42%" stop-color="rgba(85,15,175,0.30)"></stop><stop offset="70%" stop-color="rgba(85,15,175,0)"></stop></radialGradient><radialGradient id="g2" cx="50%" cy="50%" r="50%"><stop offset="0%" stop-color="rgba(55,55,255,0.55)"></stop><stop offset="45%" stop-color="rgba(35,45,210,0.22)"></stop><stop offset="70%" stop-color="rgba(35,45,210,0)"></stop></radialGradient><radialGradient id="g3" cx="50%" cy="50%" r="50%"><stop offset="0%" stop-color="rgba(0,130,255,0.42)"></stop><stop offset="50%" stop-color="rgba(0,100,220,0.16)"></stop><stop offset="70%" stop-color="rgba(0,100,220,0)"></stop></radialGradient><radialGradient id="g4" cx="50%" cy="50%" r="50%"><stop offset="0%" stop-color="rgba(0,185,240,0.32)"></stop><stop offset="70%" stop-color="rgba(0,185,240,0)"></stop></radialGradient><radialGradient id="g5" cx="50%" cy="50%" r="50%"><stop offset="0%" stop-color="rgba(100,25,205,0.42)"></stop><stop offset="70%" stop-color="rgba(100,25,205,0)"></stop></radialGradient><radialGradient id="g6" cx="50%" cy="50%" r="50%"><stop offset="0%" stop-color="rgba(60,80,255,0.35)"></stop><stop offset="70%" stop-color="rgba(60,80,255,0)"></stop></radialGradient></defs><ellipse id="glow-1" cx="170" cy="168" rx="260" ry="170" fill="url(#g1)"></ellipse><ellipse id="glow-2" cx="320" cy="178" rx="220" ry="140" fill="url(#g2)"></ellipse><ellipse id="glow-3" cx="460" cy="178" rx="190" ry="130" fill="url(#g3)"></ellipse><ellipse id="glow-4" cx="590" cy="188" rx="160" ry="110" fill="url(#g4)"></ellipse><ellipse id="glow-5" cx="750" cy="188" rx="140" ry="100" fill="url(#g5)"></ellipse><ellipse id="glow-6" cx="420" cy="138" rx="100" ry="80" fill="url(#g6)"></ellipse><style>

         @keyframes float-slow {
           0%, 100% { transform: translateX(0px); opacity: 0.8; }
           50% { transform: translateX(350px); opacity: 1.2; }
         }
         @keyframes float-medium {
           0%, 100% { transform: translateX(0px); opacity: 0.7; }
           50% { transform: translateX(-250px); opacity: 1.1; }
         }
         @keyframes float-fast {
           0%, 100% { transform: translateX(0px); opacity: 0.9; }
           50% { transform: translateX(200px); opacity: 0.6; }
         }
         @keyframes float-diagonal {
           0%, 100% { transform: translate(0px, 0px); opacity: 0.75; }
           50% { transform: translate(120px, 30px); opacity: 1.0; }
         }
         @keyframes float-wave {
           0%, 100% { transform: translateX(0px); opacity: 0.65; }
           33% { transform: translateX(-160px); opacity: 0.9; }
           66% { transform: translateX(80px); opacity: 1.0; }
         }
         @keyframes float-pulse {
           0%, 100% { transform: scale(1); opacity: 0.8; }
           50% { transform: scale(1.3); opacity: 0.4; }
         }
         #glow-1 { animation: float-slow 9s ease-in-out infinite; }
         #glow-2 { animation: float-medium 12s ease-in-out infinite; }
         #glow-3 { animation: float-fast 8s ease-in-out infinite; }
         #glow-4 { animation: float-diagonal 11s ease-in-out infinite reverse; }
         #glow-5 { animation: float-wave 14s ease-in-out infinite reverse; }
         #glow-6 { animation: float-pulse 6s ease-in-out infinite; }
       
</style>
</svg><mask id="satori_om-id-0-0"><rect x="1" y="1" width="0" height="168" fill="#fff" mask="url(#satori_om-id)"/></mask><mask id="satori_om-id-0-0-0"><rect x="1" y="1" width="0" height="168" fill="#fff" mask="url(#satori_om-id)"/></mask><mask id="satori_om-id-0-0-0-0"><rect x="1" y="1" width="0" height="168" fill="#fff" mask="url(#satori_om-id)"/></mask><mask id="satori_om-id-0-0-0-1"><rect x="1" y="1" width="0" height="168" fill="#fff" mask="url(#satori_om-id)"/></mask><mask id="satori_om-id-0-0-0-2"><rect x="1" y="1" width="0" height="168" fill="#fff" mask="url(#satori_om-id)"/></mask><mask id="satori_om-id-0-0-1"><rect x="1" y="1" width="0" height="168" fill="#fff" mask="url(#satori_om-id)"/></mask><mask id="satori_om-id-0-0-1-0"><rect x="1" y="1" width="0" height="168" fill="#fff" mask="url(#satori_om-id)"/></mask><mask id="satori_om-id-0-0-1-1"><rect x="1" y="1" width="0" height="168" fill="#fff" mask="url(#satori_om-id)"/></mask><mask id="satori_om-id-0-0-1-2"><rect x="1" y="1" width="0" height="168" fill="#fff" mask="url(#satori_om-id)"/></mask><mask id="satori_om-id-0-0-2"><rect x="1" y="1" width="0" height="168" fill="#fff" mask="url(#satori_om-id)"/></mask><mask id="satori_om-id-0-0-2-0"><rect x="1" y="1" width="0" height="168" fill="#fff" mask="url(#satori_om-id)"/></mask><mask id="satori_om-id-0-0-2-1"><rect x="1" y="1" width="0" height="168" fill="#fff" mask="url(#satori_om-id)"/></mask><mask id="satori_om-id-0-0-2-2"><rect x="1" y="1" width="0" height="168" fill="#fff" mask="url(#satori_om-id)"/></mask><mask id="satori_om-id-0-0-3"><rect x="1" y="1" width="0" height="168" fill="#fff" mask="url(#satori_om-id)"/></mask><mask id="satori_om-id-0-0-3-0"><rect x="1" y="1" width="0" height="168" fill="#fff" mask="url(#satori_om-id)"/></mask><mask id="satori_om-id-0-0-3-1"><rect x="1" y="1" width="0" height="168" fill="#fff" mask="url(#satori_om-id)"/></mask><mask id="satori_om-id-0-0-4"><rect x="1" y="1" width="0" height="168" fill="#fff" mask="url(#satori_om-id)"/></mask><mask id="satori_om-id-0-0-4-0"><rect x="1" y="1" width="0" height="168" fill="#fff" mask="url(#satori_om-id)"/></mask><mask id="satori_om-id-0-0-4-1"><rect x="1" y="1" width="0" height="168" fill="#fff" mask="url(#satori_om-id)"/></mask><mask id="satori_om-id-0-0-5"><rect x="1" y="1" width="0" height="168" fill="#fff" mask="url(#satori_om-id)"/></mask><mask id="satori_om-id-0-0-5-0"><rect x="1" y="1" width="0" height="168" fill="#fff" mask="url(#satori_om-id)"/></mask><mask id="satori_om-id-0-0-5-1"><rect x="1" y="1" width="0" height="168" fill="#fff" mask="url(#satori_om-id)"/></mask><mask id="satori_om-id-0-1"><rect x="1" y="1" width="0" height="168" fill="#fff" mask="url(#satori_om-id)"/></mask><mask id="satori_om-id-0-2"><rect x="1" y="1" width="0" height="168" fill="#fff" mask="url(#satori_om-id)"/></mask><mask id="satori_om-id-0-3"><rect x="1" y="1" width="0" height="168" fill="#fff" mask="url(#satori_om-id)"/></mask><mask id="satori_om-id-0-4"><rect x="1" y="1" width="0" height="168" fill="#fff" mask="url(#satori_om-id)"/></mask><mask id="satori_om-id-0-5"><rect x="1" y="1" width="0" height="168" fill="#fff" mask="url(#satori_om-id)"/></mask><mask id="satori_om-id-0-6"><rect x="1" y="1" width="0" height="168" fill="#fff" mask="url(#satori_om-id)"/></mask><mask id="satori_om-id-1"><rect x="33" y="19" width="794" height="12" fill="#fff" mask="url(#satori_om-id)"/></mask><g mask="url(#satori_om-id)" clip-path="url(#satori_cp-id)"><path fill="rgba(155,140,210,0.5)" d="M35.6 23.0L33.4 23.0L33.4 21.7L39.3 21.7L39.3 23.0L37.1 23.0L37.1 29L35.6 29L35.6 23.0ZM48.2 29L43.3 29L43.3 21.7L48.2 21.7L48.2 23.0L44.8 23.0L44.8 24.7L47.9 24.7L47.9 25.9L44.8 25.9L44.8 27.8L48.2 27.8L48.2 29ZM55.6 29.1L55.6 29.1Q54.6 29.1 53.9 28.7Q53.1 28.2 52.6 27.4Q52.2 26.5 52.2 25.4L52.2 25.4Q52.2 24.2 52.7 23.3Q53.1 22.5 53.9 22.1Q54.6 21.6 55.6 21.6L55.6 21.6Q56.2 21.6 56.7 21.8Q57.3 22.0 57.7 22.3Q58.1 22.6 58.4 23.1Q58.6 23.6 58.7 24.2L58.7 24.2L57.2 24.2Q57.2 23.9 57.0 23.7Q56.9 23.4 56.7 23.3Q56.5 23.1 56.2 23.0Q55.9 23.0 55.6 23.0L55.6 23.0Q55.0 23.0 54.6 23.2Q54.2 23.5 54.0 24.1Q53.7 24.6 53.7 25.4L53.7 25.4Q53.7 26.2 54.0 26.7Q54.2 27.2 54.6 27.5Q55.0 27.8 55.6 27.8L55.6 27.8Q55.9 27.8 56.2 27.7Q56.5 27.6 56.7 27.4Q56.9 27.3 57.0 27.0Q57.2 26.8 57.2 26.5L57.2 26.5L58.7 26.5Q58.7 27.0 58.4 27.5Q58.2 27.9 57.8 28.3Q57.4 28.7 56.8 28.9Q56.3 29.1 55.6 29.1ZM64.3 29L62.8 29L62.8 21.7L64.3 21.7L64.3 24.7L67.5 24.7L67.5 21.7L69.0 21.7L69.0 29L67.5 29L67.5 25.9L64.3 25.9L64.3 29Z M81.3 29.1L81.3 29.1Q80.4 29.1 79.8 28.8Q79.1 28.6 78.8 28.0Q78.4 27.5 78.4 26.7L78.4 26.7L79.9 26.7Q79.9 27.1 80.1 27.4Q80.3 27.6 80.6 27.7Q80.9 27.8 81.3 27.8L81.3 27.8Q81.7 27.8 82.0 27.7Q82.3 27.6 82.5 27.4Q82.6 27.2 82.6 26.9L82.6 26.9Q82.6 26.7 82.5 26.5Q82.3 26.3 82.0 26.2Q81.8 26.1 81.4 26.0L81.4 26.0L80.6 25.8Q79.6 25.6 79.1 25.1Q78.6 24.6 78.6 23.8L78.6 23.8Q78.6 23.2 78.9 22.7Q79.3 22.2 79.9 21.9Q80.5 21.6 81.3 21.6L81.3 21.6Q82.1 21.6 82.7 21.9Q83.3 22.2 83.7 22.7Q84.0 23.2 84.0 23.8L84.0 23.8L82.6 23.8Q82.5 23.4 82.2 23.1Q81.9 22.9 81.3 22.9L81.3 22.9Q80.9 22.9 80.7 23.0Q80.4 23.1 80.3 23.3Q80.1 23.5 80.1 23.7L80.1 23.7Q80.1 24.0 80.3 24.2Q80.4 24.3 80.7 24.5Q81.0 24.6 81.3 24.6L81.3 24.6L81.9 24.8Q82.4 24.9 82.8 25.1Q83.2 25.3 83.5 25.5Q83.8 25.8 84.0 26.1Q84.1 26.5 84.1 26.9L84.1 26.9Q84.1 27.6 83.8 28.1Q83.5 28.6 82.8 28.8Q82.2 29.1 81.3 29.1ZM90.1 23.0L87.9 23.0L87.9 21.7L93.8 21.7L93.8 23.0L91.6 23.0L91.6 29L90.1 29L90.1 23.0ZM99.1 29L97.4 29L99.9 21.7L101.9 21.7L104.4 29L102.8 29L102.2 27.3L99.6 27.3L99.1 29ZM100.0 26.1L101.8 26.1L101.6 25.5Q101.4 24.8 101.2 24L101.2 24Q101.0 23.5 100.9 22.9L100.9 22.9Q100.7 23.5 100.6 24.0L100.6 24.0Q100.4 24.8 100.2 25.5L100.2 25.5L100.0 26.1ZM111.5 29.1L111.5 29.1Q110.5 29.1 109.8 28.7Q109.0 28.2 108.6 27.4Q108.1 26.5 108.1 25.4L108.1 25.4Q108.1 24.2 108.6 23.3Q109.0 22.5 109.8 22.1Q110.6 21.6 111.5 21.6L111.5 21.6Q112.1 21.6 112.7 21.8Q113.2 22.0 113.6 22.3Q114.0 22.6 114.3 23.1Q114.6 23.6 114.6 24.2L114.6 24.2L113.1 24.2Q113.1 23.9 112.9 23.7Q112.8 23.4 112.6 23.3Q112.4 23.1 112.1 23.0Q111.9 23.0 111.5 23.0L111.5 23.0Q111.0 23.0 110.5 23.2Q110.1 23.5 109.9 24.1Q109.6 24.6 109.6 25.4L109.6 25.4Q109.6 26.2 109.9 26.7Q110.1 27.2 110.5 27.5Q111.0 27.8 111.5 27.8L111.5 27.8Q111.8 27.8 112.1 27.7Q112.4 27.6 112.6 27.4Q112.8 27.3 112.9 27.0Q113.1 26.8 113.1 26.5L113.1 26.5L114.6 26.5Q114.6 27.0 114.3 27.5Q114.1 27.9 113.7 28.3Q113.3 28.7 112.8 28.9Q112.2 29.1 111.5 29.1ZM120.2 29L118.7 29L118.7 21.7L120.2 21.7L120.2 23.7L120.2 25.4Q120.2 25.3 120.3 25.3L120.3 25.3Q120.5 24.9 120.7 24.6Q121.0 24.2 121.3 23.8L121.3 23.8L123.1 21.7L124.9 21.7L122.2 24.9L125.0 29L123.3 29L121.2 25.9L120.2 26.9L120.2 29Z "/></g><mask id="satori_om-id-2"><rect x="33" y="45" width="794" height="103" fill="#fff" mask="url(#satori_om-id)"/></mask><mask id="satori_om-id-2-0"><rect x="33" y="45" width="794" height="25" fill="#fff" mask="url(#satori_om-id)"/></mask><mask id="satori_om-id-2-0-0"><rect x="33" y="52" width="80" height="12" fill="#fff" mask="url(#satori_om-id)"/></mask><g mask="url(#satori_om-id)" clip-path="url(#satori_cp-id)"><path fill="#a78bfa" d="M36.8 62.1L36.8 62.1Q35.9 62.1 35.1 61.7Q34.3 61.2 33.9 60.4Q33.5 59.5 33.5 58.4L33.5 58.4Q33.5 57.2 33.9 56.3Q34.3 55.5 35.1 55.1Q35.9 54.6 36.8 54.6L36.8 54.6Q37.5 54.6 38.0 54.8Q38.5 55.0 38.9 55.3Q39.4 55.6 39.6 56.1Q39.9 56.6 40.0 57.2L40.0 57.2L38.5 57.2Q38.4 56.9 38.3 56.7Q38.1 56.4 37.9 56.3Q37.7 56.1 37.4 56.0Q37.2 56.0 36.9 56.0L36.9 56.0Q36.3 56.0 35.9 56.2Q35.4 56.5 35.2 57.1Q35.0 57.6 35.0 58.4L35.0 58.4Q35.0 59.2 35.2 59.7Q35.5 60.2 35.9 60.5Q36.3 60.8 36.9 60.8L36.9 60.8Q37.2 60.8 37.4 60.7Q37.7 60.6 37.9 60.4Q38.1 60.3 38.3 60.0Q38.4 59.8 38.5 59.5L38.5 59.5L40.0 59.5Q39.9 60.0 39.7 60.5Q39.4 60.9 39.0 61.3Q38.6 61.7 38.1 61.9Q37.5 62.1 36.8 62.1ZM45.3 62.1L45.3 62.1Q44.3 62.1 43.5 61.7Q42.8 61.2 42.3 60.4Q41.9 59.5 41.9 58.4L41.9 58.4Q41.9 57.2 42.3 56.3Q42.8 55.5 43.5 55.1Q44.3 54.6 45.3 54.6L45.3 54.6Q46.2 54.6 47.0 55.1Q47.8 55.5 48.2 56.3Q48.6 57.2 48.6 58.4L48.6 58.4Q48.6 59.5 48.2 60.4Q47.8 61.2 47.0 61.7Q46.2 62.1 45.3 62.1ZM45.3 60.8L45.3 60.8Q45.8 60.8 46.2 60.5Q46.7 60.2 46.9 59.7Q47.1 59.1 47.1 58.4L47.1 58.4Q47.1 57.6 46.9 57.0Q46.7 56.5 46.2 56.2Q45.8 56.0 45.3 56.0L45.3 56.0Q44.7 56.0 44.3 56.2Q43.8 56.5 43.6 57.0Q43.4 57.6 43.4 58.4L43.4 58.4Q43.4 59.1 43.6 59.7Q43.8 60.2 44.3 60.5Q44.7 60.8 45.3 60.8ZM52.3 62L50.8 62L50.8 54.7L53.6 54.7Q54.4 54.7 55.0 55.0Q55.6 55.3 55.9 55.8Q56.2 56.4 56.2 57.1Q56.2 57.8 55.9 58.3Q55.6 58.9 55.0 59.1L55.0 59.1Q55.0 59.1 54.9 59.2L54.9 59.2L56.5 62L54.8 62L53.4 59.4L52.3 59.4L52.3 62ZM52.3 56.0L52.3 58.2L53.3 58.2Q53.8 58.2 54.1 58.1Q54.4 57.9 54.5 57.7Q54.7 57.5 54.7 57.1L54.7 57.1Q54.7 56.7 54.5 56.5Q54.4 56.2 54.1 56.1Q53.8 56.0 53.3 56.0L53.3 56.0L52.3 56.0ZM63.2 62L58.3 62L58.3 54.7L63.2 54.7L63.2 56.0L59.8 56.0L59.8 57.7L62.9 57.7L62.9 58.9L59.8 58.9L59.8 60.8L63.2 60.8L63.2 62Z M71.4 62.1L71.4 62.1Q70.6 62.1 69.9 61.8Q69.3 61.6 68.9 61.0Q68.5 60.5 68.5 59.7L68.5 59.7L70.0 59.7Q70.0 60.1 70.2 60.4Q70.4 60.6 70.7 60.7Q71.0 60.8 71.4 60.8L71.4 60.8Q71.8 60.8 72.1 60.7Q72.4 60.6 72.6 60.4Q72.7 60.2 72.7 59.9L72.7 59.9Q72.7 59.7 72.6 59.5Q72.4 59.3 72.2 59.2Q71.9 59.1 71.5 59.0L71.5 59.0L70.7 58.8Q69.8 58.6 69.2 58.1Q68.7 57.6 68.7 56.8L68.7 56.8Q68.7 56.2 69.1 55.7Q69.4 55.2 70.0 54.9Q70.7 54.6 71.5 54.6L71.5 54.6Q72.3 54.6 72.9 54.9Q73.5 55.2 73.8 55.7Q74.1 56.2 74.1 56.8L74.1 56.8L72.7 56.8Q72.7 56.4 72.3 56.1Q72.0 55.9 71.4 55.9L71.4 55.9Q71.1 55.9 70.8 56.0Q70.5 56.1 70.4 56.3Q70.3 56.5 70.3 56.7L70.3 56.7Q70.3 57.0 70.4 57.2Q70.6 57.3 70.8 57.5Q71.1 57.6 71.4 57.6L71.4 57.6L72.1 57.8Q72.5 57.9 72.9 58.1Q73.3 58.3 73.6 58.5Q73.9 58.8 74.1 59.1Q74.2 59.5 74.2 59.9L74.2 59.9Q74.2 60.6 73.9 61.1Q73.6 61.6 73.0 61.8Q72.3 62.1 71.4 62.1ZM78.3 56.0L76.0 56.0L76.0 54.7L82.0 54.7L82.0 56.0L79.7 56.0L79.7 62L78.3 62L78.3 56.0ZM85.2 62L83.6 62L86.1 54.7L88.0 54.7L90.6 62L88.9 62L88.3 60.3L85.8 60.3L85.2 62ZM86.1 59.1L88.0 59.1L87.7 58.5Q87.5 57.8 87.3 57L87.3 57Q87.2 56.5 87.0 55.9L87.0 55.9Q86.9 56.5 86.7 57.0L86.7 57.0Q86.5 57.8 86.3 58.5L86.3 58.5L86.1 59.1ZM95.6 62.1L95.6 62.1Q94.7 62.1 93.9 61.7Q93.1 61.2 92.7 60.4Q92.3 59.5 92.3 58.4L92.3 58.4Q92.3 57.2 92.7 56.3Q93.1 55.5 93.9 55.1Q94.7 54.6 95.6 54.6L95.6 54.6Q96.3 54.6 96.8 54.8Q97.3 55.0 97.7 55.3Q98.2 55.6 98.4 56.1Q98.7 56.6 98.8 57.2L98.8 57.2L97.3 57.2Q97.2 56.9 97.1 56.7Q96.9 56.4 96.7 56.3Q96.5 56.1 96.2 56.0Q96.0 56.0 95.7 56.0L95.7 56.0Q95.1 56.0 94.7 56.2Q94.2 56.5 94.0 57.1Q93.8 57.6 93.8 58.4L93.8 58.4Q93.8 59.2 94.0 59.7Q94.3 60.2 94.7 60.5Q95.1 60.8 95.7 60.8L95.7 60.8Q96.0 60.8 96.2 60.7Q96.5 60.6 96.7 60.4Q96.9 60.3 97.1 60.0Q97.2 59.8 97.3 59.5L97.3 59.5L98.8 59.5Q98.7 60.0 98.5 60.5Q98.2 60.9 97.8 61.3Q97.4 61.7 96.9 61.9Q96.3 62.1 95.6 62.1ZM102.3 62L100.9 62L100.9 54.7L102.3 54.7L102.3 56.7L102.3 58.4Q102.4 58.3 102.4 58.3L102.4 58.3Q102.6 57.9 102.9 57.6Q103.1 57.2 103.5 56.8L103.5 56.8L105.2 54.7L107.1 54.7L104.3 57.9L107.1 62L105.4 62L103.3 58.9L102.3 59.9L102.3 62Z "/></g><mask id="satori_om-id-2-0-1"><rect x="129" y="45" width="236" height="25" fill="#fff" mask="url(#satori_om-id)"/></mask><defs><clipPath id="satori_bc-id-2-0-1-0" clip-path="url(#satori_cp-id)"><path x="129" y="45" width="70" height="25" d="M135,45 h58 a6,6 0 0 1 6,6 v13 a6,6 0 0 1 -6,6 h-58 a6,6 0 0 1 -6,-6 v-13 a6,6 0 0 1 6,-6"/></clipPath></defs><mask id="satori_om-id-2-0-1-0"><rect x="130" y="46" width="68" height="23" fill="#fff" mask="url(#satori_om-id)"/><path width="70" height="25" fill="none" stroke="#000" stroke-width="2" d="M130.757,46.757 A6,6 0 0 1 135,45 h58 a6,6 0 0 1 6,6 v13 a6,6 0 0 1 -6,6 h-58 a6,6 0 0 1 -6,-6 v-13 A6,6 0 0 1 130.757,46.757"/></mask><path x="129" y="45" width="70" height="25" fill="#a78bfa15" d="M135,45 h58 a6,6 0 0 1 6,6 v13 a6,6 0 0 1 -6,6 h-58 a6,6 0 0 1 -6,-6 v-13 a6,6 0 0 1 6,-6" clip-path="url(#satori_cp-id)" mask="url(#satori_om-id)"/><path width="70" height="25" clip-path="url(#satori_bc-id-2-0-1-0)" fill="none" stroke="#a78bfa35" stroke-width="2" d="M130.757,46.757 A6,6 0 0 1 135,45 h58 a6,6 0 0 1 6,6 v13 a6,6 0 0 1 -6,6 h-58 a6,6 0 0 1 -6,-6 v-13 A6,6 0 0 1 130.757,46.757"/><g mask="url(#satori_om-id)" clip-path="url(#satori_cp-id)"><path fill="rgba(225,220,255,0.85)" d="M145.6 62L143.8 62L143.8 53.3L147.2 53.3Q148.2 53.3 148.9 53.6Q149.6 54.0 150.0 54.7Q150.3 55.4 150.3 56.2L150.3 56.2Q150.3 57.1 149.9 57.7Q149.6 58.4 148.9 58.8Q148.2 59.1 147.2 59.1L147.2 59.1L145.6 59.1L145.6 62ZM145.6 54.7L145.6 57.7L146.9 57.7Q147.4 57.7 147.8 57.5Q148.1 57.3 148.3 57.0Q148.5 56.7 148.5 56.2Q148.5 55.8 148.3 55.4Q148.1 55.1 147.8 54.9Q147.4 54.7 146.9 54.7L146.9 54.7L145.6 54.7ZM151.5 64.3L151.5 64.3L151.9 63.0L152.1 63.0Q152.5 63.1 152.7 63.1Q153.0 63.1 153.2 62.9Q153.3 62.7 153.4 62.4L153.4 62.4L153.4 62.0L151.0 55.4L152.8 55.4L153.9 58.8Q154.1 59.5 154.3 60.1L154.3 60.1Q154.3 60.4 154.3 60.6L154.3 60.6Q154.4 60.4 154.4 60.1L154.4 60.1Q154.6 59.5 154.8 58.8L154.8 58.8L156.0 55.4L157.8 55.4L155.0 62.8Q154.8 63.3 154.5 63.7Q154.2 64.1 153.7 64.3Q153.3 64.5 152.6 64.5L152.6 64.5Q152.3 64.5 152.0 64.4Q151.7 64.4 151.5 64.3ZM160.8 55.4L162.0 55.4L162.0 56.8L160.8 56.8L160.8 60.1Q160.8 60.4 160.9 60.5Q161.1 60.7 161.4 60.7L161.4 60.7Q161.5 60.7 161.7 60.7Q161.8 60.6 161.9 60.6L161.9 60.6L162.2 61.9Q161.9 62.0 161.6 62.1Q161.3 62.1 161.0 62.1L161.0 62.1Q160.1 62.1 159.5 61.6Q159.0 61.1 159.0 60.2L159.0 60.2L159.0 56.8L158.1 56.8L158.1 55.4L159.0 55.4L159.0 53.9L160.8 53.9L160.8 55.4ZM164.9 58.2L164.9 58.2L164.9 62L163.1 62L163.1 53.3L164.9 53.3L164.9 56.7Q165.1 56.2 165.5 55.8L165.5 55.8Q166.0 55.4 166.9 55.4L166.9 55.4Q167.5 55.4 168.1 55.7Q168.6 56.0 168.8 56.5Q169.1 57.1 169.1 57.8L169.1 57.8L169.1 62L167.4 62L167.4 58.1Q167.4 57.5 167.0 57.2Q166.7 56.8 166.2 56.8L166.2 56.8Q165.8 56.8 165.5 57.0Q165.2 57.2 165.1 57.5Q164.9 57.8 164.9 58.2ZM173.5 62.1L173.5 62.1Q172.6 62.1 171.8 61.7Q171.1 61.3 170.7 60.5Q170.3 59.8 170.3 58.8L170.3 58.8Q170.3 57.7 170.7 57.0Q171.1 56.2 171.8 55.8Q172.6 55.4 173.5 55.4L173.5 55.4Q174.5 55.4 175.3 55.8Q176.0 56.2 176.4 57.0Q176.8 57.7 176.8 58.8L176.8 58.8Q176.8 59.8 176.4 60.5Q176.0 61.3 175.3 61.7Q174.5 62.1 173.5 62.1ZM173.5 60.7L173.5 60.7Q174.0 60.7 174.3 60.5Q174.6 60.2 174.8 59.8Q175.0 59.3 175.0 58.7L175.0 58.7Q175.0 58.2 174.8 57.7Q174.6 57.3 174.3 57.0Q174.0 56.8 173.5 56.8L173.5 56.8Q173.1 56.8 172.8 57.0Q172.4 57.3 172.3 57.7Q172.1 58.2 172.1 58.7L172.1 58.7Q172.1 59.3 172.3 59.8Q172.4 60.2 172.8 60.5Q173.1 60.7 173.5 60.7ZM179.7 58.2L179.7 58.2L179.7 62L178.0 62L178.0 55.4L179.6 55.4L179.7 56.8Q179.9 56.2 180.3 55.8L180.3 55.8Q180.9 55.4 181.7 55.4L181.7 55.4Q182.4 55.4 182.9 55.7Q183.4 56.0 183.7 56.5Q183.9 57.1 183.9 57.8L183.9 57.8L183.9 62L182.2 62L182.2 58.1Q182.2 57.5 181.9 57.2Q181.6 56.8 181.0 56.8L181.0 56.8Q180.6 56.8 180.3 57.0Q180.1 57.2 179.9 57.5Q179.7 57.8 179.7 58.2Z "/></g><defs><clipPath id="satori_bc-id-2-0-1-1" clip-path="url(#satori_cp-id)"><path x="206" y="45" width="78" height="25" d="M212,45 h66 a6,6 0 0 1 6,6 v13 a6,6 0 0 1 -6,6 h-66 a6,6 0 0 1 -6,-6 v-13 a6,6 0 0 1 6,-6"/></clipPath></defs><mask id="satori_om-id-2-0-1-1"><rect x="207" y="46" width="76" height="23" fill="#fff" mask="url(#satori_om-id)"/><path width="78" height="25" fill="none" stroke="#000" stroke-width="2" d="M207.757,46.757 A6,6 0 0 1 212,45 h66 a6,6 0 0 1 6,6 v13 a6,6 0 0 1 -6,6 h-66 a6,6 0 0 1 -6,-6 v-13 A6,6 0 0 1 207.757,46.757"/></mask><path x="206" y="45" width="78" height="25" fill="#a78bfa15" d="M212,45 h66 a6,6 0 0 1 6,6 v13 a6,6 0 0 1 -6,6 h-66 a6,6 0 0 1 -6,-6 v-13 a6,6 0 0 1 6,-6" clip-path="url(#satori_cp-id)" mask="url(#satori_om-id)"/><path width="78" height="25" clip-path="url(#satori_bc-id-2-0-1-1)" fill="none" stroke="#a78bfa35" stroke-width="2" d="M207.757,46.757 A6,6 0 0 1 212,45 h66 a6,6 0 0 1 6,6 v13 a6,6 0 0 1 -6,6 h-66 a6,6 0 0 1 -6,-6 v-13 A6,6 0 0 1 207.757,46.757"/><g mask="url(#satori_om-id)" clip-path="url(#satori_cp-id)"><path fill="rgba(225,220,255,0.85)" d="M222.6 62L220.8 62L220.8 53.3L224.2 53.3Q225.2 53.3 225.9 53.6Q226.6 54.0 227.0 54.7Q227.3 55.4 227.3 56.2L227.3 56.2Q227.3 57.1 226.9 57.7Q226.6 58.4 225.9 58.8Q225.2 59.1 224.2 59.1L224.2 59.1L222.6 59.1L222.6 62ZM222.6 54.7L222.6 57.7L223.9 57.7Q224.4 57.7 224.8 57.5Q225.1 57.3 225.3 57.0Q225.5 56.7 225.5 56.2Q225.5 55.8 225.3 55.4Q225.1 55.1 224.8 54.9Q224.4 54.7 223.9 54.7L223.9 54.7L222.6 54.7ZM228.5 64.3L228.5 64.3L228.9 63.0L229.1 63.0Q229.5 63.1 229.7 63.1Q230.0 63.1 230.2 62.9Q230.3 62.7 230.4 62.4L230.4 62.4L230.4 62.0L228.0 55.4L229.8 55.4L230.9 58.8Q231.1 59.5 231.3 60.1L231.3 60.1Q231.3 60.4 231.3 60.6L231.3 60.6Q231.4 60.4 231.4 60.1L231.4 60.1Q231.6 59.5 231.8 58.8L231.8 58.8L233.0 55.4L234.8 55.4L232.0 62.8Q231.8 63.3 231.5 63.7Q231.2 64.1 230.7 64.3Q230.3 64.5 229.6 64.5L229.6 64.5Q229.3 64.5 229.0 64.4Q228.7 64.4 228.5 64.3ZM238.1 54.8L235.4 54.8L235.4 53.3L242.6 53.3L242.6 54.8L239.9 54.8L239.9 62L238.1 62L238.1 54.8ZM246.7 62.1L246.7 62.1Q245.7 62.1 245.0 61.7Q244.3 61.3 243.9 60.5Q243.5 59.8 243.5 58.8L243.5 58.8Q243.5 57.7 243.9 57.0Q244.3 56.2 245.0 55.8Q245.7 55.4 246.7 55.4L246.7 55.4Q247.7 55.4 248.4 55.8Q249.1 56.2 249.5 57.0Q249.9 57.7 249.9 58.8L249.9 58.8Q249.9 59.8 249.5 60.5Q249.1 61.3 248.4 61.7Q247.7 62.1 246.7 62.1ZM246.7 60.7L246.7 60.7Q247.2 60.7 247.5 60.5Q247.8 60.2 247.9 59.8Q248.1 59.3 248.1 58.7L248.1 58.7Q248.1 58.2 247.9 57.7Q247.8 57.3 247.5 57.0Q247.2 56.8 246.7 56.8L246.7 56.8Q246.2 56.8 245.9 57.0Q245.6 57.3 245.4 57.7Q245.3 58.2 245.3 58.7L245.3 58.7Q245.3 59.3 245.4 59.8Q245.6 60.2 245.9 60.5Q246.2 60.7 246.7 60.7ZM252.9 62L251.1 62L251.1 55.4L252.8 55.4L252.8 56.6L252.9 56.6Q253.1 56.0 253.5 55.7Q253.9 55.4 254.5 55.4L254.5 55.4Q254.6 55.4 254.8 55.4Q254.9 55.4 255.0 55.4L255.0 55.4L255.0 57.0Q254.9 56.9 254.7 56.9Q254.5 56.9 254.3 56.9L254.3 56.9Q253.9 56.9 253.6 57.1Q253.2 57.2 253.1 57.6Q252.9 57.9 252.9 58.3L252.9 58.3L252.9 62ZM258.9 62.1L258.9 62.1Q257.9 62.1 257.2 61.7Q256.5 61.3 256.1 60.5Q255.7 59.8 255.7 58.8L255.7 58.8Q255.7 57.7 256.1 57.0Q256.5 56.2 257.2 55.8Q257.9 55.4 258.9 55.4L258.9 55.4Q259.5 55.4 260.0 55.5Q260.5 55.7 260.9 56.0Q261.3 56.2 261.5 56.6Q261.8 57.0 261.8 57.5L261.8 57.5L260.2 57.9Q260.2 57.6 260.0 57.4Q259.9 57.2 259.8 57.0Q259.6 56.9 259.4 56.8Q259.2 56.8 259.0 56.8L259.0 56.8Q258.5 56.8 258.2 57.0Q257.8 57.3 257.7 57.7Q257.5 58.2 257.5 58.7L257.5 58.7Q257.5 59.3 257.7 59.8Q257.8 60.2 258.2 60.5Q258.5 60.7 259.0 60.7L259.0 60.7Q259.2 60.7 259.4 60.7Q259.6 60.6 259.8 60.4Q260.0 60.3 260.1 60.1Q260.2 59.9 260.2 59.6L260.2 59.6L261.9 59.9Q261.8 60.4 261.5 60.8Q261.3 61.2 260.9 61.5Q260.5 61.8 260.0 62.0Q259.5 62.1 258.9 62.1ZM264.8 58.2L264.8 58.2L264.8 62L263.1 62L263.1 53.3L264.8 53.3L264.8 56.7Q265.0 56.2 265.4 55.8L265.4 55.8Q266.0 55.4 266.8 55.4L266.8 55.4Q267.5 55.4 268.0 55.7Q268.5 56.0 268.8 56.5Q269.0 57.1 269.0 57.8L269.0 57.8L269.0 62L267.3 62L267.3 58.1Q267.3 57.5 267.0 57.2Q266.7 56.8 266.1 56.8L266.1 56.8Q265.7 56.8 265.4 57.0Q265.1 57.2 265.0 57.5Q264.8 57.8 264.8 58.2Z "/></g><defs><clipPath id="satori_bc-id-2-0-1-2" clip-path="url(#satori_cp-id)"><path x="291" y="45" width="74" height="25" d="M297,45 h62 a6,6 0 0 1 6,6 v13 a6,6 0 0 1 -6,6 h-62 a6,6 0 0 1 -6,-6 v-13 a6,6 0 0 1 6,-6"/></clipPath></defs><mask id="satori_om-id-2-0-1-2"><rect x="292" y="46" width="72" height="23" fill="#fff" mask="url(#satori_om-id)"/><path width="74" height="25" fill="none" stroke="#000" stroke-width="2" d="M292.757,46.757 A6,6 0 0 1 297,45 h62 a6,6 0 0 1 6,6 v13 a6,6 0 0 1 -6,6 h-62 a6,6 0 0 1 -6,-6 v-13 A6,6 0 0 1 292.757,46.757"/></mask><path x="291" y="45" width="74" height="25" fill="#a78bfa15" d="M297,45 h62 a6,6 0 0 1 6,6 v13 a6,6 0 0 1 -6,6 h-62 a6,6 0 0 1 -6,-6 v-13 a6,6 0 0 1 6,-6" clip-path="url(#satori_cp-id)" mask="url(#satori_om-id)"/><path width="74" height="25" clip-path="url(#satori_bc-id-2-0-1-2)" fill="none" stroke="#a78bfa35" stroke-width="2" d="M292.757,46.757 A6,6 0 0 1 297,45 h62 a6,6 0 0 1 6,6 v13 a6,6 0 0 1 -6,6 h-62 a6,6 0 0 1 -6,-6 v-13 A6,6 0 0 1 292.757,46.757"/><g mask="url(#satori_om-id)" clip-path="url(#satori_cp-id)"><path fill="rgba(225,220,255,0.85)" d="M307.6 62L305.8 62L305.8 53.3L311.5 53.3L311.5 54.8L307.6 54.8L307.6 57.2L311.1 57.2L311.1 58.6L307.6 58.6L307.6 62ZM314.6 62.1L314.6 62.1Q314 62.1 313.5 61.9Q313.0 61.7 312.7 61.3Q312.4 60.8 312.4 60.2L312.4 60.2Q312.4 59.6 312.6 59.3Q312.8 58.9 313.2 58.7Q313.5 58.4 314.0 58.3Q314.4 58.2 314.9 58.2L314.9 58.2Q315.5 58.1 315.8 58.0Q316.2 58.0 316.3 57.9Q316.5 57.8 316.5 57.6L316.5 57.6L316.5 57.5Q316.5 57.3 316.4 57.1Q316.3 56.9 316.0 56.8Q315.8 56.7 315.5 56.7L315.5 56.7Q315.1 56.7 314.9 56.8Q314.6 56.9 314.5 57.0Q314.3 57.2 314.2 57.4L314.2 57.4L312.6 57.2Q312.8 56.6 313.2 56.2Q313.6 55.8 314.2 55.6Q314.8 55.4 315.5 55.4L315.5 55.4Q316.0 55.4 316.5 55.5Q317.0 55.6 317.4 55.9Q317.8 56.1 318.0 56.6Q318.3 57.0 318.3 57.6L318.3 57.6L318.3 62L316.6 62L316.6 61.1L316.5 61.1Q316.4 61.4 316.1 61.6Q315.9 61.9 315.5 62.0Q315.1 62.1 314.6 62.1ZM315.1 60.9L315.1 60.9Q315.5 60.9 315.8 60.7Q316.2 60.6 316.3 60.3Q316.5 60.0 316.5 59.7L316.5 59.7L316.5 58.9Q316.4 59.0 316.3 59.1Q316.1 59.1 315.9 59.1Q315.7 59.2 315.5 59.2Q315.4 59.2 315.2 59.2L315.2 59.2Q314.9 59.3 314.6 59.4Q314.4 59.5 314.3 59.7Q314.1 59.8 314.1 60.1L314.1 60.1Q314.1 60.4 314.3 60.5Q314.4 60.7 314.6 60.8Q314.8 60.9 315.1 60.9ZM322.4 62.1L322.4 62.1Q321.6 62.1 321.0 61.9Q320.4 61.7 320.0 61.2Q319.6 60.8 319.5 60.2L319.5 60.2L321.1 59.9Q321.2 60.4 321.6 60.6Q321.9 60.8 322.4 60.8L322.4 60.8Q322.9 60.8 323.2 60.6Q323.5 60.5 323.5 60.2L323.5 60.2Q323.5 59.9 323.3 59.7Q323.1 59.6 322.7 59.5L322.7 59.5L321.5 59.3Q320.6 59.1 320.1 58.6Q319.6 58.1 319.6 57.4L319.6 57.4Q319.6 56.8 320.0 56.3Q320.3 55.9 320.9 55.6Q321.6 55.4 322.4 55.4L322.4 55.4Q323.2 55.4 323.7 55.6Q324.3 55.8 324.7 56.2Q325.0 56.6 325.1 57.1L325.1 57.1L323.6 57.4Q323.5 57.1 323.2 56.8Q322.9 56.6 322.4 56.6L322.4 56.6Q322.0 56.6 321.7 56.8Q321.4 57.0 321.4 57.3L321.4 57.3Q321.4 57.5 321.6 57.7Q321.8 57.9 322.2 58.0L322.2 58.0L323.4 58.2Q324.4 58.4 324.8 58.8Q325.3 59.3 325.3 60.0L325.3 60.0Q325.3 60.6 324.9 61.1Q324.5 61.6 323.9 61.9Q323.2 62.1 322.4 62.1ZM328.5 55.4L329.7 55.4L329.7 56.8L328.5 56.8L328.5 60.1Q328.5 60.4 328.6 60.5Q328.8 60.7 329.1 60.7L329.1 60.7Q329.2 60.7 329.4 60.7Q329.6 60.6 329.7 60.6L329.7 60.6L329.9 61.9Q329.6 62.0 329.3 62.1Q329.0 62.1 328.8 62.1L328.8 62.1Q327.8 62.1 327.3 61.6Q326.8 61.1 326.8 60.2L326.8 60.2L326.8 56.8L325.8 56.8L325.8 55.4L326.8 55.4L326.8 53.9L328.5 53.9L328.5 55.4ZM332.4 62L330.4 62L333.4 53.3L335.7 53.3L338.8 62L336.8 62L336.1 60.0L333.0 60.0L332.4 62ZM333.5 58.6L335.7 58.6L335.4 57.8Q335.2 57.0 334.9 56L334.9 56Q334.7 55.4 334.5 54.7L334.5 54.7Q334.4 55.4 334.2 56.0L334.2 56.0Q334.0 57.0 333.7 57.8L333.7 57.8L333.5 58.6ZM341.7 62L339.9 62L339.9 53.3L343.3 53.3Q344.3 53.3 345.0 53.6Q345.7 54.0 346.0 54.7Q346.4 55.4 346.4 56.2L346.4 56.2Q346.4 57.1 346.0 57.7Q345.7 58.4 345.0 58.8Q344.2 59.1 343.2 59.1L343.2 59.1L341.7 59.1L341.7 62ZM341.7 54.7L341.7 57.7L343.0 57.7Q343.5 57.7 343.9 57.5Q344.2 57.3 344.4 57.0Q344.6 56.7 344.6 56.2Q344.6 55.8 344.4 55.4Q344.2 55.1 343.9 54.9Q343.5 54.7 342.9 54.7L342.9 54.7L341.7 54.7ZM347.7 53.3L349.4 53.3L349.4 62L347.7 62L347.7 53.3Z "/></g><mask id="satori_om-id-2-1"><rect x="33" y="84" width="794" height="25" fill="#fff" mask="url(#satori_om-id)"/></mask><mask id="satori_om-id-2-1-0"><rect x="33" y="91" width="80" height="12" fill="#fff" mask="url(#satori_om-id)"/></mask><g mask="url(#satori_om-id)" clip-path="url(#satori_cp-id)"><path fill="#60a5fa" d="M33.7 93.7L35.1 93.7L35.1 101L33.7 101L33.7 93.7ZM39.0 101L37.5 101L37.5 93.7L39.1 93.7L41.4 97.4Q41.6 97.7 41.8 98.0Q42.0 98.4 42.2 98.8L42.2 98.8Q42.2 99.0 42.3 99.2L42.3 99.2Q42.3 99.0 42.3 98.8L42.3 98.8Q42.3 98.3 42.3 97.9Q42.2 97.5 42.2 97.2L42.2 97.2L42.2 93.7L43.8 93.7L43.8 101L42.1 101L40.0 97.7Q39.8 97.3 39.6 96.9Q39.4 96.6 39.2 96.1L39.2 96.1Q39.1 95.9 38.9 95.6L38.9 95.6Q38.9 95.9 38.9 96.1L38.9 96.1Q39.0 96.6 39.0 97.0Q39.0 97.4 39.0 97.7L39.0 97.7L39.0 101ZM47.6 101L46.1 101L46.1 93.7L50.9 93.7L50.9 95.0L47.6 95.0L47.6 97.0L50.6 97.0L50.6 98.2L47.6 98.2L47.6 101ZM54.4 101L53.0 101L53.0 93.7L55.8 93.7Q56.6 93.7 57.2 94.0Q57.8 94.3 58.1 94.8Q58.4 95.4 58.4 96.1Q58.4 96.8 58.1 97.3Q57.8 97.9 57.2 98.1L57.2 98.1Q57.1 98.1 57.1 98.2L57.1 98.2L58.7 101L57.0 101L55.6 98.4L54.4 98.4L54.4 101ZM54.4 95.0L54.4 97.2L55.5 97.2Q56.0 97.2 56.3 97.1Q56.6 96.9 56.7 96.7Q56.9 96.5 56.9 96.1L56.9 96.1Q56.9 95.7 56.7 95.5Q56.6 95.2 56.3 95.1Q56.0 95.0 55.5 95.0L55.5 95.0L54.4 95.0ZM61.8 101L60.1 101L62.6 93.7L64.5 93.7L67.1 101L65.4 101L64.9 99.3L62.3 99.3L61.8 101ZM62.7 98.1L64.5 98.1L64.3 97.5Q64.1 96.8 63.8 96L63.8 96Q63.7 95.5 63.6 94.9L63.6 94.9Q63.4 95.5 63.3 96.0L63.3 96.0Q63.1 96.8 62.9 97.5L62.9 97.5L62.7 98.1ZM71.7 101.1L71.7 101.1Q70.8 101.1 70.1 100.8Q69.5 100.6 69.1 100.0Q68.8 99.5 68.7 98.7L68.7 98.7L70.2 98.7Q70.2 99.1 70.4 99.4Q70.6 99.6 70.9 99.7Q71.2 99.8 71.6 99.8L71.6 99.8Q72.0 99.8 72.3 99.7Q72.6 99.6 72.8 99.4Q73.0 99.2 73.0 98.9L73.0 98.9Q73.0 98.7 72.8 98.5Q72.7 98.3 72.4 98.2Q72.1 98.1 71.7 98.0L71.7 98.0L70.9 97.8Q70.0 97.6 69.5 97.1Q68.9 96.6 68.9 95.8L68.9 95.8Q68.9 95.2 69.3 94.7Q69.7 94.2 70.3 93.9Q70.9 93.6 71.7 93.6L71.7 93.6Q72.5 93.6 73.1 93.9Q73.7 94.2 74.0 94.7Q74.4 95.2 74.4 95.8L74.4 95.8L72.9 95.8Q72.9 95.4 72.6 95.1Q72.2 94.9 71.7 94.9L71.7 94.9Q71.3 94.9 71.0 95.0Q70.7 95.1 70.6 95.3Q70.5 95.5 70.5 95.7L70.5 95.7Q70.5 96.0 70.6 96.2Q70.8 96.3 71.1 96.5Q71.3 96.6 71.6 96.6L71.6 96.6L72.3 96.8Q72.8 96.9 73.1 97.1Q73.5 97.3 73.8 97.5Q74.1 97.8 74.3 98.1Q74.5 98.5 74.5 98.9L74.5 98.9Q74.5 99.6 74.1 100.1Q73.8 100.6 73.2 100.8Q72.5 101.1 71.7 101.1ZM78.5 95.0L76.2 95.0L76.2 93.7L82.2 93.7L82.2 95.0L80.0 95.0L80.0 101L78.5 101L78.5 95.0ZM85.7 101L84.2 101L84.2 93.7L87.1 93.7Q87.9 93.7 88.5 94.0Q89.0 94.3 89.3 94.8Q89.7 95.4 89.7 96.1Q89.7 96.8 89.3 97.3Q89.0 97.9 88.4 98.1L88.4 98.1Q88.4 98.1 88.4 98.2L88.4 98.2L89.9 101L88.3 101L86.9 98.4L85.7 98.4L85.7 101ZM85.7 95.0L85.7 97.2L86.8 97.2Q87.2 97.2 87.5 97.1Q87.8 96.9 88.0 96.7Q88.1 96.5 88.1 96.1L88.1 96.1Q88.1 95.7 88.0 95.5Q87.8 95.2 87.5 95.1Q87.2 95.0 86.8 95.0L86.8 95.0L85.7 95.0ZM94.8 101.1L94.8 101.1Q93.9 101.1 93.2 100.8Q92.5 100.4 92.2 99.8Q91.8 99.2 91.8 98.4L91.8 98.4L91.8 93.7L93.3 93.7L93.3 98.3Q93.3 98.7 93.5 99.1Q93.6 99.4 94.0 99.6Q94.3 99.8 94.8 99.8L94.8 99.8Q95.2 99.8 95.6 99.6Q95.9 99.4 96.1 99.1Q96.3 98.7 96.3 98.3L96.3 98.3L96.3 93.7L97.8 93.7L97.8 98.4Q97.8 99.2 97.4 99.8Q97.0 100.4 96.4 100.8Q95.7 101.1 94.8 101.1ZM103.3 101.1L103.3 101.1Q102.3 101.1 101.5 100.7Q100.8 100.2 100.3 99.4Q99.9 98.5 99.9 97.4L99.9 97.4Q99.9 96.2 100.3 95.3Q100.8 94.5 101.6 94.1Q102.3 93.6 103.3 93.6L103.3 93.6Q103.9 93.6 104.4 93.8Q105.0 94.0 105.4 94.3Q105.8 94.6 106.1 95.1Q106.3 95.6 106.4 96.2L106.4 96.2L104.9 96.2Q104.9 95.9 104.7 95.7Q104.6 95.4 104.4 95.3Q104.2 95.1 103.9 95.0Q103.6 95.0 103.3 95.0L103.3 95.0Q102.7 95.0 102.3 95.2Q101.9 95.5 101.7 96.1Q101.4 96.6 101.4 97.4L101.4 97.4Q101.4 98.2 101.7 98.7Q101.9 99.2 102.3 99.5Q102.7 99.8 103.3 99.8L103.3 99.8Q103.6 99.8 103.9 99.7Q104.1 99.6 104.4 99.4Q104.6 99.3 104.7 99.0Q104.9 98.8 104.9 98.5L104.9 98.5L106.4 98.5Q106.4 99.0 106.1 99.5Q105.9 99.9 105.5 100.3Q105.1 100.7 104.5 100.9Q104.0 101.1 103.3 101.1ZM110.4 95.0L108.2 95.0L108.2 93.7L114.1 93.7L114.1 95.0L111.9 95.0L111.9 101L110.4 101L110.4 95.0ZM119.2 101.1L119.2 101.1Q118.3 101.1 117.6 100.8Q116.9 100.4 116.5 99.8Q116.2 99.2 116.2 98.4L116.2 98.4L116.2 93.7L117.7 93.7L117.7 98.3Q117.7 98.7 117.9 99.1Q118.0 99.4 118.4 99.6Q118.7 99.8 119.2 99.8L119.2 99.8Q119.6 99.8 120.0 99.6Q120.3 99.4 120.5 99.1Q120.7 98.7 120.7 98.3L120.7 98.3L120.7 93.7L122.2 93.7L122.2 98.4Q122.2 99.2 121.8 99.8Q121.4 100.4 120.8 100.8Q120.1 101.1 119.2 101.1ZM126.0 101L124.5 101L124.5 93.7L127.3 93.7Q128.2 93.7 128.7 94.0Q129.3 94.3 129.6 94.8Q129.9 95.4 129.9 96.1Q129.9 96.8 129.6 97.3Q129.3 97.9 128.7 98.1L128.7 98.1Q128.7 98.1 128.6 98.2L128.6 98.2L130.2 101L128.5 101L127.1 98.4L126.0 98.4L126.0 101ZM126.0 95.0L126.0 97.2L127.1 97.2Q127.5 97.2 127.8 97.1Q128.1 96.9 128.2 96.7Q128.4 96.5 128.4 96.1L128.4 96.1Q128.4 95.7 128.2 95.5Q128.1 95.2 127.8 95.1Q127.5 95.0 127.1 95.0L127.1 95.0L126.0 95.0ZM136.9 101L132.1 101L132.1 93.7L136.9 93.7L136.9 95.0L133.5 95.0L133.5 96.7L136.7 96.7L136.7 97.9L133.5 97.9L133.5 99.8L136.9 99.8L136.9 101Z "/></g><mask id="satori_om-id-2-1-1"><rect x="129" y="84" width="244" height="25" fill="#fff" mask="url(#satori_om-id)"/></mask><defs><clipPath id="satori_bc-id-2-1-1-0" clip-path="url(#satori_cp-id)"><path x="129" y="84" width="98" height="25" d="M135,84 h86 a6,6 0 0 1 6,6 v13 a6,6 0 0 1 -6,6 h-86 a6,6 0 0 1 -6,-6 v-13 a6,6 0 0 1 6,-6"/></clipPath></defs><mask id="satori_om-id-2-1-1-0"><rect x="130" y="85" width="96" height="23" fill="#fff" mask="url(#satori_om-id)"/><path width="98" height="25" fill="none" stroke="#000" stroke-width="2" d="M130.757,85.757 A6,6 0 0 1 135,84 h86 a6,6 0 0 1 6,6 v13 a6,6 0 0 1 -6,6 h-86 a6,6 0 0 1 -6,-6 v-13 A6,6 0 0 1 130.757,85.757"/></mask><path x="129" y="84" width="98" height="25" fill="#60a5fa15" d="M135,84 h86 a6,6 0 0 1 6,6 v13 a6,6 0 0 1 -6,6 h-86 a6,6 0 0 1 -6,-6 v-13 a6,6 0 0 1 6,-6" clip-path="url(#satori_cp-id)" mask="url(#satori_om-id)"/><path width="98" height="25" clip-path="url(#satori_bc-id-2-1-1-0)" fill="none" stroke="#60a5fa35" stroke-width="2" d="M130.757,85.757 A6,6 0 0 1 135,84 h86 a6,6 0 0 1 6,6 v13 a6,6 0 0 1 -6,6 h-86 a6,6 0 0 1 -6,-6 v-13 A6,6 0 0 1 130.757,85.757"/><g mask="url(#satori_om-id)" clip-path="url(#satori_cp-id)"><path fill="rgba(225,220,255,0.85)" d="M145.6 101L143.8 101L143.8 92.3L147.2 92.3Q148.2 92.3 148.9 92.6Q149.6 93.0 150.0 93.7Q150.3 94.4 150.3 95.2L150.3 95.2Q150.3 96.1 149.9 96.7Q149.6 97.4 148.9 97.8Q148.2 98.1 147.2 98.1L147.2 98.1L145.6 98.1L145.6 101ZM145.6 93.7L145.6 96.7L146.9 96.7Q147.4 96.7 147.8 96.5Q148.1 96.3 148.3 96.0Q148.5 95.7 148.5 95.2Q148.5 94.8 148.3 94.4Q148.1 94.1 147.8 93.9Q147.4 93.7 146.9 93.7L146.9 93.7L145.6 93.7ZM154.5 101.1L154.5 101.1Q153.5 101.1 152.8 100.7Q152.0 100.3 151.6 99.5Q151.3 98.8 151.3 97.8L151.3 97.8Q151.3 96.7 151.6 96.0Q152.0 95.2 152.8 94.8Q153.5 94.4 154.5 94.4L154.5 94.4Q155.4 94.4 156.2 94.8Q156.9 95.2 157.3 96.0Q157.7 96.7 157.7 97.8L157.7 97.8Q157.7 98.8 157.3 99.5Q156.9 100.3 156.2 100.7Q155.4 101.1 154.5 101.1ZM154.5 99.7L154.5 99.7Q154.9 99.7 155.2 99.5Q155.6 99.2 155.7 98.8Q155.9 98.3 155.9 97.7L155.9 97.7Q155.9 97.2 155.7 96.7Q155.6 96.3 155.2 96.0Q154.9 95.8 154.5 95.8L154.5 95.8Q154.0 95.8 153.7 96.0Q153.4 96.3 153.2 96.7Q153.0 97.2 153.0 97.7L153.0 97.7Q153.0 98.3 153.2 98.8Q153.4 99.2 153.7 99.5Q154.0 99.7 154.5 99.7ZM161.5 101.1L161.5 101.1Q160.7 101.1 160.1 100.9Q159.5 100.7 159.1 100.2Q158.7 99.8 158.6 99.2L158.6 99.2L160.2 98.9Q160.4 99.4 160.7 99.6Q161 99.8 161.5 99.8L161.5 99.8Q162.0 99.8 162.3 99.6Q162.6 99.5 162.6 99.2L162.6 99.2Q162.6 98.9 162.4 98.7Q162.2 98.6 161.8 98.5L161.8 98.5L160.6 98.3Q159.7 98.1 159.2 97.6Q158.8 97.1 158.8 96.4L158.8 96.4Q158.8 95.8 159.1 95.3Q159.5 94.9 160.1 94.6Q160.7 94.4 161.5 94.4L161.5 94.4Q162.3 94.4 162.9 94.6Q163.4 94.8 163.8 95.2Q164.1 95.6 164.2 96.1L164.2 96.1L162.7 96.4Q162.6 96.1 162.3 95.8Q162.0 95.6 161.5 95.6L161.5 95.6Q161.1 95.6 160.8 95.8Q160.5 96.0 160.5 96.3L160.5 96.3Q160.5 96.5 160.7 96.7Q160.9 96.9 161.4 97.0L161.4 97.0L162.5 97.2Q163.5 97.4 164.0 97.8Q164.4 98.3 164.4 99.0L164.4 99.0Q164.4 99.6 164.0 100.1Q163.7 100.6 163.0 100.9Q162.3 101.1 161.5 101.1ZM167.6 94.4L168.9 94.4L168.9 95.8L167.6 95.8L167.6 99.1Q167.6 99.4 167.8 99.5Q167.9 99.7 168.2 99.7L168.2 99.7Q168.3 99.7 168.5 99.7Q168.7 99.6 168.8 99.6L168.8 99.6L169.0 100.9Q168.7 101.0 168.5 101.1Q168.2 101.1 167.9 101.1L167.9 101.1Q166.9 101.1 166.4 100.6Q165.9 100.1 165.9 99.2L165.9 99.2L165.9 95.8L165.0 95.8L165.0 94.4L165.9 94.4L165.9 92.9L167.6 92.9L167.6 94.4ZM172.9 103.6L172.9 103.6Q172.1 103.6 171.5 103.4Q170.9 103.2 170.5 102.8Q170.1 102.4 170.0 102.0L170.0 102.0L171.5 101.6Q171.6 101.7 171.7 101.9Q171.9 102.1 172.2 102.2Q172.5 102.3 172.9 102.3L172.9 102.3Q173.6 102.3 174.0 102.0Q174.3 101.7 174.3 101.0L174.3 101.0L174.3 99.8L174.2 99.8Q174.1 100.1 173.9 100.3Q173.6 100.6 173.3 100.8Q172.9 100.9 172.4 100.9L172.4 100.9Q171.7 100.9 171.0 100.6Q170.4 100.2 170.1 99.5Q169.7 98.8 169.7 97.7L169.7 97.7Q169.7 96.6 170.1 95.9Q170.5 95.1 171.1 94.7Q171.7 94.4 172.4 94.4L172.4 94.4Q172.9 94.4 173.3 94.6Q173.7 94.7 173.9 95.0Q174.2 95.3 174.3 95.6L174.3 95.6L174.4 95.6L174.4 94.4L176.1 94.4L176.1 100.9Q176.1 101.8 175.7 102.4Q175.3 103.0 174.6 103.3Q173.8 103.6 172.9 103.6ZM172.9 99.6L172.9 99.6Q173.4 99.6 173.7 99.3Q174.0 99.1 174.2 98.7Q174.3 98.3 174.3 97.7L174.3 97.7Q174.3 97.1 174.2 96.7Q174.0 96.3 173.7 96.0Q173.4 95.8 172.9 95.8L172.9 95.8Q172.5 95.8 172.2 96.0Q171.9 96.3 171.7 96.7Q171.5 97.1 171.5 97.7L171.5 97.7Q171.5 98.3 171.7 98.7Q171.9 99.1 172.2 99.3Q172.5 99.6 172.9 99.6ZM179.3 101L177.6 101L177.6 94.4L179.3 94.4L179.3 95.6L179.4 95.6Q179.5 95.0 180.0 94.7Q180.4 94.4 180.9 94.4L180.9 94.4Q181.1 94.4 181.2 94.4Q181.4 94.4 181.5 94.4L181.5 94.4L181.5 96.0Q181.4 95.9 181.2 95.9Q180.9 95.9 180.7 95.9L180.7 95.9Q180.3 95.9 180.0 96.1Q179.7 96.2 179.5 96.6Q179.3 96.9 179.3 97.3L179.3 97.3L179.3 101ZM185.4 101.1L185.4 101.1Q184.4 101.1 183.7 100.7Q183.0 100.3 182.6 99.6Q182.2 98.8 182.2 97.8L182.2 97.8Q182.2 96.7 182.6 96.0Q183.0 95.2 183.7 94.8Q184.4 94.4 185.3 94.4L185.3 94.4Q186.0 94.4 186.5 94.6Q187.1 94.8 187.5 95.2Q187.9 95.6 188.2 96.2Q188.4 96.8 188.4 97.7L188.4 97.7L188.4 98.2L183.9 98.2Q184.0 98.7 184.1 99.0L184.1 99.0Q184.3 99.4 184.7 99.6Q185 99.8 185.5 99.8L185.5 99.8Q185.8 99.8 186.0 99.7Q186.3 99.6 186.5 99.5Q186.6 99.3 186.7 99.0L186.7 99.0L188.3 99.3Q188.2 99.9 187.8 100.3Q187.4 100.7 186.8 100.9Q186.2 101.1 185.4 101.1ZM183.9 97.1L183.9 97.1L186.7 97.1Q186.7 96.8 186.6 96.5L186.6 96.5Q186.4 96.1 186.1 95.9Q185.8 95.7 185.4 95.7L185.4 95.7Q184.9 95.7 184.6 95.9Q184.3 96.1 184.1 96.5L184.1 96.5Q184.0 96.7 183.9 97.1ZM192.9 101.1L192.9 101.1Q191.8 101.1 191.0 100.8Q190.3 100.5 189.8 99.9Q189.4 99.2 189.4 98.3L189.4 98.3L191.1 98.3Q191.1 98.7 191.4 99.0Q191.6 99.3 192.0 99.5Q192.4 99.6 192.8 99.6L192.8 99.6Q193.3 99.6 193.7 99.5Q194.0 99.3 194.2 99.1Q194.4 98.8 194.4 98.5L194.4 98.5Q194.4 98.2 194.2 98.0Q194.1 97.8 193.7 97.7Q193.4 97.5 192.9 97.4L192.9 97.4L192.0 97.2Q190.9 96.9 190.2 96.3Q189.6 95.7 189.6 94.8L189.6 94.8Q189.6 94.0 190.0 93.4Q190.4 92.8 191.2 92.5Q191.9 92.2 192.9 92.2L192.9 92.2Q193.8 92.2 194.6 92.5Q195.3 92.8 195.7 93.4Q196.1 94.0 196.1 94.8L196.1 94.8L194.4 94.8Q194.3 94.2 193.9 93.9Q193.5 93.7 192.9 93.7L192.9 93.7Q192.4 93.7 192.1 93.8Q191.8 93.9 191.6 94.1Q191.4 94.4 191.4 94.7L191.4 94.7Q191.4 95.0 191.6 95.2Q191.8 95.4 192.1 95.5Q192.5 95.7 192.8 95.8L192.8 95.8L193.6 96.0Q194.2 96.1 194.6 96.3Q195.1 96.5 195.5 96.8Q195.8 97.1 196.0 97.5Q196.2 98.0 196.2 98.5L196.2 98.5Q196.2 99.3 195.8 99.9Q195.4 100.5 194.7 100.8Q193.9 101.1 192.9 101.1ZM201.3 101.1L201.3 101.1Q200.2 101.1 199.3 100.6Q198.3 100.1 197.8 99.1Q197.3 98.1 197.3 96.6L197.3 96.6Q197.3 95.2 197.8 94.2Q198.3 93.2 199.3 92.7Q200.2 92.2 201.3 92.2L201.3 92.2Q202.5 92.2 203.4 92.7Q204.3 93.2 204.9 94.2Q205.4 95.2 205.4 96.6L205.4 96.6Q205.4 98.1 204.9 99.1L204.9 99.1Q204.5 99.7 204.1 100.1L204.1 100.1L205.3 101.7L203.6 101.7L202.9 100.8Q202.2 101.1 201.3 101.1ZM201.9 99.5L200.8 98L202.3 98L203.0 98.8Q203.2 98.6 203.3 98.2L203.3 98.2Q203.6 97.6 203.6 96.6L203.6 96.6Q203.6 95.7 203.3 95.0Q203.0 94.4 202.5 94.1Q202.0 93.7 201.3 93.7L201.3 93.7Q200.7 93.7 200.2 94.1Q199.7 94.4 199.4 95.1Q199.1 95.7 199.1 96.6L199.1 96.6Q199.1 97.6 199.4 98.2Q199.7 98.9 200.2 99.2Q200.7 99.5 201.3 99.5L201.3 99.5Q201.6 99.5 201.9 99.5L201.9 99.5ZM212.4 101L206.8 101L206.8 92.3L208.6 92.3L208.6 99.5L212.4 99.5L212.4 101Z "/></g><defs><clipPath id="satori_bc-id-2-1-1-1" clip-path="url(#satori_cp-id)"><path x="234" y="84" width="61" height="25" d="M240,84 h49 a6,6 0 0 1 6,6 v13 a6,6 0 0 1 -6,6 h-49 a6,6 0 0 1 -6,-6 v-13 a6,6 0 0 1 6,-6"/></clipPath></defs><mask id="satori_om-id-2-1-1-1"><rect x="235" y="85" width="59" height="23" fill="#fff" mask="url(#satori_om-id)"/><path width="61" height="25" fill="none" stroke="#000" stroke-width="2" d="M235.757,85.757 A6,6 0 0 1 240,84 h49 a6,6 0 0 1 6,6 v13 a6,6 0 0 1 -6,6 h-49 a6,6 0 0 1 -6,-6 v-13 A6,6 0 0 1 235.757,85.757"/></mask><path x="234" y="84" width="61" height="25" fill="#60a5fa15" d="M240,84 h49 a6,6 0 0 1 6,6 v13 a6,6 0 0 1 -6,6 h-49 a6,6 0 0 1 -6,-6 v-13 a6,6 0 0 1 6,-6" clip-path="url(#satori_cp-id)" mask="url(#satori_om-id)"/><path width="61" height="25" clip-path="url(#satori_bc-id-2-1-1-1)" fill="none" stroke="#60a5fa35" stroke-width="2" d="M235.757,85.757 A6,6 0 0 1 240,84 h49 a6,6 0 0 1 6,6 v13 a6,6 0 0 1 -6,6 h-49 a6,6 0 0 1 -6,-6 v-13 A6,6 0 0 1 235.757,85.757"/><g mask="url(#satori_om-id)" clip-path="url(#satori_cp-id)"><path fill="rgba(225,220,255,0.85)" d="M250.6 101L248.8 101L248.8 92.3L252.2 92.3Q253.2 92.3 253.9 92.6Q254.6 93.0 255.0 93.6Q255.3 94.3 255.3 95.1Q255.3 96.0 254.9 96.6Q254.6 97.2 253.9 97.5L253.9 97.5Q253.8 97.6 253.8 97.6L253.8 97.6L255.6 101L253.6 101L252.0 97.9L250.6 97.9L250.6 101ZM250.6 93.7L250.6 96.4L251.9 96.4Q252.4 96.4 252.8 96.3Q253.1 96.1 253.3 95.8Q253.5 95.5 253.5 95.1L253.5 95.1Q253.5 94.7 253.3 94.4Q253.1 94.1 252.8 93.9Q252.4 93.7 251.9 93.7L251.9 93.7L250.6 93.7ZM259.6 101.1L259.6 101.1Q258.6 101.1 257.9 100.7Q257.1 100.3 256.7 99.6Q256.4 98.8 256.4 97.8L256.4 97.8Q256.4 96.7 256.7 96.0Q257.1 95.2 257.8 94.8Q258.5 94.4 259.5 94.4L259.5 94.4Q260.1 94.4 260.7 94.6Q261.3 94.8 261.7 95.2Q262.1 95.6 262.3 96.2Q262.6 96.8 262.6 97.7L262.6 97.7L262.6 98.2L258.1 98.2Q258.1 98.7 258.3 99.0L258.3 99.0Q258.5 99.4 258.8 99.6Q259.2 99.8 259.6 99.8L259.6 99.8Q259.9 99.8 260.2 99.7Q260.4 99.6 260.6 99.5Q260.8 99.3 260.9 99.0L260.9 99.0L262.5 99.3Q262.3 99.9 261.9 100.3Q261.5 100.7 260.9 100.9Q260.4 101.1 259.6 101.1ZM258.1 97.1L258.1 97.1L260.9 97.1Q260.8 96.8 260.7 96.5L260.7 96.5Q260.6 96.1 260.3 95.9Q260.0 95.7 259.5 95.7L259.5 95.7Q259.1 95.7 258.7 95.9Q258.4 96.1 258.3 96.5L258.3 96.5Q258.1 96.7 258.1 97.1ZM266.2 101.1L266.2 101.1Q265.4 101.1 264.8 100.7Q264.2 100.3 263.9 99.6Q263.5 98.8 263.5 97.7L263.5 97.7Q263.5 96.6 263.9 95.9Q264.2 95.1 264.8 94.7Q265.4 94.4 266.2 94.4L266.2 94.4Q266.7 94.4 267.1 94.6Q267.5 94.7 267.7 95.0Q267.9 95.3 268.0 95.6L268.0 95.6L268.1 95.6L268.1 92.3L269.8 92.3L269.8 101L268.1 101L268.1 100.0L268.0 100.0Q267.9 100.2 267.7 100.5Q267.4 100.7 267.1 100.9Q266.7 101.1 266.2 101.1ZM266.7 99.7L266.7 99.7Q267.2 99.7 267.5 99.5Q267.8 99.2 268.0 98.8Q268.1 98.3 268.1 97.7L268.1 97.7Q268.1 97.1 268.0 96.7Q267.8 96.3 267.5 96.0Q267.2 95.8 266.7 95.8L266.7 95.8Q266.3 95.8 265.9 96.0Q265.6 96.3 265.5 96.7Q265.3 97.2 265.3 97.7L265.3 97.7Q265.3 98.3 265.5 98.8Q265.6 99.2 265.9 99.4Q266.3 99.7 266.7 99.7ZM273.1 101L271.3 101L271.3 94.4L273.1 94.4L273.1 101ZM272.2 93.6L272.2 93.6Q271.8 93.6 271.5 93.3Q271.3 93.1 271.3 92.7L271.3 92.7Q271.3 92.3 271.5 92.1Q271.8 91.8 272.2 91.8L272.2 91.8Q272.6 91.8 272.9 92.0Q273.2 92.3 273.2 92.7L273.2 92.7Q273.2 93.1 272.9 93.3Q272.6 93.6 272.2 93.6ZM277.2 101.1L277.2 101.1Q276.4 101.1 275.8 100.9Q275.2 100.7 274.8 100.2Q274.4 99.8 274.3 99.2L274.3 99.2L275.9 98.9Q276.1 99.4 276.4 99.6Q276.7 99.8 277.3 99.8L277.3 99.8Q277.8 99.8 278.0 99.6Q278.3 99.5 278.3 99.2L278.3 99.2Q278.3 98.9 278.1 98.7Q277.9 98.6 277.5 98.5L277.5 98.5L276.4 98.3Q275.4 98.1 274.9 97.6Q274.5 97.1 274.5 96.4L274.5 96.4Q274.5 95.8 274.8 95.3Q275.2 94.9 275.8 94.6Q276.4 94.4 277.2 94.4L277.2 94.4Q278 94.4 278.6 94.6Q279.1 94.8 279.5 95.2Q279.8 95.6 280.0 96.1L280.0 96.1L278.4 96.4Q278.3 96.1 278.0 95.8Q277.7 95.6 277.3 95.6L277.3 95.6Q276.8 95.6 276.5 95.8Q276.2 96.0 276.2 96.3L276.2 96.3Q276.2 96.5 276.4 96.7Q276.6 96.9 277.1 97.0L277.1 97.0L278.3 97.2Q279.2 97.4 279.7 97.8Q280.1 98.3 280.1 99.0L280.1 99.0Q280.1 99.6 279.8 100.1Q279.4 100.6 278.7 100.9Q278.1 101.1 277.2 101.1Z "/></g><defs><clipPath id="satori_bc-id-2-1-1-2" clip-path="url(#satori_cp-id)"><path x="302" y="84" width="71" height="25" d="M308,84 h59 a6,6 0 0 1 6,6 v13 a6,6 0 0 1 -6,6 h-59 a6,6 0 0 1 -6,-6 v-13 a6,6 0 0 1 6,-6"/></clipPath></defs><mask id="satori_om-id-2-1-1-2"><rect x="303" y="85" width="69" height="23" fill="#fff" mask="url(#satori_om-id)"/><path width="71" height="25" fill="none" stroke="#000" stroke-width="2" d="M303.757,85.757 A6,6 0 0 1 308,84 h59 a6,6 0 0 1 6,6 v13 a6,6 0 0 1 -6,6 h-59 a6,6 0 0 1 -6,-6 v-13 A6,6 0 0 1 303.757,85.757"/></mask><path x="302" y="84" width="71" height="25" fill="#60a5fa15" d="M308,84 h59 a6,6 0 0 1 6,6 v13 a6,6 0 0 1 -6,6 h-59 a6,6 0 0 1 -6,-6 v-13 a6,6 0 0 1 6,-6" clip-path="url(#satori_cp-id)" mask="url(#satori_om-id)"/><path width="71" height="25" clip-path="url(#satori_bc-id-2-1-1-2)" fill="none" stroke="#60a5fa35" stroke-width="2" d="M303.757,85.757 A6,6 0 0 1 308,84 h59 a6,6 0 0 1 6,6 v13 a6,6 0 0 1 -6,6 h-59 a6,6 0 0 1 -6,-6 v-13 A6,6 0 0 1 303.757,85.757"/><g mask="url(#satori_om-id)" clip-path="url(#satori_cp-id)"><path fill="rgba(225,220,255,0.85)" d="M319.9 101L319.9 101L316.8 101L316.8 92.3L319.9 92.3Q321.2 92.3 322.1 92.8Q323.1 93.3 323.6 94.3Q324.1 95.3 324.1 96.6L324.1 96.6Q324.1 98.0 323.6 99.0Q323.1 100.0 322.1 100.5Q321.2 101 319.9 101ZM318.6 93.8L318.6 99.5L319.8 99.5Q320.6 99.5 321.2 99.2Q321.8 98.9 322.0 98.2Q322.3 97.6 322.3 96.6L322.3 96.6Q322.3 95.7 322.0 95.0Q321.8 94.4 321.2 94.1Q320.6 93.8 319.8 93.8L319.8 93.8L318.6 93.8ZM328.3 101.1L328.3 101.1Q327.4 101.1 326.6 100.7Q325.9 100.3 325.5 99.5Q325.1 98.8 325.1 97.8L325.1 97.8Q325.1 96.7 325.5 96.0Q325.9 95.2 326.6 94.8Q327.4 94.4 328.3 94.4L328.3 94.4Q329.3 94.4 330.1 94.8Q330.8 95.2 331.2 96.0Q331.6 96.7 331.6 97.8L331.6 97.8Q331.6 98.8 331.2 99.5Q330.8 100.3 330.1 100.7Q329.3 101.1 328.3 101.1ZM328.3 99.7L328.3 99.7Q328.8 99.7 329.1 99.5Q329.4 99.2 329.6 98.8Q329.8 98.3 329.8 97.7L329.8 97.7Q329.8 97.2 329.6 96.7Q329.4 96.3 329.1 96.0Q328.8 95.8 328.3 95.8L328.3 95.8Q327.9 95.8 327.6 96.0Q327.3 96.3 327.1 96.7Q326.9 97.2 326.9 97.7L326.9 97.7Q326.9 98.3 327.1 98.8Q327.3 99.2 327.6 99.5Q327.9 99.7 328.3 99.7ZM335.7 101.1L335.7 101.1Q334.7 101.1 334.0 100.7Q333.3 100.3 332.9 99.5Q332.5 98.8 332.5 97.8L332.5 97.8Q332.5 96.7 332.9 96.0Q333.3 95.2 334.0 94.8Q334.7 94.4 335.7 94.4L335.7 94.4Q336.3 94.4 336.8 94.5Q337.3 94.7 337.7 95.0Q338.0 95.2 338.3 95.6Q338.5 96.0 338.6 96.5L338.6 96.5L337.0 96.9Q336.9 96.6 336.8 96.4Q336.7 96.2 336.5 96.0Q336.4 95.9 336.2 95.8Q336.0 95.8 335.7 95.8L335.7 95.8Q335.3 95.8 334.9 96.0Q334.6 96.3 334.5 96.7Q334.3 97.2 334.3 97.7L334.3 97.7Q334.3 98.3 334.5 98.8Q334.6 99.2 334.9 99.5Q335.3 99.7 335.7 99.7L335.7 99.7Q336.0 99.7 336.2 99.7Q336.4 99.6 336.6 99.4Q336.7 99.3 336.8 99.1Q336.9 98.9 337.0 98.6L337.0 98.6L338.6 98.9Q338.5 99.4 338.3 99.8Q338.0 100.2 337.7 100.5Q337.3 100.8 336.8 101.0Q336.3 101.1 335.7 101.1ZM341.6 101L339.8 101L339.8 92.3L341.6 92.3L341.6 97.0L341.7 97.0L343.8 94.4L345.9 94.4L343.4 97.3L346.0 101L343.9 101L342.1 98.3L341.6 98.9L341.6 101ZM349.8 101.1L349.8 101.1Q348.8 101.1 348.0 100.7Q347.3 100.3 346.9 99.6Q346.5 98.8 346.5 97.8L346.5 97.8Q346.5 96.7 346.9 96.0Q347.3 95.2 348.0 94.8Q348.7 94.4 349.7 94.4L349.7 94.4Q350.3 94.4 350.9 94.6Q351.4 94.8 351.8 95.2Q352.3 95.6 352.5 96.2Q352.7 96.8 352.7 97.7L352.7 97.7L352.7 98.2L348.3 98.2Q348.3 98.7 348.5 99.0L348.5 99.0Q348.6 99.4 349.0 99.6Q349.3 99.8 349.8 99.8L349.8 99.8Q350.1 99.8 350.3 99.7Q350.6 99.6 350.8 99.5Q351.0 99.3 351.1 99.0L351.1 99.0L352.6 99.3Q352.5 99.9 352.1 100.3Q351.7 100.7 351.1 100.9Q350.5 101.1 349.8 101.1ZM348.3 97.1L348.3 97.1L351.1 97.1Q351.0 96.8 350.9 96.5L350.9 96.5Q350.8 96.1 350.4 95.9Q350.1 95.7 349.7 95.7L349.7 95.7Q349.2 95.7 348.9 95.9Q348.6 96.1 348.4 96.5L348.4 96.5Q348.3 96.7 348.3 97.1ZM355.7 101L353.9 101L353.9 94.4L355.6 94.4L355.6 95.6L355.7 95.6Q355.9 95.0 356.3 94.7Q356.7 94.4 357.3 94.4L357.3 94.4Q357.4 94.4 357.6 94.4Q357.7 94.4 357.9 94.4L357.9 94.4L357.9 96.0Q357.7 95.9 357.5 95.9Q357.3 95.9 357.1 95.9L357.1 95.9Q356.7 95.9 356.4 96.1Q356.1 96.2 355.9 96.6Q355.7 96.9 355.7 97.3L355.7 97.3L355.7 101Z "/></g><mask id="satori_om-id-2-2"><rect x="33" y="123" width="794" height="25" fill="#fff" mask="url(#satori_om-id)"/></mask><mask id="satori_om-id-2-2-0"><rect x="33" y="124" width="80" height="24" fill="#fff" mask="url(#satori_om-id)"/></mask><g mask="url(#satori_om-id)" clip-path="url(#satori_cp-id)"><path fill="#fb7185" d="M35.1 134L33.7 134L33.7 126.7L38.4 126.7L38.4 128.0L35.1 128.0L35.1 130.0L38.1 130.0L38.1 131.2L35.1 131.2L35.1 134ZM43.7 134.1L43.7 134.1Q42.8 134.1 42.0 133.7Q41.2 133.2 40.8 132.4Q40.3 131.5 40.3 130.4L40.3 130.4Q40.3 129.2 40.8 128.3Q41.2 127.5 42.0 127.1Q42.8 126.6 43.7 126.6L43.7 126.6Q44.7 126.6 45.5 127.1Q46.2 127.5 46.7 128.3Q47.1 129.2 47.1 130.4L47.1 130.4Q47.1 131.5 46.7 132.4Q46.2 133.2 45.5 133.7Q44.7 134.1 43.7 134.1ZM43.7 132.8L43.7 132.8Q44.3 132.8 44.7 132.5Q45.1 132.2 45.4 131.7Q45.6 131.1 45.6 130.4L45.6 130.4Q45.6 129.6 45.4 129.0Q45.1 128.5 44.7 128.2Q44.3 128.0 43.7 128.0L43.7 128.0Q43.2 128.0 42.7 128.2Q42.3 128.5 42.1 129.0Q41.8 129.6 41.8 130.4L41.8 130.4Q41.8 131.1 42.1 131.7Q42.3 132.2 42.7 132.5Q43.2 132.8 43.7 132.8ZM52.4 134.1L52.4 134.1Q51.4 134.1 50.7 133.7Q49.9 133.2 49.5 132.4Q49.0 131.5 49.0 130.4L49.0 130.4Q49.0 129.2 49.5 128.3Q49.9 127.5 50.7 127.1Q51.5 126.6 52.4 126.6L52.4 126.6Q53.0 126.6 53.6 126.8Q54.1 127.0 54.5 127.3Q54.9 127.6 55.2 128.1Q55.5 128.6 55.5 129.2L55.5 129.2L54.0 129.2Q54.0 128.9 53.8 128.7Q53.7 128.4 53.5 128.3Q53.3 128.1 53.0 128.0Q52.8 128.0 52.4 128.0L52.4 128.0Q51.9 128.0 51.4 128.2Q51.0 128.5 50.8 129.1Q50.5 129.6 50.5 130.4L50.5 130.4Q50.5 131.2 50.8 131.7Q51.0 132.2 51.5 132.5Q51.9 132.8 52.4 132.8L52.4 132.8Q52.7 132.8 53.0 132.7Q53.3 132.6 53.5 132.4Q53.7 132.3 53.8 132.0Q54.0 131.8 54.0 131.5L54.0 131.5L55.5 131.5Q55.5 132.0 55.2 132.5Q55.0 132.9 54.6 133.3Q54.2 133.7 53.7 133.9Q53.1 134.1 52.4 134.1ZM60.6 134.1L60.6 134.1Q59.7 134.1 59.1 133.8Q58.4 133.4 58.0 132.8Q57.6 132.2 57.6 131.4L57.6 131.4L57.6 126.7L59.1 126.7L59.1 131.3Q59.1 131.7 59.3 132.1Q59.5 132.4 59.8 132.6Q60.2 132.8 60.6 132.8L60.6 132.8Q61.1 132.8 61.4 132.6Q61.8 132.4 62.0 132.1Q62.1 131.7 62.1 131.3L62.1 131.3L62.1 126.7L63.6 126.7L63.6 131.4Q63.6 132.2 63.3 132.8Q62.9 133.4 62.2 133.8Q61.5 134.1 60.6 134.1ZM68.6 134.1L68.6 134.1Q67.7 134.1 67.1 133.8Q66.4 133.6 66.1 133.0Q65.7 132.5 65.7 131.7L65.7 131.7L67.2 131.7Q67.2 132.1 67.4 132.4Q67.6 132.6 67.9 132.7Q68.2 132.8 68.6 132.8L68.6 132.8Q69.0 132.8 69.3 132.7Q69.6 132.6 69.8 132.4Q69.9 132.2 69.9 131.9L69.9 131.9Q69.9 131.7 69.8 131.5Q69.6 131.3 69.3 131.2Q69.1 131.1 68.7 131.0L68.7 131.0L67.9 130.8Q66.9 130.6 66.4 130.1Q65.9 129.6 65.9 128.8L65.9 128.8Q65.9 128.2 66.3 127.7Q66.6 127.2 67.2 126.9Q67.8 126.6 68.6 126.6L68.6 126.6Q69.4 126.6 70.0 126.9Q70.6 127.2 71.0 127.7Q71.3 128.2 71.3 128.8L71.3 128.8L69.9 128.8Q69.8 128.4 69.5 128.1Q69.2 127.9 68.6 127.9L68.6 127.9Q68.2 127.9 68.0 128.0Q67.7 128.1 67.6 128.3Q67.4 128.5 67.4 128.7L67.4 128.7Q67.4 129.0 67.6 129.2Q67.8 129.3 68.0 129.5Q68.3 129.6 68.6 129.6L68.6 129.6L69.3 129.8Q69.7 129.9 70.1 130.1Q70.5 130.3 70.8 130.5Q71.1 130.8 71.3 131.1Q71.4 131.5 71.4 131.9L71.4 131.9Q71.4 132.6 71.1 133.1Q70.8 133.6 70.1 133.8Q69.5 134.1 68.6 134.1Z M34.9 146L33.2 146L35.7 138.7L37.7 138.7L40.2 146L38.6 146L38.0 144.3L35.4 144.3L34.9 146ZM35.8 143.1L37.6 143.1L37.4 142.5Q37.2 141.8 37.0 141L37.0 141Q36.8 140.5 36.7 139.9L36.7 139.9Q36.5 140.5 36.4 141.0L36.4 141.0Q36.2 141.8 36.0 142.5L36.0 142.5L35.8 143.1ZM43.6 146L42.1 146L42.1 138.7L45.0 138.7Q45.8 138.7 46.4 139.0Q47.0 139.3 47.3 139.8Q47.6 140.4 47.6 141.1Q47.6 141.8 47.3 142.3Q46.9 142.9 46.4 143.1L46.4 143.1Q46.3 143.1 46.3 143.2L46.3 143.2L47.8 146L46.2 146L44.8 143.4L43.6 143.4L43.6 146ZM43.6 140.0L43.6 142.2L44.7 142.2Q45.1 142.2 45.4 142.1Q45.7 141.9 45.9 141.7Q46.0 141.5 46.0 141.1L46.0 141.1Q46.0 140.7 45.9 140.5Q45.7 140.2 45.4 140.1Q45.1 140.0 44.7 140.0L44.7 140.0L43.6 140.0ZM54.6 146L49.7 146L49.7 138.7L54.6 138.7L54.6 140.0L51.2 140.0L51.2 141.7L54.3 141.7L54.3 142.9L51.2 142.9L51.2 144.8L54.6 144.8L54.6 146ZM58.0 146L56.3 146L58.8 138.7L60.8 138.7L63.3 146L61.7 146L61.1 144.3L58.5 144.3L58.0 146ZM58.9 143.1L60.7 143.1L60.5 142.5Q60.3 141.8 60.1 141L60.1 141Q59.9 140.5 59.8 139.9L59.8 139.9Q59.6 140.5 59.5 141.0L59.5 141.0Q59.3 141.8 59.1 142.5L59.1 142.5L58.9 143.1ZM67.9 146.1L67.9 146.1Q67.0 146.1 66.4 145.8Q65.7 145.6 65.4 145.0Q65.0 144.5 65.0 143.7L65.0 143.7L66.4 143.7Q66.5 144.1 66.7 144.4Q66.8 144.6 67.2 144.7Q67.5 144.8 67.9 144.8L67.9 144.8Q68.3 144.8 68.6 144.7Q68.9 144.6 69.0 144.4Q69.2 144.2 69.2 143.9L69.2 143.9Q69.2 143.7 69.1 143.5Q68.9 143.3 68.6 143.2Q68.4 143.1 68.0 143.0L68.0 143.0L67.2 142.8Q66.2 142.6 65.7 142.1Q65.2 141.6 65.2 140.8L65.2 140.8Q65.2 140.2 65.5 139.7Q65.9 139.2 66.5 138.9Q67.1 138.6 67.9 138.6L67.9 138.6Q68.7 138.6 69.3 138.9Q69.9 139.2 70.3 139.7Q70.6 140.2 70.6 140.8L70.6 140.8L69.2 140.8Q69.1 140.4 68.8 140.1Q68.5 139.9 67.9 139.9L67.9 139.9Q67.5 139.9 67.3 140.0Q67.0 140.1 66.9 140.3Q66.7 140.5 66.7 140.7L66.7 140.7Q66.7 141.0 66.9 141.2Q67.0 141.3 67.3 141.5Q67.6 141.6 67.9 141.6L67.9 141.6L68.5 141.8Q69.0 141.9 69.4 142.1Q69.8 142.3 70.1 142.5Q70.4 142.8 70.5 143.1Q70.7 143.5 70.7 143.9L70.7 143.9Q70.7 144.6 70.4 145.1Q70.0 145.6 69.4 145.8Q68.8 146.1 67.9 146.1Z "/></g><mask id="satori_om-id-2-2-1"><rect x="129" y="123" width="372" height="25" fill="#fff" mask="url(#satori_om-id)"/></mask><defs><clipPath id="satori_bc-id-2-2-1-0" clip-path="url(#satori_cp-id)"><path x="129" y="123" width="63" height="25" d="M135,123 h51 a6,6 0 0 1 6,6 v13 a6,6 0 0 1 -6,6 h-51 a6,6 0 0 1 -6,-6 v-13 a6,6 0 0 1 6,-6"/></clipPath></defs><mask id="satori_om-id-2-2-1-0"><rect x="130" y="124" width="61" height="23" fill="#fff" mask="url(#satori_om-id)"/><path width="63" height="25" fill="none" stroke="#000" stroke-width="2" d="M130.757,124.757 A6,6 0 0 1 135,123 h51 a6,6 0 0 1 6,6 v13 a6,6 0 0 1 -6,6 h-51 a6,6 0 0 1 -6,-6 v-13 A6,6 0 0 1 130.757,124.757"/></mask><path x="129" y="123" width="63" height="25" fill="#fb718515" d="M135,123 h51 a6,6 0 0 1 6,6 v13 a6,6 0 0 1 -6,6 h-51 a6,6 0 0 1 -6,-6 v-13 a6,6 0 0 1 6,-6" clip-path="url(#satori_cp-id)" mask="url(#satori_om-id)"/><path width="63" height="25" clip-path="url(#satori_bc-id-2-2-1-0)" fill="none" stroke="#fb718535" stroke-width="2" d="M130.757,124.757 A6,6 0 0 1 135,123 h51 a6,6 0 0 1 6,6 v13 a6,6 0 0 1 -6,6 h-51 a6,6 0 0 1 -6,-6 v-13 A6,6 0 0 1 130.757,124.757"/><g mask="url(#satori_om-id)" clip-path="url(#satori_cp-id)"><path fill="rgba(225,220,255,0.85)" d="M145.3 140L143.3 140L146.3 131.3L148.6 131.3L151.7 140L149.7 140L149.0 138.0L145.9 138.0L145.3 140ZM146.4 136.6L148.5 136.6L148.3 135.8Q148.0 135.0 147.8 134L147.8 134Q147.6 133.4 147.4 132.7L147.4 132.7Q147.2 133.4 147.1 134.0L147.1 134.0Q146.8 135.0 146.6 135.8L146.6 135.8L146.4 136.6ZM152.8 131.3L154.5 131.3L154.5 140L152.8 140L152.8 131.3ZM158.3 130.9L159.8 130.9L157.0 141.3L155.5 141.3L158.3 130.9ZM162.6 140L160.8 140L160.8 131.3L163.5 131.3L164.9 135.3Q165.0 135.6 165.1 136.0Q165.3 136.4 165.4 137.0L165.4 137.0Q165.5 137.5 165.6 137.9L165.6 137.9Q165.7 137.5 165.8 137.0L165.8 137.0Q165.9 136.5 166.0 136.0Q166.1 135.6 166.2 135.3L166.2 135.3L167.6 131.3L170.4 131.3L170.4 140L168.6 140L168.6 135.9Q168.6 135.6 168.6 135.2Q168.6 134.7 168.6 134.2Q168.6 133.8 168.6 133.3L168.6 133.3Q168.6 133.0 168.7 132.8L168.7 132.8Q168.6 133.1 168.5 133.3L168.5 133.3Q168.4 133.8 168.3 134.3Q168.1 134.8 168.0 135.2Q167.9 135.6 167.8 135.9L167.8 135.9L166.3 140L164.8 140L163.4 135.9Q163.3 135.6 163.1 135.2Q163.0 134.8 162.9 134.3Q162.7 133.8 162.6 133.3L162.6 133.3Q162.5 133.1 162.5 132.9L162.5 132.9Q162.5 133.0 162.5 133.2L162.5 133.2Q162.5 133.7 162.5 134.2Q162.5 134.7 162.5 135.2Q162.6 135.6 162.6 135.9L162.6 135.9L162.6 140ZM177.5 140L172.0 140L172.0 131.3L173.7 131.3L173.7 138.5L177.5 138.5L177.5 140Z "/></g><defs><clipPath id="satori_bc-id-2-2-1-1" clip-path="url(#satori_cp-id)"><path x="199" y="123" width="125" height="25" d="M205,123 h113 a6,6 0 0 1 6,6 v13 a6,6 0 0 1 -6,6 h-113 a6,6 0 0 1 -6,-6 v-13 a6,6 0 0 1 6,-6"/></clipPath></defs><mask id="satori_om-id-2-2-1-1"><rect x="200" y="124" width="123" height="23" fill="#fff" mask="url(#satori_om-id)"/><path width="125" height="25" fill="none" stroke="#000" stroke-width="2" d="M200.757,124.757 A6,6 0 0 1 205,123 h113 a6,6 0 0 1 6,6 v13 a6,6 0 0 1 -6,6 h-113 a6,6 0 0 1 -6,-6 v-13 A6,6 0 0 1 200.757,124.757"/></mask><path x="199" y="123" width="125" height="25" fill="#fb718515" d="M205,123 h113 a6,6 0 0 1 6,6 v13 a6,6 0 0 1 -6,6 h-113 a6,6 0 0 1 -6,-6 v-13 a6,6 0 0 1 6,-6" clip-path="url(#satori_cp-id)" mask="url(#satori_om-id)"/><path width="125" height="25" clip-path="url(#satori_bc-id-2-2-1-1)" fill="none" stroke="#fb718535" stroke-width="2" d="M200.757,124.757 A6,6 0 0 1 205,123 h113 a6,6 0 0 1 6,6 v13 a6,6 0 0 1 -6,6 h-113 a6,6 0 0 1 -6,-6 v-13 A6,6 0 0 1 200.757,124.757"/><g mask="url(#satori_om-id)" clip-path="url(#satori_cp-id)"><path fill="rgba(225,220,255,0.85)" d="M219.6 140L213.8 140L213.8 131.3L219.6 131.3L219.6 132.8L215.6 132.8L215.6 134.9L219.3 134.9L219.3 136.3L215.6 136.3L215.6 138.5L219.6 138.5L219.6 140ZM222.9 140L221.1 140L221.1 131.3L224.5 131.3Q225.5 131.3 226.2 131.6Q226.9 132.0 227.2 132.6Q227.6 133.3 227.6 134.1Q227.6 135.0 227.2 135.6Q226.9 136.2 226.2 136.5L226.2 136.5Q226.1 136.6 226.1 136.6L226.1 136.6L227.9 140L225.9 140L224.3 136.9L222.9 136.9L222.9 140ZM222.9 132.7L222.9 135.4L224.2 135.4Q224.7 135.4 225.1 135.3Q225.4 135.1 225.6 134.8Q225.8 134.5 225.8 134.1L225.8 134.1Q225.8 133.7 225.6 133.4Q225.4 133.1 225.1 132.9Q224.7 132.7 224.2 132.7L224.2 132.7L222.9 132.7ZM230.7 140L229.0 140L229.0 131.3L232.4 131.3Q233.4 131.3 234.1 131.6Q234.8 132.0 235.1 132.7Q235.5 133.4 235.5 134.2L235.5 134.2Q235.5 135.1 235.1 135.7Q234.7 136.4 234.0 136.8Q233.3 137.1 232.3 137.1L232.3 137.1L230.7 137.1L230.7 140ZM230.7 132.7L230.7 135.7L232.0 135.7Q232.6 135.7 232.9 135.5Q233.3 135.3 233.5 135.0Q233.6 134.7 233.6 134.2Q233.6 133.8 233.5 133.4Q233.3 133.1 232.9 132.9Q232.6 132.7 232.0 132.7L232.0 132.7L230.7 132.7Z M242.6 140L242.6 140L239.6 140L239.6 131.3L242.7 131.3Q244.0 131.3 244.9 131.8Q245.9 132.3 246.4 133.3Q246.9 134.3 246.9 135.6L246.9 135.6Q246.9 137.0 246.4 138.0Q245.9 139.0 244.9 139.5Q244.0 140 242.6 140ZM241.4 132.8L241.4 138.5L242.6 138.5Q243.4 138.5 244.0 138.2Q244.5 137.9 244.8 137.2Q245.1 136.6 245.1 135.6L245.1 135.6Q245.1 134.7 244.8 134.0Q244.5 133.4 244.0 133.1Q243.4 132.8 242.6 132.8L242.6 132.8L241.4 132.8ZM250.0 140.1L250.0 140.1Q249.4 140.1 248.9 139.9Q248.4 139.7 248.1 139.3Q247.9 138.8 247.9 138.2L247.9 138.2Q247.9 137.6 248.1 137.3Q248.3 136.9 248.6 136.7Q249.0 136.4 249.4 136.3Q249.8 136.2 250.3 136.2L250.3 136.2Q250.9 136.1 251.2 136.0Q251.6 136.0 251.8 135.9Q251.9 135.8 251.9 135.6L251.9 135.6L251.9 135.5Q251.9 135.3 251.8 135.1Q251.7 134.9 251.4 134.8Q251.2 134.7 250.9 134.7L250.9 134.7Q250.5 134.7 250.3 134.8Q250.0 134.9 249.9 135.0Q249.7 135.2 249.7 135.4L249.7 135.4L248.0 135.2Q248.2 134.6 248.6 134.2Q249.0 133.8 249.6 133.6Q250.2 133.4 250.9 133.4L250.9 133.4Q251.4 133.4 251.9 133.5Q252.4 133.6 252.8 133.9Q253.2 134.1 253.4 134.6Q253.7 135.0 253.7 135.6L253.7 135.6L253.7 140L252.0 140L252.0 139.1L251.9 139.1Q251.8 139.4 251.5 139.6Q251.3 139.9 250.9 140.0Q250.5 140.1 250.0 140.1ZM250.5 138.9L250.5 138.9Q250.9 138.9 251.3 138.7Q251.6 138.6 251.7 138.3Q251.9 138.0 251.9 137.7L251.9 137.7L251.9 136.9Q251.8 137.0 251.7 137.1Q251.5 137.1 251.3 137.1Q251.1 137.2 251.0 137.2Q250.8 137.2 250.6 137.2L250.6 137.2Q250.3 137.3 250.1 137.4Q249.8 137.5 249.7 137.7Q249.5 137.8 249.5 138.1L249.5 138.1Q249.5 138.4 249.7 138.5Q249.8 138.7 250.0 138.8Q250.2 138.9 250.5 138.9ZM257.8 140.1L257.8 140.1Q257.0 140.1 256.4 139.9Q255.8 139.7 255.4 139.2Q255.0 138.8 254.9 138.2L254.9 138.2L256.5 137.9Q256.6 138.4 257.0 138.6Q257.3 138.8 257.8 138.8L257.8 138.8Q258.3 138.8 258.6 138.6Q258.9 138.5 258.9 138.2L258.9 138.2Q258.9 137.9 258.7 137.7Q258.5 137.6 258.1 137.5L258.1 137.5L256.9 137.3Q256.0 137.1 255.5 136.6Q255.0 136.1 255.0 135.4L255.0 135.4Q255.0 134.8 255.4 134.3Q255.7 133.9 256.4 133.6Q257.0 133.4 257.8 133.4L257.8 133.4Q258.6 133.4 259.1 133.6Q259.7 133.8 260.1 134.2Q260.4 134.6 260.5 135.1L260.5 135.1L259.0 135.4Q258.9 135.1 258.6 134.8Q258.3 134.6 257.8 134.6L257.8 134.6Q257.4 134.6 257.1 134.8Q256.8 135.0 256.8 135.3L256.8 135.3Q256.8 135.5 257.0 135.7Q257.2 135.9 257.6 136.0L257.6 136.0L258.8 136.2Q259.8 136.4 260.2 136.8Q260.7 137.3 260.7 138.0L260.7 138.0Q260.7 138.6 260.3 139.1Q260.0 139.6 259.3 139.9Q258.6 140.1 257.8 140.1ZM263.6 136.2L263.6 136.2L263.6 140L261.9 140L261.9 131.3L263.6 131.3L263.6 134.7Q263.9 134.2 264.3 133.8L264.3 133.8Q264.8 133.4 265.6 133.4L265.6 133.4Q266.3 133.4 266.8 133.7Q267.3 134.0 267.6 134.5Q267.9 135.1 267.9 135.8L267.9 135.8L267.9 140L266.1 140L266.1 136.1Q266.1 135.5 265.8 135.2Q265.5 134.8 264.9 134.8L264.9 134.8Q264.6 134.8 264.3 135.0Q264.0 135.2 263.8 135.5Q263.6 135.8 263.6 136.2ZM273.0 140.1L273.0 140.1Q272.5 140.1 272.1 139.9Q271.8 139.7 271.5 139.5Q271.3 139.2 271.2 139.0L271.2 139.0L271.1 139.0L271.1 140L269.4 140L269.4 131.3L271.1 131.3L271.1 134.6L271.2 134.6Q271.3 134.3 271.5 134.0Q271.7 133.7 272.1 133.6Q272.5 133.4 273.0 133.4L273.0 133.4Q273.8 133.4 274.4 133.7Q275.0 134.1 275.3 134.9Q275.7 135.6 275.7 136.7L275.7 136.7Q275.7 137.8 275.3 138.6Q275.0 139.3 274.4 139.7Q273.8 140.1 273.0 140.1ZM272.5 138.7L272.5 138.7Q272.9 138.7 273.3 138.4Q273.6 138.2 273.7 137.8Q273.9 137.3 273.9 136.7L273.9 136.7Q273.9 136.2 273.7 135.7Q273.6 135.3 273.3 135.0Q273.0 134.8 272.5 134.8L272.5 134.8Q272.0 134.8 271.7 135.0Q271.4 135.3 271.2 135.7Q271.1 136.1 271.1 136.7L271.1 136.7Q271.1 137.3 271.2 137.8Q271.4 138.2 271.7 138.5Q272.0 138.7 272.5 138.7ZM279.9 140.1L279.9 140.1Q278.9 140.1 278.2 139.7Q277.4 139.3 277.0 138.5Q276.7 137.8 276.7 136.8L276.7 136.8Q276.7 135.7 277.0 135.0Q277.4 134.2 278.2 133.8Q278.9 133.4 279.9 133.4L279.9 133.4Q280.8 133.4 281.6 133.8Q282.3 134.2 282.7 135.0Q283.1 135.7 283.1 136.8L283.1 136.8Q283.1 137.8 282.7 138.5Q282.3 139.3 281.6 139.7Q280.8 140.1 279.9 140.1ZM279.9 138.7L279.9 138.7Q280.3 138.7 280.6 138.5Q281.0 138.2 281.1 137.8Q281.3 137.3 281.3 136.7L281.3 136.7Q281.3 136.2 281.1 135.7Q281.0 135.3 280.6 135.0Q280.3 134.8 279.9 134.8L279.9 134.8Q279.4 134.8 279.1 135.0Q278.8 135.3 278.6 135.7Q278.4 136.2 278.4 136.7L278.4 136.7Q278.4 137.3 278.6 137.8Q278.8 138.2 279.1 138.5Q279.4 138.7 279.9 138.7ZM286.1 140.1L286.1 140.1Q285.5 140.1 285.0 139.9Q284.5 139.7 284.2 139.3Q283.9 138.8 283.9 138.2L283.9 138.2Q283.9 137.6 284.1 137.3Q284.3 136.9 284.7 136.7Q285.0 136.4 285.5 136.3Q285.9 136.2 286.4 136.2L286.4 136.2Q287.0 136.1 287.3 136.0Q287.7 136.0 287.8 135.9Q288.0 135.8 288.0 135.6L288.0 135.6L288.0 135.5Q288.0 135.3 287.9 135.1Q287.8 134.9 287.5 134.8Q287.3 134.7 287.0 134.7L287.0 134.7Q286.6 134.7 286.4 134.8Q286.1 134.9 286.0 135.0Q285.8 135.2 285.7 135.4L285.7 135.4L284.1 135.2Q284.3 134.6 284.7 134.2Q285.1 133.8 285.7 133.6Q286.2 133.4 287.0 133.4L287.0 133.4Q287.5 133.4 288 133.5Q288.5 133.6 288.9 133.9Q289.3 134.1 289.5 134.6Q289.8 135.0 289.8 135.6L289.8 135.6L289.8 140L288.1 140L288.1 139.1L288.0 139.1Q287.9 139.4 287.6 139.6Q287.3 139.9 287.0 140.0Q286.6 140.1 286.1 140.1ZM286.6 138.9L286.6 138.9Q287.0 138.9 287.3 138.7Q287.7 138.6 287.8 138.3Q288.0 138.0 288.0 137.7L288.0 137.7L288.0 136.9Q287.9 137.0 287.8 137.1Q287.6 137.1 287.4 137.1Q287.2 137.2 287.0 137.2Q286.9 137.2 286.7 137.2L286.7 137.2Q286.4 137.3 286.1 137.4Q285.9 137.5 285.8 137.7Q285.6 137.8 285.6 138.1L285.6 138.1Q285.6 138.4 285.8 138.5Q285.9 138.7 286.1 138.8Q286.3 138.9 286.6 138.9ZM293.0 140L291.3 140L291.3 133.4L293.0 133.4L293.0 134.6L293.0 134.6Q293.2 134.0 293.6 133.7Q294.1 133.4 294.6 133.4L294.6 133.4Q294.7 133.4 294.9 133.4Q295.1 133.4 295.2 133.4L295.2 133.4L295.2 135.0Q295.1 134.9 294.8 134.9Q294.6 134.9 294.4 134.9L294.4 134.9Q294.0 134.9 293.7 135.1Q293.4 135.2 293.2 135.6Q293.0 135.9 293.0 136.3L293.0 136.3L293.0 140ZM298.5 140.1L298.5 140.1Q297.8 140.1 297.2 139.7Q296.6 139.3 296.2 138.6Q295.9 137.8 295.9 136.7L295.9 136.7Q295.9 135.6 296.2 134.9Q296.6 134.1 297.2 133.7Q297.8 133.4 298.5 133.4L298.5 133.4Q299.1 133.4 299.4 133.6Q299.8 133.7 300.0 134.0Q300.3 134.3 300.4 134.6L300.4 134.6L300.4 134.6L300.4 131.3L302.2 131.3L302.2 140L300.5 140L300.5 139.0L300.4 139.0Q300.3 139.2 300.0 139.5Q299.8 139.7 299.4 139.9Q299.1 140.1 298.5 140.1ZM299.1 138.7L299.1 138.7Q299.5 138.7 299.8 138.5Q300.2 138.2 300.3 137.8Q300.5 137.3 300.5 136.7L300.5 136.7Q300.5 136.1 300.3 135.7Q300.2 135.3 299.8 135.0Q299.5 134.8 299.1 134.8L299.1 134.8Q298.6 134.8 298.3 135.0Q298.0 135.3 297.8 135.7Q297.7 136.2 297.7 136.7L297.7 136.7Q297.7 137.3 297.8 137.8Q298.0 138.2 298.3 138.4Q298.6 138.7 299.1 138.7ZM306.3 140.1L306.3 140.1Q305.5 140.1 304.9 139.9Q304.3 139.7 303.9 139.2Q303.5 138.8 303.4 138.2L303.4 138.2L305.0 137.9Q305.2 138.4 305.5 138.6Q305.8 138.8 306.4 138.8L306.4 138.8Q306.9 138.8 307.2 138.6Q307.4 138.5 307.4 138.2L307.4 138.2Q307.4 137.9 307.2 137.7Q307.0 137.6 306.6 137.5L306.6 137.5L305.5 137.3Q304.5 137.1 304.0 136.6Q303.6 136.1 303.6 135.4L303.6 135.4Q303.6 134.8 303.9 134.3Q304.3 133.9 304.9 133.6Q305.5 133.4 306.3 133.4L306.3 133.4Q307.1 133.4 307.7 133.6Q308.2 133.8 308.6 134.2Q308.9 134.6 309.1 135.1L309.1 135.1L307.5 135.4Q307.4 135.1 307.1 134.8Q306.8 134.6 306.4 134.6L306.4 134.6Q305.9 134.6 305.6 134.8Q305.3 135.0 305.3 135.3L305.3 135.3Q305.3 135.5 305.5 135.7Q305.7 135.9 306.2 136.0L306.2 136.0L307.4 136.2Q308.3 136.4 308.8 136.8Q309.2 137.3 309.2 138.0L309.2 138.0Q309.2 138.6 308.9 139.1Q308.5 139.6 307.8 139.9Q307.2 140.1 306.3 140.1Z "/></g><defs><clipPath id="satori_bc-id-2-2-1-2" clip-path="url(#satori_cp-id)"><path x="331" y="123" width="170" height="25" d="M337,123 h158 a6,6 0 0 1 6,6 v13 a6,6 0 0 1 -6,6 h-158 a6,6 0 0 1 -6,-6 v-13 a6,6 0 0 1 6,-6"/></clipPath></defs><mask id="satori_om-id-2-2-1-2"><rect x="332" y="124" width="168" height="23" fill="#fff" mask="url(#satori_om-id)"/><path width="170" height="25" fill="none" stroke="#000" stroke-width="2" d="M332.757,124.757 A6,6 0 0 1 337,123 h158 a6,6 0 0 1 6,6 v13 a6,6 0 0 1 -6,6 h-158 a6,6 0 0 1 -6,-6 v-13 A6,6 0 0 1 332.757,124.757"/></mask><path x="331" y="123" width="170" height="25" fill="#fb718515" d="M337,123 h158 a6,6 0 0 1 6,6 v13 a6,6 0 0 1 -6,6 h-158 a6,6 0 0 1 -6,-6 v-13 a6,6 0 0 1 6,-6" clip-path="url(#satori_cp-id)" mask="url(#satori_om-id)"/><path width="170" height="25" clip-path="url(#satori_bc-id-2-2-1-2)" fill="none" stroke="#fb718535" stroke-width="2" d="M332.757,124.757 A6,6 0 0 1 337,123 h158 a6,6 0 0 1 6,6 v13 a6,6 0 0 1 -6,6 h-158 a6,6 0 0 1 -6,-6 v-13 A6,6 0 0 1 332.757,124.757"/><g mask="url(#satori_om-id)" clip-path="url(#satori_cp-id)"><path fill="rgba(225,220,255,0.85)" d="M349.7 140L347.6 140L345.3 131.3L347.2 131.3L348.3 135.6Q348.4 136.1 348.5 136.7Q348.6 137.3 348.7 137.9L348.7 137.9Q348.7 138.1 348.7 138.2L348.7 138.2Q348.7 138.1 348.8 137.9L348.8 137.9Q348.9 137.3 349.0 136.7Q349.1 136.1 349.2 135.6L349.2 135.6L350.3 131.3L352.2 131.3L353.2 135.6Q353.3 136.1 353.5 136.7Q353.6 137.3 353.7 137.9L353.7 137.9Q353.7 138.1 353.7 138.2L353.7 138.2Q353.7 138.1 353.8 137.9L353.8 137.9Q353.9 137.3 354.0 136.7Q354.1 136.1 354.2 135.6L354.2 135.6L355.2 131.3L357.2 131.3L354.8 140L352.8 140L351.6 135.5Q351.4 134.8 351.3 133.9L351.3 133.9Q351.3 133.7 351.2 133.4L351.2 133.4Q351.2 133.7 351.2 133.9L351.2 133.9Q351.0 134.7 350.8 135.5L350.8 135.5L349.7 140ZM361.1 140.1L361.1 140.1Q360.1 140.1 359.4 139.7Q358.7 139.3 358.3 138.5Q357.9 137.8 357.9 136.8L357.9 136.8Q357.9 135.7 358.3 135.0Q358.7 134.2 359.4 133.8Q360.1 133.4 361.1 133.4L361.1 133.4Q362.1 133.4 362.8 133.8Q363.6 134.2 363.9 135.0Q364.3 135.7 364.3 136.8L364.3 136.8Q364.3 137.8 363.9 138.5Q363.6 139.3 362.8 139.7Q362.1 140.1 361.1 140.1ZM361.1 138.7L361.1 138.7Q361.6 138.7 361.9 138.5Q362.2 138.2 362.4 137.8Q362.5 137.3 362.5 136.7L362.5 136.7Q362.5 136.2 362.4 135.7Q362.2 135.3 361.9 135.0Q361.6 134.8 361.1 134.8L361.1 134.8Q360.7 134.8 360.3 135.0Q360.0 135.3 359.9 135.7Q359.7 136.2 359.7 136.7L359.7 136.7Q359.7 137.3 359.9 137.8Q360.0 138.2 360.3 138.5Q360.7 138.7 361.1 138.7ZM367.3 140L365.6 140L365.6 133.4L367.3 133.4L367.3 134.6L367.3 134.6Q367.5 134.0 367.9 133.7Q368.4 133.4 368.9 133.4L368.9 133.4Q369.0 133.4 369.2 133.4Q369.4 133.4 369.5 133.4L369.5 133.4L369.5 135.0Q369.4 134.9 369.1 134.9Q368.9 134.9 368.7 134.9L368.7 134.9Q368.3 134.9 368.0 135.1Q367.7 135.2 367.5 135.6Q367.3 135.9 367.3 136.3L367.3 136.3L367.3 140ZM372.2 140L370.4 140L370.4 131.3L372.2 131.3L372.2 136.0L372.3 136.0L374.4 133.4L376.5 133.4L374.0 136.3L376.6 140L374.5 140L372.7 137.3L372.2 137.9L372.2 140ZM379.7 133.4L381.1 133.4L381.1 134.8L379.7 134.8L379.7 140L377.9 140L377.9 134.8L376.8 134.8L376.8 133.4L377.9 133.4L377.9 132.9Q377.9 132.2 378.2 131.8Q378.5 131.3 379.0 131.1Q379.4 130.9 380.1 130.9L380.1 130.9Q380.5 130.9 380.8 130.9Q381.2 131.0 381.3 131.0L381.3 131.0L381 132.4Q380.9 132.3 380.7 132.3Q380.6 132.3 380.4 132.3L380.4 132.3Q380.0 132.3 379.8 132.5Q379.7 132.7 379.7 133.0L379.7 133.0L379.7 133.4ZM382.2 131.3L383.9 131.3L383.9 140L382.2 140L382.2 131.3ZM388.4 140.1L388.4 140.1Q387.4 140.1 386.7 139.7Q385.9 139.3 385.5 138.5Q385.2 137.8 385.2 136.8L385.2 136.8Q385.2 135.7 385.5 135.0Q385.9 134.2 386.7 133.8Q387.4 133.4 388.4 133.4L388.4 133.4Q389.4 133.4 390.1 133.8Q390.8 134.2 391.2 135.0Q391.6 135.7 391.6 136.8L391.6 136.8Q391.6 137.8 391.2 138.5Q390.8 139.3 390.1 139.7Q389.4 140.1 388.4 140.1ZM388.4 138.7L388.4 138.7Q388.8 138.7 389.2 138.5Q389.5 138.2 389.6 137.8Q389.8 137.3 389.8 136.7L389.8 136.7Q389.8 136.2 389.6 135.7Q389.5 135.3 389.2 135.0Q388.8 134.8 388.4 134.8L388.4 134.8Q387.9 134.8 387.6 135.0Q387.3 135.3 387.1 135.7Q387.0 136.2 387.0 136.7L387.0 136.7Q387.0 137.3 387.1 137.8Q387.3 138.2 387.6 138.5Q387.9 138.7 388.4 138.7ZM395.9 140L394.2 140L392.2 133.4L394.1 133.4L394.6 135.9Q394.8 136.5 395.0 137.3L395.0 137.3Q395.1 137.8 395.2 138.4L395.2 138.4Q395.3 137.8 395.4 137.3L395.4 137.3Q395.6 136.5 395.7 135.9L395.7 135.9L396.3 133.4L398.0 133.4L398.5 135.9Q398.7 136.5 398.9 137.3L398.9 137.3Q399.0 137.8 399.1 138.4L399.1 138.4Q399.2 137.8 399.3 137.3L399.3 137.3Q399.5 136.5 399.6 135.9L399.6 135.9L400.2 133.4L402.1 133.4L400.1 140L398.3 140L397.6 137.5Q397.5 137.1 397.4 136.6Q397.3 136.2 397.2 135.7L397.2 135.7Q397.2 135.6 397.1 135.5L397.1 135.5Q397.1 135.6 397.1 135.7L397.1 135.7Q397.0 136.2 396.9 136.6Q396.8 137.1 396.7 137.5L396.7 137.5L395.9 140Z M409.7 140.1L409.7 140.1Q408.6 140.1 407.6 139.6Q406.7 139.1 406.2 138.1Q405.6 137.1 405.6 135.6L405.6 135.6Q405.6 134.2 406.2 133.2Q406.7 132.2 407.6 131.7Q408.6 131.2 409.7 131.2L409.7 131.2Q410.9 131.2 411.8 131.7Q412.7 132.2 413.2 133.2Q413.8 134.2 413.8 135.6L413.8 135.6Q413.8 137.1 413.2 138.1Q412.7 139.1 411.8 139.6Q410.9 140.1 409.7 140.1ZM409.7 138.5L409.7 138.5Q410.4 138.5 410.9 138.2Q411.4 137.9 411.7 137.2Q412.0 136.6 412.0 135.6L412.0 135.6Q412.0 134.7 411.7 134.0Q411.4 133.4 410.9 133.1Q410.4 132.7 409.7 132.7L409.7 132.7Q409.0 132.7 408.5 133.1Q408.0 133.4 407.7 134.1Q407.5 134.7 407.5 135.6L407.5 135.6Q407.5 136.6 407.7 137.2Q408.0 137.9 408.5 138.2Q409.0 138.5 409.7 138.5ZM416.8 140L415.1 140L415.1 133.4L416.8 133.4L416.8 134.6L416.9 134.6Q417.0 134.0 417.5 133.7Q417.9 133.4 418.4 133.4L418.4 133.4Q418.6 133.4 418.7 133.4Q418.9 133.4 419.0 133.4L419.0 133.4L419.0 135.0Q418.9 134.9 418.7 134.9Q418.4 134.9 418.2 134.9L418.2 134.9Q417.8 134.9 417.5 135.1Q417.2 135.2 417.0 135.6Q416.8 135.9 416.8 136.3L416.8 136.3L416.8 140ZM422.9 140.1L422.9 140.1Q421.9 140.1 421.2 139.7Q420.5 139.3 420.1 138.5Q419.7 137.8 419.7 136.8L419.7 136.8Q419.7 135.7 420.1 135.0Q420.5 134.2 421.2 133.8Q421.9 133.4 422.9 133.4L422.9 133.4Q423.5 133.4 424.0 133.5Q424.5 133.7 424.8 134.0Q425.2 134.2 425.5 134.6Q425.7 135.0 425.8 135.5L425.8 135.5L424.2 135.9Q424.1 135.6 424.0 135.4Q423.9 135.2 423.7 135.0Q423.6 134.9 423.4 134.8Q423.2 134.8 422.9 134.8L422.9 134.8Q422.4 134.8 422.1 135.0Q421.8 135.3 421.6 135.7Q421.5 136.2 421.5 136.7L421.5 136.7Q421.5 137.3 421.6 137.8Q421.8 138.2 422.1 138.5Q422.4 138.7 422.9 138.7L422.9 138.7Q423.2 138.7 423.4 138.7Q423.6 138.6 423.8 138.4Q423.9 138.3 424.0 138.1Q424.1 137.9 424.2 137.6L424.2 137.6L425.8 137.9Q425.7 138.4 425.5 138.8Q425.2 139.2 424.9 139.5Q424.5 139.8 424.0 140.0Q423.5 140.1 422.9 140.1ZM428.8 136.2L428.8 136.2L428.8 140L427.0 140L427.0 131.3L428.8 131.3L428.8 134.7Q429 134.2 429.4 133.8L429.4 133.8Q429.9 133.4 430.8 133.4L430.8 133.4Q431.4 133.4 431.9 133.7Q432.4 134.0 432.7 134.5Q433.0 135.1 433.0 135.8L433.0 135.8L433.0 140L431.2 140L431.2 136.1Q431.2 135.5 430.9 135.2Q430.6 134.8 430.1 134.8L430.1 134.8Q429.7 134.8 429.4 135.0Q429.1 135.2 429.0 135.5Q428.8 135.8 428.8 136.2ZM437.5 140.1L437.5 140.1Q436.5 140.1 435.7 139.7Q435.0 139.3 434.6 138.6Q434.2 137.8 434.2 136.8L434.2 136.8Q434.2 135.7 434.6 135.0Q435 134.2 435.7 133.8Q436.4 133.4 437.4 133.4L437.4 133.4Q438.0 133.4 438.6 133.6Q439.1 133.8 439.6 134.2Q440.0 134.6 440.2 135.2Q440.4 135.8 440.4 136.7L440.4 136.7L440.4 137.2L436.0 137.2Q436.0 137.7 436.2 138.0L436.2 138.0Q436.3 138.4 436.7 138.6Q437.0 138.8 437.5 138.8L437.5 138.8Q437.8 138.8 438.1 138.7Q438.3 138.6 438.5 138.5Q438.7 138.3 438.8 138.0L438.8 138.0L440.3 138.3Q440.2 138.9 439.8 139.3Q439.4 139.7 438.8 139.9Q438.2 140.1 437.5 140.1ZM436.0 136.1L436.0 136.1L438.8 136.1Q438.7 135.8 438.6 135.5L438.6 135.5Q438.5 135.1 438.1 134.9Q437.8 134.7 437.4 134.7L437.4 134.7Q436.9 134.7 436.6 134.9Q436.3 135.1 436.1 135.5L436.1 135.5Q436.0 135.7 436.0 136.1ZM444.3 140.1L444.3 140.1Q443.5 140.1 442.9 139.9Q442.2 139.7 441.9 139.2Q441.5 138.8 441.4 138.2L441.4 138.2L443.0 137.9Q443.1 138.4 443.4 138.6Q443.8 138.8 444.3 138.8L444.3 138.8Q444.8 138.8 445.1 138.6Q445.4 138.5 445.4 138.2L445.4 138.2Q445.4 137.9 445.2 137.7Q445.0 137.6 444.5 137.5L444.5 137.5L443.4 137.3Q442.5 137.1 442.0 136.6Q441.5 136.1 441.5 135.4L441.5 135.4Q441.5 134.8 441.9 134.3Q442.2 133.9 442.8 133.6Q443.4 133.4 444.3 133.4L444.3 133.4Q445.1 133.4 445.6 133.6Q446.2 133.8 446.5 134.2Q446.9 134.6 447.0 135.1L447.0 135.1L445.5 135.4Q445.4 135.1 445.1 134.8Q444.8 134.6 444.3 134.6L444.3 134.6Q443.9 134.6 443.6 134.8Q443.3 135.0 443.3 135.3L443.3 135.3Q443.3 135.5 443.5 135.7Q443.7 135.9 444.1 136.0L444.1 136.0L445.3 136.2Q446.3 136.4 446.7 136.8Q447.2 137.3 447.2 138.0L447.2 138.0Q447.2 138.6 446.8 139.1Q446.4 139.6 445.8 139.9Q445.1 140.1 444.3 140.1ZM450.4 133.4L451.6 133.4L451.6 134.8L450.4 134.8L450.4 138.1Q450.4 138.4 450.5 138.5Q450.7 138.7 451.0 138.7L451.0 138.7Q451.1 138.7 451.3 138.7Q451.5 138.6 451.6 138.6L451.6 138.6L451.8 139.9Q451.5 140.0 451.2 140.1Q450.9 140.1 450.7 140.1L450.7 140.1Q449.7 140.1 449.2 139.6Q448.6 139.1 448.6 138.2L448.6 138.2L448.6 134.8L447.7 134.8L447.7 133.4L448.6 133.4L448.6 131.9L450.4 131.9L450.4 133.4ZM454.5 140L452.8 140L452.8 133.4L454.5 133.4L454.5 134.6L454.5 134.6Q454.7 134.0 455.1 133.7Q455.6 133.4 456.1 133.4L456.1 133.4Q456.3 133.4 456.4 133.4Q456.6 133.4 456.7 133.4L456.7 133.4L456.7 135.0Q456.6 134.9 456.3 134.9Q456.1 134.9 455.9 134.9L455.9 134.9Q455.5 134.9 455.2 135.1Q454.9 135.2 454.7 135.6Q454.5 135.9 454.5 136.3L454.5 136.3L454.5 140ZM459.5 140.1L459.5 140.1Q458.9 140.1 458.4 139.9Q457.9 139.7 457.6 139.3Q457.3 138.8 457.3 138.2L457.3 138.2Q457.3 137.6 457.5 137.3Q457.7 136.9 458.1 136.7Q458.4 136.4 458.8 136.3Q459.3 136.2 459.8 136.2L459.8 136.2Q460.3 136.1 460.7 136.0Q461.0 136.0 461.2 135.9Q461.4 135.8 461.4 135.6L461.4 135.6L461.4 135.5Q461.4 135.3 461.2 135.1Q461.1 134.9 460.9 134.8Q460.7 134.7 460.3 134.7L460.3 134.7Q460.0 134.7 459.7 134.8Q459.5 134.9 459.3 135.0Q459.2 135.2 459.1 135.4L459.1 135.4L457.5 135.2Q457.7 134.6 458.1 134.2Q458.4 133.8 459.0 133.6Q459.6 133.4 460.3 133.4L460.3 133.4Q460.9 133.4 461.4 133.5Q461.9 133.6 462.3 133.9Q462.7 134.1 462.9 134.6Q463.1 135.0 463.1 135.6L463.1 135.6L463.1 140L461.5 140L461.5 139.1L461.4 139.1Q461.2 139.4 461.0 139.6Q460.7 139.9 460.3 140.0Q460.0 140.1 459.5 140.1ZM460.0 138.9L460.0 138.9Q460.4 138.9 460.7 138.7Q461.0 138.6 461.2 138.3Q461.4 138.0 461.4 137.7L461.4 137.7L461.4 136.9Q461.3 137.0 461.1 137.1Q461.0 137.1 460.8 137.1Q460.6 137.2 460.4 137.2Q460.2 137.2 460.1 137.2L460.1 137.2Q459.8 137.3 459.5 137.4Q459.3 137.5 459.1 137.7Q459.0 137.8 459.0 138.1L459.0 138.1Q459.0 138.4 459.1 138.5Q459.2 138.7 459.5 138.8Q459.7 138.9 460.0 138.9ZM466.6 133.4L467.9 133.4L467.9 134.8L466.6 134.8L466.6 138.1Q466.6 138.4 466.8 138.5Q466.9 138.7 467.2 138.7L467.2 138.7Q467.3 138.7 467.5 138.7Q467.7 138.6 467.8 138.6L467.8 138.6L468.1 139.9Q467.8 140.0 467.5 140.1Q467.2 140.1 466.9 140.1L466.9 140.1Q465.9 140.1 465.4 139.6Q464.9 139.1 464.9 138.2L464.9 138.2L464.9 134.8L464.0 134.8L464.0 133.4L464.9 133.4L464.9 131.9L466.6 131.9L466.6 133.4ZM470.8 140L469.0 140L469.0 133.4L470.8 133.4L470.8 140ZM469.9 132.6L469.9 132.6Q469.5 132.6 469.2 132.3Q468.9 132.1 468.9 131.7L468.9 131.7Q468.9 131.3 469.2 131.1Q469.5 130.8 469.9 130.8L469.9 130.8Q470.3 130.8 470.6 131.0Q470.9 131.3 470.9 131.7L470.9 131.7Q470.9 132.1 470.6 132.3Q470.3 132.6 469.9 132.6ZM475.2 140.1L475.2 140.1Q474.2 140.1 473.5 139.7Q472.8 139.3 472.4 138.5Q472.0 137.8 472.0 136.8L472.0 136.8Q472.0 135.7 472.4 135.0Q472.8 134.2 473.5 133.8Q474.2 133.4 475.2 133.4L475.2 133.4Q476.2 133.4 476.9 133.8Q477.6 134.2 478.0 135.0Q478.4 135.7 478.4 136.8L478.4 136.8Q478.4 137.8 478.0 138.5Q477.6 139.3 476.9 139.7Q476.2 140.1 475.2 140.1ZM475.2 138.7L475.2 138.7Q475.7 138.7 476.0 138.5Q476.3 138.2 476.5 137.8Q476.6 137.3 476.6 136.7L476.6 136.7Q476.6 136.2 476.5 135.7Q476.3 135.3 476.0 135.0Q475.7 134.8 475.2 134.8L475.2 134.8Q474.7 134.8 474.4 135.0Q474.1 135.3 473.9 135.7Q473.8 136.2 473.8 136.7L473.8 136.7Q473.8 137.3 473.9 137.8Q474.1 138.2 474.4 138.5Q474.7 138.7 475.2 138.7ZM481.4 136.2L481.4 136.2L481.4 140L479.6 140L479.6 133.4L481.3 133.4L481.3 134.8Q481.6 134.2 482.0 133.8L482.0 133.8Q482.5 133.4 483.3 133.4L483.3 133.4Q484.0 133.4 484.5 133.7Q485.0 134.0 485.3 134.5Q485.6 135.1 485.6 135.8L485.6 135.8L485.6 140L483.8 140L483.8 136.1Q483.8 135.5 483.5 135.2Q483.2 134.8 482.7 134.8L482.7 134.8Q482.3 134.8 482.0 135.0Q481.7 135.2 481.5 135.5Q481.4 135.8 481.4 136.2Z "/></g></svg>