<!-- Generated by readme-aura https://github.com/collectioneur/readme-aura -->
<svg width="160" height="52" viewBox="0 0 160 52" xmlns="http://www.w3.org/2000/svg"><mask id="satori_om-id"><rect x="14" y="0" width="160" height="52" fill="#fff"/></mask><path x="14" y="0" width="160" height="52" fill="#ff4466" d="M28,0 h132 a14,14 0 0 1 14,14 v24 a14,14 0 0 1 -14,14 h-132 a14,14 0 0 1 -14,-14 v-24 a14,14 0 0 1 14,-14"/><mask id="satori_om-id-0"><rect x="73" y="17" width="43" height="19" fill="#fff"/></mask><g  ><path fill="#fff" d="M81.9 33L74.1 33L74.1 21.4L81.8 21.4L81.8 23.3L76.4 23.3L76.4 26.1L81.4 26.1L81.4 28.1L76.4 28.1L76.4 31.0L81.9 31.0L81.9 33ZM86.1 33L83.7 33L83.7 24.3L85.9 24.3L86.0 26.0Q86.2 25.5 86.4 25.1L86.4 25.1Q86.8 24.6 87.4 24.4Q87.9 24.1 88.5 24.1L88.5 24.1Q89.4 24.1 90 24.7L90 24.7Q90.5 25.2 90.7 26.1L90.7 26.1Q90.9 25.6 91.2 25.2L91.2 25.2Q91.7 24.7 92.3 24.4Q92.9 24.1 93.5 24.1L93.5 24.1Q94.3 24.1 95.0 24.5Q95.6 24.8 96.0 25.5Q96.3 26.2 96.3 27.1L96.3 27.1L96.3 33L94.0 33L94.0 27.6Q94.0 26.8 93.6 26.5Q93.2 26.1 92.6 26.1L92.6 26.1Q92.1 26.1 91.8 26.3Q91.5 26.5 91.3 26.8Q91.1 27.2 91.1 27.6L91.1 27.6L91.1 33L88.9 33L88.9 27.5Q88.9 26.9 88.5 26.5Q88.1 26.1 87.5 26.1L87.5 26.1Q87.1 26.1 86.8 26.3Q86.4 26.5 86.3 26.8Q86.1 27.2 86.1 27.7L86.1 27.7L86.1 33ZM100.8 33.2L100.8 33.2Q99.9 33.2 99.3 32.9Q98.6 32.6 98.2 32.0Q97.9 31.4 97.9 30.6L97.9 30.6Q97.9 29.8 98.1 29.3Q98.4 28.8 98.9 28.5Q99.3 28.3 99.9 28.1Q100.5 27.9 101.1 27.9L101.1 27.9Q101.9 27.8 102.4 27.7Q102.8 27.7 103.1 27.5Q103.3 27.4 103.3 27.1L103.3 27.1L103.3 27.1Q103.3 26.7 103.1 26.4Q103.0 26.2 102.6 26.0Q102.3 25.9 101.9 25.9L101.9 25.9Q101.4 25.9 101.1 26.0Q100.8 26.2 100.6 26.4Q100.4 26.6 100.3 26.9L100.3 26.9L98.1 26.5Q98.3 25.8 98.9 25.3Q99.4 24.7 100.2 24.4Q100.9 24.2 101.9 24.2L101.9 24.2Q102.6 24.2 103.3 24.3Q103.9 24.5 104.5 24.8Q105.0 25.2 105.3 25.8Q105.6 26.3 105.6 27.1L105.6 27.1L105.6 33L103.4 33L103.4 31.8L103.3 31.8Q103.1 32.2 102.8 32.5Q102.4 32.8 101.9 33.0Q101.4 33.2 100.8 33.2ZM101.4 31.5L101.4 31.5Q102.0 31.5 102.4 31.3Q102.8 31.1 103.0 30.7Q103.3 30.3 103.3 29.9L103.3 29.9L103.3 28.9Q103.2 29.0 103.0 29.1Q102.8 29.1 102.5 29.2Q102.2 29.2 102.0 29.3Q101.7 29.3 101.5 29.3L101.5 29.3Q101.1 29.4 100.8 29.5Q100.5 29.7 100.3 29.9Q100.1 30.1 100.1 30.5L100.1 30.5Q100.1 30.8 100.3 31.1Q100.4 31.3 100.7 31.4Q101.0 31.5 101.4 31.5ZM110.0 33L107.6 33L107.6 24.3L110.0 24.3L110.0 33ZM108.8 23.1L108.8 23.1Q108.3 23.1 107.9 22.8Q107.5 22.4 107.5 21.9L107.5 21.9Q107.5 21.4 107.9 21.1Q108.3 20.7 108.8 20.7L108.8 20.7Q109.3 20.7 109.7 21.1Q110.1 21.4 110.1 21.9L110.1 21.9Q110.1 22.4 109.7 22.8Q109.3 23.1 108.8 23.1ZM111.9 21.4L114.3 21.4L114.3 33L111.9 33L111.9 21.4Z "/></g></svg>