<!-- Generated by readme-aura https://github.com/collectioneur/readme-aura -->
<svg width="860" height="140" viewBox="0 0 860 140" xmlns="http://www.w3.org/2000/svg"><defs><clipPath id="satori_bc-id"><path x="0" y="0" width="860" height="140" d="M16,0 h828 a16,16 0 0 1 16,16 v108 a16,16 0 0 1 -16,16 h-828 a16,16 0 0 1 -16,-16 v-108 a16,16 0 0 1 16,-16"/></clipPath></defs><clipPath id="satori_cp-id"><path x="0" y="0" width="860" height="140" d="M16,0 h828 a16,16 0 0 1 16,16 v108 a16,16 0 0 1 -16,16 h-828 a16,16 0 0 1 -16,-16 v-108 a16,16 0 0 1 16,-16"/></clipPath><mask id="satori_om-id"><rect x="1" y="1" width="858" height="138" fill="#fff"/><path width="860" height="140" fill="none" stroke="#000" stroke-width="2" d="M4.686,4.686 A16,16 0 0 1 16,0 h828 a16,16 0 0 1 16,16 v108 a16,16 0 0 1 -16,16 h-828 a16,16 0 0 1 -16,-16 v-108 A16,16 0 0 1 4.686,4.686"/></mask><path x="0" y="0" width="860" height="140" fill="#08080c" d="M16,0 h828 a16,16 0 0 1 16,16 v108 a16,16 0 0 1 -16,16 h-828 a16,16 0 0 1 -16,-16 v-108 a16,16 0 0 1 16,-16"/><path width="860" height="140" clip-path="url(#satori_bc-id)" fill="none" stroke="rgba(110,80,220,0.18)" stroke-width="2" d="M4.686,4.686 A16,16 0 0 1 16,0 h828 a16,16 0 0 1 16,16 v108 a16,16 0 0 1 -16,16 h-828 a16,16 0 0 1 -16,-16 v-108 A16,16 0 0 1 4.686,4.686"/><clipPath id="satori_cp-id-0" clip-path="url(#satori_cp-id)"><rect x="1" y="1" width="860" height="140"/></clipPath><mask id="satori_om-id-0"><rect x="1" y="1" width="860" height="140" fill="#fff" mask="url(#satori_om-id)"/></mask><svg x="1" y="1" width="860" height="140" preserveAspectRatio="none" clip-path="url(#satori_cp-id-0)" mask="url(#satori_om-id-0)"><defs><radialGradient id="g1" cx="50%" cy="50%" r="50%"><stop offset="0%" stop-color="rgba(110,20,210,0.65)"></stop><stop offset="45%" stop-color="rgba(80,15,170,0.28)"></stop><stop offset="70%" stop-color="rgba(80,15,170,0)"></stop></radialGradient><radialGradient id="g2" cx="50%" cy="50%" r="50%"><stop offset="0%" stop-color="rgba(40,70,255,0.55)"></stop><stop offset="45%" stop-color="rgba(20,50,200,0.22)"></stop><stop offset="70%" stop-color="rgba(20,50,200,0)"></stop></radialGradient><radialGradient id="g3" cx="50%" cy="50%" r="50%"><stop offset="0%" stop-color="rgba(0,140,255,0.42)"></stop><stop offset="70%" stop-color="rgba(0,140,255,0)"></stop></radialGradient><radialGradient id="g4" cx="50%" cy="50%" r="50%"><stop offset="0%" stop-color="rgba(0,195,235,0.30)"></stop><stop offset="70%" stop-color="rgba(0,195,235,0)"></stop></radialGradient><radialGradient id="g5" cx="50%" cy="50%" r="50%"><stop offset="0%" stop-color="rgba(100,30,210,0.40)"></stop><stop offset="70%" stop-color="rgba(100,30,210,0)"></stop></radialGradient></defs><ellipse id="glow-1" cx="710" cy="150" rx="210" ry="150" fill="url(#g1)"></ellipse><ellipse id="glow-2" cx="550" cy="140" rx="190" ry="140" fill="url(#g2)"></ellipse><ellipse id="glow-3" cx="400" cy="130" rx="170" ry="130" fill="url(#g3)"></ellipse><ellipse id="glow-4" cx="250" cy="140" rx="150" ry="120" fill="url(#g4)"></ellipse><ellipse id="glow-5" cx="100" cy="150" rx="130" ry="110" fill="url(#g5)"></ellipse><style>

         @keyframes float-slow {
           0%, 100% { transform: translateX(0px); opacity: 0.8; }
           50% { transform: translateX(350px); opacity: 1.2; }
         }
         @keyframes float-medium {
           0%, 100% { transform: translateX(0px); opacity: 0.7; }
           50% { transform: translateX(-250px); opacity: 1.1; }
         }
         @keyframes float-fast {
           0%, 100% { transform: translateX(0px); opacity: 0.9; }
           50% { transform: translateX(200px); opacity: 0.6; }
         }
         @keyframes float-diagonal {
           0%, 100% { transform: translate(0px, 0px); opacity: 0.75; }
           50% { transform: translate(120px, 30px); opacity: 1.0; }
         }
         @keyframes float-wave {
           0%, 100% { transform: translateX(0px); opacity: 0.65; }
           33% { transform: translateX(-160px); opacity: 0.9; }
           66% { transform: translateX(80px); opacity: 1.0; }
         }
         @keyframes float-pulse {
           0%, 100% { transform: scale(1); opacity: 0.8; }
           50% { transform: scale(1.3); opacity: 0.4; }
         }
         #glow-1 { animation: float-slow 8s ease-in-out infinite; }
         #glow-2 { animation: float-medium 12s ease-in-out infinite; }
         #glow-3 { animation: float-fast 9s ease-in-out infinite; }
         #glow-4 { animation: float-diagonal 10s ease-in-out infinite; }
         #glow-5 { animation: float-wave 14s ease-in-out infinite; }
       
</style>
</svg><mask id="satori_om-id-0-0"><rect x="1" y="1" width="0" height="140" fill="#fff" mask="url(#satori_om-id)"/></mask><mask id="satori_om-id-0-0-0"><rect x="1" y="1" width="0" height="140" fill="#fff" mask="url(#satori_om-id)"/></mask><mask id="satori_om-id-0-0-0-0"><rect x="1" y="1" width="0" height="140" fill="#fff" mask="url(#satori_om-id)"/></mask><mask id="satori_om-id-0-0-0-1"><rect x="1" y="1" width="0" height="140" fill="#fff" mask="url(#satori_om-id)"/></mask><mask id="satori_om-id-0-0-0-2"><rect x="1" y="1" width="0" height="140" fill="#fff" mask="url(#satori_om-id)"/></mask><mask id="satori_om-id-0-0-1"><rect x="1" y="1" width="0" height="140" fill="#fff" mask="url(#satori_om-id)"/></mask><mask id="satori_om-id-0-0-1-0"><rect x="1" y="1" width="0" height="140" fill="#fff" mask="url(#satori_om-id)"/></mask><mask id="satori_om-id-0-0-1-1"><rect x="1" y="1" width="0" height="140" fill="#fff" mask="url(#satori_om-id)"/></mask><mask id="satori_om-id-0-0-1-2"><rect x="1" y="1" width="0" height="140" fill="#fff" mask="url(#satori_om-id)"/></mask><mask id="satori_om-id-0-0-2"><rect x="1" y="1" width="0" height="140" fill="#fff" mask="url(#satori_om-id)"/></mask><mask id="satori_om-id-0-0-2-0"><rect x="1" y="1" width="0" height="140" fill="#fff" mask="url(#satori_om-id)"/></mask><mask id="satori_om-id-0-0-2-1"><rect x="1" y="1" width="0" height="140" fill="#fff" mask="url(#satori_om-id)"/></mask><mask id="satori_om-id-0-0-3"><rect x="1" y="1" width="0" height="140" fill="#fff" mask="url(#satori_om-id)"/></mask><mask id="satori_om-id-0-0-3-0"><rect x="1" y="1" width="0" height="140" fill="#fff" mask="url(#satori_om-id)"/></mask><mask id="satori_om-id-0-0-3-1"><rect x="1" y="1" width="0" height="140" fill="#fff" mask="url(#satori_om-id)"/></mask><mask id="satori_om-id-0-0-4"><rect x="1" y="1" width="0" height="140" fill="#fff" mask="url(#satori_om-id)"/></mask><mask id="satori_om-id-0-0-4-0"><rect x="1" y="1" width="0" height="140" fill="#fff" mask="url(#satori_om-id)"/></mask><mask id="satori_om-id-0-0-4-1"><rect x="1" y="1" width="0" height="140" fill="#fff" mask="url(#satori_om-id)"/></mask><mask id="satori_om-id-0-1"><rect x="1" y="1" width="0" height="140" fill="#fff" mask="url(#satori_om-id)"/></mask><mask id="satori_om-id-0-2"><rect x="1" y="1" width="0" height="140" fill="#fff" mask="url(#satori_om-id)"/></mask><mask id="satori_om-id-0-3"><rect x="1" y="1" width="0" height="140" fill="#fff" mask="url(#satori_om-id)"/></mask><mask id="satori_om-id-0-4"><rect x="1" y="1" width="0" height="140" fill="#fff" mask="url(#satori_om-id)"/></mask><mask id="satori_om-id-0-5"><rect x="1" y="1" width="0" height="140" fill="#fff" mask="url(#satori_om-id)"/></mask><defs><clipPath id="satori_bc-id-1" clip-path="url(#satori_cp-id)"><rect x="1" y="30" width="268" height="80"/></clipPath></defs><mask id="satori_om-id-1"><rect x="1" y="30" width="267" height="80" fill="#fff" mask="url(#satori_om-id)"/><path width="268" height="80" fill="none" stroke="#000" stroke-width="2" d="M269,30 A0,0 0 0 1 269,30 v80 A0,0 0 0 1 269,110"/></mask><path width="268" height="80" clip-path="url(#satori_bc-id-1)" fill="none" stroke="rgba(255,255,255,0.06)" stroke-width="2" d="M269,30 A0,0 0 0 1 269,30 v80 A0,0 0 0 1 269,110"/><mask id="satori_om-id-1-0"><rect x="115" y="46" width="39" height="30" fill="#fff" mask="url(#satori_om-id)"/></mask><g mask="url(#satori_om-id)" clip-path="url(#satori_cp-id)"><path fill="#a78bfa" d="M124.7 72.3L124.7 72.3Q122.3 72.3 120.4 71.5Q118.6 70.7 117.5 69.2Q116.5 67.8 116.5 65.9L116.5 65.9L120.9 65.9Q121.0 66.7 121.5 67.3Q122.0 67.9 122.8 68.3Q123.6 68.6 124.7 68.6L124.7 68.6Q125.8 68.6 126.6 68.2Q127.4 67.8 127.9 67.2Q128.3 66.5 128.3 65.6L128.3 65.6Q128.3 64.7 127.8 64.0Q127.3 63.3 126.4 62.9Q125.5 62.5 124.3 62.5L124.3 62.5L122.2 62.5L122.2 59.2L124.3 59.2Q125.3 59.2 126.1 58.8Q126.9 58.5 127.4 57.8Q127.9 57.2 127.9 56.3L127.9 56.3Q127.9 55.4 127.5 54.8Q127.1 54.2 126.4 53.8Q125.6 53.5 124.7 53.5L124.7 53.5Q123.7 53.5 123.0 53.8Q122.2 54.1 121.7 54.8Q121.2 55.4 121.2 56.2L121.2 56.2L116.9 56.2Q116.9 54.4 117.9 52.9Q119.0 51.5 120.7 50.7Q122.5 49.9 124.7 49.9L124.7 49.9Q127.0 49.9 128.7 50.7Q130.3 51.5 131.3 52.9Q132.2 54.3 132.2 56.0L132.2 56.0Q132.2 57.8 131.1 59.1Q129.9 60.3 128.1 60.6L128.1 60.6L128.1 60.8Q129.7 61.0 130.8 61.7Q131.9 62.4 132.4 63.5Q133.0 64.5 133.0 65.9L133.0 65.9Q133.0 67.7 131.9 69.2Q130.8 70.6 129.0 71.5Q127.1 72.3 124.7 72.3ZM151.6 72L136.2 72L136.2 68.8L143.9 61.5Q144.9 60.6 145.6 59.8Q146.3 59.0 146.6 58.2Q147.0 57.5 147.0 56.6L147.0 56.6Q147.0 55.6 146.6 54.9Q146.1 54.2 145.4 53.8Q144.6 53.5 143.6 53.5L143.6 53.5Q142.6 53.5 141.8 53.9Q141.1 54.3 140.7 55.0Q140.3 55.8 140.3 56.9L140.3 56.9L136.0 56.9Q136.0 54.7 137.0 53.2Q137.9 51.6 139.7 50.7Q141.4 49.9 143.6 49.9L143.6 49.9Q146.0 49.9 147.7 50.7Q149.4 51.5 150.4 53.0Q151.3 54.4 151.3 56.3L151.3 56.3Q151.3 57.5 150.9 58.7Q150.4 59.9 149.2 61.4Q147.9 62.9 145.7 64.9L145.7 64.9L142.4 68.2L142.4 68.3L151.6 68.3L151.6 72Z "/></g><mask id="satori_om-id-1-1"><rect x="112" y="81" width="45" height="13" fill="#fff" mask="url(#satori_om-id)"/></mask><g mask="url(#satori_om-id)" clip-path="url(#satori_cp-id)"><path fill="rgba(200,195,225,0.45)" d="M114.4 92L112.7 92L112.7 84.0L115.8 84.0Q116.8 84.0 117.4 84.3Q118.0 84.6 118.4 85.2Q118.7 85.8 118.7 86.6Q118.7 87.4 118.4 88.0Q118.0 88.5 117.4 88.8L117.4 88.8Q117.3 88.9 117.3 88.9L117.3 88.9L119.0 92L117.2 92L115.6 89.1L114.4 89.1L114.4 92ZM114.4 85.4L114.4 87.8L115.5 87.8Q116.0 87.8 116.4 87.7Q116.7 87.5 116.9 87.3Q117.0 87.0 117.0 86.6L117.0 86.6Q117.0 86.2 116.9 85.9Q116.7 85.6 116.4 85.5Q116.0 85.4 115.5 85.4L115.5 85.4L114.4 85.4ZM126.8 92L121.4 92L121.4 84.0L126.8 84.0L126.8 85.4L123.1 85.4L123.1 87.3L126.5 87.3L126.5 88.6L123.1 88.6L123.1 90.6L126.8 90.6L126.8 92ZM131.3 92L129.6 92L129.6 84.0L132.8 84.0Q133.7 84.0 134.3 84.3Q134.9 84.7 135.3 85.3Q135.6 85.9 135.6 86.7L135.6 86.7Q135.6 87.5 135.3 88.1Q134.9 88.7 134.3 89.0Q133.6 89.4 132.7 89.4L132.7 89.4L131.3 89.4L131.3 92ZM131.3 85.4L131.3 88.1L132.5 88.1Q133.0 88.1 133.3 87.9Q133.6 87.7 133.8 87.4Q133.9 87.1 133.9 86.7Q133.9 86.3 133.8 86.0Q133.6 85.7 133.3 85.5Q133.0 85.4 132.4 85.4L132.4 85.4L131.3 85.4ZM141.8 92.1L141.8 92.1Q140.7 92.1 139.9 91.6Q139.0 91.1 138.5 90.2Q138.0 89.3 138.0 88.0L138.0 88.0Q138.0 86.7 138.5 85.8Q139.0 84.9 139.9 84.4Q140.7 83.9 141.8 83.9L141.8 83.9Q142.8 83.9 143.7 84.4Q144.5 84.9 145.0 85.8Q145.5 86.7 145.5 88.0L145.5 88.0Q145.5 89.3 145.0 90.2Q144.5 91.1 143.7 91.6Q142.8 92.1 141.8 92.1ZM141.8 90.7L141.8 90.7Q142.4 90.7 142.9 90.3Q143.3 90.0 143.6 89.5Q143.8 88.9 143.8 88.0L143.8 88.0Q143.8 87.1 143.6 86.5Q143.3 86.0 142.9 85.6Q142.4 85.3 141.8 85.3L141.8 85.3Q141.2 85.3 140.7 85.7Q140.2 86.0 140.0 86.6Q139.7 87.1 139.7 88.0L139.7 88.0Q139.7 88.9 140.0 89.4Q140.2 90.0 140.7 90.3Q141.2 90.7 141.8 90.7ZM151.2 92.1L151.2 92.1Q150.2 92.1 149.5 91.8Q148.8 91.5 148.4 90.9Q148.0 90.4 148.0 89.5L148.0 89.5L149.6 89.5Q149.6 89.9 149.8 90.2Q150.0 90.5 150.4 90.6Q150.7 90.7 151.2 90.7L151.2 90.7Q151.6 90.7 151.9 90.6Q152.2 90.5 152.4 90.2Q152.6 90.0 152.6 89.7L152.6 89.7Q152.6 89.4 152.4 89.3Q152.3 89.1 152.0 88.9Q151.7 88.8 151.2 88.7L151.2 88.7L150.3 88.5Q149.3 88.2 148.8 87.7Q148.2 87.2 148.2 86.3L148.2 86.3Q148.2 85.6 148.6 85.0Q149.0 84.5 149.6 84.2Q150.3 83.9 151.2 83.9L151.2 83.9Q152.1 83.9 152.7 84.2Q153.4 84.5 153.8 85.0Q154.1 85.6 154.1 86.3L154.1 86.3L152.6 86.3Q152.5 85.8 152.2 85.5Q151.8 85.3 151.2 85.3L151.2 85.3Q150.8 85.3 150.5 85.4Q150.2 85.5 150.0 85.7Q149.9 85.9 149.9 86.2L149.9 86.2Q149.9 86.5 150.0 86.7Q150.2 86.9 150.5 87.0Q150.8 87.1 151.1 87.2L151.1 87.2L151.9 87.4Q152.4 87.5 152.8 87.7Q153.2 87.9 153.6 88.2Q153.9 88.4 154.1 88.8Q154.3 89.2 154.3 89.7L154.3 89.7Q154.3 90.4 153.9 91.0Q153.5 91.5 152.8 91.8Q152.1 92.1 151.2 92.1Z "/></g><defs><clipPath id="satori_bc-id-2" clip-path="url(#satori_cp-id)"><rect x="269" y="30" width="268" height="80"/></clipPath></defs><mask id="satori_om-id-2"><rect x="269" y="30" width="267" height="80" fill="#fff" mask="url(#satori_om-id)"/><path width="268" height="80" fill="none" stroke="#000" stroke-width="2" d="M537,30 A0,0 0 0 1 537,30 v80 A0,0 0 0 1 537,110"/></mask><path width="268" height="80" clip-path="url(#satori_bc-id-2)" fill="none" stroke="rgba(255,255,255,0.06)" stroke-width="2" d="M537,30 A0,0 0 0 1 537,30 v80 A0,0 0 0 1 537,110"/><mask id="satori_om-id-2-0"><rect x="393" y="46" width="19" height="30" fill="#fff" mask="url(#satori_om-id)"/></mask><g mask="url(#satori_om-id)" clip-path="url(#satori_cp-id)"><path fill="#60a5fa" d="M402.2 72.3L402.2 72.3Q400.0 72.3 398.2 71.5Q396.5 70.6 395.4 69.2Q394.4 67.7 394.4 65.9L394.4 65.9L398.7 65.9Q398.8 66.7 399.2 67.4Q399.7 68.0 400.5 68.4Q401.3 68.7 402.2 68.7L402.2 68.7Q403.3 68.7 404.1 68.3Q405.0 67.8 405.5 66.9Q405.9 66.0 405.9 64.9L405.9 64.9Q405.9 63.7 405.5 62.8Q405.0 61.9 404.1 61.4Q403.3 60.9 402.1 60.9L402.1 60.9Q401.1 60.9 400.2 61.3Q399.3 61.7 398.8 62.3L398.8 62.3L394.8 61.6L395.9 50.2L409.1 50.2L409.1 53.9L399.6 53.9L399.0 59.4L399.1 59.4Q399.7 58.6 400.9 58.1Q402.0 57.6 403.4 57.6L403.4 57.6Q404.9 57.6 406.2 58.1Q407.4 58.6 408.3 59.6Q409.3 60.5 409.8 61.9Q410.3 63.2 410.3 64.7L410.3 64.7Q410.3 66.9 409.3 68.6Q408.2 70.3 406.4 71.3Q404.6 72.3 402.2 72.3Z "/></g><mask id="satori_om-id-2-1"><rect x="380" y="81" width="45" height="13" fill="#fff" mask="url(#satori_om-id)"/></mask><g mask="url(#satori_om-id)" clip-path="url(#satori_cp-id)"><path fill="rgba(200,195,225,0.45)" d="M383.7 92.1L383.7 92.1Q382.7 92.1 382.0 91.8Q381.3 91.5 380.9 90.9Q380.5 90.4 380.5 89.5L380.5 89.5L382.1 89.5Q382.1 89.9 382.3 90.2Q382.5 90.5 382.9 90.6Q383.2 90.7 383.6 90.7L383.6 90.7Q384.1 90.7 384.4 90.6Q384.7 90.5 384.9 90.2Q385.1 90.0 385.1 89.7L385.1 89.7Q385.1 89.4 384.9 89.3Q384.8 89.1 384.5 88.9Q384.2 88.8 383.7 88.7L383.7 88.7L382.8 88.5Q381.8 88.2 381.2 87.7Q380.7 87.2 380.7 86.3L380.7 86.3Q380.7 85.6 381.1 85.0Q381.5 84.5 382.1 84.2Q382.8 83.9 383.7 83.9L383.7 83.9Q384.6 83.9 385.2 84.2Q385.9 84.5 386.3 85.0Q386.6 85.6 386.6 86.3L386.6 86.3L385.1 86.3Q385.0 85.8 384.6 85.5Q384.3 85.3 383.7 85.3L383.7 85.3Q383.2 85.3 383.0 85.4Q382.7 85.5 382.5 85.7Q382.4 85.9 382.4 86.2L382.4 86.2Q382.4 86.5 382.5 86.7Q382.7 86.9 383.0 87.0Q383.3 87.1 383.6 87.2L383.6 87.2L384.4 87.4Q384.9 87.5 385.3 87.7Q385.7 87.9 386.1 88.2Q386.4 88.4 386.6 88.8Q386.7 89.2 386.7 89.7L386.7 89.7Q386.7 90.4 386.4 91.0Q386.0 91.5 385.3 91.8Q384.6 92.1 383.7 92.1ZM391.6 85.4L389.1 85.4L389.1 84.0L395.6 84.0L395.6 85.4L393.2 85.4L393.2 92L391.6 92L391.6 85.4ZM399.6 92L397.8 92L400.5 84.0L402.7 84.0L405.5 92L403.7 92L403.1 90.1L400.2 90.1L399.6 92ZM400.6 88.9L402.6 88.9L402.4 88.1Q402.2 87.4 401.9 86.5L401.9 86.5Q401.8 85.9 401.6 85.3L401.6 85.3Q401.4 85.9 401.3 86.5L401.3 86.5Q401.1 87.4 400.9 88.1L400.9 88.1L400.6 88.9ZM409.6 92L408.0 92L408.0 84.0L411.1 84.0Q412.0 84.0 412.7 84.3Q413.3 84.6 413.6 85.2Q414.0 85.8 414.0 86.6Q414.0 87.4 413.6 88.0Q413.3 88.5 412.6 88.8L412.6 88.8Q412.6 88.9 412.5 88.9L412.5 88.9L414.3 92L412.4 92L410.9 89.1L409.6 89.1L409.6 92ZM409.6 85.4L409.6 87.8L410.8 87.8Q411.3 87.8 411.6 87.7Q412.0 87.5 412.1 87.3Q412.3 87.0 412.3 86.6L412.3 86.6Q412.3 86.2 412.1 85.9Q412.0 85.6 411.6 85.5Q411.3 85.4 410.8 85.4L410.8 85.4L409.6 85.4ZM419.6 92.1L419.6 92.1Q418.7 92.1 418.0 91.8Q417.3 91.5 416.9 90.9Q416.5 90.4 416.4 89.5L416.4 89.5L418.0 89.5Q418.1 89.9 418.3 90.2Q418.5 90.5 418.8 90.6Q419.2 90.7 419.6 90.7L419.6 90.7Q420.1 90.7 420.4 90.6Q420.7 90.5 420.9 90.2Q421.1 90.0 421.1 89.7L421.1 89.7Q421.1 89.4 420.9 89.3Q420.8 89.1 420.4 88.9Q420.1 88.8 419.7 88.7L419.7 88.7L418.8 88.5Q417.8 88.2 417.2 87.7Q416.7 87.2 416.7 86.3L416.7 86.3Q416.7 85.6 417.0 85.0Q417.4 84.5 418.1 84.2Q418.8 83.9 419.7 83.9L419.7 83.9Q420.5 83.9 421.2 84.2Q421.9 84.5 422.2 85.0Q422.6 85.6 422.6 86.3L422.6 86.3L421.0 86.3Q421.0 85.8 420.6 85.5Q420.3 85.3 419.6 85.3L419.6 85.3Q419.2 85.3 418.9 85.4Q418.6 85.5 418.5 85.7Q418.3 85.9 418.3 86.2L418.3 86.2Q418.3 86.5 418.5 86.7Q418.7 86.9 419.0 87.0Q419.3 87.1 419.6 87.2L419.6 87.2L420.3 87.4Q420.8 87.5 421.3 87.7Q421.7 87.9 422.0 88.2Q422.4 88.4 422.5 88.8Q422.7 89.2 422.7 89.7L422.7 89.7Q422.7 90.4 422.4 91.0Q422.0 91.5 421.3 91.8Q420.6 92.1 419.6 92.1Z "/></g><mask id="satori_om-id-3"><rect x="537" y="30" width="322" height="80" fill="#fff" mask="url(#satori_om-id)"/></mask><mask id="satori_om-id-3-0"><rect x="648" y="46" width="100" height="30" fill="#fff" mask="url(#satori_om-id)"/></mask><g mask="url(#satori_om-id)" clip-path="url(#satori_cp-id)"><path fill="#f59e0b" d="M658.0 72.3L658.0 72.3Q656.4 72.3 654.8 71.7Q653.3 71.2 652.0 69.9Q650.8 68.7 650.1 66.7Q649.4 64.6 649.4 61.6L649.4 61.6Q649.4 58.8 650.0 56.7Q650.6 54.5 651.8 53.0Q652.9 51.5 654.5 50.7Q656.2 49.9 658.2 49.9L658.2 49.9Q660.3 49.9 662.0 50.7Q663.6 51.6 664.7 53.0Q665.7 54.4 665.9 56.2L665.9 56.2L661.5 56.2Q661.2 55.1 660.3 54.4Q659.5 53.7 658.2 53.7L658.2 53.7Q656.7 53.7 655.8 54.6Q654.8 55.4 654.3 57.0Q653.8 58.6 653.8 60.7L653.8 60.7L653.9 60.7Q654.4 59.8 655.2 59.1Q656.1 58.4 657.1 58.0Q658.2 57.7 659.4 57.7L659.4 57.7Q661.3 57.7 662.8 58.6Q664.4 59.5 665.2 61.1Q666.1 62.7 666.1 64.7L666.1 64.7Q666.1 66.9 665.1 68.6Q664.1 70.3 662.3 71.3Q660.4 72.3 658.0 72.3ZM658.0 68.7L658.0 68.7Q659.1 68.7 659.9 68.2Q660.8 67.7 661.3 66.8Q661.8 65.9 661.8 64.8L661.8 64.8Q661.8 63.7 661.3 62.8Q660.8 62.0 660.0 61.4Q659.1 60.9 658.0 60.9L658.0 60.9Q657.2 60.9 656.5 61.2Q655.8 61.5 655.3 62.1Q654.8 62.6 654.5 63.3Q654.2 64.0 654.2 64.8L654.2 64.8Q654.2 65.9 654.7 66.8Q655.2 67.7 656.0 68.2Q656.9 68.7 658.0 68.7ZM677.6 72.3L677.6 72.3Q674.8 72.3 672.9 71.0Q670.9 69.6 669.9 67.1Q668.9 64.6 668.9 61.1L668.9 61.1Q668.9 57.6 669.9 55.1Q670.9 52.5 672.9 51.2Q674.8 49.9 677.6 49.9L677.6 49.9Q680.3 49.9 682.3 51.2Q684.3 52.6 685.3 55.1Q686.3 57.6 686.3 61.1L686.3 61.1Q686.3 64.6 685.3 67.1Q684.3 69.6 682.3 71.0Q680.4 72.3 677.6 72.3ZM677.6 68.6L677.6 68.6Q678.9 68.6 679.9 67.7Q680.8 66.8 681.3 65.2Q681.8 63.5 681.8 61.1L681.8 61.1Q681.8 58.7 681.3 57.0Q680.8 55.3 679.9 54.5Q678.9 53.6 677.6 53.6L677.6 53.6Q676.3 53.6 675.3 54.5Q674.4 55.3 673.9 57.0Q673.4 58.7 673.4 61.1L673.4 61.1Q673.4 63.5 673.9 65.2Q674.4 66.8 675.3 67.7Q676.3 68.6 677.6 68.6ZM699.6 68.1L689.2 68.1L689.2 64.6L698.3 50.2L703.9 50.2L703.9 64.5L706.7 64.5L706.7 68.1L703.9 68.1L703.9 72L699.6 72L699.6 68.1ZM693.7 64.5L699.7 64.5L699.7 55.1L699.5 55.1L693.7 64.3L693.7 64.5ZM718.0 72.3L718.0 72.3Q716.4 72.3 714.8 71.7Q713.3 71.2 712.0 69.9Q710.8 68.7 710.1 66.7Q709.4 64.6 709.4 61.6L709.4 61.6Q709.4 58.8 710.0 56.7Q710.6 54.5 711.8 53.0Q712.9 51.5 714.5 50.7Q716.2 49.9 718.2 49.9L718.2 49.9Q720.3 49.9 722.0 50.7Q723.6 51.6 724.7 53.0Q725.7 54.4 725.9 56.2L725.9 56.2L721.5 56.2Q721.2 55.1 720.3 54.4Q719.5 53.7 718.2 53.7L718.2 53.7Q716.7 53.7 715.8 54.6Q714.8 55.4 714.3 57.0Q713.8 58.6 713.8 60.7L713.8 60.7L713.9 60.7Q714.4 59.8 715.2 59.1Q716.1 58.4 717.1 58.0Q718.2 57.7 719.4 57.7L719.4 57.7Q721.3 57.7 722.8 58.6Q724.4 59.5 725.2 61.1Q726.1 62.7 726.1 64.7L726.1 64.7Q726.1 66.9 725.1 68.6Q724.1 70.3 722.3 71.3Q720.4 72.3 718.0 72.3ZM718.0 68.7L718.0 68.7Q719.1 68.7 719.9 68.2Q720.8 67.7 721.3 66.8Q721.8 65.9 721.8 64.8L721.8 64.8Q721.8 63.7 721.3 62.8Q720.8 62.0 720.0 61.4Q719.1 60.9 718.0 60.9L718.0 60.9Q717.2 60.9 716.5 61.2Q715.8 61.5 715.3 62.1Q714.8 62.6 714.5 63.3Q714.2 64.0 714.2 64.8L714.2 64.8Q714.2 65.9 714.7 66.8Q715.2 67.7 716.0 68.2Q716.9 68.7 718.0 68.7ZM737.6 72.3L737.6 72.3Q734.8 72.3 732.9 71.0Q730.9 69.6 729.9 67.1Q728.9 64.6 728.9 61.1L728.9 61.1Q728.9 57.6 729.9 55.1Q730.9 52.5 732.9 51.2Q734.8 49.9 737.6 49.9L737.6 49.9Q740.3 49.9 742.3 51.2Q744.3 52.6 745.3 55.1Q746.3 57.6 746.3 61.1L746.3 61.1Q746.3 64.6 745.3 67.1Q744.3 69.6 742.3 71.0Q740.4 72.3 737.6 72.3ZM737.6 68.6L737.6 68.6Q738.9 68.6 739.9 67.7Q740.8 66.8 741.3 65.2Q741.8 63.5 741.8 61.1L741.8 61.1Q741.8 58.7 741.3 57.0Q740.8 55.3 739.9 54.5Q738.9 53.6 737.6 53.6L737.6 53.6Q736.3 53.6 735.3 54.5Q734.4 55.3 733.9 57.0Q733.4 58.7 733.4 61.1L733.4 61.1Q733.4 63.5 733.9 65.2Q734.4 66.8 735.3 67.7Q736.3 68.6 737.6 68.6Z "/></g><mask id="satori_om-id-3-1"><rect x="665" y="81" width="66" height="13" fill="#fff" mask="url(#satori_om-id)"/></mask><g mask="url(#satori_om-id)" clip-path="url(#satori_cp-id)"><path fill="rgba(200,195,225,0.45)" d="M669.2 92.1L669.2 92.1Q668.2 92.1 667.3 91.6Q666.5 91.1 666.0 90.2Q665.5 89.3 665.5 88.0L665.5 88.0Q665.5 86.7 666.0 85.8Q666.5 84.9 667.3 84.4Q668.2 83.9 669.2 83.9L669.2 83.9Q669.9 83.9 670.5 84.1Q671.1 84.3 671.5 84.6Q672.0 85.0 672.3 85.5Q672.6 86.1 672.7 86.7L672.7 86.7L671.0 86.7Q671.0 86.4 670.8 86.1Q670.6 85.9 670.4 85.7Q670.2 85.5 669.9 85.4Q669.6 85.3 669.3 85.3L669.3 85.3Q668.6 85.3 668.2 85.7Q667.7 86.0 667.4 86.6Q667.2 87.2 667.2 88.0L667.2 88.0Q667.2 88.9 667.4 89.5Q667.7 90.1 668.2 90.4Q668.6 90.7 669.2 90.7L669.2 90.7Q669.6 90.7 669.9 90.6Q670.2 90.5 670.4 90.3Q670.6 90.1 670.8 89.8Q671.0 89.6 671.0 89.3L671.0 89.3L672.7 89.3Q672.6 89.8 672.3 90.3Q672.1 90.8 671.6 91.2Q671.2 91.6 670.6 91.9Q670.0 92.1 669.2 92.1ZM678.9 92.1L678.9 92.1Q677.8 92.1 677.0 91.6Q676.1 91.1 675.6 90.2Q675.1 89.3 675.1 88.0L675.1 88.0Q675.1 86.7 675.6 85.8Q676.1 84.9 677.0 84.4Q677.8 83.9 678.9 83.9L678.9 83.9Q679.9 83.9 680.8 84.4Q681.6 84.9 682.1 85.8Q682.6 86.7 682.6 88.0L682.6 88.0Q682.6 89.3 682.1 90.2Q681.6 91.1 680.8 91.6Q679.9 92.1 678.9 92.1ZM678.9 90.7L678.9 90.7Q679.5 90.7 680.0 90.3Q680.4 90.0 680.7 89.5Q680.9 88.9 680.9 88.0L680.9 88.0Q680.9 87.1 680.7 86.5Q680.4 86.0 680.0 85.6Q679.5 85.3 678.9 85.3L678.9 85.3Q678.3 85.3 677.8 85.7Q677.3 86.0 677.1 86.6Q676.8 87.1 676.8 88.0L676.8 88.0Q676.8 88.9 677.1 89.4Q677.3 90.0 677.8 90.3Q678.3 90.7 678.9 90.7ZM687.0 92L685.3 92L685.3 84.0L687.9 84.0L689.2 87.7Q689.2 87.9 689.3 88.3Q689.4 88.7 689.5 89.2L689.5 89.2Q689.7 89.7 689.7 90.1L689.7 90.1Q689.8 89.7 689.9 89.2L689.9 89.2Q690.0 88.8 690.2 88.3Q690.3 87.9 690.3 87.7L690.3 87.7L691.6 84.0L694.1 84.0L694.1 92L692.5 92L692.5 88.2Q692.5 88.0 692.5 87.6Q692.5 87.2 692.5 86.7Q692.5 86.3 692.5 85.8L692.5 85.8Q692.6 85.6 692.6 85.4L692.6 85.4Q692.5 85.6 692.4 85.9L692.4 85.9Q692.3 86.3 692.2 86.8Q692.1 87.2 691.9 87.6Q691.8 88.0 691.8 88.2L691.8 88.2L690.4 92L689.0 92L687.7 88.2Q687.6 88.0 687.5 87.6Q687.4 87.2 687.3 86.8Q687.1 86.4 687.0 85.9L687.0 85.9Q687.0 85.7 686.9 85.5L686.9 85.5Q686.9 85.6 686.9 85.8L686.9 85.8Q686.9 86.2 686.9 86.7Q686.9 87.2 687.0 87.6Q687.0 88.0 687.0 88.2L687.0 88.2L687.0 92ZM698.7 92L697.1 92L697.1 84.0L699.6 84.0L700.9 87.7Q701.0 87.9 701.1 88.3Q701.2 88.7 701.3 89.2L701.3 89.2Q701.4 89.7 701.5 90.1L701.5 90.1Q701.6 89.7 701.7 89.2L701.7 89.2Q701.8 88.8 701.9 88.3Q702.0 87.9 702.1 87.7L702.1 87.7L703.4 84.0L705.9 84.0L705.9 92L704.2 92L704.2 88.2Q704.2 88.0 704.2 87.6Q704.3 87.2 704.3 86.7Q704.3 86.3 704.3 85.8L704.3 85.8Q704.3 85.6 704.3 85.4L704.3 85.4Q704.2 85.6 704.2 85.9L704.2 85.9Q704.1 86.3 703.9 86.8Q703.8 87.2 703.7 87.6Q703.6 88.0 703.5 88.2L703.5 88.2L702.2 92L700.8 92L699.4 88.2Q699.4 88.0 699.3 87.6Q699.1 87.2 699.0 86.8Q698.9 86.4 698.8 85.9L698.8 85.9Q698.7 85.7 698.7 85.5L698.7 85.5Q698.7 85.6 698.7 85.8L698.7 85.8Q698.7 86.2 698.7 86.7Q698.7 87.2 698.7 87.6Q698.7 88.0 698.7 88.2L698.7 88.2L698.7 92ZM708.8 84.0L710.5 84.0L710.5 92L708.8 92L708.8 84.0ZM715.5 85.4L713.1 85.4L713.1 84.0L719.6 84.0L719.6 85.4L717.2 85.4L717.2 92L715.5 92L715.5 85.4ZM725.2 92.1L725.2 92.1Q724.2 92.1 723.5 91.8Q722.8 91.5 722.4 90.9Q722.0 90.4 722.0 89.5L722.0 89.5L723.6 89.5Q723.6 89.9 723.8 90.2Q724.0 90.5 724.4 90.6Q724.7 90.7 725.2 90.7L725.2 90.7Q725.6 90.7 725.9 90.6Q726.3 90.5 726.5 90.2Q726.6 90.0 726.6 89.7L726.6 89.7Q726.6 89.4 726.5 89.3Q726.3 89.1 726.0 88.9Q725.7 88.8 725.3 88.7L725.3 88.7L724.4 88.5Q723.4 88.2 722.8 87.7Q722.2 87.2 722.2 86.3L722.2 86.3Q722.2 85.6 722.6 85.0Q723.0 84.5 723.7 84.2Q724.3 83.9 725.2 83.9L725.2 83.9Q726.1 83.9 726.8 84.2Q727.4 84.5 727.8 85.0Q728.2 85.6 728.2 86.3L728.2 86.3L726.6 86.3Q726.6 85.8 726.2 85.5Q725.8 85.3 725.2 85.3L725.2 85.3Q724.8 85.3 724.5 85.4Q724.2 85.5 724.0 85.7Q723.9 85.9 723.9 86.2L723.9 86.2Q723.9 86.5 724.1 86.7Q724.2 86.9 724.5 87.0Q724.8 87.1 725.2 87.2L725.2 87.2L725.9 87.4Q726.4 87.5 726.8 87.7Q727.3 87.9 727.6 88.2Q727.9 88.4 728.1 88.8Q728.3 89.2 728.3 89.7L728.3 89.7Q728.3 90.4 727.9 91.0Q727.6 91.5 726.9 91.8Q726.2 92.1 725.2 92.1Z "/></g></svg>