<!-- Generated by readme-aura https://github.com/collectioneur/readme-aura -->
<svg width="160" height="52" viewBox="0 0 160 52" xmlns="http://www.w3.org/2000/svg"><defs><clipPath id="satori_bc-id"><path x="0" y="0" width="160" height="52" d="M14,0 h132 a14,14 0 0 1 14,14 v24 a14,14 0 0 1 -14,14 h-132 a14,14 0 0 1 -14,-14 v-24 a14,14 0 0 1 14,-14"/></clipPath></defs><mask id="satori_om-id"><rect x="1" y="1" width="158" height="50" fill="#fff"/><path width="160" height="52" fill="none" stroke="#000" stroke-width="2" d="M4.101000000000001,4.101000000000001 A14,14 0 0 1 14,0 h132 a14,14 0 0 1 14,14 v24 a14,14 0 0 1 -14,14 h-132 a14,14 0 0 1 -14,-14 v-24 A14,14 0 0 1 4.101000000000001,4.101000000000001"/></mask><path x="0" y="0" width="160" height="52" fill="#111" d="M14,0 h132 a14,14 0 0 1 14,14 v24 a14,14 0 0 1 -14,14 h-132 a14,14 0 0 1 -14,-14 v-24 a14,14 0 0 1 14,-14"/><path width="160" height="52" clip-path="url(#satori_bc-id)" fill="none" stroke="rgba(255,255,255,0.12)" stroke-width="2" d="M4.101000000000001,4.101000000000001 A14,14 0 0 1 14,0 h132 a14,14 0 0 1 14,14 v24 a14,14 0 0 1 -14,14 h-132 a14,14 0 0 1 -14,-14 v-24 A14,14 0 0 1 4.101000000000001,4.101000000000001"/><mask id="satori_om-id-0"><rect x="46" y="17" width="68" height="19" fill="#fff"/></mask><g  ><path fill="#fff" d="M49.4 33L47.1 33L47.1 21.4L51.6 21.4Q52.9 21.4 53.9 21.9Q54.8 22.4 55.3 23.3Q55.8 24.1 55.8 25.3L55.8 25.3Q55.8 26.4 55.3 27.3Q54.8 28.2 53.8 28.7Q52.9 29.2 51.5 29.2L51.5 29.2L49.4 29.2L49.4 33ZM49.4 23.3L49.4 27.3L51.2 27.3Q51.9 27.3 52.4 27.0Q52.8 26.8 53.1 26.3Q53.3 25.9 53.3 25.3Q53.3 24.7 53.1 24.3Q52.8 23.8 52.4 23.6Q51.9 23.3 51.1 23.3L51.1 23.3L49.4 23.3ZM61.3 33.2L61.3 33.2Q60.0 33.2 59 32.6Q58.0 32.0 57.5 31.0Q57 30.0 57 28.7L57 28.7Q57 27.3 57.5 26.3Q58.0 25.3 59 24.7Q60.0 24.2 61.3 24.2L61.3 24.2Q62.6 24.2 63.6 24.7Q64.5 25.3 65.0 26.3Q65.5 27.3 65.5 28.7L65.5 28.7Q65.5 30.0 65.0 31.0Q64.5 32.0 63.6 32.6Q62.6 33.2 61.3 33.2ZM61.3 31.3L61.3 31.3Q61.9 31.3 62.3 31.0Q62.7 30.6 63.0 30.0Q63.2 29.4 63.2 28.7L63.2 28.7Q63.2 27.9 63.0 27.3Q62.7 26.7 62.3 26.3Q61.9 26 61.3 26L61.3 26Q60.6 26 60.2 26.3Q59.8 26.7 59.6 27.3Q59.4 27.9 59.4 28.7L59.4 28.7Q59.4 29.4 59.6 30.0Q59.8 30.6 60.2 31.0Q60.6 31.3 61.3 31.3ZM69.5 33L67.2 33L67.2 24.3L69.4 24.3L69.4 25.8L69.5 25.8Q69.8 25.0 70.3 24.6Q70.9 24.1 71.6 24.1L71.6 24.1Q71.8 24.1 72.0 24.2Q72.3 24.2 72.4 24.2L72.4 24.2L72.4 26.3Q72.3 26.3 72.0 26.2Q71.7 26.2 71.4 26.2L71.4 26.2Q70.9 26.2 70.4 26.4Q70 26.7 69.8 27.1Q69.5 27.5 69.5 28.0L69.5 28.0L69.5 33ZM76.4 24.3L78.0 24.3L78.0 26.1L76.4 26.1L76.4 30.4Q76.4 30.9 76.6 31.1Q76.8 31.3 77.2 31.3L77.2 31.3Q77.3 31.3 77.6 31.2Q77.8 31.2 77.9 31.2L77.9 31.2L78.3 32.9Q77.9 33.0 77.5 33.1Q77.1 33.1 76.8 33.1L76.8 33.1Q75.4 33.1 74.8 32.5Q74.1 31.8 74.1 30.6L74.1 30.6L74.1 26.1L72.9 26.1L72.9 24.3L74.1 24.3L74.1 22.2L76.4 22.2L76.4 24.3ZM82.6 24.3L84.4 24.3L84.4 26.1L82.6 26.1L82.6 33L80.3 33L80.3 26.1L78.7 26.1L78.7 24.3L80.3 24.3L80.3 23.6Q80.3 22.7 80.6 22.0Q81.0 21.4 81.6 21.1Q82.3 20.8 83.1 20.8L83.1 20.8Q83.6 20.8 84.1 20.9Q84.6 21.0 84.8 21.1L84.8 21.1L84.3 22.8Q84.2 22.8 84.0 22.7Q83.8 22.7 83.6 22.7L83.6 22.7Q83.0 22.7 82.8 23.0Q82.6 23.2 82.6 23.7L82.6 23.7L82.6 24.3ZM89.8 33.2L89.8 33.2Q88.5 33.2 87.6 32.6Q86.6 32.0 86.1 31.0Q85.6 30.0 85.6 28.7L85.6 28.7Q85.6 27.3 86.1 26.3Q86.6 25.3 87.6 24.7Q88.5 24.2 89.8 24.2L89.8 24.2Q91.1 24.2 92.1 24.7Q93.1 25.3 93.6 26.3Q94.1 27.3 94.1 28.7L94.1 28.7Q94.1 30.0 93.6 31.0Q93.1 32.0 92.1 32.6Q91.1 33.2 89.8 33.2ZM89.8 31.3L89.8 31.3Q90.5 31.3 90.9 31.0Q91.3 30.6 91.5 30.0Q91.7 29.4 91.7 28.7L91.7 28.7Q91.7 27.9 91.5 27.3Q91.3 26.7 90.9 26.3Q90.5 26 89.8 26L89.8 26Q89.2 26 88.8 26.3Q88.4 26.7 88.2 27.3Q87.9 27.9 87.9 28.7L87.9 28.7Q87.9 29.4 88.2 30.0Q88.4 30.6 88.8 31.0Q89.2 31.3 89.8 31.3ZM95.7 21.4L98.1 21.4L98.1 33L95.7 33L95.7 21.4ZM102.4 33L100.1 33L100.1 24.3L102.4 24.3L102.4 33ZM101.2 23.1L101.2 23.1Q100.7 23.1 100.3 22.8Q100.0 22.4 100.0 21.9L100.0 21.9Q100.0 21.4 100.3 21.1Q100.7 20.7 101.2 20.7L101.2 20.7Q101.8 20.7 102.2 21.1Q102.5 21.4 102.5 21.9L102.5 21.9Q102.5 22.4 102.2 22.8Q101.8 23.1 101.2 23.1ZM108.3 33.2L108.3 33.2Q107 33.2 106.0 32.6Q105.1 32.0 104.6 31.0Q104.0 30.0 104.0 28.7L104.0 28.7Q104.0 27.3 104.6 26.3Q105.1 25.3 106.0 24.7Q107 24.2 108.3 24.2L108.3 24.2Q109.6 24.2 110.6 24.7Q111.5 25.3 112.1 26.3Q112.6 27.3 112.6 28.7L112.6 28.7Q112.6 30.0 112.1 31.0Q111.5 32.0 110.6 32.6Q109.6 33.2 108.3 33.2ZM108.3 31.3L108.3 31.3Q108.9 31.3 109.4 31.0Q109.8 30.6 110.0 30.0Q110.2 29.4 110.2 28.7L110.2 28.7Q110.2 27.9 110.0 27.3Q109.8 26.7 109.4 26.3Q108.9 26 108.3 26L108.3 26Q107.7 26 107.3 26.3Q106.9 26.7 106.6 27.3Q106.4 27.9 106.4 28.7L106.4 28.7Q106.4 29.4 106.6 30.0Q106.9 30.6 107.3 31.0Q107.7 31.3 108.3 31.3Z "/></g></svg>