<!-- Generated by readme-aura https://github.com/collectioneur/readme-aura -->
<svg width="860" height="40" viewBox="0 0 860 40" xmlns="http://www.w3.org/2000/svg"><mask id="satori_om-id"><rect x="0" y="0" width="860" height="40" fill="#fff"/></mask><defs><clipPath id="satori_bc-id-0"><path x="296" y="7" width="268" height="27" d="M309.5,7 h241 a13.5,13.5 0 0 1 13.5,13.5 v0 a13.5,13.5 0 0 1 -13.5,13.5 h-241 a13.5,13.5 0 0 1 -13.5,-13.5 v0 a13.5,13.5 0 0 1 13.5,-13.5"/></clipPath></defs><mask id="satori_om-id-0"><rect x="297" y="8" width="266" height="25" fill="#fff"/><path width="268" height="27" fill="none" stroke="#000" stroke-width="2" d="M299.954,10.954 A13.5,13.5 0 0 1 309.5,7 h241 a13.5,13.5 0 0 1 13.5,13.5 v0 a13.5,13.5 0 0 1 -13.5,13.5 h-241 a13.5,13.5 0 0 1 -13.5,-13.5 v0 A13.5,13.5 0 0 1 299.954,10.954"/></mask><path x="296" y="7" width="268" height="27" fill="rgba(255,255,255,0.04)" d="M309.5,7 h241 a13.5,13.5 0 0 1 13.5,13.5 v0 a13.5,13.5 0 0 1 -13.5,13.5 h-241 a13.5,13.5 0 0 1 -13.5,-13.5 v0 a13.5,13.5 0 0 1 13.5,-13.5"/><path width="268" height="27" clip-path="url(#satori_bc-id-0)" fill="none" stroke="rgba(255,255,255,0.06)" stroke-width="2" d="M299.954,10.954 A13.5,13.5 0 0 1 309.5,7 h241 a13.5,13.5 0 0 1 13.5,13.5 v0 a13.5,13.5 0 0 1 -13.5,13.5 h-241 a13.5,13.5 0 0 1 -13.5,-13.5 v0 A13.5,13.5 0 0 1 299.954,10.954"/><mask id="satori_om-id-0-0"><rect x="317" y="14" width="226" height="13" fill="#fff"/></mask><g  ><path fill="#444" d="M319.4 25L317.7 25L317.7 17.0L320.8 17.0Q321.8 17.0 322.4 17.3Q323.0 17.7 323.4 18.3Q323.7 18.9 323.7 19.7L323.7 19.7Q323.7 20.5 323.4 21.1Q323.0 21.7 322.4 22.0Q321.7 22.4 320.8 22.4L320.8 22.4L319.4 22.4L319.4 25ZM319.4 18.4L319.4 21.1L320.5 21.1Q321.0 21.1 321.4 20.9Q321.7 20.7 321.9 20.4Q322.0 20.1 322.0 19.7Q322.0 19.3 321.9 19.0Q321.7 18.7 321.4 18.5Q321.0 18.4 320.5 18.4L320.5 18.4L319.4 18.4ZM329.6 25.1L329.6 25.1Q328.5 25.1 327.7 24.6Q326.8 24.1 326.3 23.2Q325.8 22.3 325.8 21.0L325.8 21.0Q325.8 19.7 326.3 18.8Q326.8 17.9 327.7 17.4Q328.5 16.9 329.6 16.9L329.6 16.9Q330.6 16.9 331.5 17.4Q332.3 17.9 332.8 18.8Q333.3 19.7 333.3 21.0L333.3 21.0Q333.3 22.3 332.8 23.2Q332.3 24.1 331.5 24.6Q330.6 25.1 329.6 25.1ZM329.6 23.7L329.6 23.7Q330.2 23.7 330.7 23.3Q331.1 23.0 331.4 22.5Q331.6 21.9 331.6 21.0L331.6 21.0Q331.6 20.1 331.4 19.5Q331.1 19.0 330.7 18.6Q330.2 18.3 329.6 18.3L329.6 18.3Q328.9 18.3 328.5 18.7Q328.0 19.0 327.8 19.6Q327.5 20.1 327.5 21.0L327.5 21.0Q327.5 21.9 327.8 22.4Q328.0 23.0 328.5 23.3Q328.9 23.7 329.6 23.7ZM339.3 25L337.4 25L335.3 17.0L337.1 17.0L338.0 20.9Q338.1 21.4 338.2 22.0Q338.3 22.6 338.4 23.1L338.4 23.1Q338.4 23.2 338.4 23.4L338.4 23.4Q338.4 23.2 338.5 23.1L338.5 23.1Q338.6 22.6 338.7 22.0Q338.8 21.4 338.9 20.9L338.9 20.9L339.9 17.0L341.6 17.0L342.5 20.9Q342.7 21.4 342.8 22.0Q342.9 22.6 343.0 23.1L343.0 23.1Q343.0 23.2 343.0 23.3L343.0 23.3Q343.0 23.2 343.0 23.1L343.0 23.1Q343.1 22.6 343.2 22.0Q343.3 21.4 343.4 20.9L343.4 20.9L344.4 17.0L346.2 17.0L344.0 25L342.1 25L341.1 20.9Q340.9 20.2 340.8 19.4L340.8 19.4Q340.7 19.2 340.7 19.0L340.7 19.0Q340.7 19.2 340.6 19.4L340.6 19.4Q340.5 20.2 340.3 20.9L340.3 20.9L339.3 25ZM353.7 25L348.3 25L348.3 17.0L353.7 17.0L353.7 18.4L350.0 18.4L350.0 20.3L353.4 20.3L353.4 21.6L350.0 21.6L350.0 23.6L353.7 23.6L353.7 25ZM357.9 25L356.2 25L356.2 17.0L359.3 17.0Q360.3 17.0 360.9 17.3Q361.5 17.6 361.9 18.2Q362.2 18.8 362.2 19.6Q362.2 20.4 361.9 21.0Q361.5 21.5 360.9 21.8L360.9 21.8Q360.8 21.9 360.8 21.9L360.8 21.9L362.5 25L360.7 25L359.1 22.1L357.9 22.1L357.9 25ZM357.9 18.4L357.9 20.8L359.0 20.8Q359.5 20.8 359.9 20.7Q360.2 20.5 360.4 20.3Q360.5 20.0 360.5 19.6L360.5 19.6Q360.5 19.2 360.4 18.9Q360.2 18.6 359.9 18.5Q359.5 18.4 359.0 18.4L359.0 18.4L357.9 18.4ZM370.0 25L364.6 25L364.6 17.0L370.0 17.0L370.0 18.4L366.3 18.4L366.3 20.3L369.7 20.3L369.7 21.6L366.3 21.6L366.3 23.6L370.0 23.6L370.0 25ZM375.3 25L375.3 25L372.5 25L372.5 17.0L375.4 17.0Q376.6 17.0 377.4 17.5Q378.3 18.0 378.8 18.9Q379.2 19.7 379.2 21.0L379.2 21.0Q379.2 22.2 378.8 23.1Q378.3 24.0 377.4 24.5Q376.6 25 375.3 25ZM374.2 18.4L374.2 23.6L375.3 23.6Q376.0 23.6 376.6 23.3Q377.1 23.0 377.3 22.5Q377.6 21.9 377.6 21.0L377.6 21.0Q377.6 20.1 377.3 19.5Q377.1 19.0 376.6 18.7Q376.0 18.4 375.3 18.4L375.3 18.4L374.2 18.4Z M388.9 25L385.5 25L385.5 17.0L388.7 17.0Q389.5 17.0 390.1 17.3Q390.7 17.5 391.0 18.0Q391.3 18.5 391.3 19.1L391.3 19.1Q391.3 19.5 391.1 19.9Q390.9 20.2 390.6 20.5Q390.3 20.7 389.9 20.8L389.9 20.8L389.9 20.9Q390.3 20.9 390.7 21.1Q391.1 21.3 391.4 21.8Q391.6 22.2 391.6 22.8L391.6 22.8Q391.6 23.4 391.3 23.9Q391.0 24.4 390.4 24.7Q389.8 25 388.9 25L388.9 25ZM387.1 21.5L387.1 23.7L388.5 23.7Q389.3 23.7 389.6 23.4Q389.9 23.1 389.9 22.6L389.9 22.6Q389.9 22.3 389.8 22.0Q389.6 21.8 389.3 21.6Q389.0 21.5 388.6 21.5L388.6 21.5L387.1 21.5ZM387.1 18.3L387.1 20.4L388.4 20.4Q388.8 20.4 389.0 20.2Q389.3 20.1 389.5 19.9Q389.6 19.6 389.6 19.3L389.6 19.3Q389.6 18.9 389.3 18.6Q389.0 18.3 388.4 18.3L388.4 18.3L387.1 18.3ZM398.1 25L396.5 25L396.5 22.0L393.5 17.0L395.4 17.0L396.8 19.5Q397.0 19.9 397.1 20.2L397.1 20.2Q397.2 20.4 397.3 20.6L397.3 20.6Q397.4 20.4 397.4 20.2L397.4 20.2Q397.6 19.9 397.8 19.5L397.8 19.5L399.1 17.0L401.0 17.0L398.1 22.0L398.1 25Z M408.6 25L407.0 25L407.0 17.0L410.1 17.0Q411.0 17.0 411.7 17.3Q412.3 17.6 412.6 18.2Q413.0 18.8 413.0 19.6Q413.0 20.4 412.6 21.0Q412.3 21.5 411.7 21.8L411.7 21.8Q411.6 21.9 411.6 21.9L411.6 21.9L413.3 25L411.5 25L409.9 22.1L408.6 22.1L408.6 25ZM408.6 18.4L408.6 20.8L409.8 20.8Q410.3 20.8 410.6 20.7Q411.0 20.5 411.1 20.3Q411.3 20.0 411.3 19.6L411.3 19.6Q411.3 19.2 411.1 18.9Q411.0 18.6 410.6 18.5Q410.3 18.4 409.8 18.4L409.8 18.4L408.6 18.4ZM420.8 25L415.4 25L415.4 17.0L420.8 17.0L420.8 18.4L417.1 18.4L417.1 20.3L420.5 20.3L420.5 21.6L417.1 21.6L417.1 23.6L420.8 23.6L420.8 25ZM424.7 25L422.8 25L425.6 17.0L427.7 17.0L430.5 25L428.7 25L428.1 23.1L425.3 23.1L424.7 25ZM425.7 21.9L427.7 21.9L427.4 21.1Q427.2 20.4 427.0 19.5L427.0 19.5Q426.8 18.9 426.6 18.3L426.6 18.3Q426.5 18.9 426.3 19.5L426.3 19.5Q426.1 20.4 425.9 21.1L425.9 21.1L425.7 21.9ZM435.5 25L435.5 25L432.7 25L432.7 17.0L435.6 17.0Q436.8 17.0 437.6 17.5Q438.5 18.0 439.0 18.9Q439.4 19.7 439.4 21.0L439.4 21.0Q439.4 22.2 439.0 23.1Q438.5 24.0 437.6 24.5Q436.8 25 435.5 25ZM434.4 18.4L434.4 23.6L435.5 23.6Q436.2 23.6 436.8 23.3Q437.3 23.0 437.5 22.5Q437.8 21.9 437.8 21.0L437.8 21.0Q437.8 20.1 437.5 19.5Q437.3 19.0 436.8 18.7Q436.2 18.4 435.5 18.4L435.5 18.4L434.4 18.4ZM443.5 25L441.9 25L441.9 17.0L444.4 17.0L445.7 20.7Q445.8 20.9 445.9 21.3Q446.0 21.7 446.1 22.2L446.1 22.2Q446.2 22.7 446.3 23.1L446.3 23.1Q446.4 22.7 446.5 22.2L446.5 22.2Q446.6 21.8 446.7 21.3Q446.8 20.9 446.9 20.7L446.9 20.7L448.1 17.0L450.7 17.0L450.7 25L449.0 25L449.0 21.2Q449.0 21.0 449.0 20.6Q449.0 20.2 449.0 19.7Q449.1 19.3 449.1 18.8L449.1 18.8Q449.1 18.6 449.1 18.4L449.1 18.4Q449.0 18.6 449.0 18.9L449.0 18.9Q448.8 19.3 448.7 19.8Q448.6 20.2 448.5 20.6Q448.4 21.0 448.3 21.2L448.3 21.2L447.0 25L445.6 25L444.2 21.2Q444.1 21.0 444.0 20.6Q443.9 20.2 443.8 19.8Q443.7 19.4 443.5 18.9L443.5 18.9Q443.5 18.7 443.4 18.5L443.4 18.5Q443.4 18.6 443.4 18.8L443.4 18.8Q443.4 19.2 443.5 19.7Q443.5 20.2 443.5 20.6Q443.5 21.0 443.5 21.2L443.5 21.2L443.5 25ZM458.7 25L453.3 25L453.3 17.0L458.7 17.0L458.7 18.4L454.9 18.4L454.9 20.3L458.4 20.3L458.4 21.6L454.9 21.6L454.9 23.6L458.7 23.6L458.7 25ZM461.2 21.1L464.9 21.1L464.9 22.4L461.2 22.4L461.2 21.1ZM468.9 25L467.1 25L469.8 17.0L472.0 17.0L474.8 25L472.9 25L472.3 23.1L469.5 23.1L468.9 25ZM469.9 21.9L471.9 21.9L471.7 21.1Q471.4 20.4 471.2 19.5L471.2 19.5Q471.0 18.9 470.9 18.3L470.9 18.3Q470.7 18.9 470.6 19.5L470.6 19.5Q470.3 20.4 470.1 21.1L470.1 21.1L469.9 21.9ZM480.2 25.1L480.2 25.1Q479.3 25.1 478.5 24.7Q477.8 24.4 477.4 23.7Q477.0 23.1 477.0 22.2L477.0 22.2L477.0 17.0L478.6 17.0L478.6 22.1Q478.6 22.5 478.8 22.9Q479.0 23.2 479.4 23.5Q479.7 23.7 480.2 23.7L480.2 23.7Q480.8 23.7 481.1 23.5Q481.5 23.2 481.7 22.9Q481.9 22.5 481.9 22.1L481.9 22.1L481.9 17.0L483.6 17.0L483.6 22.2Q483.6 23.1 483.1 23.7Q482.7 24.4 482.0 24.7Q481.2 25.1 480.2 25.1ZM487.8 25L486.2 25L486.2 17.0L489.3 17.0Q490.2 17.0 490.9 17.3Q491.5 17.6 491.8 18.2Q492.2 18.8 492.2 19.6Q492.2 20.4 491.8 21.0Q491.5 21.5 490.9 21.8L490.9 21.8Q490.8 21.9 490.8 21.9L490.8 21.9L492.5 25L490.7 25L489.1 22.1L487.8 22.1L487.8 25ZM487.8 18.4L487.8 20.8L489.0 20.8Q489.5 20.8 489.8 20.7Q490.2 20.5 490.3 20.3Q490.5 20.0 490.5 19.6L490.5 19.6Q490.5 19.2 490.3 18.9Q490.2 18.6 489.8 18.5Q489.5 18.4 489.0 18.4L489.0 18.4L487.8 18.4ZM496.0 25L494.2 25L496.9 17.0L499.0 17.0L501.9 25L500.0 25L499.4 23.1L496.6 23.1L496.0 25ZM497.0 21.9L499.0 21.9L498.7 21.1Q498.5 20.4 498.3 19.5L498.3 19.5Q498.1 18.9 498.0 18.3L498.0 18.3Q497.8 18.9 497.7 19.5L497.7 19.5Q497.4 20.4 497.2 21.1L497.2 21.1L497.0 21.9Z M510.8 25.1L510.8 25.1Q509.8 25.1 509.1 24.6Q508.4 24.1 508.0 23.2Q507.6 22.3 507.6 21.0L507.6 21.0Q507.6 19.7 508.0 18.8Q508.4 17.9 509.1 17.4Q509.8 16.9 510.8 16.9L510.8 16.9Q511.8 16.9 512.6 17.4Q513.3 17.9 513.6 18.8Q514.0 19.7 514.0 21.0L514.0 21.0Q514.0 22.3 513.7 23.2Q513.3 24.1 512.6 24.6Q511.8 25.1 510.8 25.1ZM510.8 23.7L510.8 23.7Q511.3 23.7 511.7 23.4Q512.0 23.1 512.2 22.5Q512.4 21.9 512.4 21.0L512.4 21.0Q512.4 20.1 512.2 19.5Q512.0 18.9 511.7 18.6Q511.3 18.2 510.8 18.2L510.8 18.2Q510.3 18.2 510.0 18.6Q509.6 18.9 509.5 19.5Q509.3 20.1 509.3 21.0L509.3 21.0Q509.3 21.9 509.5 22.5Q509.6 23.1 510.0 23.4Q510.3 23.7 510.8 23.7ZM517.3 25.1L517.3 25.1Q516.9 25.1 516.6 24.8Q516.3 24.6 516.3 24.2L516.3 24.2Q516.3 23.8 516.6 23.5Q516.9 23.3 517.3 23.3L517.3 23.3Q517.6 23.3 517.9 23.5Q518.2 23.8 518.2 24.2L518.2 24.2Q518.2 24.6 517.9 24.8Q517.6 25.1 517.3 25.1ZM524.7 23.6L520.8 23.6L520.8 22.3L524.2 17.0L526.2 17.0L526.2 22.3L527.2 22.3L527.2 23.6L526.2 23.6L526.2 25L524.7 25L524.7 23.6ZM522.5 22.3L524.7 22.3L524.7 18.8L524.6 18.8L522.5 22.2L522.5 22.3ZM530.4 25.1L530.4 25.1Q530.0 25.1 529.7 24.8Q529.5 24.6 529.5 24.2L529.5 24.2Q529.5 23.8 529.7 23.5Q530.0 23.3 530.4 23.3L530.4 23.3Q530.8 23.3 531.1 23.5Q531.3 23.8 531.3 24.2L531.3 24.2Q531.3 24.6 531.1 24.8Q530.8 25.1 530.4 25.1ZM536.7 25.1L536.7 25.1Q535.9 25.1 535.3 24.8Q534.6 24.5 534.3 24.0Q533.9 23.4 533.9 22.8L533.9 22.8L535.5 22.8Q535.5 23.1 535.7 23.3Q535.8 23.5 536.1 23.7Q536.4 23.8 536.7 23.8L536.7 23.8Q537.1 23.8 537.4 23.6Q537.8 23.4 537.9 23.1Q538.1 22.8 538.1 22.4L538.1 22.4Q538.1 22.0 537.9 21.6Q537.7 21.3 537.4 21.1Q537.1 20.9 536.7 20.9L536.7 20.9Q536.3 20.9 536.0 21.1Q535.7 21.2 535.5 21.5L535.5 21.5L534.0 21.2L534.4 17.0L539.3 17.0L539.3 18.4L535.8 18.4L535.6 20.4L535.6 20.4Q535.8 20.1 536.2 19.9Q536.7 19.7 537.2 19.7L537.2 19.7Q537.7 19.7 538.2 19.9Q538.6 20.1 539.0 20.4Q539.3 20.8 539.5 21.3Q539.7 21.8 539.7 22.3L539.7 22.3Q539.7 23.1 539.3 23.8Q539.0 24.4 538.3 24.8Q537.6 25.1 536.7 25.1Z "/></g></svg>