<!-- Generated by readme-aura https://github.com/collectioneur/readme-aura -->
<svg width="860" height="140" viewBox="0 0 860 140" xmlns="http://www.w3.org/2000/svg"><defs><clipPath id="satori_bc-id"><path x="0" y="0" width="860" height="140" d="M16,0 h828 a16,16 0 0 1 16,16 v108 a16,16 0 0 1 -16,16 h-828 a16,16 0 0 1 -16,-16 v-108 a16,16 0 0 1 16,-16"/></clipPath></defs><clipPath id="satori_cp-id"><path x="0" y="0" width="860" height="140" d="M16,0 h828 a16,16 0 0 1 16,16 v108 a16,16 0 0 1 -16,16 h-828 a16,16 0 0 1 -16,-16 v-108 a16,16 0 0 1 16,-16"/></clipPath><mask id="satori_om-id"><rect x="1" y="1" width="858" height="138" fill="#fff"/><path width="860" height="140" fill="none" stroke="#000" stroke-width="2" d="M4.686,4.686 A16,16 0 0 1 16,0 h828 a16,16 0 0 1 16,16 v108 a16,16 0 0 1 -16,16 h-828 a16,16 0 0 1 -16,-16 v-108 A16,16 0 0 1 4.686,4.686"/></mask><path x="0" y="0" width="860" height="140" fill="#08080c" d="M16,0 h828 a16,16 0 0 1 16,16 v108 a16,16 0 0 1 -16,16 h-828 a16,16 0 0 1 -16,-16 v-108 a16,16 0 0 1 16,-16"/><path width="860" height="140" clip-path="url(#satori_bc-id)" fill="none" stroke="rgba(110,80,220,0.18)" stroke-width="2" d="M4.686,4.686 A16,16 0 0 1 16,0 h828 a16,16 0 0 1 16,16 v108 a16,16 0 0 1 -16,16 h-828 a16,16 0 0 1 -16,-16 v-108 A16,16 0 0 1 4.686,4.686"/><clipPath id="satori_cp-id-0" clip-path="url(#satori_cp-id)"><rect x="1" y="1" width="860" height="140"/></clipPath><mask id="satori_om-id-0"><rect x="1" y="1" width="860" height="140" fill="#fff" mask="url(#satori_om-id)"/></mask><svg x="1" y="1" width="860" height="140" preserveAspectRatio="none" clip-path="url(#satori_cp-id-0)" mask="url(#satori_om-id-0)"><defs><radialGradient id="g1" cx="50%" cy="50%" r="50%"><stop offset="0%" stop-color="rgba(110,20,210,0.65)"></stop><stop offset="45%" stop-color="rgba(80,15,170,0.28)"></stop><stop offset="70%" stop-color="rgba(80,15,170,0)"></stop></radialGradient><radialGradient id="g2" cx="50%" cy="50%" r="50%"><stop offset="0%" stop-color="rgba(40,70,255,0.55)"></stop><stop offset="45%" stop-color="rgba(20,50,200,0.22)"></stop><stop offset="70%" stop-color="rgba(20,50,200,0)"></stop></radialGradient><radialGradient id="g3" cx="50%" cy="50%" r="50%"><stop offset="0%" stop-color="rgba(0,140,255,0.42)"></stop><stop offset="70%" stop-color="rgba(0,140,255,0)"></stop></radialGradient><radialGradient id="g4" cx="50%" cy="50%" r="50%"><stop offset="0%" stop-color="rgba(0,195,235,0.30)"></stop><stop offset="70%" stop-color="rgba(0,195,235,0)"></stop></radialGradient><radialGradient id="g5" cx="50%" cy="50%" r="50%"><stop offset="0%" stop-color="rgba(100,30,210,0.40)"></stop><stop offset="70%" stop-color="rgba(100,30,210,0)"></stop></radialGradient></defs><ellipse id="glow-1" cx="710" cy="150" rx="210" ry="150" fill="url(#g1)"></ellipse><ellipse id="glow-2" cx="550" cy="140" rx="190" ry="140" fill="url(#g2)"></ellipse><ellipse id="glow-3" cx="400" cy="130" rx="170" ry="130" fill="url(#g3)"></ellipse><ellipse id="glow-4" cx="250" cy="140" rx="150" ry="120" fill="url(#g4)"></ellipse><ellipse id="glow-5" cx="100" cy="150" rx="130" ry="110" fill="url(#g5)"></ellipse><style>

         @keyframes float-slow {
           0%, 100% { transform: translateX(0px); opacity: 0.8; }
           50% { transform: translateX(350px); opacity: 1.2; }
         }
         @keyframes float-medium {
           0%, 100% { transform: translateX(0px); opacity: 0.7; }
           50% { transform: translateX(-250px); opacity: 1.1; }
         }
         @keyframes float-fast {
           0%, 100% { transform: translateX(0px); opacity: 0.9; }
           50% { transform: translateX(200px); opacity: 0.6; }
         }
         @keyframes float-diagonal {
           0%, 100% { transform: translate(0px, 0px); opacity: 0.75; }
           50% { transform: translate(120px, 30px); opacity: 1.0; }
         }
         @keyframes float-wave {
           0%, 100% { transform: translateX(0px); opacity: 0.65; }
           33% { transform: translateX(-160px); opacity: 0.9; }
           66% { transform: translateX(80px); opacity: 1.0; }
         }
         @keyframes float-pulse {
           0%, 100% { transform: scale(1); opacity: 0.8; }
           50% { transform: scale(1.3); opacity: 0.4; }
         }
         #glow-1 { animation: float-slow 8s ease-in-out infinite; }
         #glow-2 { animation: float-medium 12s ease-in-out infinite; }
         #glow-3 { animation: float-fast 9s ease-in-out infinite; }
         #glow-4 { animation: float-diagonal 10s ease-in-out infinite; }
         #glow-5 { animation: float-wave 14s ease-in-out infinite; }
       
</style>
</svg><mask id="satori_om-id-0-0"><rect x="1" y="1" width="0" height="140" fill="#fff" mask="url(#satori_om-id)"/></mask><mask id="satori_om-id-0-0-0"><rect x="1" y="1" width="0" height="140" fill="#fff" mask="url(#satori_om-id)"/></mask><mask id="satori_om-id-0-0-0-0"><rect x="1" y="1" width="0" height="140" fill="#fff" mask="url(#satori_om-id)"/></mask><mask id="satori_om-id-0-0-0-1"><rect x="1" y="1" width="0" height="140" fill="#fff" mask="url(#satori_om-id)"/></mask><mask id="satori_om-id-0-0-0-2"><rect x="1" y="1" width="0" height="140" fill="#fff" mask="url(#satori_om-id)"/></mask><mask id="satori_om-id-0-0-1"><rect x="1" y="1" width="0" height="140" fill="#fff" mask="url(#satori_om-id)"/></mask><mask id="satori_om-id-0-0-1-0"><rect x="1" y="1" width="0" height="140" fill="#fff" mask="url(#satori_om-id)"/></mask><mask id="satori_om-id-0-0-1-1"><rect x="1" y="1" width="0" height="140" fill="#fff" mask="url(#satori_om-id)"/></mask><mask id="satori_om-id-0-0-1-2"><rect x="1" y="1" width="0" height="140" fill="#fff" mask="url(#satori_om-id)"/></mask><mask id="satori_om-id-0-0-2"><rect x="1" y="1" width="0" height="140" fill="#fff" mask="url(#satori_om-id)"/></mask><mask id="satori_om-id-0-0-2-0"><rect x="1" y="1" width="0" height="140" fill="#fff" mask="url(#satori_om-id)"/></mask><mask id="satori_om-id-0-0-2-1"><rect x="1" y="1" width="0" height="140" fill="#fff" mask="url(#satori_om-id)"/></mask><mask id="satori_om-id-0-0-3"><rect x="1" y="1" width="0" height="140" fill="#fff" mask="url(#satori_om-id)"/></mask><mask id="satori_om-id-0-0-3-0"><rect x="1" y="1" width="0" height="140" fill="#fff" mask="url(#satori_om-id)"/></mask><mask id="satori_om-id-0-0-3-1"><rect x="1" y="1" width="0" height="140" fill="#fff" mask="url(#satori_om-id)"/></mask><mask id="satori_om-id-0-0-4"><rect x="1" y="1" width="0" height="140" fill="#fff" mask="url(#satori_om-id)"/></mask><mask id="satori_om-id-0-0-4-0"><rect x="1" y="1" width="0" height="140" fill="#fff" mask="url(#satori_om-id)"/></mask><mask id="satori_om-id-0-0-4-1"><rect x="1" y="1" width="0" height="140" fill="#fff" mask="url(#satori_om-id)"/></mask><mask id="satori_om-id-0-1"><rect x="1" y="1" width="0" height="140" fill="#fff" mask="url(#satori_om-id)"/></mask><mask id="satori_om-id-0-2"><rect x="1" y="1" width="0" height="140" fill="#fff" mask="url(#satori_om-id)"/></mask><mask id="satori_om-id-0-3"><rect x="1" y="1" width="0" height="140" fill="#fff" mask="url(#satori_om-id)"/></mask><mask id="satori_om-id-0-4"><rect x="1" y="1" width="0" height="140" fill="#fff" mask="url(#satori_om-id)"/></mask><mask id="satori_om-id-0-5"><rect x="1" y="1" width="0" height="140" fill="#fff" mask="url(#satori_om-id)"/></mask><defs><clipPath id="satori_bc-id-1" clip-path="url(#satori_cp-id)"><rect x="1" y="30" width="268" height="80"/></clipPath></defs><mask id="satori_om-id-1"><rect x="1" y="30" width="267" height="80" fill="#fff" mask="url(#satori_om-id)"/><path width="268" height="80" fill="none" stroke="#000" stroke-width="2" d="M269,30 A0,0 0 0 1 269,30 v80 A0,0 0 0 1 269,110"/></mask><path width="268" height="80" clip-path="url(#satori_bc-id-1)" fill="none" stroke="rgba(255,255,255,0.06)" stroke-width="2" d="M269,30 A0,0 0 0 1 269,30 v80 A0,0 0 0 1 269,110"/><mask id="satori_om-id-1-0"><rect x="115" y="46" width="39" height="30" fill="#fff" mask="url(#satori_om-id)"/></mask><g mask="url(#satori_om-id)" clip-path="url(#satori_cp-id)"><path fill="#a78bfa" d="M124.7 72.3L124.7 72.3Q122.3 72.3 120.4 71.5Q118.6 70.7 117.5 69.2Q116.5 67.8 116.5 65.9L116.5 65.9L120.9 65.9Q121.0 66.7 121.5 67.3Q122.0 67.9 122.8 68.3Q123.6 68.6 124.7 68.6L124.7 68.6Q125.8 68.6 126.6 68.2Q127.4 67.8 127.9 67.2Q128.3 66.5 128.3 65.6L128.3 65.6Q128.3 64.7 127.8 64.0Q127.3 63.3 126.4 62.9Q125.5 62.5 124.3 62.5L124.3 62.5L122.2 62.5L122.2 59.2L124.3 59.2Q125.3 59.2 126.1 58.8Q126.9 58.5 127.4 57.8Q127.9 57.2 127.9 56.3L127.9 56.3Q127.9 55.4 127.5 54.8Q127.1 54.2 126.4 53.8Q125.6 53.5 124.7 53.5L124.7 53.5Q123.7 53.5 123.0 53.8Q122.2 54.1 121.7 54.8Q121.2 55.4 121.2 56.2L121.2 56.2L116.9 56.2Q116.9 54.4 117.9 52.9Q119.0 51.5 120.7 50.7Q122.5 49.9 124.7 49.9L124.7 49.9Q127.0 49.9 128.7 50.7Q130.3 51.5 131.3 52.9Q132.2 54.3 132.2 56.0L132.2 56.0Q132.2 57.8 131.1 59.1Q129.9 60.3 128.1 60.6L128.1 60.6L128.1 60.8Q129.7 61.0 130.8 61.7Q131.9 62.4 132.4 63.5Q133.0 64.5 133.0 65.9L133.0 65.9Q133.0 67.7 131.9 69.2Q130.8 70.6 129.0 71.5Q127.1 72.3 124.7 72.3ZM151.6 72L136.2 72L136.2 68.8L143.9 61.5Q144.9 60.6 145.6 59.8Q146.3 59.0 146.6 58.2Q147.0 57.5 147.0 56.6L147.0 56.6Q147.0 55.6 146.6 54.9Q146.1 54.2 145.4 53.8Q144.6 53.5 143.6 53.5L143.6 53.5Q142.6 53.5 141.8 53.9Q141.1 54.3 140.7 55.0Q140.3 55.8 140.3 56.9L140.3 56.9L136.0 56.9Q136.0 54.7 137.0 53.2Q137.9 51.6 139.7 50.7Q141.4 49.9 143.6 49.9L143.6 49.9Q146.0 49.9 147.7 50.7Q149.4 51.5 150.4 53.0Q151.3 54.4 151.3 56.3L151.3 56.3Q151.3 57.5 150.9 58.7Q150.4 59.9 149.2 61.4Q147.9 62.9 145.7 64.9L145.7 64.9L142.4 68.2L142.4 68.3L151.6 68.3L151.6 72Z "/></g><mask id="satori_om-id-1-1"><rect x="112" y="81" width="45" height="13" fill="#fff" mask="url(#satori_om-id)"/></mask><g mask="url(#satori_om-id)" clip-path="url(#satori_cp-id)"><path fill="rgba(200,195,225,0.45)" d="M114.4 92L112.7 92L112.7 84.0L115.8 84.0Q116.8 84.0 117.4 84.3Q118.0 84.6 118.4 85.2Q118.7 85.8 118.7 86.6Q118.7 87.4 118.4 88.0Q118.0 88.5 117.4 88.8L117.4 88.8Q117.3 88.9 117.3 88.9L117.3 88.9L119.0 92L117.2 92L115.6 89.1L114.4 89.1L114.4 92ZM114.4 85.4L114.4 87.8L115.5 87.8Q116.0 87.8 116.4 87.7Q116.7 87.5 116.9 87.3Q117.0 87.0 117.0 86.6L117.0 86.6Q117.0 86.2 116.9 85.9Q116.7 85.6 116.4 85.5Q116.0 85.4 115.5 85.4L115.5 85.4L114.4 85.4ZM126.8 92L121.4 92L121.4 84.0L126.8 84.0L126.8 85.4L123.1 85.4L123.1 87.3L126.5 87.3L126.5 88.6L123.1 88.6L123.1 90.6L126.8 90.6L126.8 92ZM131.3 92L129.6 92L129.6 84.0L132.8 84.0Q133.7 84.0 134.3 84.3Q134.9 84.7 135.3 85.3Q135.6 85.9 135.6 86.7L135.6 86.7Q135.6 87.5 135.3 88.1Q134.9 88.7 134.3 89.0Q133.6 89.4 132.7 89.4L132.7 89.4L131.3 89.4L131.3 92ZM131.3 85.4L131.3 88.1L132.5 88.1Q133.0 88.1 133.3 87.9Q133.6 87.7 133.8 87.4Q133.9 87.1 133.9 86.7Q133.9 86.3 133.8 86.0Q133.6 85.7 133.3 85.5Q133.0 85.4 132.4 85.4L132.4 85.4L131.3 85.4ZM141.8 92.1L141.8 92.1Q140.7 92.1 139.9 91.6Q139.0 91.1 138.5 90.2Q138.0 89.3 138.0 88.0L138.0 88.0Q138.0 86.7 138.5 85.8Q139.0 84.9 139.9 84.4Q140.7 83.9 141.8 83.9L141.8 83.9Q142.8 83.9 143.7 84.4Q144.5 84.9 145.0 85.8Q145.5 86.7 145.5 88.0L145.5 88.0Q145.5 89.3 145.0 90.2Q144.5 91.1 143.7 91.6Q142.8 92.1 141.8 92.1ZM141.8 90.7L141.8 90.7Q142.4 90.7 142.9 90.3Q143.3 90.0 143.6 89.5Q143.8 88.9 143.8 88.0L143.8 88.0Q143.8 87.1 143.6 86.5Q143.3 86.0 142.9 85.6Q142.4 85.3 141.8 85.3L141.8 85.3Q141.2 85.3 140.7 85.7Q140.2 86.0 140.0 86.6Q139.7 87.1 139.7 88.0L139.7 88.0Q139.7 88.9 140.0 89.4Q140.2 90.0 140.7 90.3Q141.2 90.7 141.8 90.7ZM151.2 92.1L151.2 92.1Q150.2 92.1 149.5 91.8Q148.8 91.5 148.4 90.9Q148.0 90.4 148.0 89.5L148.0 89.5L149.6 89.5Q149.6 89.9 149.8 90.2Q150.0 90.5 150.4 90.6Q150.7 90.7 151.2 90.7L151.2 90.7Q151.6 90.7 151.9 90.6Q152.2 90.5 152.4 90.2Q152.6 90.0 152.6 89.7L152.6 89.7Q152.6 89.4 152.4 89.3Q152.3 89.1 152.0 88.9Q151.7 88.8 151.2 88.7L151.2 88.7L150.3 88.5Q149.3 88.2 148.8 87.7Q148.2 87.2 148.2 86.3L148.2 86.3Q148.2 85.6 148.6 85.0Q149.0 84.5 149.6 84.2Q150.3 83.9 151.2 83.9L151.2 83.9Q152.1 83.9 152.7 84.2Q153.4 84.5 153.8 85.0Q154.1 85.6 154.1 86.3L154.1 86.3L152.6 86.3Q152.5 85.8 152.2 85.5Q151.8 85.3 151.2 85.3L151.2 85.3Q150.8 85.3 150.5 85.4Q150.2 85.5 150.0 85.7Q149.9 85.9 149.9 86.2L149.9 86.2Q149.9 86.5 150.0 86.7Q150.2 86.9 150.5 87.0Q150.8 87.1 151.1 87.2L151.1 87.2L151.9 87.4Q152.4 87.5 152.8 87.7Q153.2 87.9 153.6 88.2Q153.9 88.4 154.1 88.8Q154.3 89.2 154.3 89.7L154.3 89.7Q154.3 90.4 153.9 91.0Q153.5 91.5 152.8 91.8Q152.1 92.1 151.2 92.1Z "/></g><defs><clipPath id="satori_bc-id-2" clip-path="url(#satori_cp-id)"><rect x="269" y="30" width="267" height="80"/></clipPath></defs><mask id="satori_om-id-2"><rect x="269" y="30" width="266" height="80" fill="#fff" mask="url(#satori_om-id)"/><path width="267" height="80" fill="none" stroke="#000" stroke-width="2" d="M536,30 A0,0 0 0 1 536,30 v80 A0,0 0 0 1 536,110"/></mask><path width="267" height="80" clip-path="url(#satori_bc-id-2)" fill="none" stroke="rgba(255,255,255,0.06)" stroke-width="2" d="M536,30 A0,0 0 0 1 536,30 v80 A0,0 0 0 1 536,110"/><mask id="satori_om-id-2-0"><rect x="392" y="46" width="21" height="30" fill="#fff" mask="url(#satori_om-id)"/></mask><g mask="url(#satori_om-id)" clip-path="url(#satori_cp-id)"><path fill="#60a5fa" d="M403.9 68.1L393.5 68.1L393.5 64.6L402.6 50.2L408.2 50.2L408.2 64.5L410.9 64.5L410.9 68.1L408.2 68.1L408.2 72L403.9 72L403.9 68.1ZM398.0 64.5L404.0 64.5L404.0 55.1L403.8 55.1L398.0 64.3L398.0 64.5Z "/></g><mask id="satori_om-id-2-1"><rect x="380" y="81" width="45" height="13" fill="#fff" mask="url(#satori_om-id)"/></mask><g mask="url(#satori_om-id)" clip-path="url(#satori_cp-id)"><path fill="rgba(200,195,225,0.45)" d="M383.7 92.1L383.7 92.1Q382.7 92.1 382.0 91.8Q381.3 91.5 380.9 90.9Q380.5 90.4 380.5 89.5L380.5 89.5L382.1 89.5Q382.1 89.9 382.3 90.2Q382.5 90.5 382.9 90.6Q383.2 90.7 383.6 90.7L383.6 90.7Q384.1 90.7 384.4 90.6Q384.7 90.5 384.9 90.2Q385.1 90.0 385.1 89.7L385.1 89.7Q385.1 89.4 384.9 89.3Q384.8 89.1 384.5 88.9Q384.2 88.8 383.7 88.7L383.7 88.7L382.8 88.5Q381.8 88.2 381.2 87.7Q380.7 87.2 380.7 86.3L380.7 86.3Q380.7 85.6 381.1 85.0Q381.5 84.5 382.1 84.2Q382.8 83.9 383.7 83.9L383.7 83.9Q384.6 83.9 385.2 84.2Q385.9 84.5 386.3 85.0Q386.6 85.6 386.6 86.3L386.6 86.3L385.1 86.3Q385.0 85.8 384.6 85.5Q384.3 85.3 383.7 85.3L383.7 85.3Q383.2 85.3 383.0 85.4Q382.7 85.5 382.5 85.7Q382.4 85.9 382.4 86.2L382.4 86.2Q382.4 86.5 382.5 86.7Q382.7 86.9 383.0 87.0Q383.3 87.1 383.6 87.2L383.6 87.2L384.4 87.4Q384.9 87.5 385.3 87.7Q385.7 87.9 386.1 88.2Q386.4 88.4 386.6 88.8Q386.7 89.2 386.7 89.7L386.7 89.7Q386.7 90.4 386.4 91.0Q386.0 91.5 385.3 91.8Q384.6 92.1 383.7 92.1ZM391.6 85.4L389.1 85.4L389.1 84.0L395.6 84.0L395.6 85.4L393.2 85.4L393.2 92L391.6 92L391.6 85.4ZM399.6 92L397.8 92L400.5 84.0L402.7 84.0L405.5 92L403.7 92L403.1 90.1L400.2 90.1L399.6 92ZM400.6 88.9L402.6 88.9L402.4 88.1Q402.2 87.4 401.9 86.5L401.9 86.5Q401.8 85.9 401.6 85.3L401.6 85.3Q401.4 85.9 401.3 86.5L401.3 86.5Q401.1 87.4 400.9 88.1L400.9 88.1L400.6 88.9ZM409.6 92L408.0 92L408.0 84.0L411.1 84.0Q412.0 84.0 412.7 84.3Q413.3 84.6 413.6 85.2Q414.0 85.8 414.0 86.6Q414.0 87.4 413.6 88.0Q413.3 88.5 412.6 88.8L412.6 88.8Q412.6 88.9 412.5 88.9L412.5 88.9L414.3 92L412.4 92L410.9 89.1L409.6 89.1L409.6 92ZM409.6 85.4L409.6 87.8L410.8 87.8Q411.3 87.8 411.6 87.7Q412.0 87.5 412.1 87.3Q412.3 87.0 412.3 86.6L412.3 86.6Q412.3 86.2 412.1 85.9Q412.0 85.6 411.6 85.5Q411.3 85.4 410.8 85.4L410.8 85.4L409.6 85.4ZM419.6 92.1L419.6 92.1Q418.7 92.1 418.0 91.8Q417.3 91.5 416.9 90.9Q416.5 90.4 416.4 89.5L416.4 89.5L418.0 89.5Q418.1 89.9 418.3 90.2Q418.5 90.5 418.8 90.6Q419.2 90.7 419.6 90.7L419.6 90.7Q420.1 90.7 420.4 90.6Q420.7 90.5 420.9 90.2Q421.1 90.0 421.1 89.7L421.1 89.7Q421.1 89.4 420.9 89.3Q420.8 89.1 420.4 88.9Q420.1 88.8 419.7 88.7L419.7 88.7L418.8 88.5Q417.8 88.2 417.2 87.7Q416.7 87.2 416.7 86.3L416.7 86.3Q416.7 85.6 417.0 85.0Q417.4 84.5 418.1 84.2Q418.8 83.9 419.7 83.9L419.7 83.9Q420.5 83.9 421.2 84.2Q421.9 84.5 422.2 85.0Q422.6 85.6 422.6 86.3L422.6 86.3L421.0 86.3Q421.0 85.8 420.6 85.5Q420.3 85.3 419.6 85.3L419.6 85.3Q419.2 85.3 418.9 85.4Q418.6 85.5 418.5 85.7Q418.3 85.9 418.3 86.2L418.3 86.2Q418.3 86.5 418.5 86.7Q418.7 86.9 419.0 87.0Q419.3 87.1 419.6 87.2L419.6 87.2L420.3 87.4Q420.8 87.5 421.3 87.7Q421.7 87.9 422.0 88.2Q422.4 88.4 422.5 88.8Q422.7 89.2 422.7 89.7L422.7 89.7Q422.7 90.4 422.4 91.0Q422.0 91.5 421.3 91.8Q420.6 92.1 419.6 92.1Z "/></g><mask id="satori_om-id-3"><rect x="536" y="30" width="323" height="80" fill="#fff" mask="url(#satori_om-id)"/></mask><mask id="satori_om-id-3-0"><rect x="647" y="46" width="101" height="30" fill="#fff" mask="url(#satori_om-id)"/></mask><g mask="url(#satori_om-id)" clip-path="url(#satori_cp-id)"><path fill="#f59e0b" d="M657.0 72.3L657.0 72.3Q655.4 72.3 653.8 71.7Q652.3 71.2 651.0 69.9Q649.8 68.7 649.1 66.7Q648.4 64.6 648.4 61.6L648.4 61.6Q648.4 58.8 649.0 56.7Q649.6 54.5 650.8 53.0Q651.9 51.5 653.5 50.7Q655.2 49.9 657.2 49.9L657.2 49.9Q659.3 49.9 661.0 50.7Q662.6 51.6 663.7 53.0Q664.7 54.4 664.9 56.2L664.9 56.2L660.5 56.2Q660.2 55.1 659.3 54.4Q658.5 53.7 657.2 53.7L657.2 53.7Q655.7 53.7 654.8 54.6Q653.8 55.4 653.3 57.0Q652.8 58.6 652.8 60.7L652.8 60.7L652.9 60.7Q653.4 59.8 654.2 59.1Q655.1 58.4 656.1 58.0Q657.2 57.7 658.4 57.7L658.4 57.7Q660.3 57.7 661.8 58.6Q663.4 59.5 664.2 61.1Q665.1 62.7 665.1 64.7L665.1 64.7Q665.1 66.9 664.1 68.6Q663.1 70.3 661.3 71.3Q659.4 72.3 657.0 72.3ZM657.0 68.7L657.0 68.7Q658.1 68.7 658.9 68.2Q659.8 67.7 660.3 66.8Q660.8 65.9 660.8 64.8L660.8 64.8Q660.8 63.7 660.3 62.8Q659.8 62.0 659.0 61.4Q658.1 60.9 657.0 60.9L657.0 60.9Q656.2 60.9 655.5 61.2Q654.8 61.5 654.3 62.1Q653.8 62.6 653.5 63.3Q653.2 64.0 653.2 64.8L653.2 64.8Q653.2 65.9 653.7 66.8Q654.2 67.7 655.0 68.2Q655.9 68.7 657.0 68.7ZM676.6 72.3L676.6 72.3Q673.8 72.3 671.9 71.0Q669.9 69.6 668.9 67.1Q667.9 64.6 667.9 61.1L667.9 61.1Q667.9 57.6 668.9 55.1Q669.9 52.5 671.9 51.2Q673.8 49.9 676.6 49.9L676.6 49.9Q679.3 49.9 681.3 51.2Q683.3 52.6 684.3 55.1Q685.3 57.6 685.3 61.1L685.3 61.1Q685.3 64.6 684.3 67.1Q683.3 69.6 681.3 71.0Q679.4 72.3 676.6 72.3ZM676.6 68.6L676.6 68.6Q677.9 68.6 678.9 67.7Q679.8 66.8 680.3 65.2Q680.8 63.5 680.8 61.1L680.8 61.1Q680.8 58.7 680.3 57.0Q679.8 55.3 678.9 54.5Q677.9 53.6 676.6 53.6L676.6 53.6Q675.3 53.6 674.3 54.5Q673.4 55.3 672.9 57.0Q672.4 58.7 672.4 61.1L672.4 61.1Q672.4 63.5 672.9 65.2Q673.4 66.8 674.3 67.7Q675.3 68.6 676.6 68.6ZM698.6 68.1L688.2 68.1L688.2 64.6L697.3 50.2L702.9 50.2L702.9 64.5L705.7 64.5L705.7 68.1L702.9 68.1L702.9 72L698.6 72L698.6 68.1ZM692.7 64.5L698.7 64.5L698.7 55.1L698.5 55.1L692.7 64.3L692.7 64.5ZM718.9 68.1L708.5 68.1L708.5 64.6L717.6 50.2L723.2 50.2L723.2 64.5L725.9 64.5L725.9 68.1L723.2 68.1L723.2 72L718.9 72L718.9 68.1ZM713.0 64.5L719.0 64.5L719.0 55.1L718.8 55.1L713.0 64.3L713.0 64.5ZM737.4 72.3L737.4 72.3Q734.6 72.3 732.7 71.0Q730.7 69.6 729.7 67.1Q728.7 64.6 728.7 61.1L728.7 61.1Q728.7 57.6 729.7 55.1Q730.7 52.5 732.7 51.2Q734.6 49.9 737.4 49.9L737.4 49.9Q740.1 49.9 742.1 51.2Q744.1 52.6 745.1 55.1Q746.1 57.6 746.1 61.1L746.1 61.1Q746.1 64.6 745.1 67.1Q744.1 69.6 742.1 71.0Q740.2 72.3 737.4 72.3ZM737.4 68.6L737.4 68.6Q738.7 68.6 739.7 67.7Q740.6 66.8 741.1 65.2Q741.6 63.5 741.6 61.1L741.6 61.1Q741.6 58.7 741.1 57.0Q740.6 55.3 739.7 54.5Q738.7 53.6 737.4 53.6L737.4 53.6Q736.1 53.6 735.1 54.5Q734.2 55.3 733.7 57.0Q733.2 58.7 733.2 61.1L733.2 61.1Q733.2 63.5 733.7 65.2Q734.2 66.8 735.1 67.7Q736.1 68.6 737.4 68.6Z "/></g><mask id="satori_om-id-3-1"><rect x="664" y="81" width="66" height="13" fill="#fff" mask="url(#satori_om-id)"/></mask><g mask="url(#satori_om-id)" clip-path="url(#satori_cp-id)"><path fill="rgba(200,195,225,0.45)" d="M668.2 92.1L668.2 92.1Q667.2 92.1 666.3 91.6Q665.5 91.1 665.0 90.2Q664.5 89.3 664.5 88.0L664.5 88.0Q664.5 86.7 665.0 85.8Q665.5 84.9 666.3 84.4Q667.2 83.9 668.2 83.9L668.2 83.9Q668.9 83.9 669.5 84.1Q670.1 84.3 670.5 84.6Q671.0 85.0 671.3 85.5Q671.6 86.1 671.7 86.7L671.7 86.7L670.0 86.7Q670.0 86.4 669.8 86.1Q669.6 85.9 669.4 85.7Q669.2 85.5 668.9 85.4Q668.6 85.3 668.3 85.3L668.3 85.3Q667.6 85.3 667.2 85.7Q666.7 86.0 666.4 86.6Q666.2 87.2 666.2 88.0L666.2 88.0Q666.2 88.9 666.4 89.5Q666.7 90.1 667.2 90.4Q667.6 90.7 668.2 90.7L668.2 90.7Q668.6 90.7 668.9 90.6Q669.2 90.5 669.4 90.3Q669.6 90.1 669.8 89.8Q670.0 89.6 670.0 89.3L670.0 89.3L671.7 89.3Q671.6 89.8 671.3 90.3Q671.1 90.8 670.6 91.2Q670.2 91.6 669.6 91.9Q669.0 92.1 668.2 92.1ZM677.9 92.1L677.9 92.1Q676.8 92.1 676.0 91.6Q675.1 91.1 674.6 90.2Q674.1 89.3 674.1 88.0L674.1 88.0Q674.1 86.7 674.6 85.8Q675.1 84.9 676.0 84.4Q676.8 83.9 677.9 83.9L677.9 83.9Q678.9 83.9 679.8 84.4Q680.6 84.9 681.1 85.8Q681.6 86.7 681.6 88.0L681.6 88.0Q681.6 89.3 681.1 90.2Q680.6 91.1 679.8 91.6Q678.9 92.1 677.9 92.1ZM677.9 90.7L677.9 90.7Q678.5 90.7 679.0 90.3Q679.4 90.0 679.7 89.5Q679.9 88.9 679.9 88.0L679.9 88.0Q679.9 87.1 679.7 86.5Q679.4 86.0 679.0 85.6Q678.5 85.3 677.9 85.3L677.9 85.3Q677.3 85.3 676.8 85.7Q676.3 86.0 676.1 86.6Q675.8 87.1 675.8 88.0L675.8 88.0Q675.8 88.9 676.1 89.4Q676.3 90.0 676.8 90.3Q677.3 90.7 677.9 90.7ZM686.0 92L684.3 92L684.3 84.0L686.9 84.0L688.2 87.7Q688.2 87.9 688.3 88.3Q688.4 88.7 688.5 89.2L688.5 89.2Q688.7 89.7 688.7 90.1L688.7 90.1Q688.8 89.7 688.9 89.2L688.9 89.2Q689.0 88.8 689.2 88.3Q689.3 87.9 689.3 87.7L689.3 87.7L690.6 84.0L693.1 84.0L693.1 92L691.5 92L691.5 88.2Q691.5 88.0 691.5 87.6Q691.5 87.2 691.5 86.7Q691.5 86.3 691.5 85.8L691.5 85.8Q691.6 85.6 691.6 85.4L691.6 85.4Q691.5 85.6 691.4 85.9L691.4 85.9Q691.3 86.3 691.2 86.8Q691.1 87.2 690.9 87.6Q690.8 88.0 690.8 88.2L690.8 88.2L689.4 92L688.0 92L686.7 88.2Q686.6 88.0 686.5 87.6Q686.4 87.2 686.3 86.8Q686.1 86.4 686.0 85.9L686.0 85.9Q686.0 85.7 685.9 85.5L685.9 85.5Q685.9 85.6 685.9 85.8L685.9 85.8Q685.9 86.2 685.9 86.7Q685.9 87.2 686.0 87.6Q686.0 88.0 686.0 88.2L686.0 88.2L686.0 92ZM697.7 92L696.1 92L696.1 84.0L698.6 84.0L699.9 87.7Q700.0 87.9 700.1 88.3Q700.2 88.7 700.3 89.2L700.3 89.2Q700.4 89.7 700.5 90.1L700.5 90.1Q700.6 89.7 700.7 89.2L700.7 89.2Q700.8 88.8 700.9 88.3Q701.0 87.9 701.1 87.7L701.1 87.7L702.4 84.0L704.9 84.0L704.9 92L703.2 92L703.2 88.2Q703.2 88.0 703.2 87.6Q703.3 87.2 703.3 86.7Q703.3 86.3 703.3 85.8L703.3 85.8Q703.3 85.6 703.3 85.4L703.3 85.4Q703.2 85.6 703.2 85.9L703.2 85.9Q703.1 86.3 702.9 86.8Q702.8 87.2 702.7 87.6Q702.6 88.0 702.5 88.2L702.5 88.2L701.2 92L699.8 92L698.4 88.2Q698.4 88.0 698.3 87.6Q698.1 87.2 698.0 86.8Q697.9 86.4 697.8 85.9L697.8 85.9Q697.7 85.7 697.7 85.5L697.7 85.5Q697.7 85.6 697.7 85.8L697.7 85.8Q697.7 86.2 697.7 86.7Q697.7 87.2 697.7 87.6Q697.7 88.0 697.7 88.2L697.7 88.2L697.7 92ZM707.8 84.0L709.5 84.0L709.5 92L707.8 92L707.8 84.0ZM714.5 85.4L712.1 85.4L712.1 84.0L718.6 84.0L718.6 85.4L716.2 85.4L716.2 92L714.5 92L714.5 85.4ZM724.2 92.1L724.2 92.1Q723.2 92.1 722.5 91.8Q721.8 91.5 721.4 90.9Q721.0 90.4 721.0 89.5L721.0 89.5L722.6 89.5Q722.6 89.9 722.8 90.2Q723.0 90.5 723.4 90.6Q723.7 90.7 724.2 90.7L724.2 90.7Q724.6 90.7 724.9 90.6Q725.3 90.5 725.5 90.2Q725.6 90.0 725.6 89.7L725.6 89.7Q725.6 89.4 725.5 89.3Q725.3 89.1 725.0 88.9Q724.7 88.8 724.3 88.7L724.3 88.7L723.4 88.5Q722.4 88.2 721.8 87.7Q721.2 87.2 721.2 86.3L721.2 86.3Q721.2 85.6 721.6 85.0Q722.0 84.5 722.7 84.2Q723.3 83.9 724.2 83.9L724.2 83.9Q725.1 83.9 725.8 84.2Q726.4 84.5 726.8 85.0Q727.2 85.6 727.2 86.3L727.2 86.3L725.6 86.3Q725.6 85.8 725.2 85.5Q724.8 85.3 724.2 85.3L724.2 85.3Q723.8 85.3 723.5 85.4Q723.2 85.5 723.0 85.7Q722.9 85.9 722.9 86.2L722.9 86.2Q722.9 86.5 723.1 86.7Q723.2 86.9 723.5 87.0Q723.8 87.1 724.2 87.2L724.2 87.2L724.9 87.4Q725.4 87.5 725.8 87.7Q726.3 87.9 726.6 88.2Q726.9 88.4 727.1 88.8Q727.3 89.2 727.3 89.7L727.3 89.7Q727.3 90.4 726.9 91.0Q726.6 91.5 725.9 91.8Q725.2 92.1 724.2 92.1Z "/></g></svg>